<?xml version="1.0" encoding="UTF-8"?>
<svg width="34px" height="34px" viewBox="0 0 34 34" version="1.1" xmlns="http://www.w3.org/2000/svg" xmlns:xlink="http://www.w3.org/1999/xlink">
    <!-- Generator: Sketch 46.1 (44463) - http://www.bohemiancoding.com/sketch -->
    <title>Shape</title>
    <desc>Created with Sketch.</desc>
    <defs></defs>
    <g id="Page-1" stroke="none" stroke-width="1" fill="none" fill-rule="evenodd">
        <path d="M31.3064559,7.27590008 C31.3740911,7.06900369 31.4079385,6.84488622 31.4079385,6.62070789 C31.4079385,5.49999883 30.5284424,4.56896507 29.4290276,4.55174399 C29.4121337,4.55174399 29.3951801,4.55174399 29.3782863,4.55174399 C29.3444388,4.55174399 29.2936975,4.55174399 29.2599098,4.55174399 C28.955462,4.56896507 28.667908,4.65519219 28.4142015,4.7931434 C28.3296127,4.82764641 28.2619775,4.87937051 28.1943424,4.91381267 C28.1604949,4.93103376 28.1267072,4.94831569 28.0928598,4.96553677 C27.5685528,5.17243316 27.0272923,5.37932955 26.469138,5.58622594 C25.5389006,4.89659159 24.4394857,4.37935062 23.1371057,4.08622711 C22.9848817,4.0517241 22.8326578,4 22.6804339,4 L21.2427835,4 C21.0736657,4 20.8875943,4.06894518 20.7184765,4.1034482 C19.5852739,4.41379278 18.4012703,4.84480664 17.318809,5.75861932 C15.8473112,7.01721874 14.9508615,8.62066577 14.6633673,10.4655122 C11.7034777,9.82760194 9.25094141,8.36204528 7.23824275,5.89657053 C6.84920617,5.43105365 6.2910518,5.20693618 5.68215613,5.20693618 L5.68215613,5.20693618 C5.09015433,5.20693618 4.5151061,5.44833558 4.12606952,5.91385246 C3.00976079,7.27590008 2.58693648,9.06902241 2.94212562,11.017317 C3.04360823,11.5517791 3.19583215,12.086302 3.39879737,12.6207641 C3.12819697,12.9311087 2.95901949,13.3103984 2.90827818,13.7241912 C2.67146552,15.6897069 3.36494994,17.5345533 4.85334168,19.0689943 C4.7857065,19.3621178 4.76875293,19.6551805 4.83644781,19.948304 C5.09015433,21.2931305 5.76668518,22.4482818 6.79846486,23.3448733 C6.17267532,23.4828246 5.49608478,23.5689908 4.7857065,23.5689908 C4.58274128,23.5689908 4.37977605,23.5689908 4.17681083,23.5517697 C4.12606952,23.5517697 4.07532822,23.5517697 4.02458691,23.5517697 C3.14509084,23.5517697 2.35012382,24.1379559 2.09641729,25.0000445 C1.80886332,25.9138571 2.18100603,26.9138361 2.99286692,27.396574 C3.0605021,27.4310771 3.12819697,27.4828012 3.19583215,27.5172433 C3.36494994,27.6206915 3.56791516,27.7413608 3.77088038,27.8620909 C6.37558085,29.2758626 9.1494588,30 11.9909719,30 C13.0396455,30 14.1052129,29.8965518 15.1707803,29.7068765 C18.638083,29.0861873 21.7333027,27.4655192 24.1350976,25.0689288 C26.5368925,22.6723384 28.2112959,19.4999473 28.9555216,15.9309846 C29.1246394,15.103399 29.1923343,14.2930346 29.2430756,13.5171731 C29.2599695,13.2240496 29.276923,12.948208 29.3107108,12.6723665 C30.1902069,11.8792839 30.9513264,11.0344164 31.6109634,10.0689405 C31.8477761,9.7240929 32,9.31030012 32,8.86206517 C31.9998806,8.22421577 31.7292802,7.6552507 31.3064559,7.27590008 Z M27.6699757,11.3793857 C27.500858,11.534558 27.3655279,11.8276815 27.3316805,12.0690201 C27.1963504,13.2069502 27.1963504,14.3793834 26.9595975,15.4828105 C25.5895822,21.9655438 21.0228647,26.5345463 14.7985779,27.6724765 C13.851387,27.8448698 12.9042557,27.9310969 11.9739587,27.9310969 C9.45378725,27.9310969 7.03515813,27.2931867 4.71795193,26.0345264 C4.48113927,25.9138571 4.26128018,25.7586849 4.02446752,25.6207336 C4.27817405,25.6379547 4.53188058,25.6552367 4.78558711,25.6552367 C7.81317159,25.6552367 10.570096,24.3449131 11.601816,23.2759282 C8.94637419,22.8621354 7.18732235,21.4655848 6.83213321,19.5862962 C7.52561762,19.5517931 8.21904234,19.500069 8.92942062,19.4656269 C6.10480136,18.0862973 4.6840448,16.1552846 4.93775133,13.9828725 C5.61428218,14.1552659 6.30776659,14.3277201 6.98429743,14.5001135 C4.75167998,12.0690809 4.17663174,9.03458025 5.68191735,7.22423684 C8.54032435,10.6897514 12.2106519,12.5345978 16.6927807,12.8449424 C16.6758869,12.7069912 16.6589333,12.6208249 16.6589333,12.5345978 C16.4390742,10.4656339 17.0310163,8.6897935 18.6378442,7.32768503 C19.3989638,6.67249284 20.3123073,6.41387236 21.2594982,6.06908561 C21.7330639,6.06908561 22.2235831,6.06908561 22.6971487,6.06908561 C23.91494,6.41393321 25.0143549,6.89667117 25.9445923,7.77598083 C25.9953336,7.81048384 26.0799223,7.86220794 26.1644513,7.86220794 C26.2151927,7.86220794 26.2828278,7.86220794 26.3166753,7.84498686 C27.1623836,7.53464227 28.0080322,7.22429769 28.8537406,6.89673202 C29.0059645,6.82778684 29.1581884,6.74155973 29.3950011,6.62089045 C28.9214354,7.89677181 28.1603158,8.79330255 27.1623836,9.50021883 C27.1792775,9.53472185 27.196231,9.58644595 27.2300188,9.62088811 C28.1264684,9.36226762 29.0398119,9.10364713 29.9869432,8.82780556 C29.3105914,9.81038086 28.5494718,10.6379664 27.6699757,11.3793857 Z" id="Shape" fill="#FFFFFF" fill-rule="nonzero"></path>
    </g>
</svg>