<?xml version="1.0" encoding="UTF-8"?>
<svg width="40px" height="40px" viewBox="0 0 40 40" version="1.1" xmlns="http://www.w3.org/2000/svg" xmlns:xlink="http://www.w3.org/1999/xlink">
    <!-- Generator: Sketch 46.1 (44463) - http://www.bohemiancoding.com/sketch -->
    <title>Combined Shape</title>
    <desc>Created with Sketch.</desc>
    <defs></defs>
    <g id="Page-1" stroke="none" stroke-width="1" fill="none" fill-rule="evenodd">
        <path d="M19.7226357,40 C18.6888857,40 17.7013857,39.56 17.0138857,38.7925 L16.2188857,37.91 C16.0463857,37.715 15.7838857,37.6 15.5126357,37.6 C15.3851357,37.6 15.2638857,37.62375 15.1513857,37.6725 L14.0588857,38.13875 C13.6063857,38.33375 13.1213857,38.4325 12.6201357,38.4325 C11.0026357,38.4325 9.56263573,37.3525 9.11638573,35.805 L8.78638573,34.66375 C8.67638573,34.27625 8.33138573,34.00625 7.92763573,33.98875 L6.73888573,33.94125 C5.69888573,33.89625 4.72388573,33.40375 4.06513573,32.59125 C3.41138573,31.7775 3.13388573,30.7225 3.30388573,29.695 L3.50513573,28.52125 C3.56763573,28.125 3.37388573,27.73 3.02013573,27.5425 L1.97263573,26.97875 C1.05388573,26.47875 0.390135727,25.6125 0.150135727,24.60125 C-0.0886142727,23.5875 0.120135727,22.51625 0.722635727,21.66 L1.40513573,20.68875 C1.64388573,20.3575 1.64138573,19.9175 1.40138573,19.59125 L0.701385727,18.635 C0.0863857273,17.79625 -0.139864273,16.7275 0.0851357273,15.7025 C0.308885727,14.685 0.960135727,13.80875 1.87263573,13.29875 L2.90888573,12.72 C3.26388573,12.5225 3.45138573,12.1225 3.37763573,11.72625 L3.16013573,10.56 C2.97263573,9.53375 3.23388573,8.475 3.87638573,7.655 C4.51513573,6.8375 5.48263573,6.33125 6.53013573,6.26875 L7.71013573,6.19625 C8.10888573,6.17375 8.45638573,5.8925 8.55888573,5.51125 L8.87388573,4.36875 C9.30138573,2.79125 10.7451357,1.6875 12.3863857,1.6875 C12.8463857,1.6875 13.3113857,1.78 13.7688857,1.9625 L14.8726357,2.41375 C14.9826357,2.45875 15.1001357,2.48125 15.2226357,2.48125 C15.4988857,2.48125 15.7676357,2.36125 15.9401357,2.16125 L16.7101357,1.255 C17.4101357,0.455 18.4126357,-3.55271368e-15 19.4663857,-3.55271368e-15 C20.4963857,-3.55271368e-15 21.4826357,0.4425 22.1751357,1.215 L22.9701357,2.09875 C23.1426357,2.29375 23.4063857,2.40875 23.6776357,2.40875 C23.8038857,2.40875 23.9251357,2.38375 24.0376357,2.33625 L25.1326357,1.87 C25.5838857,1.675 26.0676357,1.575 26.5701357,1.575 C28.1863857,1.575 29.6263857,2.65625 30.0738857,4.20375 L30.4026357,5.345 C30.5126357,5.73125 30.8588857,6.00125 31.2626357,6.01875 L32.4563857,6.05875 C33.4976357,6.10375 34.4726357,6.59625 35.1326357,7.40875 C35.7851357,8.22125 36.0626357,9.27625 35.8938857,10.305 L35.6913857,11.48 C35.6288857,11.88125 35.8188857,12.2675 36.1776357,12.45875 L37.2251357,13.0225 C38.1413857,13.5125 38.8051357,14.37875 39.0476357,15.39875 C39.2863857,16.4125 39.0788857,17.485 38.4738857,18.34 L37.7913857,19.31125 C37.5538857,19.6425 37.5563857,20.0825 37.7963857,20.41 L38.4901357,21.38625 C39.1038857,22.22125 39.3288857,23.29 39.1051357,24.31375 C38.8801357,25.33125 38.2301357,26.2075 37.3163857,26.71875 L36.2801357,27.2975 C35.9238857,27.49 35.7376357,27.885 35.8113857,28.28125 L36.0288857,29.4475 C36.2163857,30.47375 35.9551357,31.5325 35.3151357,32.3525 C34.6738857,33.17125 33.7063857,33.6775 32.6588857,33.74 L31.4763857,33.80375 C31.0813857,33.8275 30.7326357,34.10875 30.6301357,34.48875 L30.3151357,35.63125 C29.8888857,37.21 28.4451357,38.3125 26.8038857,38.3125 C26.3426357,38.3125 25.8776357,38.22 25.4201357,38.0375 L24.3176357,37.58625 C24.2063857,37.5425 24.0888857,37.51875 23.9676357,37.51875 C23.6913857,37.51875 23.4226357,37.63875 23.2476357,37.84 L22.4788857,38.74625 C21.7788857,39.545 20.7763857,40 19.7226357,40 Z M15.5038857,34.86875 C16.5388857,34.86875 17.5301357,35.31125 18.2213857,36.08375 L19.0163857,36.9675 C19.1976357,37.1725 19.4388857,37.28 19.7151357,37.28 C19.9951357,37.28 20.2463857,37.165 20.4251357,36.9575 L21.2063857,36.06375 C21.9026357,35.2675 22.9051357,34.8125 23.9588857,34.8125 C24.4188857,34.8125 24.8838857,34.905 25.3401357,35.0875 L26.4438857,35.53875 C26.5576357,35.58375 26.6801357,35.6075 26.8038857,35.6075 C27.2276357,35.6075 27.6001357,35.32375 27.7088857,34.91625 L28.0226357,33.77375 C28.4426357,32.2625 29.7713857,31.18875 31.3301357,31.1 L32.5126357,31.03625 C32.7813857,31.01875 33.0238857,30.89125 33.1913857,30.6775 C33.3601357,30.4625 33.4288857,30.19 33.3763857,29.93125 L33.1588857,28.7625 C32.8738857,27.225 33.6038857,25.67875 34.9738857,24.9175 L36.0101357,24.34 C36.2501357,24.205 36.4151357,23.985 36.4738857,23.7225 C36.5301357,23.4575 36.4788857,23.185 36.3301357,22.9575 L35.6426357,22.0175 C34.7176357,20.75375 34.7038857,19.04375 35.6063857,17.76375 L36.2901357,16.79125 C36.4463857,16.57 36.4976357,16.30125 36.4338857,16.03625 C36.3688857,15.76625 36.2026357,15.55 35.9626357,15.42375 L34.9126357,14.86 C33.5326357,14.12 32.7788857,12.58625 33.0376357,11.04375 L33.2313857,9.87125 C33.2763857,9.6025 33.2063857,9.33875 33.0338857,9.12625 C32.8676357,8.9125 32.6238857,8.79125 32.3488857,8.78 L31.1601357,8.7325 C29.5963857,8.66 28.2538857,7.605 27.8163857,6.10375 L27.4863857,4.9625 C27.3713857,4.565 27.0013857,4.2875 26.5863857,4.2875 C26.4538857,4.2875 26.3363857,4.31125 26.2163857,4.3625 L25.1238857,4.82875 C24.6701357,5.025 24.1863857,5.12375 23.6851357,5.12375 C22.6488857,5.12375 21.6588857,4.68125 20.9676357,3.90875 L20.1738857,3.025 C19.9913857,2.82 19.7501357,2.7125 19.4738857,2.7125 C19.1938857,2.7125 18.9438857,2.8275 18.7651357,3.035 L17.9826357,3.92875 C17.2863857,4.72375 16.2838857,5.18 15.2301357,5.18 C14.7701357,5.18 14.3051357,5.0875 13.8488857,4.905 L12.7451357,4.45375 C12.6313857,4.4075 12.5088857,4.38375 12.3863857,4.38375 C11.9613857,4.38375 11.5888857,4.66875 11.4801357,5.07625 L11.1663857,6.21875 C10.7463857,7.73 9.41763573,8.80375 7.85888573,8.8925 L6.68013573,8.965 C6.40763573,8.98125 6.16638573,9.10875 5.99638573,9.3225 C5.82763573,9.54 5.76263573,9.805 5.81388573,10.07 L6.01513573,11.22625 C6.30013573,12.75875 5.57138573,14.305 4.20013573,15.06625 L3.16388573,15.645 C2.92263573,15.78 2.75763573,15.99875 2.70013573,16.26125 C2.63638573,16.53125 2.69138573,16.79625 2.85388573,17.0175 L3.55513573,17.975 C4.48013573,19.23875 4.49388573,20.94875 3.59138573,22.23 L2.90638573,23.2025 C2.75013573,23.42125 2.69888573,23.69 2.76388573,23.9575 C2.82263573,24.2275 2.98638573,24.4425 3.22638573,24.5675 L4.27638573,25.1325 C5.65638573,25.8725 6.41013573,27.40625 6.15138573,28.95 L5.95888573,30.12125 C5.91263573,30.39 5.98263573,30.65375 6.15513573,30.86625 C6.32138573,31.07875 6.56388573,31.2 6.84013573,31.2125 L8.03013573,31.26125 C9.59388573,31.3325 10.9363857,32.3875 11.3738857,33.8875 L11.7026357,35.03 C11.8176357,35.4275 12.1888857,35.705 12.6026357,35.705 C12.7363857,35.705 12.8551357,35.68 12.9738857,35.63 L14.0663857,35.16375 C14.5201357,34.96875 15.0038857,34.86875 15.5038857,34.86875 Z M23.8056357,28.163 C23.3781357,28.163 22.9631357,28.04425 22.6043857,27.818 L19.5943857,25.9455 L16.5818857,27.81925 C16.2268857,28.04425 15.8106357,28.163 15.3843857,28.163 C14.6906357,28.163 14.0193857,27.83425 13.5906357,27.28175 C13.1581357,26.733 13.0068857,26.0255 13.1781357,25.343 L14.0231357,21.903 L11.3131357,19.61425 C10.6018857,19.008 10.3268857,18.04925 10.6131357,17.1705 C10.9018857,16.288 11.6843857,15.67425 12.6093857,15.60675 L16.1493857,15.3505 L17.4856357,12.0655 C17.8406357,11.20425 18.6681357,10.648 19.5943857,10.648 C20.5206357,10.648 21.3493857,11.20425 21.7018857,12.06425 L23.0406357,15.3505 L26.5806357,15.60675 C27.5056357,15.67425 28.2881357,16.288 28.5756357,17.1705 C28.8618857,18.05925 28.5881357,19.01925 27.8743857,19.6155 L25.1668857,21.903 L26.0118857,25.34425 C26.1831357,26.0255 26.0318857,26.733 25.5968857,27.28425 C25.1718857,27.83425 24.5018857,28.163 23.8056357,28.163 Z M16.4168857,20.36925 C16.8068857,20.6955 16.9806357,21.22925 16.8581357,21.72675 L16.0543857,24.97675 L18.8856357,23.208 C19.0943857,23.07425 19.3418857,23.00175 19.5956357,23.00175 C19.8481357,23.00175 20.0956357,23.073 20.3118857,23.208 L23.1356357,24.96425 L22.3393857,21.7355 C22.2181357,21.23675 22.3918857,20.703 22.7818857,20.37675 L25.3281357,18.228 L22.0118857,17.98925 C21.4993857,17.9555 21.0556357,17.63425 20.8543857,17.15175 L19.5943857,14.0655 L18.3443857,17.14175 C18.1431357,17.61925 17.6881357,17.948 17.1843857,17.9805 L13.8693857,18.2205 L16.4168857,20.36925 Z" id="Combined-Shape" fill="#FFFFFF"></path>
    </g>
</svg>