<?xml version="1.0" encoding="UTF-8"?>
<svg width="34px" height="34px" viewBox="0 0 34 34" version="1.1" xmlns="http://www.w3.org/2000/svg" xmlns:xlink="http://www.w3.org/1999/xlink">
    <!-- Generator: Sketch 46.1 (44463) - http://www.bohemiancoding.com/sketch -->
    <title>Combined Shape</title>
    <desc>Created with Sketch.</desc>
    <defs></defs>
    <g id="Page-1" stroke="none" stroke-width="1" fill="none" fill-rule="evenodd">
        <path d="M16.7642404,34 C15.8855529,34 15.0461779,33.626 14.4618029,32.973625 L13.7860529,32.2235 C13.6394279,32.05775 13.4163029,31.96 13.1857404,31.96 C13.0773654,31.96 12.9743029,31.9801875 12.8786779,32.021625 L11.9500529,32.4179375 C11.5654279,32.5836875 11.1531779,32.667625 10.7271154,32.667625 C9.35224037,32.667625 8.12824037,31.749625 7.74892787,30.43425 L7.46842787,29.4641875 C7.37492787,29.1348125 7.08167787,28.9053125 6.73849037,28.8904375 L5.72805287,28.8500625 C4.84405287,28.8118125 4.01530287,28.3931875 3.45536537,27.7025625 C2.89967787,27.010875 2.66380287,26.114125 2.80830287,25.24075 L2.97936537,24.2430625 C3.03249037,23.90625 2.86780287,23.5705 2.56711537,23.411125 L1.67674037,22.9319375 C0.895802868,22.5069375 0.331615368,21.770625 0.127615368,20.9110625 C-0.0753221318,20.049375 0.102115368,19.1388125 0.614240368,18.411 L1.19436537,17.5854375 C1.39730287,17.303875 1.39517787,16.929875 1.19117787,16.6525625 L0.596177868,15.83975 C0.0734278682,15.1268125 -0.118884632,14.218375 0.0723653682,13.347125 C0.262552868,12.48225 0.816115368,11.7374375 1.59174037,11.3039375 L2.47255287,10.812 C2.77430287,10.644125 2.93367787,10.304125 2.87099037,9.9673125 L2.68611537,8.976 C2.52674037,8.1036875 2.74880287,7.20375 3.29492787,6.50675 C3.83786537,5.811875 4.66024037,5.3815625 5.55061537,5.3284375 L6.55361537,5.2668125 C6.89255287,5.2476875 7.18792787,5.008625 7.27505287,4.6845625 L7.54280287,3.7134375 C7.90617787,2.3725625 9.13336537,1.434375 10.5284279,1.434375 C10.9194279,1.434375 11.3146779,1.513 11.7035529,1.668125 L12.6417404,2.0516875 C12.7352404,2.0899375 12.8351154,2.1090625 12.9392404,2.1090625 C13.1740529,2.1090625 13.4024904,2.0070625 13.5491154,1.8370625 L14.2036154,1.06675 C14.7986154,0.38675 15.6507404,-3.55271368e-15 16.5464279,-3.55271368e-15 C17.4219279,-3.55271368e-15 18.2602404,0.376125 18.8488654,1.03275 L19.5246154,1.7839375 C19.6712404,1.9496875 19.8954279,2.0474375 20.1259904,2.0474375 C20.2333029,2.0474375 20.3363654,2.0261875 20.4319904,1.9858125 L21.3627404,1.5895 C21.7463029,1.42375 22.1574904,1.33875 22.5846154,1.33875 C23.9584279,1.33875 25.1824279,2.2578125 25.5628029,3.5731875 L25.8422404,4.54325 C25.9357404,4.8715625 26.2300529,5.1010625 26.5732404,5.1159375 L27.5879279,5.1499375 C28.4729904,5.1881875 29.3017404,5.6068125 29.8627404,6.2974375 C30.4173654,6.9880625 30.6532404,7.8848125 30.5098029,8.75925 L30.3376779,9.758 C30.2845529,10.0990625 30.4460529,10.427375 30.7509904,10.5899375 L31.6413654,11.069125 C32.4201779,11.485625 32.9843654,12.2219375 33.1904904,13.0889375 C33.3934279,13.950625 33.2170529,14.86225 32.7028029,15.589 L32.1226779,16.4145625 C31.9208029,16.696125 31.9229279,17.070125 32.1269279,17.3485 L32.7166154,18.1783125 C33.2383029,18.8880625 33.4295529,19.7965 33.2393654,20.6666875 C33.0481154,21.5315625 32.4956154,22.276375 31.7189279,22.7109375 L30.8381154,23.202875 C30.5353029,23.3665 30.3769904,23.70225 30.4396779,24.0390625 L30.6245529,25.030375 C30.7839279,25.9026875 30.5618654,26.802625 30.0178654,27.499625 C29.4728029,28.1955625 28.6504279,28.625875 27.7600529,28.679 L26.7549279,28.7331875 C26.4191779,28.753375 26.1227404,28.9924375 26.0356154,29.3154375 L25.7678654,30.2865625 C25.4055529,31.6285 24.1783654,32.565625 22.7833029,32.565625 C22.3912404,32.565625 21.9959904,32.487 21.6071154,32.331875 L20.6699904,31.9483125 C20.5754279,31.911125 20.4755529,31.8909375 20.3724904,31.8909375 C20.1376779,31.8909375 19.9092404,31.9929375 19.7604904,32.164 L19.1070529,32.9343125 C18.5120529,33.61325 17.6599279,34 16.7642404,34 Z M13.1783029,29.6384375 C14.0580529,29.6384375 14.9006154,30.0145625 15.4881779,30.6711875 L16.1639279,31.422375 C16.3179904,31.596625 16.5230529,31.688 16.7578654,31.688 C16.9958654,31.688 17.2094279,31.59025 17.3613654,31.413875 L18.0254279,30.6541875 C18.6172404,29.977375 19.4693654,29.590625 20.3650529,29.590625 C20.7560529,29.590625 21.1513029,29.66925 21.5391154,29.824375 L22.4773029,30.2079375 C22.5739904,30.2461875 22.6781154,30.266375 22.7833029,30.266375 C23.1434904,30.266375 23.4601154,30.0251875 23.5525529,29.6788125 L23.8192404,28.7076875 C24.1762404,27.423125 25.3056779,26.5104375 26.6306154,26.435 L27.6357404,26.3808125 C27.8641779,26.3659375 28.0703029,26.2575625 28.2126779,26.075875 C28.3561154,25.893125 28.4145529,25.6615 28.3699279,25.4415625 L28.1850529,24.448125 C27.9428029,23.14125 28.5633029,21.8269375 29.7278029,21.179875 L30.6086154,20.689 C30.8126154,20.57425 30.9528654,20.38725 31.0028029,20.164125 C31.0506154,19.938875 31.0070529,19.70725 30.8806154,19.513875 L30.2962404,18.714875 C29.5099904,17.6406875 29.4983029,16.1871875 30.2654279,15.0991875 L30.8466154,14.2725625 C30.9794279,14.0845 31.0229904,13.8560625 30.9688029,13.6308125 C30.9135529,13.4013125 30.7722404,13.2175 30.5682404,13.1101875 L29.6757404,12.631 C28.5027404,12.002 27.8620529,10.6983125 28.0819904,9.3871875 L28.2466779,8.3905625 C28.2849279,8.162125 28.2254279,7.9379375 28.0788029,7.7573125 C27.9374904,7.575625 27.7303029,7.4725625 27.4965529,7.463 L26.4861154,7.422625 C25.1569279,7.361 24.0158029,6.46425 23.6439279,5.1881875 L23.3634279,4.218125 C23.2656779,3.88025 22.9511779,3.644375 22.5984279,3.644375 C22.4858029,3.644375 22.3859279,3.6645625 22.2839279,3.708125 L21.3553029,4.1044375 C20.9696154,4.27125 20.5584279,4.3551875 20.1323654,4.3551875 C19.2515529,4.3551875 18.4100529,3.9790625 17.8224904,3.3224375 L17.1478029,2.57125 C16.9926779,2.397 16.7876154,2.305625 16.5528029,2.305625 C16.3148029,2.305625 16.1023029,2.403375 15.9503654,2.57975 L15.2852404,3.3394375 C14.6934279,4.0151875 13.8413029,4.403 12.9456154,4.403 C12.5546154,4.403 12.1593654,4.324375 11.7715529,4.16925 L10.8333654,3.7856875 C10.7366779,3.746375 10.6325529,3.7261875 10.5284279,3.7261875 C10.1671779,3.7261875 9.85055287,3.9684375 9.75811537,4.3148125 L9.49142787,5.2859375 C9.13442787,6.5705 8.00499037,7.4831875 6.68005287,7.558625 L5.67811537,7.62025 C5.44649037,7.6340625 5.24142787,7.7424375 5.09692787,7.924125 C4.95349037,8.109 4.89824037,8.33425 4.94180287,8.5595 L5.11286537,9.5423125 C5.35511537,10.8449375 4.73567787,12.15925 3.57011537,12.8063125 L2.68930287,13.29825 C2.48424037,13.413 2.34399037,13.5989375 2.29511537,13.8220625 C2.24092787,14.0515625 2.28767787,14.2768125 2.42580287,14.464875 L3.02186537,15.27875 C3.80811537,16.3529375 3.81980287,17.8064375 3.05267787,18.8955 L2.47042787,19.722125 C2.33761537,19.9080625 2.29405287,20.1365 2.34930287,20.363875 C2.39924037,20.593375 2.53842787,20.776125 2.74242787,20.882375 L3.63492787,21.362625 C4.80792787,21.991625 5.44861537,23.2953125 5.22867787,24.6075 L5.06505287,25.6030625 C5.02574037,25.8315 5.08524037,26.0556875 5.23186537,26.2363125 C5.37317787,26.4169375 5.57930287,26.52 5.81411537,26.530625 L6.82561537,26.5720625 C8.15480287,26.632625 9.29592787,27.529375 9.66780287,28.804375 L9.94724037,29.7755 C10.0449904,30.113375 10.3605529,30.34925 10.7122404,30.34925 C10.8259279,30.34925 10.9268654,30.328 11.0278029,30.2855 L11.9564279,29.8891875 C12.3421154,29.7234375 12.7533029,29.6384375 13.1783029,29.6384375 Z M14.5830091,18.1682125 C14.5830091,16.3562125 13.2990091,15.3242125 11.8350091,15.3242125 C11.2590091,15.3242125 10.8030091,15.4442125 10.4550091,15.7082125 L10.7070091,14.2202125 L13.8030091,14.2202125 L13.8030091,12.6002125 L9.09900912,12.6002125 L8.29500912,17.5682125 L10.1670091,17.5682125 C10.3350091,17.1962125 10.7310091,16.9682125 11.2950091,16.9682125 C12.1110091,16.9682125 12.5670091,17.5202125 12.5670091,18.2282125 C12.5670091,18.9602125 12.0870091,19.5122125 11.2710091,19.5122125 C10.6470091,19.5122125 10.2030091,19.1762125 10.1190091,18.6722125 L8.17500912,18.6722125 C8.36700912,20.3762125 9.75900912,21.1682125 11.2710091,21.1682125 C13.2270091,21.1682125 14.5830091,19.8242125 14.5830091,18.1682125 Z M17.6910091,21.0002125 L21.9990091,12.6002125 L23.4390091,12.6002125 L19.1310091,21.0002125 L17.6910091,21.0002125 Z M19.6830091,14.4002125 L19.6830091,15.3482125 C19.6830091,16.4882125 18.9030091,17.2682125 17.6310091,17.2682125 C16.3590091,17.2682125 15.5790091,16.4882125 15.5790091,15.3482125 L15.5790091,14.4002125 C15.5790091,13.2602125 16.3590091,12.4802125 17.6310091,12.4802125 C18.9030091,12.4802125 19.6830091,13.2602125 19.6830091,14.4002125 Z M18.2790091,15.4682125 L18.2790091,14.2802125 C18.2790091,13.8962125 18.0390091,13.6562125 17.6310091,13.6562125 C17.2230091,13.6562125 16.9830091,13.8962125 16.9830091,14.2802125 L16.9830091,15.4682125 C16.9830091,15.8522125 17.2230091,16.0922125 17.6310091,16.0922125 C18.0390091,16.0922125 18.2790091,15.8522125 18.2790091,15.4682125 Z M25.5510091,18.2522125 L25.5510091,19.2002125 C25.5510091,20.3402125 24.7710091,21.1202125 23.4990091,21.1202125 C22.2270091,21.1202125 21.4470091,20.3402125 21.4470091,19.2002125 L21.4470091,18.2522125 C21.4470091,17.1122125 22.2270091,16.3322125 23.4990091,16.3322125 C24.7710091,16.3322125 25.5510091,17.1122125 25.5510091,18.2522125 Z M24.1470091,19.3202125 L24.1470091,18.1322125 C24.1470091,17.7482125 23.9070091,17.5082125 23.4990091,17.5082125 C23.0910091,17.5082125 22.8510091,17.7482125 22.8510091,18.1322125 L22.8510091,19.3202125 C22.8510091,19.7042125 23.0910091,19.9442125 23.4990091,19.9442125 C23.9070091,19.9442125 24.1470091,19.7042125 24.1470091,19.3202125 Z" id="Combined-Shape" fill="#FFFFFF"></path>
    </g>
</svg>