<?xml version="1.0" encoding="UTF-8"?>
<svg width="40px" height="40px" viewBox="0 0 40 40" version="1.1" xmlns="http://www.w3.org/2000/svg" xmlns:xlink="http://www.w3.org/1999/xlink">
    <!-- Generator: Sketch 46.1 (44463) - http://www.bohemiancoding.com/sketch -->
    <title>Combined Shape</title>
    <desc>Created with Sketch.</desc>
    <defs></defs>
    <g id="Page-1" stroke="none" stroke-width="1" fill="none" fill-rule="evenodd">
        <path d="M20.84375,4.1412126 C21.6475,4.1412126 22.3125,4.8016264 22.3125,5.59983329 C22.3125,6.39679881 21.66375,7.06590226 20.86,7.07335053 C10.73375,7.13790226 7.55375,13.6973505 6.6525,16.500385 C6.45875,17.1049367 6.385,17.5555574 6.385,17.5555574 C6.27125,18.2569367 5.66375,18.8912816 4.94875,18.8912816 L1.46,18.8912816 C0.6575,18.8912816 0,17.8274195 0,17.0292126 C0,16.2322471 0.6575,15.1671436 1.46,15.1671436 L3.81375,15.1671436 C3.83,15.1671436 3.85375,15.3310057 3.87,15.2751436 C4.34875,13.7681092 5.5575,11.1438333 8.21875,8.66107467 C11.4,5.69666088 15.6425,4.17348847 20.84375,4.1412126 Z M36.86,13.9262609 C38.5725,13.9262609 39.62375,15.3488816 39.62375,17.0421229 L39.62375,21.0865367 C39.62375,22.7946747 38.56375,23.8572954 36.85125,23.8572954 L36.74625,23.8572954 C35.9025,26.340054 34.50875,28.0481919 32.71625,29.6433643 C32.6925,29.6669505 32.6375,29.8457092 32.6125,29.8692954 C32.54,29.9251574 32.415,29.9897092 32.34125,30.0468126 C31.11625,31.1665367 30.87375,32.424054 30.87375,32.7058471 L30.87375,34.0266747 C30.87375,35.3164678 30.06125,36.2710885 28.7625,36.2710885 L23.31,36.2710885 C22.0125,36.2710885 20.87375,35.3164678 20.87375,34.0266747 L20.87375,33.4705367 C20.87375,33.4866747 19.62375,33.4792264 19.62375,33.4543988 L19.62375,34.0353643 C19.62375,35.3239161 18.49875,36.2710885 17.20125,36.2710885 L11.74875,36.2710885 C10.5475,36.2710885 9.64375,35.4108126 9.5225,34.2265367 C9.5225,34.1781229 9.62375,34.1719161 9.62375,34.1235023 L9.62375,34.0353643 L9.62375,33.6641919 C9.62375,32.9392264 9.2475,31.1752264 7.88375,29.7811574 C6.7725,28.644054 5.6975,27.1866747 4.8775,25.4375712 C4.3825,24.4792264 4.02,23.4637781 3.76,22.4321919 C3.7525,22.4073643 3.7875,22.3912264 3.7875,22.3912264 C3.6425,21.8201919 3.93375,21.2069505 4.4125,20.8606057 C4.89,20.5068126 5.68375,20.481985 6.1875,20.7886057 C6.52,20.9983988 5.87375,21.3199161 7.12375,21.6749505 L7.12375,21.6823988 C7.12375,21.6985367 6.84375,21.7270885 6.84375,21.7432264 C7.0475,22.5724678 7.0675,23.397985 7.465,24.1713643 C7.4725,24.1875023 7.48125,24.252054 7.48875,24.2681919 C8.17,25.7342609 8.965,27.0066747 9.85,27.9166057 C11.87,29.9797781 12.24375,32.5469505 12.30875,33.7883298 L17.12375,33.7883298 L17.12375,31.8679161 C17.12375,31.4483298 17.05,31.0461229 17.36625,30.7717781 C17.69,30.4974333 17.8425,30.3683298 18.265,30.4254333 C18.995,30.5222609 19.71,30.5706747 20.45625,30.5706747 C21.0325,30.5706747 21.55375,30.5458471 22.1375,30.4812954 C22.54375,30.4328816 22.83125,30.5706747 23.14,30.8437781 C23.4475,31.1181229 23.37375,31.5128816 23.37375,31.9237781 L23.37375,33.7883298 L28.37375,33.7883298 L28.37375,32.6897092 L28.37375,32.6574333 C28.37375,32.0206057 28.51125,29.7823988 30.605,27.8967436 C30.61375,27.888054 30.54,27.8818471 30.5475,27.8743988 C30.6125,27.8172954 30.6775,27.7639161 30.7425,27.708054 C30.7425,27.6993643 30.75,27.7055712 30.75,27.7055712 C30.75875,27.6968816 30.75875,27.7092954 30.76625,27.7018471 C32.47,26.1948126 33.69625,24.3650195 34.32,22.3502609 C34.5075,21.7457092 35.075,21.3745367 35.71625,21.3745367 L36.86,21.3745367 C36.965,21.3745367 37.12375,21.1908126 37.12375,21.0865367 L37.12375,17.0421229 C37.12375,16.9366057 36.965,16.4090195 36.86,16.4090195 L35.675,16.4090195 C35.035,16.4090195 34.45875,16.233985 34.26375,15.6294333 C33.5575,13.4942609 32.17875,11.7799161 30.27125,10.2492954 C29.96375,9.99853674 29.76875,9.62860571 29.73625,9.22515743 C29.3625,7.87950226 29.5175,6.46184709 30.16625,5.0752264 C28.82,5.41412295 27.78125,6.09936433 27.09125,7.12226088 C26.63625,7.79136433 25.72875,7.96764019 25.0625,7.5170195 C24.39,7.06515743 24.21125,6.16267467 24.665,5.50226088 C25.5825,4.14046778 27.39125,2.43977812 30.75,2.02019191 C31.7,1.89977812 32.60875,2.32432984 33.12,3.12253674 C33.63125,3.92819191 33.63875,4.91508847 33.1275,5.72074364 C32.54375,6.64805398 32.34125,7.51950226 32.51875,8.32515743 C34.36875,9.91164019 35.78125,11.4435023 36.665,13.9262609 L36.86,13.9262609 Z M29.574,13.3672678 C30.4215,13.3672678 31.10775,14.048785 31.10775,14.8904402 C31.10775,15.730854 30.4215,16.4136126 29.574,16.4136126 C28.7265,16.4136126 28.04025,15.730854 28.04025,14.8904402 C28.04025,14.048785 28.7265,13.3672678 29.574,13.3672678 Z" id="Combined-Shape" fill="#FFFFFF"></path>
    </g>
</svg>