<?xml version="1.0" encoding="UTF-8"?>
<svg width="40px" height="40px" viewBox="0 0 40 40" version="1.1" xmlns="http://www.w3.org/2000/svg" xmlns:xlink="http://www.w3.org/1999/xlink">
    <!-- Generator: Sketch 46.1 (44463) - http://www.bohemiancoding.com/sketch -->
    <title>Shape</title>
    <desc>Created with Sketch.</desc>
    <defs></defs>
    <g id="Page-1" stroke="none" stroke-width="1" fill="none" fill-rule="evenodd">
        <path d="M35.0163934,6 C32.3060109,6 30.0765027,8.23474178 30.0765027,10.9514867 C30.0765027,12.5289515 30.8196721,13.9311424 31.9562842,14.8513302 L27.4535519,20.6353678 C27.0601093,20.5477308 26.6229508,20.4600939 26.2295082,20.4600939 C25.6174863,20.4600939 25.0491803,20.5915493 24.5245902,20.7668232 L18.7978142,17.0422535 C19.2349727,16.2973396 19.4972678,15.4647887 19.4972678,14.5446009 C19.4972678,11.827856 17.2677596,9.59311424 14.557377,9.59311424 C11.8469945,9.59311424 9.61748634,11.827856 9.61748634,14.5446009 C9.61748634,15.9906103 10.2295082,17.3051643 11.2349727,18.2253521 L6.77595628,24.4475743 C6.20765027,24.228482 5.59562842,24.0970266 4.93989071,24.0970266 C2.2295082,24.0970266 0,26.3317684 0,29.0485133 C0,31.7652582 2.2295082,34 4.93989071,34 C7.65027322,34 9.87978142,31.7652582 9.87978142,29.0485133 C9.87978142,27.9530516 9.4863388,26.9014085 8.87431694,26.0688576 L13.6830601,19.4084507 C13.989071,19.4522692 14.295082,19.4960876 14.6010929,19.4960876 C15.431694,19.4960876 16.1748634,19.2769953 16.8743169,18.9264476 L22.295082,22.4757433 C21.6830601,23.3082942 21.2896175,24.3161189 21.2896175,25.4115806 C21.2896175,28.1283255 23.5191257,30.3630673 26.2295082,30.3630673 C28.9398907,30.3630673 31.1693989,28.1283255 31.1693989,25.4115806 C31.1693989,24.0970266 30.6448087,22.8701095 29.7704918,21.9937402 L34.579235,15.8591549 C34.7540984,15.8591549 34.8852459,15.9029734 35.0601093,15.9029734 C37.7704918,15.9029734 40,13.6682316 40,10.9514867 C40,8.23474178 37.7704918,6 35.0163934,6 Z M4.93989071,31.3270736 C3.67213115,31.3270736 2.62295082,30.2754304 2.62295082,29.0046948 C2.62295082,27.7339593 3.67213115,26.6823161 4.93989071,26.6823161 C5.37704918,26.6823161 5.81420765,26.8137715 6.16393443,27.0328638 C6.20765027,27.1205008 6.29508197,27.1643192 6.38251366,27.2519562 C6.42622951,27.2957746 6.5136612,27.3395931 6.55737705,27.3834116 C6.99453552,27.8215962 7.2568306,28.3912363 7.2568306,29.0046948 C7.21311475,30.3192488 6.20765027,31.3270736 4.93989071,31.3270736 Z M12.2404372,14.5446009 C12.2404372,13.2738654 13.2896175,12.2222222 14.557377,12.2222222 C15.8251366,12.2222222 16.8743169,13.2738654 16.8743169,14.5446009 C16.8743169,15.8153365 15.8251366,16.8669797 14.557377,16.8669797 C13.2896175,16.8669797 12.2404372,15.8153365 12.2404372,14.5446009 Z M26.1857923,27.7339593 C24.9180328,27.7339593 23.8688525,26.6823161 23.8688525,25.4115806 C23.8688525,24.1408451 24.9180328,23.0892019 26.1857923,23.0892019 C27.4535519,23.0892019 28.5027322,24.1408451 28.5027322,25.4115806 C28.5027322,26.6823161 27.4535519,27.7339593 26.1857923,27.7339593 Z M35.0163934,13.2300469 C33.7486339,13.2300469 32.6994536,12.1784038 32.6994536,10.9076682 C32.6994536,9.63693271 33.7486339,8.58528951 35.0163934,8.58528951 C36.284153,8.58528951 37.3333333,9.63693271 37.3333333,10.9076682 C37.3333333,12.1784038 36.284153,13.2300469 35.0163934,13.2300469 Z" id="Shape" fill="#FFFFFF" fill-rule="nonzero"></path>
    </g>
</svg>