<?xml version="1.0" encoding="UTF-8"?>
<svg width="40px" height="40px" viewBox="0 0 40 40" version="1.1" xmlns="http://www.w3.org/2000/svg" xmlns:xlink="http://www.w3.org/1999/xlink">
    <!-- Generator: Sketch 49.1 (51147) - http://www.bohemiancoding.com/sketch -->
    <title>spend</title>
    <desc>Created with Sketch.</desc>
    <defs></defs>
    <g id="Page-1" stroke="none" stroke-width="1" fill="none" fill-rule="evenodd">
        <g id="spend" transform="translate(0.000000, 4.000000)" fill="#FFFFFF" fill-rule="nonzero">
            <path d="M5.0525736,27.4896578 C4.9085426,27.4896578 4.768,27.4618217 4.6349767,27.4069205 C4.2258295,27.2383614 3.9614109,26.8447229 3.9614109,26.4040482 L3.9614109,20.6432771 L2.3900155,20.6432771 C1.0721085,20.6432771 1.55e-05,19.5767904 1.55e-05,18.265947 L1.55e-05,2.3772916 C1.55e-05,1.0664482 1.0721085,3.86e-05 2.3900155,3.86e-05 L29.0147442,3.86e-05 C30.3325736,3.86e-05 31.4046667,1.0664482 31.4046667,2.3772916 L31.4046667,8.4730217 C31.4046667,9.0716145 30.9150543,9.5586313 30.3133488,9.5586313 C29.7115659,9.5586313 29.222031,9.0716145 29.222031,8.4730217 L29.222031,2.3772916 C29.222031,2.2635566 29.1290078,2.1710265 29.0147442,2.1710265 L2.3900155,2.1710265 C2.2757519,2.1710265 2.1827287,2.2635566 2.1827287,2.3772916 L2.1827287,18.2660241 C2.1827287,18.3796819 2.2757519,18.472212 2.3900155,18.472212 L5.0522636,18.472212 C5.6215659,18.472212 6.0886977,18.8973108 6.1387752,19.4612048 C6.1397054,19.4682217 6.1422636,19.4885012 6.1438915,23.783441 L11.1637364,18.7902072 C11.3498605,18.6050699 11.5976899,18.4934169 11.8614884,18.4756819 C11.8666047,18.4750651 11.8824186,18.4733687 13.6491628,18.472212 C14.2510233,18.472212 14.7406357,18.9591518 14.7406357,19.5578217 C14.7406357,20.1563373 14.2510233,20.6433542 13.6493178,20.6433542 L12.3876899,20.6433542 L5.8244341,27.1716627 C5.618155,27.376694 5.3440465,27.4896578 5.0525736,27.4896578" id="Fill-1"></path>
            <path d="M18.9731705,13.5626255 C18.858907,13.5626255 18.7658837,13.6551557 18.7658837,13.7688135 L18.7658837,24.607946 C18.7658837,24.721681 18.858907,24.814134 18.9731705,24.814134 L31.0292946,24.814134 C31.2932481,24.814134 31.5483643,24.9099798 31.7478217,25.0839364 C31.7603798,25.0945773 31.7757287,25.1082255 31.7918527,25.1239557 L31.8028605,25.1343653 L34.9391395,28.2540954 C34.9406899,25.8379027 34.9426279,25.8214014 34.9437907,25.8103749 C34.9865814,25.254346 35.4641008,24.8142111 36.0305349,24.8142111 L37.6100698,24.8142111 C37.7244109,24.8142111 37.8173566,24.7217581 37.8173566,24.6080231 L37.8173566,13.7688135 C37.8173566,13.6551557 37.7244109,13.5626255 37.6100698,13.5626255 L18.9731705,13.5626255 Z M36.0303023,31.9602352 C35.7385969,31.9602352 35.4644884,31.8472713 35.2584419,31.64224 L30.5767364,26.9853533 L18.9731705,26.9853533 C17.6553411,26.9853533 16.5831705,25.9188665 16.5831705,24.6080231 L16.5831705,13.7688906 C16.5831705,12.4579701 17.6553411,11.3915605 18.9731705,11.3915605 L37.6099922,11.3915605 C38.2475116,11.3915605 38.8474341,11.6390786 39.2992946,12.0885436 C39.751155,12.5380087 39.9999922,13.1347508 39.9999147,13.7688135 L39.9999147,24.607946 C39.9999147,25.9187894 38.9277442,26.9852761 37.6099147,26.9852761 L37.1214651,26.9852761 L37.1214651,30.8746255 C37.1214651,31.315146 36.8570465,31.7087846 36.4478217,31.8774978 C36.3147209,31.932399 36.1742558,31.9602352 36.0303023,31.9602352 Z" id="Fill-3"></path>
            <path d="M28.2917752,20.2739894 C27.6899922,20.2739894 27.2004574,19.7870496 27.2004574,19.1884569 C27.2004574,18.5898641 27.6899922,18.1029243 28.2917752,18.1029243 C28.8935581,18.1029243 29.383093,18.5898641 29.383093,19.1884569 C29.383093,19.7870496 28.8935581,20.2739894 28.2917752,20.2739894" id="Fill-6"></path>
            <path d="M7.1821628,8.3283971 C6.5803798,8.3283971 6.090845,7.8414573 6.090845,7.2428646 C6.090845,6.6443489 6.5803798,6.157332 7.1821628,6.157332 L24.2226279,6.157332 C24.8243333,6.157332 25.3139457,6.6443489 25.3139457,7.2428646 C25.3139457,7.8414573 24.8243333,8.3283971 24.2226279,8.3283971 L7.1821628,8.3283971 Z" id="Fill-8"></path>
            <path d="M7.1821628,14.485814 C6.5803798,14.485814 6.090845,13.9988742 6.090845,13.4002814 C6.090845,12.8017658 6.5803798,12.3147489 7.1821628,12.3147489 L13.6492171,12.3147489 C14.251,12.3147489 14.7405349,12.8017658 14.7405349,13.4002814 C14.7405349,13.9988742 14.251,14.485814 13.6492171,14.485814 L7.1821628,14.485814 Z" id="Fill-10"></path>
            <path d="M23.940845,20.2739894 C23.339062,20.2739894 22.8495271,19.7870496 22.8495271,19.1884569 C22.8495271,18.5898641 23.339062,18.1029243 23.940845,18.1029243 C24.5426279,18.1029243 25.0321628,18.5898641 25.0321628,19.1884569 C25.0321628,19.7870496 24.5426279,20.2739894 23.940845,20.2739894" id="Fill-12"></path>
            <path d="M32.6417907,20.2739894 C32.0400078,20.2739894 31.5504729,19.7870496 31.5504729,19.1884569 C31.5504729,18.5898641 32.0400078,18.1029243 32.6417907,18.1029243 C33.2435736,18.1029243 33.7331085,18.5898641 33.7331085,19.1884569 C33.7331085,19.7870496 33.2435736,20.2739894 32.6417907,20.2739894" id="Fill-14"></path>
        </g>
    </g>
</svg>