<?xml version="1.0" encoding="UTF-8"?>
<svg width="718px" height="353px" viewBox="0 0 718 353" version="1.1" xmlns="http://www.w3.org/2000/svg" xmlns:xlink="http://www.w3.org/1999/xlink">
    <!-- Generator: Sketch 47.1 (45422) - http://www.bohemiancoding.com/sketch -->
    <title>Pink_768</title>
    <desc>Created with Sketch.</desc>
    <defs>
        <linearGradient x1="0%" y1="0%" x2="100%" y2="100%" id="linearGradient-1">
            <stop stop-color="#7117EA" offset="0%"></stop>
            <stop stop-color="#EA6060" offset="100%"></stop>
        </linearGradient>
        <path d="M39.6268153,330.941832 C66.0455149,303.103247 87.3236549,288.69515 102.845502,287.48487 C111.967258,286.773622 120.048199,289.741325 135.978246,298.297225 C146.372341,303.879809 149.485072,305.447461 154.586211,307.368707 C161.834634,310.098686 168.259633,311.061092 174.481098,309.917632 C182.724824,308.402494 188.685704,302.022626 196.099861,289.484796 C197.862826,286.503505 203.894299,275.685938 204.531253,274.572733 C216.41633,253.801179 225.915055,244.556066 239.846316,243.995964 C250.780489,243.556359 259.803505,236.474229 267.806318,223.87497 C273.731725,214.546282 278.638106,203.373593 285.421486,185.160198 C285.650008,184.546615 290.773547,170.633417 292.23625,166.782254 C300.425478,145.220767 306.433556,134.872688 312.292614,133.063188 C318.513147,131.142051 323.727617,134.450522 331.746675,144.802257 C332.800729,146.162927 333.885133,147.612681 335.351778,149.610121 C335.625086,149.982341 335.906798,150.366843 336.276245,150.871703 C336.312516,150.921269 337.007594,151.871369 337.211777,152.150279 C337.98454,153.205857 338.553179,153.979412 339.120312,154.744937 C345.197258,162.947694 349.633313,168.062275 354.909853,172.319154 C361.913739,177.969581 369.466653,181 378,181 C387.85431,181 395.680829,174.918944 402.411875,163.804397 C407.267514,155.786592 410.978477,146.772942 417.200592,129.280162 C417.571725,128.236763 419.07101,124.009074 419.450556,122.942075 C425.134625,106.962718 428.626727,98.3007392 432.940206,90.438423 C438.202306,80.8470261 443.681459,74.9733122 449.731112,72.6737364 C456.442976,70.1224432 461.76799,70.5341749 466.91854,73.4847288 C471.320039,76.0061802 475.21676,79.9118607 481.515826,87.607919 C482.162438,88.397935 484.514145,91.2919229 484.404386,91.1571317 C490.786576,98.9949087 494.638112,103.164522 499.540024,106.955284 C506.183551,112.092878 513.270489,114.878841 521.332027,114.999441 C531.06181,115.144997 539.037423,109.831191 545.943985,100.058399 C550.920444,93.0167039 554.749515,85.0389692 560.773559,70.4030631 C561.092552,69.628043 563.049332,64.8541865 563.61334,63.4877862 C572.957094,40.8510365 578.854115,32.1307187 586.012335,31.9991557 C595.170206,31.8308406 601.742154,36.3553348 614.460629,49.6321865 C614.767076,49.9520874 615.0922,50.2918942 615.727115,50.9555805 C623.037392,58.5951905 626.758296,62.1248269 631.671482,65.5871562 C638.425037,70.3463971 645.305086,72.9095799 652.900943,72.9996485 C674.060233,73.2505469 697.48701,52.2837904 724.206404,10.702992 C725.699225,8.37985923 725.026125,5.28641729 722.702992,3.79359604 C720.379859,2.30077478 717.286417,2.97387525 715.793596,5.29700801 C690.818615,44.1631462 669.55221,63.1963896 653.019511,63.0003515 C647.617072,62.9362915 642.636863,61.0808997 637.43187,57.4129327 C633.22305,54.4469712 629.816793,51.2158083 622.952199,44.0419596 C622.318408,43.379447 621.990797,43.0370405 621.681917,42.7145998 C614.818826,35.5502006 610.978918,31.9479469 606.202352,28.6594933 C599.700272,24.1830999 593.087367,21.8674329 585.828574,22.0008443 C578.274448,22.1396837 572.100634,26.6752308 566.612193,34.791353 C562.658316,40.6382141 559.390272,47.5095233 554.369831,59.6723501 C553.800079,61.0526678 551.840668,65.8329429 551.52622,66.5969188 C545.784999,80.5456834 542.17861,88.0594704 537.777504,94.2870393 C532.594784,101.620594 527.389072,105.088934 521.481609,105.000559 C515.72969,104.914511 510.681699,102.930083 505.65745,99.0447157 C501.542334,95.8624009 498.076882,92.1107558 492.158745,84.8428683 C492.278697,84.9901778 489.914038,82.0802518 489.25427,81.2741611 C482.212529,72.67072 477.67339,68.1211438 471.889302,64.8076601 C464.136828,60.3665629 455.683729,59.7129667 446.177979,63.3262636 C437.48399,66.6309962 430.470809,74.1492057 424.172969,85.6284799 C419.520599,94.108504 415.888627,103.117424 410.028878,119.590659 C409.6472,120.66365 408.147882,124.891435 407.778863,125.928889 C401.78762,142.7726 398.240908,151.387296 393.858177,158.624219 C388.752539,167.054832 383.674979,171 378,171 C366.820756,171 358.835239,164.557637 347.155495,148.792136 C346.288983,147.622505 343.083557,143.243957 343.412255,143.691615 C341.899153,141.630905 340.768871,140.119816 339.652133,138.678228 C334.999722,132.672469 331.176712,128.725297 326.948321,126.042472 C321.453038,122.55583 315.579784,121.58194 309.341757,123.50848 C303.501817,125.312075 298.656226,130.319239 294.032911,138.282256 C290.483255,144.396044 287.138823,152.039139 282.887819,163.231644 C281.403719,167.139142 276.263233,181.098361 276.050328,181.670013 C269.500906,199.255229 264.804292,209.950242 259.365185,218.513321 C252.942122,228.625495 246.448321,233.722454 239.444593,234.004036 C229.237666,234.414402 220.496403,238.650798 212.751973,246.188457 C206.822739,251.959383 201.899329,259.036865 195.851634,269.606424 C195.158485,270.817841 189.177727,281.54445 187.492232,284.394735 C181.49881,294.530008 177.065267,299.275184 172.673447,300.082368 C168.477881,300.853484 163.798316,300.152528 158.110822,298.010442 C153.595859,296.309968 150.653633,294.828187 140.709888,289.487482 C132.454119,285.053375 127.813029,282.78576 122.465698,280.821967 C115.270234,278.179453 108.630848,277.003418 102.068134,277.51513 C83.3899815,278.971517 60.363576,294.563419 32.3731847,324.058168 C30.4723131,326.061202 30.5551328,329.225944 32.5581676,331.126815 C34.5612024,333.027687 37.7259438,332.944867 39.6268153,330.941832 Z" id="path-2"></path>
        <filter x="-3.2%" y="-4.2%" width="106.3%" height="113.4%" filterUnits="objectBoundingBox" id="filter-3">
            <feOffset dx="0" dy="8" in="SourceAlpha" result="shadowOffsetOuter1"></feOffset>
            <feGaussianBlur stdDeviation="6" in="shadowOffsetOuter1" result="shadowBlurOuter1"></feGaussianBlur>
            <feColorMatrix values="0 0 0 0 0.694117647   0 0 0 0 0.239215686   0 0 0 0 0.635294118  0 0 0 0.2 0" type="matrix" in="shadowBlurOuter1"></feColorMatrix>
        </filter>
    </defs>
    <g id="Website" stroke="none" stroke-width="1" fill="none" fill-rule="evenodd">
        <g id="Mineunit_768" transform="translate(-43.000000, -2799.000000)" fill-rule="nonzero">
            <g id="Trending-Perspectives" transform="translate(24.000000, 2720.000000)">
                <g id="Chart" transform="translate(0.000000, 80.000000)">
                    <g id="Pink_768">
                        <use fill="black" fill-opacity="1" filter="url(#filter-3)" xlink:href="#path-2"></use>
                        <use fill="url(#linearGradient-1)" fill-rule="evenodd" xlink:href="#path-2"></use>
                    </g>
                </g>
            </g>
        </g>
    </g>
</svg>