<?xml version="1.0" encoding="UTF-8"?>
<svg width="294px" height="174px" viewBox="0 0 294 174" version="1.1" xmlns="http://www.w3.org/2000/svg" xmlns:xlink="http://www.w3.org/1999/xlink">
    <!-- Generator: Sketch 47.1 (45422) - http://www.bohemiancoding.com/sketch -->
    <title>Blue_320</title>
    <desc>Created with Sketch.</desc>
    <defs>
        <linearGradient x1="0%" y1="50%" x2="100%" y2="50%" id="linearGradient-1">
            <stop stop-color="#88DFDF" offset="0%"></stop>
            <stop stop-color="#24B9F0" offset="49.8880119%"></stop>
            <stop stop-color="#0066FF" offset="100%"></stop>
        </linearGradient>
        <path d="M177.687973,132.014023 C178.018947,133.003468 178.108915,133.296184 178.832408,135.694297 C181.510864,144.572389 191.389624,148.521829 198.277492,140.673762 C200.360216,138.300697 201.245705,135.524681 202.58334,129.109399 C202.61667,128.949546 202.786021,128.134971 202.833939,127.905423 C202.930404,127.443314 203.009441,127.068798 203.086506,126.709961 C205.151425,117.095183 207.34405,114.025797 213.103995,114.837703 C218.539075,115.603817 222.495479,114.055094 224.893065,110.394492 C226.550329,107.864202 227.183519,105.257517 227.90836,99.9294535 C227.946013,99.6521014 227.946013,99.6521014 227.983258,99.3767775 C228.72508,93.8945637 229.332574,91.7940616 230.612542,90.7291972 C232.112031,89.4817034 233.173283,89.627188 236.822683,91.3712574 C239.641944,92.7159536 241.062381,93.2374726 242.903336,93.3847106 C245.538319,93.5954543 247.97501,92.6851227 250.14155,90.5692092 C253.460328,87.3279837 254.773533,82.8878127 256.279645,73.4292825 C256.340135,73.0493943 256.397157,72.6883541 256.513006,71.9535928 C257.834324,63.5821671 258.822783,60.1971797 260.519194,58.9085809 C261.424397,58.2209858 262.056436,58.4665045 264.485376,60.6558084 C267.076359,62.9911683 267.827461,63.5716333 269.495481,64.0691764 C272.259252,64.8935645 274.763139,63.6824083 276.642219,60.8276986 C280.202266,55.4192552 283.574884,44.75865 286.937009,28.6115391 C287.274752,26.989474 286.233604,25.400735 284.611539,25.0629913 C282.989474,24.7252476 281.400735,25.7663958 281.062991,27.3884609 C277.849358,42.8224174 274.646219,52.9473107 271.630508,57.5287968 C271.384321,57.902806 271.186973,58.1359165 271.053931,58.2604035 C270.647126,58.0763134 270.029746,57.5756179 268.502466,56.1990172 C266.606719,54.4903021 265.476074,53.6437114 263.935666,53.0453322 C261.558292,52.1218296 259.112582,52.4423361 256.889897,54.130694 C253.344452,56.8238244 252.217779,60.6821258 250.586375,71.0181533 C250.470434,71.7534922 250.414088,72.1102585 250.354294,72.4857703 C249.074219,80.524768 247.951298,84.3215533 245.949359,86.2767122 C244.315872,87.8720284 243.243738,87.7862801 239.661048,86.0776705 C236.811362,84.7158709 235.597656,84.2405276 233.875796,84.0044818 C231.331338,83.6556679 228.940725,84.315135 226.775213,86.1167242 C223.829561,88.5673481 223.005866,91.4153966 222.037445,98.572224 C222.000234,98.8472932 222.000234,98.8472932 221.963123,99.1206507 C220.79427,107.712494 219.505166,109.680681 213.94146,108.896436 C208.479018,108.126465 204.313082,109.896511 201.508956,113.821917 C199.509458,116.620951 198.403559,119.9404 197.220268,125.450098 C197.14044,125.821798 197.05917,126.2069 196.960545,126.679358 C196.912003,126.911893 196.742461,127.727386 196.709661,127.884693 C195.611254,133.152647 194.878109,135.45106 193.767963,136.715966 C190.407897,140.54444 186.035384,138.796349 184.576683,133.961292 C183.831068,131.489854 183.736547,131.182324 183.378071,130.11066 C182.247846,126.731855 181.105924,124.269551 179.585737,122.411204 C177.323872,119.646194 174.287886,118.509058 170.881315,119.659121 C167.490642,120.803817 165.988977,124.121854 163.484905,132.595957 C163.249469,133.392704 162.449412,136.147964 162.377971,136.39211 C160.985613,141.150381 160.042212,143.8991 158.956667,146.07006 C157.885791,148.211683 157.0022,149.069265 156.521199,149.07448 C152.121802,149.122171 149.584498,150.705502 147.015841,153.940598 C146.874643,154.11843 146.429907,154.687653 146.382241,154.748147 C145.22635,156.215092 144.779217,156.528625 143.810581,156.538418 C140.002727,156.576914 138.1082,158.692484 135.567383,163.554569 C135.455174,163.76929 135.010824,164.626702 134.899949,164.838853 C133.115331,168.253553 131.990323,169.568788 130.543109,169.856513 C128.663801,170.230144 127.50477,169.696972 124.967451,167.553054 C124.398304,167.071485 124.26864,166.96242 124.141627,166.856558 C121.584817,164.725526 119.723872,163.731118 117.113636,163.731118 C114.331478,163.731118 112.559825,164.525275 110.211601,166.307045 C110.10783,166.385784 109.7388,166.667846 109.659517,166.728076 C108.05745,167.94514 107.15792,168.366825 105.497794,168.480357 C102.571685,168.680467 100.846356,169.45116 98.1402916,171.275018 C95.9346812,172.761451 95.0231424,173.124628 93.0599722,173.07861 C91.2917066,173.03716 90.521787,172.65803 88.621558,171.141333 C85.7133101,168.82007 83.8040983,167.900912 80.2969378,167.877439 C76.8065582,167.854079 74.8930455,168.752304 72.0564301,171.008735 C70.1499947,172.525237 69.3767352,172.893522 67.5408762,172.907704 C65.6699043,172.922157 64.9026914,172.573362 63.0037172,171.11732 C60.1572967,168.934821 58.2818604,168.073778 54.8512397,168.073778 C51.4606317,168.073778 49.2884857,168.63662 46.9353777,169.95711 C46.4468828,170.231238 44.729711,171.280866 44.3341106,171.509132 C43.2763295,172.119484 42.2541873,172.626071 41.0162127,173.125416 C39.5883887,173.701338 38.402038,174.24955 37.2777657,174.836745 C36.8451017,175.062721 36.4414016,175.283485 35.9565811,175.556361 C35.9148756,175.579835 35.0958519,176.043894 34.8738763,176.167297 C34.0285277,176.637255 33.4052017,176.940873 32.6243148,177.246033 C31.620387,177.638355 30.3826493,178.013804 28.7243742,178.412468 C26.1091977,179.041179 24.9168489,179.066094 22.7959662,178.770831 C20.1091912,178.406371 18.4571292,178.460983 15.9514982,179.118358 C11.909998,180.178682 7.40253666,182.2989 2.39661397,185.464423 C0.99625319,186.349948 0.578896851,188.203025 1.4644225,189.603386 C2.34994815,191.003747 4.20302524,191.421103 5.60338603,190.535577 C10.1273908,187.674799 14.095136,185.808452 17.4741216,184.921944 C19.1588556,184.479939 20.0355037,184.45096 21.5520847,184.655925 C24.7865227,185.105816 26.7194368,185.065425 30.1268654,184.24625 C32.0350801,183.787499 33.5292913,183.334253 34.8082045,182.83447 C35.8693157,182.419801 36.7256839,182.002671 37.7892496,181.411399 C38.0364745,181.273958 38.8765442,180.797975 38.8994996,180.785054 C39.3340253,180.540486 39.6855303,180.348265 40.0554613,180.155054 C41.0070035,179.658074 42.0154488,179.192071 43.2606468,178.689813 C44.7719818,178.080207 46.0429648,177.450291 47.3327895,176.706047 C47.8288962,176.419788 49.5044396,175.395605 49.8716502,175.189538 C51.3240528,174.374496 52.4845964,174.073778 54.8512397,174.073778 C56.6920017,174.073778 57.4566843,174.424856 59.3435357,175.871603 C62.2132047,178.071928 64.1102734,178.934383 67.587223,178.907525 C71.0373867,178.880873 72.9336148,177.977744 75.7463267,175.740333 C77.6560596,174.221205 78.4149391,173.864978 80.2567812,173.877305 C82.1324274,173.889858 82.9250444,174.271451 84.8699112,175.823776 C87.7103847,178.090944 89.5524719,178.99804 92.9193667,179.076962 C96.3686557,179.157816 98.3523543,178.367466 101.352835,176.345381 C103.401364,174.964679 104.265577,174.57864 105.907165,174.466375 C108.935867,174.259249 110.838843,173.367165 113.289057,171.505778 C113.378217,171.438045 113.745406,171.15739 113.838384,171.086841 C115.240257,170.023137 115.89171,169.731118 117.113636,169.731118 C117.926884,169.731118 118.741263,170.166286 120.300141,171.465569 C120.888317,171.961202 121.013898,172.067553 121.095003,172.136083 C124.904255,175.354725 127.545758,176.569857 131.71309,175.741336 C135.57893,174.972756 137.622028,172.584193 140.217519,167.617963 C140.334766,167.39362 140.779188,166.536068 140.885062,166.333469 C142.408452,163.418324 143.190534,162.544993 143.871237,162.538111 C147.085348,162.505617 148.924892,161.215714 151.09501,158.46161 C151.156211,158.383939 151.591308,157.827052 151.714781,157.671544 C153.261432,155.723615 154.261863,155.099325 156.586239,155.074127 C159.942943,155.037739 162.348087,152.70339 164.323166,148.75347 C165.620849,146.158259 166.644923,143.174489 168.136495,138.07716 C168.211481,137.820902 169.008316,135.076735 169.238945,134.296259 C170.196376,131.056189 170.888025,129.010068 171.594484,127.449094 C171.967346,126.625228 172.318858,126.006392 172.630695,125.604773 C174.430504,124.886903 175.941671,126.793457 177.687973,132.014023 Z" id="path-2"></path>
        <filter x="-2.4%" y="-3.0%" width="104.9%" height="108.4%" filterUnits="objectBoundingBox" id="filter-3">
            <feOffset dx="0" dy="2" in="SourceAlpha" result="shadowOffsetOuter1"></feOffset>
            <feGaussianBlur stdDeviation="2" in="shadowOffsetOuter1" result="shadowBlurOuter1"></feGaussianBlur>
            <feColorMatrix values="0 0 0 0 0.1088   0 0 0 0 0.498346667   0 0 0 0 0.64  0 0 0 0.2 0" type="matrix" in="shadowBlurOuter1"></feColorMatrix>
        </filter>
    </defs>
    <g id="Website" stroke="none" stroke-width="1" fill="none" fill-rule="evenodd">
        <g id="Mineunit_320" transform="translate(-13.000000, -2399.000000)" fill-rule="nonzero">
            <g id="Cryptocurrencies-capitalization" transform="translate(16.000000, 2158.000000)">
                <g id="Chart" transform="translate(0.000000, 218.000000)">
                    <g id="Blue_320">
                        <use fill="black" fill-opacity="1" filter="url(#filter-3)" xlink:href="#path-2"></use>
                        <use fill="url(#linearGradient-1)" fill-rule="evenodd" xlink:href="#path-2"></use>
                    </g>
                </g>
            </g>
        </g>
    </g>
</svg>