<?xml version="1.0" encoding="UTF-8"?>
<svg width="914px" height="365px" viewBox="0 0 914 365" version="1.1" xmlns="http://www.w3.org/2000/svg" xmlns:xlink="http://www.w3.org/1999/xlink">
    <!-- Generator: Sketch 47.1 (45422) - http://www.bohemiancoding.com/sketch -->
    <title>Blue</title>
    <desc>Created with Sketch.</desc>
    <defs>
        <linearGradient x1="0%" y1="50%" x2="100%" y2="50%" id="linearGradient-1">
            <stop stop-color="#88DFDF" offset="0%"></stop>
            <stop stop-color="#24B9F0" offset="49.8880119%"></stop>
            <stop stop-color="#0066FF" offset="100%"></stop>
        </linearGradient>
        <path d="M47.9214015,341.616082 C62.5749976,335.516659 75.5448943,331.500891 86.8054248,329.556256 C92.9268463,328.499118 96.4750356,328.421911 101.983426,328.91194 C111.464171,329.779882 116.78144,329.706745 126.690597,328.138659 C132.441387,327.228618 136.885815,326.341214 140.639566,325.375632 C143.710752,324.585627 146.187946,323.791381 149.331737,322.640951 C150.086272,322.364839 152.707786,321.387125 152.796592,321.354224 C154.207174,320.831627 155.358608,320.417158 156.577786,319.998016 C159.726822,318.915406 163.061545,317.901077 167.146706,316.816447 C171.640845,315.623233 175.40738,314.394469 179.251875,312.934287 C180.722841,312.375598 186.025438,310.242091 187.286398,309.776315 C192.698626,307.777131 197.349462,306.983877 205.818182,306.983877 C213.19614,306.983877 216.635516,308.023285 223.421013,311.447965 C231.574336,315.562995 236.480553,317.03119 245.79815,316.983813 C255.027552,316.936884 259.946898,315.394651 267.938229,311.210349 C274.808147,307.613214 278.266151,306.544742 285.705245,306.577515 C293.231288,306.610671 296.75441,307.727141 303.718813,311.386123 C311.814854,315.639647 316.618477,317.196671 325.60468,317.335325 C334.948011,317.479488 340.15942,316.11276 348.724296,312.313379 C355.897829,309.130837 359.419144,308.095461 365.861214,307.805468 C374.019009,307.438241 379.068417,305.880137 386.012588,302.407685 C386.284967,302.271481 387.440452,301.69014 387.741233,301.539914 C392.999273,298.913764 396.096143,298 401.5,298 C405.850255,298 409.352257,299.231773 415.146387,302.410573 C416.545141,303.185058 417.41531,303.670125 417.667838,303.810576 C428.491933,309.830735 435.401413,311.922924 446.194255,310.510502 C456.14858,309.207814 462.054493,304.662982 469.671838,295.069097 C470.038786,294.606934 471.435523,292.832895 471.769804,292.411835 C477.296035,285.450997 480.421459,283.153691 485.533273,283.119673 C493.436722,283.067079 498.059281,280.933481 504.09836,275.888597 C504.283605,275.733849 505.656117,274.577521 506.053515,274.248072 C511.680358,269.583314 516.155328,267.745198 525.490223,267.678588 C533.298916,267.622868 539.782026,263.481047 545.421222,256.057617 C549.471019,250.726469 552.69413,244.544992 557.37733,234.010236 C557.613313,233.479398 560.117369,227.803045 560.841783,226.189364 C566.738925,213.053103 570.738808,207.235567 574.584652,206.380935 C584.008729,204.286696 590.127814,209.210491 596.360615,221.475413 C597.399716,223.520158 597.681892,224.124472 599.954676,229.083274 C603.424168,236.653074 611.515474,242.89141 621.040034,245.397873 C631.649148,248.189745 642.904181,246.196864 652.5,239 C658.664769,234.376423 661.505701,228.513924 665.655577,215.413151 C665.760439,215.082112 666.292646,213.397085 666.443118,212.922609 C666.745856,211.967998 666.993806,211.194622 667.235464,210.453961 C670.448036,200.607672 673.295496,194.981776 677.802696,190.828629 C683.445004,185.62954 691.665012,183.330601 704.038067,184.478616 C718.625601,185.832099 729.214738,182.60942 736.586507,175.109431 C742.224283,169.373595 745.271079,162.490779 748.515605,150.844134 C748.69948,150.184089 748.887687,149.498594 749.113244,148.669417 C749.237941,148.211017 749.656904,146.664967 749.693241,146.531109 C753.231346,133.497332 755.621418,128.503185 760.401573,125.885481 C766.790468,122.386801 771.217813,123.707662 782.239524,130.845494 C789.322955,135.429105 792.770378,137.283969 797.255696,138.436446 C803.525896,140.047539 809.638822,139.104799 815.703788,135.205892 C821.221716,131.658653 825.275919,126.413394 828.395561,119.470265 C830.712631,114.313356 832.284354,109.040618 834.427442,100.181513 C834.539616,99.717807 834.65568,99.2356036 834.796425,98.6490145 C834.872737,98.3309628 835.130991,97.2532622 835.1612,97.1272823 C839.431882,79.3169156 842.392122,72.6441087 848.736068,69.472136 C854.585218,66.547561 859.071531,67.6946937 868.429639,73.2468375 C875.812007,77.6267791 878.07447,78.7776901 882.146101,79.577122 C888.083606,80.742903 893.577358,78.9937096 898.535534,74.0355339 C909.589173,62.9818947 920.208672,40.8864847 930.767178,7.50798474 C931.600015,4.87514527 930.140824,2.0656594 927.507985,1.23282243 C924.875145,0.39998545 922.065659,1.85917578 921.232822,4.49201526 C911.124661,36.4468486 901.077494,57.3514386 891.464466,66.9644661 C888.829407,69.5995251 886.694573,70.2792496 884.072735,69.764473 C881.607768,69.2804966 879.748043,68.3344577 873.53215,64.6465829 C868.025956,61.3797703 864.780393,59.7801365 860.765256,58.753482 C855.186449,57.3270031 849.723105,57.7982775 844.263932,60.527864 C838.51914,63.4002599 834.427284,68.3519608 831.3422,75.3061845 C829.137402,80.2761172 827.799823,84.9410456 825.436855,94.7955173 C825.40634,94.9227767 825.148322,95.9994923 825.072414,96.3158582 C824.933001,96.8968986 824.818308,97.3734057 824.707793,97.8302527 C820.629302,114.689936 817.178702,122.36965 810.296212,126.794108 C803.690267,131.040786 799.142991,129.872389 788.216256,122.802149 C781.057016,118.165801 777.942576,116.435179 773.641872,115.1521 C767.538345,113.331165 761.574308,113.842012 755.598427,117.114519 C751.005392,119.629752 747.662506,123.595064 745.080054,128.991196 C743.226938,132.863354 742.033657,136.576253 740.042497,143.91135 C740.005028,144.049379 739.587066,145.591734 739.463889,146.044545 C739.243235,146.855697 739.060113,147.522673 738.882422,148.160519 C736.063763,158.27846 733.56936,163.913401 729.454739,168.099589 C724.346608,173.296568 716.733338,175.613576 704.961933,174.521384 C689.935917,173.127217 678.909021,176.211176 671.026369,183.474624 C664.927078,189.094798 661.433424,195.997419 657.728685,207.352161 C657.477248,208.122798 657.221375,208.920883 656.910975,209.899656 C656.758288,210.381115 656.225402,212.068291 656.122426,212.393376 C652.616171,223.462298 650.369969,228.097523 646.5,231 C639.402294,236.323279 631.301179,237.75771 623.584966,235.727127 C616.820859,233.947099 611.196897,229.611067 609.045324,224.916726 C606.700911,219.801643 606.403265,219.164198 605.275524,216.945026 C601.766516,210.039992 598.213767,204.997409 593.677574,201.347307 C587.725583,196.557966 580.597998,194.800698 572.415348,196.619065 C567.616124,197.685559 563.666085,201.034223 560.015604,206.343579 C557.348921,210.222072 554.96051,214.872985 551.718888,222.093906 C550.978527,223.743108 548.463781,229.443694 548.239564,229.948065 C539.441768,249.738517 533.453465,257.62151 525.418868,257.678842 C513.621904,257.763021 506.978279,260.491922 499.671295,266.549548 C499.236869,266.909694 497.844197,268.083006 497.687283,268.214088 C493.273193,271.901499 490.709053,273.085009 485.466727,273.119895 C480.50012,273.152946 476.218227,274.660196 472.366543,277.491331 C469.504299,279.59519 467.252615,282.018802 463.937878,286.194044 C463.586757,286.636315 462.190213,288.410109 461.840202,288.85094 C455.691495,296.595106 451.640503,299.712504 444.896654,300.595048 C436.685774,301.669578 431.650719,300.144964 422.528446,295.071326 C420.745877,294.078518 420.345919,293.857074 419.956312,293.643326 C412.815426,289.725663 407.909266,288 401.5,288 C394.319592,288 389.800985,289.333262 383.273004,292.593689 C382.955433,292.752301 381.797084,293.335083 381.540073,293.463602 C375.748503,296.359694 371.990037,297.519449 365.411514,297.815585 C357.497967,298.171817 352.880721,299.52943 345.111443,302.976236 C337.31412,306.435186 333.426212,307.454817 325.758957,307.336515 C318.606084,307.226149 315.200543,306.122293 308.397233,302.547947 C300.10899,298.193442 295.14065,296.618986 285.7493,296.577612 C276.429983,296.536556 271.48904,298.063233 263.441868,302.276784 C256.601589,305.858392 253.131117,306.946398 245.747304,306.983942 C238.257148,307.022027 234.789909,305.984449 227.956068,302.535369 C219.865568,298.452047 215.007427,296.983877 205.818182,296.983877 C196.192684,296.983877 190.369352,297.977114 183.821404,300.395813 C182.393003,300.923439 177.032782,303.080131 175.70124,303.585865 C172.167545,304.928002 168.727115,306.05038 164.580567,307.151307 C160.264801,308.297163 156.701594,309.380991 153.326642,310.541269 C152.023378,310.989319 150.801311,311.429213 149.322519,311.977081 C149.208104,312.019469 146.615325,312.986466 145.89523,313.249976 C143.039577,314.294965 140.866302,314.991768 138.148352,315.690909 C134.72746,316.57087 130.585762,317.397829 125.127585,318.261565 C116.108553,319.688792 111.603568,319.750756 104.229235,319.074986 C96.5511484,318.389191 92.151963,318.484914 85.1036661,319.702119 C73.0426698,321.784991 59.3762028,326.016432 44.0785985,332.383918 C41.5292066,333.445078 40.3227569,336.37201 41.3839176,338.921401 C42.4450784,341.470793 45.3720096,342.677243 47.9214015,341.616082 Z" id="path-2"></path>
        <filter x="-2.5%" y="-4.1%" width="104.9%" height="112.9%" filterUnits="objectBoundingBox" id="filter-3">
            <feOffset dx="0" dy="8" in="SourceAlpha" result="shadowOffsetOuter1"></feOffset>
            <feGaussianBlur stdDeviation="6" in="shadowOffsetOuter1" result="shadowBlurOuter1"></feGaussianBlur>
            <feColorMatrix values="0 0 0 0 0.1088   0 0 0 0 0.498346667   0 0 0 0 0.64  0 0 0 0.2 0" type="matrix" in="shadowBlurOuter1"></feColorMatrix>
        </filter>
    </defs>
    <g id="Website" stroke="none" stroke-width="1" fill="none" fill-rule="evenodd">
        <g id="Mineunit" transform="translate(-285.000000, -2371.000000)" fill-rule="nonzero">
            <g id="Cryptocurrency-market-perspectives" transform="translate(256.000000, 2224.000000)">
                <g id="Group-15" transform="translate(0.000000, 72.000000)">
                    <g id="Chart" transform="translate(0.000000, 78.000000)">
                        <g id="Blue">
                            <use fill="black" fill-opacity="1" filter="url(#filter-3)" xlink:href="#path-2"></use>
                            <use fill="url(#linearGradient-1)" fill-rule="evenodd" xlink:href="#path-2"></use>
                        </g>
                    </g>
                </g>
            </g>
        </g>
    </g>
</svg>