<?xml version="1.0" encoding="UTF-8"?>
<svg width="16px" height="16px" viewBox="0 0 16 16" version="1.1" xmlns="http://www.w3.org/2000/svg" xmlns:xlink="http://www.w3.org/1999/xlink">
    <!-- Generator: Sketch 46.1 (44463) - http://www.bohemiancoding.com/sketch -->
    <title>Shape</title>
    <desc>Created with Sketch.</desc>
    <defs></defs>
    <g id="Page-1" stroke="none" stroke-width="1" fill="none" fill-rule="evenodd">
        <path d="M16,2.91576064 L15.3671446,2.91576064 C15.1321952,2.91576064 14.7999799,3.26358276 14.7999799,3.48626811 L14.7999799,11.5573252 C14.7999799,11.7802745 15.1321631,12.0841404 15.3671446,12.0841404 L16,12.0841404 L16,13.999934 L10.2666814,13.999934 L10.2666814,12.0841404 L11.4666693,12.0841404 L11.4666693,3.5999868 L11.4078596,3.5999868 L8.605637,14 L6.43607681,14 L3.66999528,3.5999868 L3.59999598,3.5999868 L3.59999598,12.0842064 L4.79998392,12.0842064 L4.79998392,14 L0,14 L0,12.0842064 L0.614624049,12.0842064 C0.867772631,12.0842064 1.19998794,11.7803075 1.19998794,11.5573912 L1.19998794,3.48630111 C1.19998794,3.26361576 0.867772631,2.91579364 0.614624049,2.91579364 L0,2.91579364 L0,1 L6.00215834,1 L7.97278162,8.52632274 L8.0269933,8.52632274 L10.0158479,1 L15.9999678,1 L15.9999678,2.91576064 L16,2.91576064 Z" id="Shape" fill="#F7FBFB" fill-rule="nonzero"></path>
    </g>
</svg>