<?xml version="1.0" encoding="UTF-8"?>
<svg width="12px" height="12px" viewBox="0 0 12 12" version="1.1" xmlns="http://www.w3.org/2000/svg" xmlns:xlink="http://www.w3.org/1999/xlink">
    <!-- Generator: Sketch 46.1 (44463) - http://www.bohemiancoding.com/sketch -->
    <title>Combined Shape</title>
    <desc>Created with Sketch.</desc>
    <defs></defs>
    <g id="Website" stroke="none" stroke-width="1" fill="none" fill-rule="evenodd">
        <g id="Mineunit" transform="translate(-302.000000, -4586.000000)" fill-rule="nonzero" fill="#FFFFFF">
            <g id="Payment" transform="translate(0.000000, 4439.000000)">
                <g id="Title" transform="translate(209.000000, 137.000000)">
                    <g transform="translate(84.000000, 4.000000)" id="Group">
                        <g transform="translate(1.000000, 0.000000)">
                            <path d="M14,6 C10.6916,6 8,8.69163636 8,12.0000364 C8,15.3084364 10.6916,18 14,18 C17.3084,18 20,15.3084364 20,12.0000364 C20,8.69163636 17.3084,6 14,6 Z M14,16.9090909 C11.2930909,16.9090909 9.09090909,14.7069091 9.09090909,12.0000364 C9.09090909,9.29316364 11.2930909,7.09090909 14,7.09090909 C16.7069091,7.09090909 18.9090909,9.29316364 18.9090909,12.0000364 C18.9090909,14.7069091 16.7068727,16.9090909 14,16.9090909 Z M13.9999273,8.54545455 C13.5989818,8.54545455 13.2728,8.87185455 13.2728,9.27305455 C13.2728,9.67389091 13.5989818,10 13.9999273,10 C14.4008727,10 14.7270545,9.67389091 14.7270545,9.27305455 C14.7270545,8.87185455 14.4008727,8.54545455 13.9999273,8.54545455 Z M14,11.0909091 C13.6987636,11.0909091 13.4545455,11.3351273 13.4545455,11.6363636 L13.4545455,14.9090909 C13.4545455,15.2103273 13.6987636,15.4545455 14,15.4545455 C14.3012364,15.4545455 14.5454545,15.2103273 14.5454545,14.9090909 L14.5454545,11.6363636 C14.5454545,11.3351273 14.3012364,11.0909091 14,11.0909091 Z" id="Combined-Shape"></path>
                        </g>
                    </g>
                </g>
            </g>
        </g>
    </g>
</svg>