<?xml version="1.0" encoding="UTF-8"?>
<svg width="16px" height="16px" viewBox="0 0 16 16" version="1.1" xmlns="http://www.w3.org/2000/svg" xmlns:xlink="http://www.w3.org/1999/xlink">
    <!-- Generator: Sketch 46.1 (44463) - http://www.bohemiancoding.com/sketch -->
    <title>Group 2</title>
    <desc>Created with Sketch.</desc>
    <defs></defs>
    <g id="Website" stroke="none" stroke-width="1" fill="none" fill-rule="evenodd" stroke-linecap="round" stroke-linejoin="round">
        <g id="Mineunit_768" transform="translate(-709.000000, -32.000000)" fill-rule="nonzero" fill="#FFFFFF">
            <g id="Top-Header" transform="translate(24.000000, 16.000000)">
                <g id="Group" transform="translate(673.000000, 8.000000)">
                    <g id="Group-2" transform="translate(12.000000, 8.000000)">
                        <path d="M8,15.7575758 C3.71560921,15.7575758 0.242424242,12.2843908 0.242424242,8 C0.242424242,3.71560921 3.71560921,0.242424242 8,0.242424242 C12.2843908,0.242424242 15.7575758,3.71560921 15.7575758,8 C15.7575758,12.2843908 12.2843908,15.7575758 8,15.7575758 Z M8,14.4646465 C11.5703257,14.4646465 14.4646465,11.5703257 14.4646465,8 C14.4646465,4.42967434 11.5703257,1.53535354 8,1.53535354 C4.42967434,1.53535354 1.53535354,4.42967434 1.53535354,8 C1.53535354,11.5703257 4.42967434,14.4646465 8,14.4646465 Z" id="Oval"></path>
                        <path d="M8,14.4646465 C7.92165456,14.4646465 7.33074656,13.8625138 6.85278272,12.958008 C6.15824402,11.6436527 5.73737374,9.94273139 5.73737374,8 C5.73737374,6.06878033 6.15246051,4.36717909 6.83742354,3.0539547 C7.31627645,2.13588861 7.90380041,1.53535354 8,1.53535354 C8.35703257,1.53535354 8.64646465,1.24592145 8.64646465,0.888888889 C8.64646465,0.531856323 8.35703257,0.242424242 8,0.242424242 C6.37908265,0.242424242 4.44444444,3.95155012 4.44444444,8 C4.44444444,12.0522287 6.40244398,15.7575758 8,15.7575758 C8.35703257,15.7575758 8.64646465,15.4681437 8.64646465,15.1111111 C8.64646465,14.7540785 8.35703257,14.4646465 8,14.4646465 Z M1.53535354,6.06060606 L14.4646465,6.06060606 C14.821679,6.06060606 15.1111111,5.77117398 15.1111111,5.41414141 C15.1111111,5.05710885 14.821679,4.76767677 14.4646465,4.76767677 L1.53535354,4.76767677 C1.17832097,4.76767677 0.888888889,5.05710885 0.888888889,5.41414141 C0.888888889,5.77117398 1.17832097,6.06060606 1.53535354,6.06060606 Z M1.53535354,11.2323232 L14.4646465,11.2323232 C14.821679,11.2323232 15.1111111,10.9428912 15.1111111,10.5858586 C15.1111111,10.228826 14.821679,9.93939394 14.4646465,9.93939394 L1.53535354,9.93939394 C1.17832097,9.93939394 0.888888889,10.228826 0.888888889,10.5858586 C0.888888889,10.9428912 1.17832097,11.2323232 1.53535354,11.2323232 Z M8,15.7575758 C9.59755602,15.7575758 11.5555556,12.0522287 11.5555556,8 C11.5555556,3.95155012 9.62091735,0.242424242 8,0.242424242 C7.64296743,0.242424242 7.35353535,0.531856323 7.35353535,0.888888889 C7.35353535,1.24592145 7.64296743,1.53535354 8,1.53535354 C8.09619959,1.53535354 8.68372355,2.13588861 9.16257646,3.0539547 C9.84753949,4.36717909 10.2626263,6.06878033 10.2626263,8 C10.2626263,9.94273139 9.84175598,11.6436527 9.14721728,12.958008 C8.66925344,13.8625138 8.07834544,14.4646465 8,14.4646465 C7.64296743,14.4646465 7.35353535,14.7540785 7.35353535,15.1111111 C7.35353535,15.4681437 7.64296743,15.7575758 8,15.7575758 Z" id="Shape"></path>
                    </g>
                </g>
            </g>
        </g>
    </g>
</svg>