<?xml version="1.0" encoding="UTF-8"?>
<svg width="24px" height="24px" viewBox="0 0 24 24" version="1.1" xmlns="http://www.w3.org/2000/svg" xmlns:xlink="http://www.w3.org/1999/xlink">
    <!-- Generator: Sketch 46.1 (44463) - http://www.bohemiancoding.com/sketch -->
    <title>Shape</title>
    <desc>Created with Sketch.</desc>
    <defs></defs>
    <g id="Personal-Dashboard" stroke="none" stroke-width="1" fill="none" fill-rule="evenodd">
        <g id="Personal_Settings" transform="translate(-708.000000, -282.000000)" fill-rule="nonzero" fill="#FFFFFF">
            <g id="Group-4" transform="translate(672.000000, 246.000000)">
                <path d="M60,48.0002873 C60,49.1603026 59.0598829,50.1003951 57.8992103,50.1003951 L50.0998753,50.1003951 L50.0998753,57.8998922 C50.0998753,59.0602209 49.1594447,60.0003134 47.9995559,59.9999999 C47.419507,59.9999999 46.8944794,59.7652903 46.5147645,59.3853763 C46.1345793,59.0049398 45.89955,58.4801872 45.8998113,57.9004669 L45.8994978,50.1000816 L38.0992222,50.1000816 C37.519539,50.1000816 36.9949295,49.865372 36.6144308,49.4848832 C36.2348726,49.105335 36.0000001,48.5803211 36.0000001,48.0002873 C35.9996866,46.8404811 36.9398037,45.9001796 38.1003195,45.9001796 L45.8998113,45.9001796 L45.8998113,38.100578 C45.8998113,36.940406 46.8404509,36 48.0004442,36 C49.1600195,36.0003135 50.099823,36.939779 50.1004501,38.0997943 L50.1004501,45.9001796 L57.9007257,45.9001796 C59.0605099,45.9008066 59.9994252,46.8404811 60,48.0002873 Z" id="Shape"></path>
            </g>
        </g>
    </g>
</svg>