<?xml version="1.0" encoding="UTF-8"?>
<svg width="14px" height="14px" viewBox="0 0 14 14" version="1.1" xmlns="http://www.w3.org/2000/svg" xmlns:xlink="http://www.w3.org/1999/xlink">
    <!-- Generator: Sketch 47.1 (45422) - http://www.bohemiancoding.com/sketch -->
    <title>Shape</title>
    <desc>Created with Sketch.</desc>
    <defs></defs>
    <g id="Website" stroke="none" stroke-width="1" fill="none" fill-rule="evenodd">
        <g id="Mineunit" transform="translate(-1015.000000, -7032.000000)" fill-rule="nonzero" fill="#FFFFFF">
            <g id="Footer-Copy" transform="translate(0.000000, 6645.000000)">
                <g id="Payment">
                    <g id="Group-8" transform="translate(160.000000, 122.000000)">
                        <g id="Features" transform="translate(576.000000, 0.000000)">
                            <g id="#3" transform="translate(0.000000, 258.000000)">
                                <path d="M286,7 C282.134025,7 279,10.1340252 279,14 C279,17.8659748 282.134025,21 286,21 C289.865975,21 293,17.8659748 293,14 C293,10.1340252 289.866008,7 286,7 Z M286,19.733009 C282.833753,19.733009 280.266991,17.1662471 280.266991,14 C280.266991,10.8337529 282.833753,8.26699104 286,8.26699104 C289.164639,8.27083011 291.729137,10.8353279 291.733009,14 C291.733009,17.1662799 289.16628,19.733009 286,19.733009 Z M288.723015,11.9350077 C289.081066,13.4214491 288.180525,14.920228 286.700023,15.302002 L286.700023,16.1000033 L285.30001,16.1000033 L285.30001,14.6230119 C285.30001,14.2789395 285.578949,14 285.923022,14 C286.632856,14.0248063 287.257016,13.5337665 287.400013,12.8380091 C287.465737,12.0648142 286.892206,11.3847412 286.119011,11.3190177 C285.345816,11.2532941 284.665743,11.8268247 284.60002,12.6000197 L283.200007,12.6000197 C283.193969,11.2999208 284.083616,10.1667065 285.347982,9.86397791 C286.851879,9.50389297 288.36293,10.43111 288.723015,11.9350077 Z M285.30001,16.8000263 L286.700023,16.8000263 L286.700023,18.2000394 L285.30001,18.2000394 L285.30001,16.8000263 Z" id="Shape"></path>
                            </g>
                        </g>
                    </g>
                </g>
            </g>
        </g>
    </g>
</svg>