<?xml version="1.0" encoding="UTF-8"?>
<svg width="16px" height="16px" viewBox="0 0 16 16" version="1.1" xmlns="http://www.w3.org/2000/svg" xmlns:xlink="http://www.w3.org/1999/xlink">
    <!-- Generator: Sketch 46.1 (44463) - http://www.bohemiancoding.com/sketch -->
    <title>Shape</title>
    <desc>Created with Sketch.</desc>
    <defs></defs>
    <g id="Page-1" stroke="none" stroke-width="1" fill="none" fill-rule="evenodd">
        <path d="M16,2.5385 C15.4113528,2.8 14.7791948,2.9765 14.1145286,3.055 C14.792198,2.649 15.3128282,2.006 15.5583896,1.24 C14.9237309,1.6155 14.2215554,1.8895 13.4738685,2.036 C12.8747187,1.3985 12.0215054,1 11.0767692,1 C9.26381595,1 7.79494874,2.469 7.79494874,4.2815 C7.79494874,4.5385 7.82345586,4.7895 7.87946987,5.0295 C5.15128782,4.8925 2.73268317,3.586 1.11327832,1.6005 C0.831207802,2.0855 0.669167292,2.649 0.669167292,3.2505 C0.669167292,4.3895 1.2488122,5.3935 2.12903226,5.9825 C1.59139785,5.965 1.08527132,5.818 0.642660665,5.572 C0.64216054,5.5855 0.64216054,5.6 0.64216054,5.613 C0.64216054,7.2035 1.77344336,8.53 3.27531883,8.8315 C3.00025006,8.906 2.71017754,8.9465 2.41060265,8.9465 C2.19854964,8.9465 1.99349837,8.926 1.79344836,8.888 C2.21055264,10.191 3.42335584,11.14 4.8592148,11.167 C3.73643411,12.047 2.32108027,12.5725 0.783195799,12.5725 C0.518129532,12.5725 0.256564141,12.557 0,12.5265 C1.45236309,13.4565 3.17779445,14 5.03175794,14 C11.0692673,14 14.3715929,8.9995 14.3715929,4.6625 C14.3715929,4.5205 14.3675919,4.3785 14.3615904,4.2375 C15.0032508,3.775 15.5593898,3.1975 16,2.5385 Z" id="Shape" fill="#F7FBFB" fill-rule="nonzero"></path>
    </g>
</svg>