<?xml version="1.0" encoding="UTF-8"?>
<svg width="220px" height="48px" viewBox="0 0 220 48" version="1.1" xmlns="http://www.w3.org/2000/svg" xmlns:xlink="http://www.w3.org/1999/xlink">
    <!-- Generator: Sketch 48.2 (47327) - http://www.bohemiancoding.com/sketch -->
    <title>Group 3</title>
    <desc>Created with Sketch.</desc>
    <defs></defs>
    <g id="Press" stroke="none" stroke-width="1" fill="none" fill-rule="evenodd" transform="translate(-560.000000, -902.000000)">
        <g id="Text" transform="translate(160.000000, 358.000000)" fill="#13293D" fill-rule="nonzero">
            <g id="Section#1" transform="translate(0.000000, 48.000000)">
                <g id="Logotype" transform="translate(352.000000, 192.000000)">
                    <g id="Logotype-Black" transform="translate(0.000000, 256.000000)">
                        <g id="Logo_color">
                            <g id="Group-3" transform="translate(48.000000, 48.000000)">
                                <path d="M24.0001483,0 C30.38694,0 36.4548966,2.51418685 40.9704954,7.0297578 C45.4857975,11.5453287 48,17.6132476 48,23.9997034 C48,30.3867522 45.4857975,36.454968 40.9704954,40.9705389 C36.4548966,45.4858131 30.38694,48 24.0001483,48 C17.6130599,48 11.5451035,45.4858131 7.02980121,40.9705389 C2.51420239,36.454968 0,30.3867522 0,23.9997034 C0,17.6132476 2.51420239,11.5453287 7.02980121,7.0297578 C11.5451035,2.51418685 17.6133565,0 24.0001483,0 Z M38.3041419,9.69579831 C34.4979888,5.88966882 29.3838691,3.77083539 24.0001483,3.77083539 C18.6164274,3.77083539 13.5020113,5.88966882 9.69585822,9.69579831 C5.88970521,13.5019278 3.77115528,18.6163124 3.77115528,23.9997034 C3.77115528,29.383391 5.88970521,34.4980722 9.69585822,38.3042016 C13.5020113,42.1103313 18.616724,44.2285713 24.0001483,44.2285713 C29.3835726,44.2285713 34.4979888,42.1100346 38.3041419,38.3042016 C42.1102947,34.4977755 44.2291413,29.3836876 44.2291413,23.9997034 C44.2291413,18.6163124 42.1102947,13.5019278 38.3041419,9.69579831 Z M30.6268824,24.5409787 C28.7619177,26.0897677 26.4316018,26.9391992 24.0001483,26.9391992 C21.5686948,26.9391992 19.2380823,26.0897677 17.3734143,24.5409787 L17.3734143,32.7826002 L13.6022591,32.7826002 L13.6022591,15.2171033 L17.3734143,15.2171033 L17.3734143,16.5416708 C17.3734143,18.3040039 18.0766317,19.9758774 19.3211278,21.2200692 C20.5656239,22.4645576 22.2381008,23.1683638 24.0001483,23.1683638 C25.7618992,23.1683638 27.4343762,22.4651508 28.6788722,21.2200692 C29.9233683,19.9758774 30.6268824,18.3040039 30.6268824,16.5416708 L30.6268824,15.2171033 L34.3977411,15.2171033 L34.3977411,32.7826002 L30.6268824,32.7826002 L30.6268824,24.5409787 Z" id="Fill-6"></path>
                                <path d="M61,36.51064 L65.9800408,36.51064 L65.9800408,24.404727 C65.9800408,21.0622038 67.8732916,19.0240659 70.6306696,19.0240659 C73.3883374,19.0240659 75.0345289,20.8993711 75.0345289,24.2418943 L75.0345289,36.51064 L80.01457,36.51064 L80.01457,24.3639471 C80.01457,20.8993711 81.948997,19.0240659 84.6651985,19.0240659 C87.4640431,19.0240659 89.0690581,20.8585911 89.0690581,24.2826743 L89.0690581,36.51064 L94.0490989,36.51064 L94.0490989,22.774389 C94.0490989,17.5160679 91.1681914,14.5405646 86.4349195,14.5405646 C83.1422467,14.5405646 80.8378105,16.0485627 79.0680895,18.3310933 C77.9157265,16.0485627 75.7342402,14.5405646 72.6062734,14.5405646 C69.2727139,14.5405646 67.3791733,16.3343098 65.9800408,18.2495333 L65.9800408,14.9888573 L61,14.9888573 L61,36.51064 Z M97.7665861,11.6874013 L103.116926,11.6874013 L103.116926,7 L97.7665861,7 L97.7665861,11.6874013 Z M97.9721788,36.51064 L102.95251,36.51064 L102.95251,14.9888573 L97.9721788,14.9888573 L97.9721788,36.51064 Z M107.040006,36.51064 L112.020047,36.51064 L112.020047,24.3639471 C112.020047,21.021711 114.036827,19.0240659 116.917734,19.0240659 C119.881285,19.0240659 121.568653,20.9401511 121.568653,24.2826743 L121.568653,36.51064 L126.548694,36.51064 L126.548694,22.815169 C126.548694,17.8015278 123.708673,14.5405646 118.810985,14.5405646 C115.436249,14.5405646 113.419469,16.2932426 112.020047,18.3310933 L112.020047,14.9888573 L107.040006,14.9888573 L107.040006,36.51064 Z M140.102444,37 C144.094538,37 146.934558,35.4104419 148.992515,32.9645041 L146.070141,30.3965136 C144.341597,32.0676316 142.613052,32.9645041 140.184797,32.9645041 C136.974477,32.9645041 134.463868,31.0082134 133.928863,27.5025703 L149.897819,27.5025703 C149.938996,27.2581776 149.980172,26.4428649 149.980172,26.116625 C149.980172,19.9212257 146.481907,14.5405646 139.567439,14.5405646 C133.352682,14.5405646 128.948822,19.5949858 128.948822,25.7498923 C128.948822,32.4754315 133.805333,37 140.102444,37 Z M133.887687,24.2418943 C134.340338,20.8993711 136.480648,18.5760604 139.526262,18.5760604 C142.818935,18.5760604 144.712185,21.0622038 145.041308,24.2418943 L133.887687,24.2418943 Z M160.076833,36.9589327 C163.451569,36.9589327 165.468349,35.2065421 166.867771,33.1684042 L166.867771,36.51064 L171.847812,36.51064 L171.847812,14.9888573 L166.867771,14.9888573 L166.867771,27.1358376 C166.867771,30.4780736 164.850991,32.4754315 161.970083,32.4754315 C159.006533,32.4754315 157.319165,30.5596335 157.319165,27.2171104 L157.319165,14.9888573 L152.339124,14.9888573 L152.339124,28.6846156 C152.339124,33.6982567 155.179145,36.9589327 160.076833,36.9589327 Z M175.688539,36.51064 L180.66858,36.51064 L180.66858,24.3639471 C180.66858,21.021711 182.68507,19.0240659 185.566268,19.0240659 C188.529528,19.0240659 190.216896,20.9401511 190.216896,24.2826743 L190.216896,36.51064 L195.196937,36.51064 L195.196937,22.815169 C195.196937,17.8015278 192.357206,14.5405646 187.459518,14.5405646 C184.084492,14.5405646 182.067712,16.2932426 180.66858,18.3310933 L180.66858,14.9888573 L175.688539,14.9888573 L175.688539,36.51064 Z M198.873248,11.6874013 L204.223588,11.6874013 L204.223588,7 L198.873248,7 L198.873248,11.6874013 Z M199.07913,36.51064 L204.059171,36.51064 L204.059171,14.9888573 L199.07913,14.9888573 L199.07913,36.51064 Z M215.431725,36.87766 C217.283509,36.87766 218.682931,36.4698601 219.917647,35.7768874 L219.917647,31.7416789 C218.92999,32.2310386 217.942043,32.4754315 216.830857,32.4754315 C215.143489,32.4754315 214.155542,31.700899 214.155542,29.785101 L214.155542,19.2282531 L220,19.2282531 L220,14.9888573 L214.155542,14.9888573 L214.155542,9.0786307 L209.175501,9.0786307 L209.175501,14.9888573 L206.418123,14.9888573 L206.418123,19.2282531 L209.175501,19.2282531 L209.175501,30.5596335 C209.175501,35.2881019 211.768463,36.87766 215.431725,36.87766 Z" id="Fill-7"></path>
                            </g>
                        </g>
                    </g>
                </g>
            </g>
        </g>
    </g>
</svg>