<svg version="1" xmlns="http://www.w3.org/2000/svg" width="933.333" height="933.333" viewBox="0 0 700.000000 700.000000"><path d="M329.8.5c-.1.1-4.1.5-8.8.9-17.8 1.2-38.8 4.7-58.1 9.6-73.6 18.8-139.5 61.7-187.3 122-18 22.7-34.3 49.3-44.6 73-1.8 4.1-4 9.3-5 11.5-2.6 5.9-8.5 22.9-11 31.5-1.2 4.1-2.8 9.5-3.6 12-1.8 6.1-7.2 33.3-8 40.1-.3 2.9-.7 6.5-1 7.9-1.9 11.1-2.6 52-1.1 70 2.3 28.6 8.8 58.8 18.7 87.5 1.7 5 3.5 9.9 4 11 .5 1.1 2.3 5.4 4 9.5 19.9 47.1 53.3 93.1 92 126.5 3 2.6 6.6 5.7 8 6.9 7.4 6.3 25.3 19.1 38 27.2 24.8 15.7 61.1 31.4 91.5 39.7 13 3.5 29 7 32 6.8.2 0 1.8.4 3.5.9s6.1 1.2 9.8 1.6c3.7.3 6.9.8 7.2.9.3.2 5.5.7 11.5 1.1 20.1 1.3 58.3.7 66.9-1.1 1.2-.2 4.8-.7 8.1-1.1 3.3-.3 6.9-.8 8-1 1.1-.2 3.4-.5 5-.8 1.7-.3 5.5-1 8.5-1.6 3-.6 6.6-1.3 8-1.6 12.9-2.5 37.9-10.3 56-17.6 20.6-8.3 41.3-19.3 61.5-32.7 21-13.9 34.7-25.2 54-44.6 17.1-17.1 28-30.1 39.5-47 3-4.4 5.7-8.2 6-8.5.3-.3 1.1-1.6 1.9-3 .8-1.4 3.3-5.4 5.4-9 26.9-43.9 44.5-99.7 48.4-153 1.3-17.1.6-55-1.1-65-.3-1.4-.7-5-1.1-8.1-.5-5.4-.9-7.4-2-12.9-.3-1.4-.8-4.3-1.1-6.5-.3-2.2-.8-4.3-1-4.6-.2-.3-.6-2.1-.9-4-.3-1.9-1.9-8.6-3.6-14.9-12.4-47-34.3-90.4-65.6-129.5-7.9-9.9-34.8-37.8-44.8-46.5-7.1-6.1-28.2-21.8-36.7-27.3-31.9-20.5-65.2-35.3-101.8-45.1-17.1-4.6-27.4-6.5-56-10.2-4.7-.6-52.6-1.5-53.2-.9zm49.9 55.8c1.2.3 4.6.8 7.5 1.1 4.8.6 11 1.5 19.3 3.1 24.2 4.5 58.1 16.3 79.5 27.8 18.3 9.8 42.2 25.6 51.6 34.2.6.5 4.4 3.9 8.5 7.5 37.5 33.3 66.7 77.2 82.8 124.6 5.6 16.6 10.9 38.1 12.6 51.9.4 2.7.8 6 1 7.1 2.5 16.3 2.5 57.4 0 72.6-.2 1.2-.6 4.3-.9 6.8-.8 6.1-1.6 10.3-5.1 26-3 13.9-9.6 33.3-17.3 51-2.5 5.8-4.9 10.9-5.3 11.5-.4.5-2.8 5-5.4 9.9-2.6 4.9-5.5 10.1-6.5 11.5-.9 1.4-4.6 6.9-8.1 12.1-11.7 17.7-23.8 32.1-40.4 47.9-35.5 34.2-73.7 55.8-126 71.4-5.4 1.7-21.6 5.2-28 6.1-2.2.4-4.7.8-5.5 1.1-1.5.4-6.1.9-19.2 2.2-14.5 1.3-46.4.7-60.8-1.2-4.5-.6-13.4-1.8-14-2-.3-.1-2.5-.5-5-.9-9.7-1.7-33.1-8-45-12.3-25.8-9.2-58.4-27.1-80.4-44.1-47-36.4-82.4-86.9-100.5-143.4-3.1-9.8-6.7-23-7.5-28.1-.3-1.5-.7-3.5-1-4.5-.3-.9-.7-3.5-1.1-5.7-.3-2.2-1-6.5-1.5-9.5-3.1-18.3-3.4-63.9-.5-81 .2-1.4 1.1-6.8 2-12 15.1-89.6 74.3-169.9 156-211.4 6.6-3.4 13.8-6.9 16-7.8 2.2-.9 6.9-2.9 10.5-4.3 5.3-2.3 9.8-3.8 17-6 .3-.1 1.2-.4 2-.8 2.1-.8 14.7-4.4 19-5.3 1.9-.4 4-.9 4.5-1 2.5-.7 16.5-3.3 20.5-3.9 7.7-1.2 9.3-1.4 17-2.1 4.1-.3 7.7-.8 7.9-1 .5-.5 47.4.4 49.8.9z"/><path d="M203.9 221.8l-5.6.3V478H253l.1-2.8c0-1.5.1-28.5.1-59.9V358l4.2 3c19 13.7 41.7 24.6 57.1 27.4 1.4.3 3.3.7 4.3 1 1.6.5 3.8.8 13.7 2.3 7.5 1 29 .8 38-.5 16.4-2.3 37.7-9.3 51.2-16.7 7.5-4.2 20.3-12.8 20.3-13.7 0-.4.7-.8 1.5-.8s1.5-.5 1.5-1c0-.6.3-1 .8-1 .4 0 .7 26.9.7 59.8v59.7l27.5.3 27.5.2V222h-55l-.2 14.4c0 9.1-.8 17.7-1.9 23.3-7.2 36.6-34.9 65.7-71.2 74.9-37.5 9.5-76.2-4.3-100.9-36.1-4.6-5.9-11.8-20.1-14.3-28-3.4-10.9-4.2-16.8-4.5-33-.2-8.2-.7-15.1-1.2-15.2-1.2-.4-42-.8-48.4-.5z"/></svg>