<?xml version="1.0" encoding="UTF-8"?>
<svg width="24px" height="24px" viewBox="0 0 24 24" version="1.1" xmlns="http://www.w3.org/2000/svg" xmlns:xlink="http://www.w3.org/1999/xlink">
    <!-- Generator: Sketch 47.1 (45422) - http://www.bohemiancoding.com/sketch -->
    <title>price-tag</title>
    <desc>Created with Sketch.</desc>
    <defs></defs>
    <g id="Page-1" stroke="none" stroke-width="1" fill="none" fill-rule="evenodd">
        <g id="price-tag" fill-rule="nonzero" fill="#0066FF">
            <path d="M8.25,9.2 C4.251,9.2 0,10.5432 0,13.0333333 L0,19.1666667 C0,21.6568 4.251,23 8.25,23 C12.249,23 16.5,21.6568 16.5,19.1666667 L16.5,13.0333333 C16.5,10.5432 12.249,9.2 8.25,9.2 Z M15,19.1666667 C15,20.1035333 12.3705,21.4666667 8.25,21.4666667 C4.1295,21.4666667 1.5,20.1035333 1.5,19.1666667 L1.5,18.3678 C3.0915,19.3936 5.7195,19.9333333 8.25,19.9333333 C10.7805,19.9333333 13.4085,19.3936 15,18.3678 L15,19.1666667 Z M15,16.1 C15,17.0368667 12.3705,18.4 8.25,18.4 C4.1295,18.4 1.5,17.0368667 1.5,16.1 L1.5,15.3011333 C3.0915,16.3269333 5.7195,16.8666667 8.25,16.8666667 C10.7805,16.8666667 13.4085,16.3269333 15,15.3011333 L15,16.1 Z M8.25,15.3333333 C4.1295,15.3333333 1.5,13.9702 1.5,13.0333333 C1.5,12.0964667 4.1295,10.7333333 8.25,10.7333333 C12.3705,10.7333333 15,12.0964667 15,13.0333333 C15,13.9702 12.3705,15.3333333 8.25,15.3333333 Z M15.75,0 C11.751,0 7.5,1.3432 7.5,3.83333333 L7.5,6.9 C7.5,7.3232 7.836,7.66666667 8.25,7.66666667 C8.664,7.66666667 9,7.3232 9,6.9 L9,6.10113333 C10.5915,7.12693333 13.2195,7.66666667 15.75,7.66666667 C18.2805,7.66666667 20.9085,7.12693333 22.5,6.10113333 L22.5,6.9 C22.5,7.6498 20.655,8.8458 17.187,9.14173333 C16.776,9.17546667 16.4685,9.54806667 16.503,9.96973333 C16.5345,10.3699333 16.863,10.672 17.2485,10.672 C17.271,10.672 17.2905,10.6704667 17.313,10.6689333 C19.266,10.5018 21.2115,9.98506667 22.5,9.14633333 L22.5,9.96666667 C22.5,10.6214 21.141,11.5628667 18.6195,12.0182667 C18.213,12.0918667 17.94,12.4905333 18.012,12.9060667 C18.0765,13.2771333 18.393,13.5393333 18.7485,13.5393333 C18.792,13.5393333 18.837,13.5362667 18.8805,13.5270667 C20.406,13.2526 21.627,12.8033333 22.5,12.2329333 L22.5,13.0333333 C22.5,13.6880667 21.141,14.6295333 18.6195,15.0849333 C18.213,15.1585333 17.94,15.5572 18.012,15.9727333 C18.0765,16.3438 18.393,16.606 18.7485,16.606 C18.792,16.606 18.837,16.6029333 18.8805,16.5937333 C20.406,16.3192667 21.627,15.8684667 22.5,15.2996 L22.5,16.1 C22.5,16.7547333 21.141,17.6962 18.6195,18.1516 C18.213,18.2252 17.94,18.6238667 18.012,19.0394 C18.0765,19.4104667 18.393,19.6726667 18.7485,19.6726667 C18.792,19.6726667 18.837,19.6696 18.8805,19.6604 C20.406,19.3859333 21.627,18.9351333 22.5,18.3662667 L22.5,19.1666667 C22.5,19.9164667 20.655,21.1124667 17.187,21.4084 C16.776,21.4421333 16.4685,21.8147333 16.503,22.2364 C16.5345,22.6366 16.863,22.9386667 17.2485,22.9386667 C17.271,22.9386667 17.2905,22.9371333 17.313,22.9356 C20.6415,22.6504 24,21.3762 24,19.1666667 L24,3.83333333 C24,1.3432 19.749,0 15.75,0 Z M15.75,6.13333333 C11.6295,6.13333333 9,4.7702 9,3.83333333 C9,2.89646667 11.6295,1.53333333 15.75,1.53333333 C19.8705,1.53333333 22.5,2.89646667 22.5,3.83333333 C22.5,4.7702 19.8705,6.13333333 15.75,6.13333333 Z" id="Shape"></path>
        </g>
    </g>
</svg>