<?xml version="1.0" encoding="UTF-8"?>
<svg width="24px" height="24px" viewBox="0 0 24 24" version="1.1" xmlns="http://www.w3.org/2000/svg" xmlns:xlink="http://www.w3.org/1999/xlink">
    <!-- Generator: Sketch 47.1 (45422) - http://www.bohemiancoding.com/sketch -->
    <title>price-tag</title>
    <desc>Created with Sketch.</desc>
    <defs></defs>
    <g id="Page-1" stroke="none" stroke-width="1" fill="none" fill-rule="evenodd">
        <g id="price-tag" fill-rule="nonzero" fill="#0066FF">
            <path d="M23.7939375,0.205828125 C23.5192969,-0.068671875 23.0740313,-0.068578125 22.7995313,0.206109375 L21.4234219,1.58301563 C21.1397813,1.44028125 20.8200469,1.35942188 20.48175,1.35942188 L13.1089688,1.35942188 C12.189,1.35942188 11.2828594,1.7379375 10.6219219,2.39892188 L0.616828125,12.4446562 C-0.20559375,13.267125 -0.20559375,14.6054063 0.616828125,15.4279219 L8.572125,23.3832188 C9.39464062,24.2057344 10.732875,24.2057344 11.556375,23.3821875 L21.5614219,13.3365 C22.2255,12.6724219 22.5912188,11.7895312 22.5912188,10.8504844 L22.5912188,3.47770313 C22.5912188,3.16321875 22.5220781,2.86476563 22.399125,2.59617188 L23.7942188,1.20028125 C24.0687187,0.92559375 24.0685781,0.480375 23.7939375,0.205828125 Z M21.1896094,10.8504844 L21.1896094,10.8504844 C21.1895625,11.4139688 20.9654531,11.9436563 20.5659844,12.343125 L10.5609844,22.3888125 C10.2868125,22.6629844 9.84070313,22.6629844 9.56653125,22.3888125 L1.61123438,14.4335156 C1.3370625,14.1593438 1.3370625,13.7132344 1.61221875,13.4380781 L11.6173594,3.39234375 C12.0155156,2.99414063 12.5592187,2.76571875 13.1089687,2.76571875 L20.241375,2.76571875 L17.623125,5.38546875 L17.0890781,4.85142188 C16.2665625,4.02890625 14.9282344,4.029 14.1058125,4.85142188 C13.2832969,5.6739375 13.2832969,7.01217188 14.1058125,7.8346875 L16.0946719,9.8235 C16.9170937,10.6459687 18.255375,10.6460156 19.0779844,9.8235 C19.9004063,9.00103125 19.9004063,7.66275 19.0779375,6.84028125 L18.6175781,6.37992188 L21.1896094,3.811125 L21.1896094,10.8504844 Z M18.0835781,8.82909375 C17.8094063,9.10321875 17.3633906,9.1033125 17.089125,8.82909375 L15.1002656,6.84028125 C14.8260938,6.56615625 14.8260938,6.12 15.1002656,5.845875 C15.3743906,5.57175 15.8205469,5.57170313 16.0947187,5.845875 C16.1490469,5.90020313 18.0272344,7.77839063 18.0835313,7.8346875 C18.3577031,8.10885937 18.3577031,8.55496875 18.0835781,8.82909375 Z M11.5296562,8.46276562 C10.7071875,7.64029687 9.36890625,7.64025 8.5464375,8.46276562 C7.72195312,9.28720312 7.72190625,10.6215469 8.5464375,11.4460312 C9.36885937,12.2685 10.7071406,12.2685469 11.5296562,11.4460312 C12.3540469,10.6216406 12.3540937,9.28720312 11.5296562,8.46276562 Z M10.5352031,10.4515781 C10.2610312,10.72575 9.81492187,10.7257031 9.54079687,10.4515781 C9.26596875,10.17675 9.26601562,9.732 9.54079687,9.45717188 C9.81492187,9.18304688 10.2610781,9.183 10.5352031,9.45717188 C10.8099844,9.732 10.8100312,10.17675 10.5352031,10.4515781 Z M11.5296094,16.4180625 C10.7071875,15.5955938 9.36885937,15.5955938 8.54639062,16.4180625 C7.72190625,17.2425 7.72185937,18.5768438 8.54639062,19.4013281 C9.3688125,20.2237969 10.7071406,20.2238438 11.5296094,19.4013281 C12.354,18.5769375 12.3540469,17.2425469 11.5296094,16.4180625 Z M10.53525,18.406875 C10.2610781,18.6810469 9.81496875,18.681 9.54084375,18.406875 C9.26601562,18.1320469 9.26601562,17.6872969 9.54084375,17.4124687 C9.81496875,17.1383437 10.261125,17.1382969 10.53525,17.4124687 C10.8099844,17.68725 10.8100312,18.1320937 10.53525,18.406875 Z M15.6996094,12.7997813 C15.7757344,13.1805469 15.5287969,13.5509531 15.1479375,13.6272188 L5.20378125,15.6159844 C4.82292187,15.6921563 4.45251562,15.4451719 4.37639062,15.0643594 C4.30021875,14.6835469 4.54725,14.3131406 4.92801562,14.2369688 L14.8721719,12.2481563 C15.2529375,12.1719844 15.6233906,12.4189688 15.6996094,12.7997813 Z" id="Shape"></path>
        </g>
    </g>
</svg>