<?xml version="1.0" encoding="UTF-8"?>
<svg width="117px" height="64px" viewBox="0 0 117 64" version="1.1" xmlns="http://www.w3.org/2000/svg" xmlns:xlink="http://www.w3.org/1999/xlink">
    <!-- Generator: Sketch 48.2 (47327) - http://www.bohemiancoding.com/sketch -->
    <title>Group 4</title>
    <desc>Created with Sketch.</desc>
    <defs>
        <linearGradient x1="0%" y1="1.72254642e-14%" x2="100%" y2="100%" id="linearGradient-1">
            <stop stop-color="#FF7676" offset="0%"></stop>
            <stop stop-color="#F54EA2" offset="100%"></stop>
        </linearGradient>
    </defs>
    <g id="Page-1" stroke="none" stroke-width="1" fill="none" fill-rule="evenodd">
        <g id="Group-4" transform="translate(0.000000, 8.000000)" fill="url(#linearGradient-1)">
            <path d="M13.892,1.2 L23.748,1.2 L11.332,28.976 L20.548,28.976 L20.548,19.952 L30.532,19.952 L30.532,28.976 L35.972,28.976 L35.972,37.168 L30.532,37.168 L30.532,46 L20.548,46 L20.548,37.168 L0.772,37.168 L0.772,29.296 L13.892,1.2 Z M94.788,1.2 L104.644,1.2 L92.228,28.976 L101.444,28.976 L101.444,19.952 L111.428,19.952 L111.428,28.976 L116.868,28.976 L116.868,37.168 L111.428,37.168 L111.428,46 L101.444,46 L101.444,37.168 L81.668,37.168 L81.668,29.296 L94.788,1.2 Z" id="404"></path>
            <path d="M58.5,46.896 C48.004,46.896 40.964,40.432 40.964,30.896 L40.964,16.304 C40.964,6.768 48.004,0.304 58.5,0.304 C68.996,0.304 76.036,6.768 76.036,16.304 L76.036,30.896 C76.036,40.432 68.996,46.896 58.5,46.896 Z M67.1539995,16.304 C67.1539995,11.376 63.7419323,9.2 58.4989997,9.2 C53.2560672,9.2 49.844,11.376 49.844,16.304 L49.844,30.896 C49.844,35.824 53.2560672,38 58.4989997,38 C63.7419323,38 67.1539995,35.824 67.1539995,30.896 L67.1539995,16.304 Z" id="Combined-Shape" opacity="0.300000012"></path>
        </g>
    </g>
</svg>