<?xml version="1.0" encoding="UTF-8"?>
<svg width="64px" height="61px" viewBox="0 0 64 61" version="1.1" xmlns="http://www.w3.org/2000/svg" xmlns:xlink="http://www.w3.org/1999/xlink">
    <!-- Generator: Sketch 48.2 (47327) - http://www.bohemiancoding.com/sketch -->
    <title>ic_thankyou</title>
    <desc>Created with Sketch.</desc>
    <defs>
        <linearGradient x1="50%" y1="100%" x2="50%" y2="0%" id="linearGradient-1">
            <stop stop-color="#9B23EA" offset="0%"></stop>
            <stop stop-color="#5F72BD" offset="100%"></stop>
        </linearGradient>
    </defs>
    <g id="Thank_You_1440" stroke="none" stroke-width="1" fill="none" fill-rule="evenodd" transform="translate(-688.000000, -308.000000)">
        <g id="ic_thankyou" transform="translate(688.000000, 306.000000)">
            <rect id="Rectangle-6" x="0" y="0" width="64" height="64"></rect>
            <path d="M58.61338,27.3209755 C57.185505,27.3209755 56.02813,28.473751 56.02813,29.8956735 L56.02813,32.4889204 C56.024255,39.2534469 53.375505,45.6116388 48.56988,50.3920469 C43.767755,55.1689694 37.386505,57.7991898 30.599755,57.7991898 C30.594755,57.7991898 30.589755,57.7991898 30.584755,57.7991898 C16.563255,57.7912224 5.16250504,46.4241837 5.17050504,32.4597898 C5.17438004,25.6953878 7.82313004,19.3371959 12.62888,14.5565388 C17.431005,9.77961633 23.81238,7.14939592 30.599005,7.14939592 C30.604005,7.14939592 30.609005,7.14939592 30.614005,7.14939592 C34.198005,7.15138776 37.675255,7.88911429 40.949005,9.34178571 C42.253505,9.92066327 43.78138,9.33668163 44.36263,8.03787959 C44.94363,6.73907755 44.35763,5.21706531 43.05338,4.63818776 C39.11388,2.88997755 34.929755,2.00236531 30.61688,2 C30.61038,2 30.60538,2 30.59888,2 C22.432755,2 14.753005,5.16552653 8.97475504,10.9134694 C3.19200504,16.6658939 0.00475504063,24.3169122 5.04062609e-06,32.457051 C-0.00461995937,40.5969408 3.17363004,48.2515694 8.94988004,54.0107163 C14.72613,59.7698633 22.40838,62.9441041 30.581755,62.9488347 C30.58813,62.9488347 30.593255,62.9488347 30.599755,62.9488347 C38.76588,62.9488347 46.44563,59.7834327 52.22388,54.0353653 C58.00663,48.2828163 61.19388,40.631798 61.19863,32.4904143 L61.19863,29.895798 C61.19863,28.473751 60.041255,27.3209755 58.61338,27.3209755 Z" id="Shape" fill="url(#linearGradient-1)" fill-rule="nonzero"></path>
            <path d="M50.7996276,28.7583863 C49.770019,28.7583863 48.9354619,29.5896268 48.9354619,30.6149431 L48.9354619,32.4848752 C48.9326678,37.3626232 47.0227137,41.9473724 43.5574855,45.3944173 C40.0947811,48.8389487 35.4934052,50.7355415 30.5996323,50.7355415 C30.5960269,50.7355415 30.5924215,50.7355415 30.5888161,50.7355415 C20.4782277,50.7297964 12.2574031,42.5332803 12.2631717,32.4638697 C12.2659659,27.5862115 14.17592,23.0014623 17.6412383,19.5542379 C21.1039427,16.1097065 25.7054088,14.2131136 30.5990915,14.2131136 C30.6026969,14.2131136 30.6063023,14.2131136 30.6099077,14.2131136 C33.1942495,14.2145499 35.7016163,14.7465079 38.0622439,15.7939967 C39.0028895,16.2114122 40.1046058,15.7903162 40.5237321,14.8537793 C40.9426782,13.9172423 40.5201267,12.8197535 39.5796614,12.4023379 C36.7389765,11.1417428 33.721898,10.5017056 30.6119808,10.5 C30.6072938,10.5 30.6036884,10.5 30.5990014,10.5 C24.7105922,10.5 19.1728971,12.78259 15.0063309,16.9273024 C10.8365199,21.0752464 8.53826552,26.5922238 8.5348404,32.4618949 C8.53150542,38.3313864 10.8232701,43.850967 14.9883941,48.0037584 C19.1535181,52.1565499 24.6930159,54.4454236 30.5866529,54.4488347 C30.5912498,54.4488347 30.5949453,54.4488347 30.5996323,54.4488347 C36.4880415,54.4488347 42.0257366,52.1663344 46.1923028,48.0215323 C50.3621138,43.8734985 52.6603682,38.3565211 52.6637933,32.4859524 L52.6637933,30.6150329 C52.6637933,29.5896268 51.8292362,28.7583863 50.7996276,28.7583863 Z" id="Shape" fill="url(#linearGradient-1)" fill-rule="nonzero" opacity="0.200000003"></path>
            <path d="M63.242755,5.56003469 C62.23313,4.5546551 60.596255,4.5546551 59.58663,5.56003469 L30.599255,34.4289694 L24.02313,27.8796857 C23.01363,26.8741816 21.37663,26.8741816 20.36713,27.8796857 C19.357505,28.8851898 19.357505,30.5153837 20.36713,31.5208878 L28.77138,39.8908347 C29.27613,40.393649 29.93788,40.6449939 30.599505,40.6449939 C31.26113,40.6449939 31.922755,40.393649 32.42763,39.8908347 L63.242755,9.20123673 C64.25238,8.19573265 64.25238,6.56553878 63.242755,5.56003469 Z" id="Shape" fill="url(#linearGradient-1)" fill-rule="nonzero"></path>
        </g>
    </g>
</svg>