<?xml version="1.0" encoding="UTF-8"?>
<svg width="64px" height="64px" viewBox="0 0 64 64" version="1.1" xmlns="http://www.w3.org/2000/svg" xmlns:xlink="http://www.w3.org/1999/xlink">
    <!-- Generator: Sketch 48.2 (47327) - http://www.bohemiancoding.com/sketch -->
    <title>ic_error</title>
    <desc>Created with Sketch.</desc>
    <defs>
        <linearGradient x1="0%" y1="1.72254642e-14%" x2="100%" y2="100%" id="linearGradient-1">
            <stop stop-color="#FF7676" offset="0%"></stop>
            <stop stop-color="#F54EA2" offset="100%"></stop>
        </linearGradient>
    </defs>
    <g id="Error_1440" stroke="none" stroke-width="1" fill="none" fill-rule="evenodd" transform="translate(-688.000000, -306.000000)">
        <g id="ic_error" transform="translate(688.000000, 306.000000)">
            <rect id="Rectangle-6" x="0" y="0" width="64" height="64"></rect>
            <path d="M31.9919881,4.71177207 C24.7030442,4.71177207 17.8486281,7.55014356 12.6927348,12.7048222 C2.05104641,23.3440035 2.05104641,40.6559965 12.6927348,51.2961202 C17.846743,56.4498564 24.7011591,59.2882279 31.9929307,59.2882279 C39.2828171,59.2882279 46.1381758,56.4498564 51.2950117,51.2961202 C56.4480773,46.1433262 59.2871176,39.2895826 59.2871176,31.9995288 C59.2861751,24.7104174 56.4461921,17.8585585 51.292184,12.7038798 C46.1362907,7.55014356 39.2818745,4.71177207 31.9919881,4.71177207 M31.9919881,64 C23.4418769,64 15.4045273,60.6716042 9.35978439,54.627343 C3.32352465,48.5925053 0,40.5570493 0,32.0004712 C0,23.4438931 3.32352465,15.4074947 9.35978439,9.37359935 C15.4054699,3.32933814 23.4437621,0 31.9919881,0 C40.5402141,0 48.5785063,3.32933814 54.6251344,9.37359935 C60.6698773,15.4169182 63.9990574,23.4523743 64,31.9995288 C64,40.5476257 60.6708199,48.5840241 54.626077,54.627343 C48.581334,60.6716042 40.5430419,64 31.9919881,64 Z M40.1901108,42 C40.6737132,42 41.1276334,41.8117715 41.4700644,41.4700644 C42.1751973,40.7642076 42.1751973,39.6160139 41.4700644,38.9101571 L34.5599073,32 L41.4700644,25.0891189 C41.8117715,24.7474119 42,24.2927677 42,23.8091653 C42,23.3255629 41.8110476,22.8716427 41.4700644,22.5299356 C41.1276334,22.1882285 40.6737132,22 40.1901108,22 C39.7065084,22 39.2525881,22.1882285 38.9101571,22.5299356 L32,29.4408166 L25.0891189,22.5299356 C24.7474119,22.1882285 24.2927677,22 23.8098892,22 C23.3262868,22 22.8716427,22.1882285 22.5299356,22.5299356 C22.1882285,22.8716427 22,23.3262868 22,23.8098892 C22,24.2934916 22.1882285,24.7474119 22.5299356,25.0891189 L29.4408166,32 L22.5299356,38.9101571 C22.1882285,39.2525881 22,39.7065084 22,40.1901108 C22,40.6737132 22.1882285,41.1276334 22.5299356,41.4700644 C22.8716427,41.8117715 23.3262868,42 23.8091653,42 C24.2927677,42 24.7466879,41.8117715 25.0891189,41.4700644 L32,34.5591834 L38.9101571,41.4700644 C39.2533121,41.8117715 39.7079563,42 40.1901108,42 Z" id="Fill-3" fill="url(#linearGradient-1)"></path>
            <path d="M31.9939911,56 C25.5814077,56 19.5533955,53.5037032 15.0198383,48.9705073 C10.4926435,44.444379 8,38.4177869 8,32.0003534 C8,25.5829198 10.4926435,19.555621 15.0198383,15.0301995 C19.5541024,10.4970036 25.5828215,8 31.9939911,8 C38.4051606,8 44.4338797,10.4970036 48.9688508,15.0301995 C53.502408,19.5626887 55.9992931,25.5892807 56,31.9996466 C56,38.4107193 53.5031149,44.4380181 48.9695577,48.9705073 C44.4360005,53.5037032 38.4072814,56 31.9939911,56 Z M31.9943783,11 C26.3849967,11 21.1100163,13.1843046 17.1421749,17.1511526 C8.95260835,25.3386687 8.95260835,38.6613313 17.1421749,46.8495726 C21.1085656,50.8156954 26.3835459,53 31.9951037,53 C37.6052107,53 42.8809164,50.8156954 46.8494832,46.8495726 C50.8151484,42.8841751 53,37.6097902 53,31.9996374 C52.9992746,26.3902098 50.8136976,21.1172753 46.847307,17.1504274 C42.8794656,13.1843046 37.6044853,11 31.9943783,11 Z" id="Combined-Shape" fill="url(#linearGradient-1)" opacity="0.300000012"></path>
        </g>
    </g>
</svg>