<?xml version="1.0" encoding="UTF-8"?>
<svg width="48px" height="48px" viewBox="0 0 48 48" version="1.1" xmlns="http://www.w3.org/2000/svg" xmlns:xlink="http://www.w3.org/1999/xlink">
    <!-- Generator: Sketch 48.2 (47327) - http://www.bohemiancoding.com/sketch -->
    <title>Group 3</title>
    <desc>Created with Sketch.</desc>
    <defs></defs>
    <g id="Press" stroke="none" stroke-width="1" fill="none" fill-rule="evenodd" transform="translate(-912.000000, -1234.000000)">
        <g id="Text" transform="translate(160.000000, 358.000000)" fill="#13293D" fill-rule="nonzero">
            <g id="Section#1" transform="translate(0.000000, 48.000000)">
                <g id="Glyph" transform="translate(352.000000, 688.000000)">
                    <g id="Logotype-Black" transform="translate(352.000000, 92.000000)">
                        <g id="Logo_color">
                            <g id="Group-3" transform="translate(48.000000, 48.000000)">
                                <path d="M24.0001483,0 C30.38694,0 36.4548966,2.51418685 40.9704954,7.0297578 C45.4857975,11.5453287 48,17.6132476 48,23.9997034 C48,30.3867522 45.4857975,36.454968 40.9704954,40.9705389 C36.4548966,45.4858131 30.38694,48 24.0001483,48 C17.6130599,48 11.5451035,45.4858131 7.02980121,40.9705389 C2.51420239,36.454968 0,30.3867522 0,23.9997034 C0,17.6132476 2.51420239,11.5453287 7.02980121,7.0297578 C11.5451035,2.51418685 17.6133565,0 24.0001483,0 Z M38.3041419,9.69579831 C34.4979888,5.88966882 29.3838691,3.77083539 24.0001483,3.77083539 C18.6164274,3.77083539 13.5020113,5.88966882 9.69585822,9.69579831 C5.88970521,13.5019278 3.77115528,18.6163124 3.77115528,23.9997034 C3.77115528,29.383391 5.88970521,34.4980722 9.69585822,38.3042016 C13.5020113,42.1103313 18.616724,44.2285713 24.0001483,44.2285713 C29.3835726,44.2285713 34.4979888,42.1100346 38.3041419,38.3042016 C42.1102947,34.4977755 44.2291413,29.3836876 44.2291413,23.9997034 C44.2291413,18.6163124 42.1102947,13.5019278 38.3041419,9.69579831 Z M30.6268824,24.5409787 C28.7619177,26.0897677 26.4316018,26.9391992 24.0001483,26.9391992 C21.5686948,26.9391992 19.2380823,26.0897677 17.3734143,24.5409787 L17.3734143,32.7826002 L13.6022591,32.7826002 L13.6022591,15.2171033 L17.3734143,15.2171033 L17.3734143,16.5416708 C17.3734143,18.3040039 18.0766317,19.9758774 19.3211278,21.2200692 C20.5656239,22.4645576 22.2381008,23.1683638 24.0001483,23.1683638 C25.7618992,23.1683638 27.4343762,22.4651508 28.6788722,21.2200692 C29.9233683,19.9758774 30.6268824,18.3040039 30.6268824,16.5416708 L30.6268824,15.2171033 L34.3977411,15.2171033 L34.3977411,32.7826002 L30.6268824,32.7826002 L30.6268824,24.5409787 Z" id="Fill-6"></path>
                            </g>
                        </g>
                    </g>
                </g>
            </g>
        </g>
    </g>
</svg>