<?xml version="1.0" encoding="UTF-8"?>
<svg width="50px" height="50px" viewBox="0 0 50 50" version="1.1" xmlns="http://www.w3.org/2000/svg" xmlns:xlink="http://www.w3.org/1999/xlink">
    <!-- Generator: Sketch 48.2 (47327) - http://www.bohemiancoding.com/sketch -->
    <title>Group 3</title>
    <desc>Created with Sketch.</desc>
    <defs>
        <path d="M24.0001483,0 C30.38694,0 36.4548966,2.51418685 40.9704954,7.0297578 C45.4857975,11.5453287 48,17.6132476 48,23.9997034 C48,30.3867522 45.4857975,36.454968 40.9704954,40.9705389 C36.4548966,45.4858131 30.38694,48 24.0001483,48 C17.6130599,48 11.5451035,45.4858131 7.02980121,40.9705389 C2.51420239,36.454968 0,30.3867522 0,23.9997034 C0,17.6132476 2.51420239,11.5453287 7.02980121,7.0297578 C11.5451035,2.51418685 17.6133565,0 24.0001483,0 Z M38.3041419,9.69579831 C34.4979888,5.88966882 29.3838691,3.77083539 24.0001483,3.77083539 C18.6164274,3.77083539 13.5020113,5.88966882 9.69585822,9.69579831 C5.88970521,13.5019278 3.77115528,18.6163124 3.77115528,23.9997034 C3.77115528,29.383391 5.88970521,34.4980722 9.69585822,38.3042016 C13.5020113,42.1103313 18.616724,44.2285713 24.0001483,44.2285713 C29.3835726,44.2285713 34.4979888,42.1100346 38.3041419,38.3042016 C42.1102947,34.4977755 44.2291413,29.3836876 44.2291413,23.9997034 C44.2291413,18.6163124 42.1102947,13.5019278 38.3041419,9.69579831 Z M30.6268824,24.5409787 C28.7619177,26.0897677 26.4316018,26.9391992 24.0001483,26.9391992 C21.5686948,26.9391992 19.2380823,26.0897677 17.3734143,24.5409787 L17.3734143,32.7826002 L13.6022591,32.7826002 L13.6022591,15.2171033 L17.3734143,15.2171033 L17.3734143,16.5416708 C17.3734143,18.3040039 18.0766317,19.9758774 19.3211278,21.2200692 C20.5656239,22.4645576 22.2381008,23.1683638 24.0001483,23.1683638 C25.7618992,23.1683638 27.4343762,22.4651508 28.6788722,21.2200692 C29.9233683,19.9758774 30.6268824,18.3040039 30.6268824,16.5416708 L30.6268824,15.2171033 L34.3977411,15.2171033 L34.3977411,32.7826002 L30.6268824,32.7826002 L30.6268824,24.5409787 Z" id="path-1"></path>
    </defs>
    <g id="Page-1" stroke="none" stroke-width="1" fill="none" fill-rule="evenodd">
        <g id="Group-3" transform="translate(1.000000, 1.000000)" fill-rule="nonzero">
            <g id="Fill-6">
                <use fill="#FFFFFF" fill-rule="evenodd" xlink:href="#path-1"></use>
                <path stroke="#0066FF" stroke-width="1" d="M24.0001483,-0.5 C30.5190131,-0.5 36.7143027,2.06648674 41.3240593,6.67621493 C45.933539,11.2859691 48.5,17.4812326 48.5,23.9997034 C48.5,30.5187561 45.9335469,36.7143198 41.3240361,41.324105 C36.7142259,45.9335838 30.518914,48.5 24.0001483,48.5 C17.4810832,48.5 11.2857655,45.9335814 6.67624891,41.3240934 C2.06652358,36.7143966 -0.5,30.5188553 -0.5,23.9997034 C-0.5,17.4811334 2.06653143,11.2858923 6.6762373,6.67621493 C11.2856121,2.06656581 17.4811723,-0.5 24.0001483,-0.5 Z M37.9505896,10.0493528 C34.2379019,6.33668817 29.2508335,4.27083539 24.0001483,4.27083539 C18.749391,4.27083539 13.7620471,6.33673917 10.0494105,10.0493528 C6.33692461,13.7618158 4.27115528,18.7490651 4.27115528,23.9997034 C4.27115528,29.2506724 6.33694869,34.2382083 10.0494105,37.9506471 C13.7617228,41.6629366 18.749229,43.7285713 24.0001483,43.7285713 C29.2507326,43.7285713 34.2380482,41.6628763 37.9505758,37.9506609 C41.6633275,34.2376427 43.7291413,29.2505775 43.7291413,23.9997034 C43.7291413,18.7492393 41.6631985,13.761939 37.9505896,10.0493528 Z M30.1268824,25.5439974 C28.3248757,26.776061 26.1989802,27.4391992 24.0001483,27.4391992 C21.8012774,27.4391992 19.6752089,26.7760408 17.8734143,25.5440589 L17.8734143,33.2826002 L13.1022591,33.2826002 L13.1022591,14.7171033 L17.8734143,14.7171033 L17.8734143,16.5416708 C17.8734143,18.1645483 18.5190548,19.7111719 19.6746801,20.8665147 C20.8304507,22.0222782 22.3777565,22.6683638 24.0001483,22.6683638 C25.6227966,22.6683638 27.169902,22.0224763 28.3253621,20.8664726 C29.4810765,19.7110407 30.1268824,18.164367 30.1268824,16.5416708 L30.1268824,14.7171033 L34.8977411,14.7171033 L34.8977411,33.2826002 L30.1268824,33.2826002 L30.1268824,25.5439974 Z"></path>
            </g>
        </g>
    </g>
</svg>