<?xml version="1.0" encoding="UTF-8"?>
<svg width="64px" height="61px" viewBox="0 0 64 61" version="1.1" xmlns="http://www.w3.org/2000/svg" xmlns:xlink="http://www.w3.org/1999/xlink">
    <!-- Generator: Sketch 48.2 (47327) - http://www.bohemiancoding.com/sketch -->
    <title>ic_login</title>
    <desc>Created with Sketch.</desc>
    <defs>
        <linearGradient x1="0%" y1="50%" x2="100%" y2="50%" id="linearGradient-1">
            <stop stop-color="#88DFDF" offset="0%"></stop>
            <stop stop-color="#24B9F0" offset="49.8880119%"></stop>
            <stop stop-color="#0066FF" offset="100%"></stop>
        </linearGradient>
        <linearGradient x1="1.44424438%" y1="0%" x2="100%" y2="100%" id="linearGradient-2">
            <stop stop-color="#17EAD9" offset="0%"></stop>
            <stop stop-color="#6078EA" offset="100%"></stop>
        </linearGradient>
    </defs>
    <g id="Login_1440" stroke="none" stroke-width="1" fill="none" fill-rule="evenodd" transform="translate(-688.000000, -392.000000)">
        <g id="Content_Area" transform="translate(380.000000, 262.000000)">
            <g id="ic_login" transform="translate(308.000000, 128.000000)">
                <rect id="Rectangle-6" x="0" y="0" width="64" height="64"></rect>
                <path d="M44.556625,30.9032179 L37.709,26.0343312 C36.46825,25.1522308 34.7535,26.0504679 34.7535,27.5799295 L34.7535,30.5577906 L1.875,30.5577906 C0.8395,30.5577906 0,31.4044658 0,32.4488162 C0,33.4931667 0.8395,34.3398419 1.875,34.3398419 L34.7535,34.3398419 L34.7535,37.3175769 C34.7535,38.8571239 36.477375,39.7384679 37.708875,38.8631752 L44.5565,33.9944145 C45.6145,33.2424167 45.613625,31.6562244 44.556625,30.9032179 Z" id="Shape" fill="url(#linearGradient-1)" fill-rule="nonzero"></path>
                <path d="M33.80075,2.5 C50.2172959,2.5 63.5,15.8966277 63.5,32.4488162 C63.5,49.0012953 50.2167568,62.3976346 33.80075,62.3975064 C23.0892344,62.3975064 13.350153,56.6202294 8.07529915,47.4234154 C7.42021705,46.2815151 7.8070717,44.8205775 8.94128974,44.1588918 C10.0780092,43.4961591 11.5324149,43.8878593 12.188722,45.0321706 C16.6193129,52.7568324 24.7937393,57.6155812 33.80075,57.6155812 C47.5564441,57.6155812 58.75,46.3263922 58.75,32.4488162 C58.75,18.5712403 47.5564441,7.28205128 33.80075,7.28205128 C24.795564,7.28205128 16.620348,12.1394044 12.1888368,19.8651015 C11.5324329,21.009422 10.077931,21.4012964 8.94129788,20.7382943 C7.80724917,20.0767074 7.42045566,18.6158163 8.07540647,17.4738697 C13.3501314,8.27776809 23.0885377,2.5 33.80075,2.5 Z" id="Shape" fill="url(#linearGradient-2)" fill-rule="nonzero"></path>
                <path d="M34.1230226,10.75 C45.9031011,10.75 55.4344177,20.5910043 55.4344177,32.7500463 C55.4344177,44.9093017 45.9027142,54.7500942 34.1230226,54.75 C26.4367227,54.75 19.4482159,50.5060806 15.6631205,43.7502098 C15.1930509,42.9113834 15.4706476,41.8381958 16.2845324,41.3521294 C17.1002122,40.8652937 18.1438552,41.1530321 18.6148037,41.9936296 C21.7940784,47.6680749 27.6598303,51.2372543 34.1230226,51.2372543 C43.9937443,51.2372543 52.0259435,42.9443495 52.0259435,32.7500463 C52.0259435,22.5557431 43.9937443,14.2628383 34.1230226,14.2628383 C27.6611396,14.2628383 21.7948212,17.8309925 18.6148861,23.5061982 C18.1438681,24.3468025 17.1001561,24.6346689 16.2845382,24.1476353 C15.4707749,23.6616414 15.1932221,22.5884881 15.6631975,21.7496276 C19.4482004,14.9942801 26.4362228,10.75 34.1230226,10.75 Z" id="Shape" fill="url(#linearGradient-2)" fill-rule="nonzero" opacity="0.229999989"></path>
            </g>
        </g>
    </g>
</svg>