<?xml version="1.0" encoding="UTF-8"?>
<svg width="53px" height="64px" viewBox="0 0 53 64" version="1.1" xmlns="http://www.w3.org/2000/svg" xmlns:xlink="http://www.w3.org/1999/xlink">
    <!-- Generator: Sketch 48.2 (47327) - http://www.bohemiancoding.com/sketch -->
    <title>ic_support</title>
    <desc>Created with Sketch.</desc>
    <defs>
        <linearGradient x1="0%" y1="0%" x2="100%" y2="100%" id="linearGradient-1">
            <stop stop-color="#88DFDF" offset="0%"></stop>
            <stop stop-color="#24B9F0" offset="49.8880119%"></stop>
            <stop stop-color="#0066FF" offset="100%"></stop>
        </linearGradient>
    </defs>
    <g id="Contact_Us_1440" stroke="none" stroke-width="1" fill="none" fill-rule="evenodd" transform="translate(-694.000000, -390.000000)">
        <g id="Content_Area" transform="translate(380.000000, 262.000000)">
            <g id="ic_support" transform="translate(308.000000, 128.000000)">
                <rect id="Rectangle-6" x="0" y="0" width="64" height="64"></rect>
                <path d="M30.8789055,35.2662744 C29.9015159,35.815011 29.5624038,37.035645 30.1224054,37.9934952 C30.4989755,38.6384436 31.1859108,39 31.8938774,39 C32.2373451,39 32.5852928,38.914519 32.9033737,38.7359967 C37.7131658,36.0369445 44.2855943,31.4937715 45.81975,23.2343105 C46.415094,20.0428586 45.5977404,15.1610542 42.4357221,11.4446443 C39.9606392,8.53670628 36.5767358,7 32.6516219,7 C28.29568,7 24.627918,8.86143639 22.3251911,12.2400684 C19.6977877,16.0948819 19.2637242,21.3220245 21.1931166,25.8834887 C21.6260601,26.9029194 22.8188637,27.3866611 23.8581023,26.9635243 C24.898461,26.5403874 25.3921336,25.372676 24.9614301,24.3532454 C23.5676481,21.0600943 23.8646979,17.1760149 25.7168101,14.4585494 C26.7936311,12.8785539 28.8721084,10.9944364 32.6526174,10.9944364 C35.3683766,10.9944364 37.6060188,12.0063067 39.3045661,14.0029761 C41.5089816,16.5916714 42.2334993,20.2451595 41.8093914,22.516807 C40.8740641,27.5565256 37.4006849,31.607299 30.8789055,35.2662744 Z" id="Shape" fill="url(#linearGradient-1)" fill-rule="nonzero" opacity="0.300000012"></path>
                <path d="M57.2475,44.224625 C58.772875,48.20275 58.949375,56.24775 58.94925,61.952125 C58.952625,63.083625 58.034125,64 56.903625,64 L8.0985,64 C6.968125,64 6.050625,63.083875 6.050625,61.953375 C6.050625,60.822875 6.968125,59.9055 8.0985,59.9055 L54.84475,59.9055 C54.7715,52.7335 54.2945,47.9565 53.425875,45.69125 C52.306625,42.76925 47.432,40.047875 44.386875,38.669 C42.452125,42.755875 37.603125,52.71125 34.17075,57.348375 C33.398625,58.39 31.651375,58.39 30.878125,57.348375 C27.44575,52.710125 22.595625,42.75025 20.663125,38.665625 C17.568125,40.055625 12.75125,42.747 11.624125,45.690125 C10.488125,48.649875 10.54025,51.52975 10.59575,54.579375 C10.60675,55.227125 10.619,55.8695 10.619,56.507375 C10.619,57.638875 9.701625,58.55525 8.571125,58.55525 C7.44075,58.55525 6.52325,57.638875 6.52325,56.507375 C6.52325,55.893875 6.51225,55.276 6.5,54.653625 C6.443375,51.500875 6.377875,47.927625 7.798,44.223625 C10.078875,38.266375 19.871125,34.51225 20.979375,34.104 C21.9855,33.736875 23.102625,34.2005 23.5475,35.170125 C23.60525,35.294375 28.577375,46.080625 32.52225,52.448375 C36.46925,46.0795 41.4425,35.294375 41.499125,35.170125 C41.945,34.199375 43.064375,33.73575 44.06725,34.104 C45.176625,34.51225 54.9655,38.26625 57.2475,44.224625 Z M14.436375,27.6685 C12.44725,27.309125 11.165875,26.340625 10.397125,25.50075 C9.181375,24.17275 8.512375,22.3645 8.512375,20.40875 C8.512375,16.770125 10.8975,13.0205 14.9755,12.2295 C16.56075,7.318375 21.5595,0 32.001875,0 C42.796,0 48.049875,7.043375 49.752625,11.78475 C54.102375,12.549125 56.650625,16.46625 56.650625,20.266875 C56.650625,22.2715 55.95625,24.120875 54.694875,25.473125 C53.700875,26.5415 51.870375,27.813875 48.80525,27.813875 C47.67375,27.813875 46.757375,26.8975 46.757375,25.766 C46.757375,24.6345 47.67375,23.718125 48.80525,23.718125 C50.08325,23.718125 51.056125,23.368625 51.697375,22.67975 C52.249875,22.08725 52.55275,21.228625 52.55275,20.264625 C52.55275,18.073625 51.023,15.745125 48.186375,15.745125 C47.233375,15.745125 46.405875,15.08725 46.190625,14.157625 C46.094125,13.754875 43.639125,4.0935 31.99975,4.0935 C20.937125,4.0935 18.681875,14.1165 18.590875,14.5425 C18.390125,15.489875 17.5525,16.17325 16.58625,16.17325 C13.6875,16.17325 12.607,18.771375 12.607,20.407625 C12.607,21.337375 12.894375,22.162625 13.416875,22.734 C14.01475,23.38625 14.92,23.718 16.10925,23.718 C17.180875,23.718 18.07175,24.54325 18.151625,25.611625 C18.151625,25.616 18.372375,27.777125 20.002,28.7145 C21.468125,29.558 23.83225,29.334875 26.876375,28.07225 C27.312125,27.113375 28.27675,26.445875 29.399375,26.445875 C30.931375,26.445875 32.1705,27.688375 32.1705,29.21925 C32.1705,30.746875 30.931375,31.992625 29.399375,31.992625 C29.079875,31.992625 28.773375,31.93775 28.487875,31.838125 C26.13025,32.818875 24.009125,33.3095 22.13975,33.3095 C20.54125,33.3095 19.12675,32.95125 17.90425,32.232375 C15.838625,31.01875 14.877875,29.0785 14.436375,27.6685 Z" id="Combined-Shape" fill="url(#linearGradient-1)" fill-rule="nonzero"></path>
            </g>
        </g>
    </g>
</svg>