<?xml version="1.0" encoding="UTF-8"?>
<svg width="64px" height="64px" viewBox="0 0 64 64" version="1.1" xmlns="http://www.w3.org/2000/svg" xmlns:xlink="http://www.w3.org/1999/xlink">
    <!-- Generator: Sketch 49.2 (51160) - http://www.bohemiancoding.com/sketch -->
    <title>ic_points</title>
    <desc>Created with Sketch.</desc>
    <defs>
        <linearGradient x1="100%" y1="0%" x2="0%" y2="100%" id="linearGradient-1">
            <stop stop-color="#AC32E4" offset="0%"></stop>
            <stop stop-color="#7918F2" offset="47.8728925%"></stop>
            <stop stop-color="#4801FF" offset="100%"></stop>
        </linearGradient>
    </defs>
    <g id="Page-1" stroke="none" stroke-width="1" fill="none" fill-rule="evenodd">
        <g id="ic_points">
            <rect id="Rectangle-11" x="0" y="0" width="64" height="64"></rect>
            <path d="M17.7819064,17.7809436 C18.3308337,17.2324806 19.220577,17.2327928 19.7691921,17.7818804 L19.8519371,17.8647821 C20.4003962,18.4137135 20.3999278,19.3034633 19.8510004,19.8519263 C19.5765367,20.1260798 19.2171423,20.2630004 18.857904,20.2630004 C18.4980411,20.2630004 18.1383345,20.1256114 17.8638708,19.8509896 L17.7811257,19.7680878 C17.2326667,19.2190003 17.2331351,18.3292505 17.7819064,17.7809436 Z M30.6339264,13.2970671 L30.6339264,13.4141599 C30.6339264,14.1902515 31.2629448,14.8192745 32.0390307,14.8192745 C32.8151166,14.8192745 33.4441349,14.1902515 33.4441349,13.4141599 L33.4441349,13.2970671 C33.4441349,12.5209755 32.8151166,11.8919525 32.0390307,11.8919525 C31.2629448,11.8919525 30.6339264,12.5209755 30.6339264,13.2970671 Z M50.5859382,30.5559326 C49.8098523,30.5559326 49.180834,31.1849555 49.180834,31.9610471 C49.180834,32.7371387 49.8098523,33.3661616 50.5859382,33.3661616 L50.7030302,33.3661616 C51.4791162,33.3661616 52.1081345,32.7371387 52.1081345,31.9610471 C52.1081345,31.1849555 51.4791162,30.5559326 50.7030302,30.5559326 L50.5859382,30.5559326 Z M27.127723,4.87262491 C27.127723,2.18588982 29.3134407,0 32,0 C34.6868715,0 36.8727454,2.1857337 36.8727454,4.87262491 C36.8727454,7.55920387 34.6868715,9.74493756 32,9.74493756 C29.3134407,9.74493756 27.127723,7.55920387 27.127723,4.87262491 Z M29.9379315,4.87262491 C29.9379315,6.0096748 30.8629584,6.93470852 32,6.93470852 C33.1371977,6.93470852 34.0625369,6.0096748 34.0625369,4.87262491 C34.0625369,3.73541889 33.1371977,2.81022904 32,2.81022904 C30.8629584,2.81022904 29.9379315,3.73541889 29.9379315,4.87262491 Z M47.7368552,16.2634199 C46.8163558,15.3430699 46.3095815,14.1195274 46.3095815,12.8180791 C46.3095815,11.5166308 46.8163558,10.2929322 47.7366991,9.37273834 C49.6367123,7.47286738 52.7274732,7.47286738 54.6274864,9.37273834 C56.5270312,11.2726093 56.5270312,14.3637051 54.6274864,16.2634199 C53.6776359,17.2131212 52.4297472,17.6880499 51.1821708,17.6880499 C49.9342821,17.6880499 48.6867057,17.2132774 47.7368552,16.2634199 Z M49.11979,12.8180791 C49.11979,13.368884 49.3343026,13.8867468 49.7236726,14.2762758 C50.5278606,15.0803135 51.8360126,15.0801574 52.6403567,14.2762758 C53.4442325,13.472238 53.4442325,12.1639203 52.6402006,11.3597264 C52.2383408,10.9577075 51.7100216,10.7567761 51.1820147,10.7567761 C50.6538516,10.7567761 50.1258446,10.9577075 49.7238287,11.3597264 C49.3343026,11.7494115 49.11979,12.2672742 49.11979,12.8180791 Z M9.37266975,16.2632638 C7.47296882,14.3632367 7.47296882,11.272297 9.37282587,9.37258222 C11.2725268,7.47255514 14.3639122,7.47286738 16.2636132,9.37258222 C18.1633141,11.2721409 18.1633141,14.3632367 16.2636132,16.2631077 C15.3431138,17.1834577 14.1197363,17.6903918 12.8181415,17.6903918 C11.5167027,17.6905479 10.2931691,17.1836138 9.37266975,16.2632638 Z M11.3599555,14.2761196 C12.1639874,15.0803135 13.4722955,15.0800013 14.2764835,14.2761196 C15.0805154,13.4720819 15.0805154,12.1637641 14.2764835,11.3597264 C13.4724517,10.5556886 12.1641435,10.5555325 11.3599555,11.3597264 C10.5557675,12.1637641 10.5557675,13.4720819 11.3599555,14.2761196 Z M45.1424083,20.2630004 C45.5024272,20.2630004 45.8624461,20.1254553 46.1369098,19.8505212 L46.2194987,19.7677756 C46.7676455,19.2185319 46.7668649,18.3289383 46.2176253,17.7806314 C45.6682295,17.2324806 44.7787985,17.2331051 44.2303395,17.7825049 L44.1477506,17.8652505 C43.5996038,18.4144941 43.6003845,19.3040878 44.1496241,19.8523947 C44.4242439,20.1262359 44.7833261,20.2630004 45.1424083,20.2630004 Z M36.8727454,59.1275312 C36.8727454,61.8142663 34.6868715,64 32,64 C29.3134407,64 27.127723,61.8142663 27.127723,59.1275312 C27.127723,56.4409523 29.3134407,54.2550624 32,54.2550624 C34.6868715,54.2550624 36.8727454,56.4409523 36.8727454,59.1275312 Z M34.0625369,59.1275312 C34.0625369,57.9903252 33.1371977,57.0652915 32,57.0652915 C30.8629584,57.0652915 29.9379315,57.9903252 29.9379315,59.1275312 C29.9379315,60.2647372 30.8629584,61.189771 32,61.189771 C33.1371977,61.1899271 34.0625369,60.2647372 34.0625369,59.1275312 Z M13.2971259,30.5559326 C12.52104,30.5559326 11.8920216,31.1849555 11.8920216,31.9610471 C11.8920216,32.7371387 12.52104,33.3661616 13.2971259,33.3661616 L13.4142179,33.3661616 C14.1903038,33.3661616 14.8193221,32.7371387 14.8193221,31.9610471 C14.8193221,31.1849555 14.1903038,30.5559326 13.4142179,30.5559326 L13.2971259,30.5559326 Z M54.6271741,47.7365801 C56.5268751,49.6362949 56.5270312,52.7275468 54.6273303,54.6274178 C53.6774798,55.5772752 52.4297472,56.0522039 51.1820147,56.0522039 C49.9342821,56.0522039 48.6867057,55.5772752 47.7368552,54.6275739 C46.8163558,53.7072239 46.3095815,52.4835253 46.3095815,51.182077 C46.3095815,49.8806287 46.8163558,48.6569301 47.7368552,47.7365801 C49.6365561,45.8370214 52.7274732,45.8371775 54.6271741,47.7365801 Z M52.6402006,49.7237242 C51.836481,48.9199987 50.5281728,48.9198426 49.7236726,49.7238804 C49.3343026,50.1132532 49.11979,50.6312721 49.11979,51.182077 C49.11979,51.7328819 49.3343026,52.2507446 49.7238287,52.6404297 C50.5277045,53.4444675 51.8361687,53.4444675 52.6403567,52.6404297 C53.4442325,51.8362359 53.4442325,50.5279181 52.6402006,49.7237242 Z M46.2191865,44.2319122 L46.1365976,44.1491666 C45.5879825,43.600079 44.6982392,43.5997668 44.1493118,44.1482298 C43.6003845,44.6966929 43.5999161,45.5862865 44.1483751,46.135374 L44.230964,46.2181196 C44.5054277,46.4927415 44.8652905,46.6301304 45.2249972,46.6301304 C45.5843916,46.6301304 45.9437861,46.4932098 46.2180936,46.2190564 C46.7671772,45.6705933 46.7676455,44.7808436 46.2191865,44.2319122 Z M64,32.0000781 C64,34.6868131 61.8142823,36.872703 59.1275669,36.872703 C56.4408515,36.872703 54.2549776,34.6868131 54.2549776,32.0000781 C54.2549776,29.3134991 56.4408515,27.1276093 59.1275669,27.1276093 C61.8142823,27.1276093 64,29.313343 64,32.0000781 Z M61.1897915,32.0000781 C61.1897915,30.862872 60.2646084,29.9378383 59.1275669,29.9378383 C57.9903692,29.9378383 57.0651861,30.862872 57.0651861,32.0000781 C57.0651861,33.1372841 57.9903692,34.0624739 59.1275669,34.0624739 C60.2646084,34.0624739 61.1897915,33.1372841 61.1897915,32.0000781 Z M16.2636132,47.7367362 C18.1633141,49.6366071 18.163158,52.7278591 16.2636132,54.6274178 C15.3136066,55.5772752 14.065874,56.0522039 12.8181415,56.0522039 C11.570565,56.0522039 10.3228325,55.5772752 9.37298199,54.6275739 C7.47328106,52.7278591 7.47312494,49.6367633 9.37282587,47.7368923 C11.2725268,45.8373336 14.3636,45.8370214 16.2636132,47.7367362 Z M14.2763274,49.7238804 C13.4719833,48.9196865 12.1638313,48.9198426 11.3596433,49.7238804 C10.5557675,50.5279181 10.5557675,51.836392 11.3597994,52.6404297 C12.1636751,53.4444675 13.4722955,53.4443114 14.2763274,52.6404297 C15.0805154,51.836392 15.0805154,50.5280742 14.2763274,49.7238804 Z M4.87258925,36.872703 C2.18587382,36.872703 0,34.6868131 0,32.0000781 C0,29.3134991 2.18587382,27.1276093 4.87258925,27.1276093 C7.55930467,27.1276093 9.74517849,29.313343 9.74517849,32.0000781 C9.74517849,34.6868131 7.55930467,36.872703 4.87258925,36.872703 Z M6.93497002,32.0000781 C6.93497002,30.862872 6.00978694,29.9378383 4.87258925,29.9378383 C3.73539155,29.9378383 2.81020847,30.862872 2.81020847,32.0000781 C2.81020847,33.1372841 3.73539155,34.0624739 4.87258925,34.0624739 C6.00978694,34.0624739 6.93497002,33.1372841 6.93497002,32.0000781 Z M17.8643391,44.1488543 L17.7815941,44.2316 C17.2328228,44.7803752 17.2328228,45.6699688 17.7815941,46.2187441 C18.0560578,46.4930537 18.4156084,46.6302866 18.7751589,46.6302866 C19.1347095,46.6302866 19.4942601,46.4930537 19.7687237,46.2187441 L19.8514688,46.1359985 C20.40024,45.5872232 20.40024,44.6976296 19.8514688,44.1488543 C19.3026975,43.600079 18.4131104,43.600079 17.8643391,44.1488543 Z M33.4441349,50.7030891 L33.4441349,50.5859962 C33.4441349,49.8099046 32.8151166,49.1808817 32.0390307,49.1808817 C31.2629448,49.1808817 30.6339264,49.8099046 30.6339264,50.5859962 L30.6339264,50.7030891 C30.6339264,51.4791806 31.2629448,52.1082036 32.0390307,52.1082036 C32.8151166,52.1082036 33.4441349,51.4791806 33.4441349,50.7030891 Z" id="Shape" fill="url(#linearGradient-1)" fill-rule="nonzero"></path>
            <path d="M30.2237143,37.6542857 L27.6677143,37.6542857 L27.6677143,25.6482857 L33.2837143,25.6482857 C35.8937143,25.6482857 37.3157143,27.4122857 37.3157143,29.5182857 C37.3157143,31.6062857 35.8757143,33.3882857 33.2837143,33.3882857 L30.2237143,33.3882857 L30.2237143,37.6542857 Z M32.9417143,31.1382857 C33.9497143,31.1382857 34.7057143,30.5082857 34.7057143,29.5182857 C34.7057143,28.5102857 33.9497143,27.8982857 32.9417143,27.8982857 L30.2237143,27.8982857 L30.2237143,31.1382857 L32.9417143,31.1382857 Z" id="P" fill="url(#linearGradient-1)"></path>
            <path d="M42.8893786,23.7886763 L43.0258482,23.9981663 C44.4805436,26.2312212 45.25,28.8258175 45.25,31.5 C45.25,39.0821962 39.0821962,45.25 31.5,45.25 C28.3119384,45.25 25.2046966,44.1338792 22.7503052,42.1068866 L22.5575795,41.9477214 L24.3079605,39.827464 L24.5007448,39.9865516 C26.4644414,41.6070138 28.9507895,42.5 31.5,42.5 C37.5651788,42.5 42.5,37.5651788 42.5,31.5 C42.5,29.3604901 41.8847805,27.2859258 40.7213851,25.499558 L40.5849796,25.2901105 L42.8893786,23.7886763 Z M31.5,20.5 C25.4348212,20.5 20.5,25.4348212 20.5,31.5 C20.5,33.7814652 21.1915545,35.9677154 22.5007443,37.8258848 L22.6447318,38.0302502 L20.396634,39.6142311 L20.252638,39.4098756 C18.6154481,37.0864179 17.75,34.3507891 17.75,31.5 C17.75,23.9178038 23.9178038,17.75 31.5,17.75 C34.6904024,17.75 37.7988022,18.8673064 40.2531767,20.8965768 L40.4457073,21.0557606 L38.6952554,23.1761036 L38.5024376,23.0166644 C36.5397195,21.3937109 34.0526085,20.5 31.5,20.5 Z" id="Combined-Shape" fill="url(#linearGradient-1)" fill-rule="nonzero" opacity="0.200000003"></path>
        </g>
    </g>
</svg>