<?xml version="1.0" encoding="UTF-8"?>
<svg width="64px" height="64px" viewBox="0 0 64 64" version="1.1" xmlns="http://www.w3.org/2000/svg" xmlns:xlink="http://www.w3.org/1999/xlink">
    <!-- Generator: Sketch 49.2 (51160) - http://www.bohemiancoding.com/sketch -->
    <title>ic_write</title>
    <desc>Created with Sketch.</desc>
    <defs>
        <linearGradient x1="50%" y1="100%" x2="50%" y2="0%" id="linearGradient-1">
            <stop stop-color="#9B23EA" offset="0%"></stop>
            <stop stop-color="#5F72BD" offset="100%"></stop>
        </linearGradient>
    </defs>
    <g id="Page-1" stroke="none" stroke-width="1" fill="none" fill-rule="evenodd">
        <g id="ic_write">
            <rect id="Rectangle-11" x="0" y="0" width="64" height="64"></rect>
            <path d="M23,48 L46,48 C47.1045695,48 48,48.8954305 48,50 C48,51.1045695 47.1045695,52 46,52 L23,52 C21.8954305,52 21,51.1045695 21,50 C21,48.8954305 21.8954305,48 23,48 Z M27,40 L44,40 L44,44 L27,44 C25.8954305,44 25,43.1045695 25,42 C25,40.8954305 25.8954305,40 27,40 Z M33,32 L44,32 L44,36 L33,36 C31.8954305,36 31,35.1045695 31,34 C31,32.8954305 31.8954305,32 33,32 Z M40,24 L44,24 L44,28 L40,28 C38.8954305,28 38,27.1045695 38,26 C38,24.8954305 38.8954305,24 40,24 Z" id="Combined-Shape" fill="url(#linearGradient-1)" opacity="0.200000003"></path>
            <path d="M63.414125,14.1074068 C63.789125,14.4816902 64,14.9897622 64,15.5191753 L63.9995,61.0016587 C63.9995,62.1044156 63.104,62.9985024 61.9995,62.9985024 L11.694,63 C5.246,63 0,57.7617798 0,51.3239557 L0,12.6766683 C0.0005,6.23822023 5.247375,1 11.696,1 L16.33425,1 C17.438625,1 18.334125,1.89358756 18.334,2.9968437 L18.334,13.5238293 L44.124625,13.5228308 L44.124625,2.9968437 C44.124625,1.89358756 45.020125,1 46.124625,1 L54.124375,1 C55.228875,1 56.124375,1.89358756 56.124375,2.9968437 L56.124375,13.5229557 L62.000125,13.5224564 C62.530375,13.5224564 63.039125,13.7329986 63.414125,14.1074068 Z M59.999625,59.004815 L60.00025,17.516019 L56.124375,17.516019 L56.124375,47.1054986 C56.124375,47.4795324 56.019375,47.8450796 55.821625,48.1624529 L51.82175,54.5672043 C51.4565,55.1521547 50.814875,55.5075928 50.1245,55.5075928 C49.434125,55.5075928 48.7925,55.1521547 48.42725,54.5672043 L44.427375,48.1624529 C44.229625,47.8450796 44.124625,47.4794075 44.124625,47.1054986 L44.124625,17.5163934 L18.334,17.5173919 L18.334,41.6440062 C18.334,42.7467632 17.4385,43.6408499 16.334,43.6408499 L11.6945,43.6408499 C7.451875,43.6408499 3.999875,47.087527 3.999875,51.3238309 C3.999875,55.5597604 7.451375,59.0063126 11.694,59.0063126 L59.999625,59.004815 Z M48.1245,4.99356259 L48.1245,10.0400858 L52.124375,10.0400858 L52.124375,4.99356259 L48.1245,4.99356259 Z M48.1245,13.0353514 L48.1245,41.8717712 L52.124375,41.8717712 L52.124375,13.0353514 L48.1245,13.0353514 Z M48.124375,44.866912 L48.124375,46.5341517 L50.124375,49.7364649 L52.124375,46.5341517 L52.124375,44.866912 L48.124375,44.866912 Z M3.99975,12.6766683 L3.99975,42.5377186 C6.05775,40.7389368 8.750625,39.6474122 11.694375,39.6474122 L14.334,39.6474122 L14.334,4.9936874 L11.695875,4.9936874 C7.452875,4.9936874 4.000375,8.44036442 3.99975,12.6766683 Z" id="Shape" fill="url(#linearGradient-1)" fill-rule="nonzero"></path>
        </g>
    </g>
</svg>