<?xml version="1.0" encoding="UTF-8"?>
<svg width="64px" height="64px" viewBox="0 0 64 64" version="1.1" xmlns="http://www.w3.org/2000/svg" xmlns:xlink="http://www.w3.org/1999/xlink">
    <!-- Generator: Sketch 48.2 (47327) - http://www.bohemiancoding.com/sketch -->
    <title>ic_login</title>
    <desc>Created with Sketch.</desc>
    <defs>
        <linearGradient x1="0%" y1="0%" x2="100%" y2="100%" id="linearGradient-1">
            <stop stop-color="#7117EA" offset="0%"></stop>
            <stop stop-color="#EA6060" offset="100%"></stop>
        </linearGradient>
    </defs>
    <g id="Register_1440" stroke="none" stroke-width="1" fill="none" fill-rule="evenodd" transform="translate(-688.000000, -390.000000)">
        <g id="Content_Area" transform="translate(380.000000, 262.000000)">
            <g id="ic_login" transform="translate(308.000000, 128.000000)">
                <rect id="Rectangle-6" x="0" y="0" width="64" height="64"></rect>
                <path d="M32,60 C47.463973,60 60,47.463973 60,32 C60,16.536027 47.463973,4 32,4 C16.536027,4 4,16.536027 4,32 C4,47.463973 16.536027,60 32,60 Z M32,64 C14.326888,64 0,49.673112 0,32 C0,14.326888 14.326888,0 32,0 C49.673112,0 64,14.326888 64,32 C64,49.673112 49.673112,64 32,64 Z M50.2457828,54.9542748 L50.3007992,55.25 L46.7151503,55.25 L46.6723483,55.0531063 C45.1383606,47.9966052 38.8552386,42.9166426 31.5,42.9166426 C24.1447928,42.9166426 17.8616461,47.996646 16.3276516,55.0531068 L16.2848492,55.25 L12.6978884,55.25 L12.754415,54.9532237 C13.9680651,48.5813125 18.4338735,43.2075282 24.4745543,40.7628695 C21.0154744,38.4665401 18.9166426,34.6192518 18.9166426,30.3333574 C18.9166426,23.4119534 24.5786189,17.75 31.5,17.75 C38.421393,17.75 44.0833588,23.4119659 44.0832853,30.3333574 C44.0832853,34.6147831 41.9888268,38.4584762 38.5361337,40.7557105 C44.5716588,43.059343 49.033122,48.4359572 50.2457828,54.9542748 Z M22.25,30 C22.25,34.8087806 26.410176,38.75 31.5,38.75 C36.589824,38.75 40.75,34.8087806 40.75,30 C40.75,25.1912194 36.589824,21.25 31.5,21.25 C26.410176,21.25 22.25,25.1912194 22.25,30 Z" id="Oval-3" fill="url(#linearGradient-1)" fill-rule="nonzero"></path>
                <path d="M45.6793732,49.2311499 C50.7493753,45.2008223 54,38.9800232 54,32 C54,19.8497355 44.1502645,10 32,10 C19.8497355,10 10,19.8497355 10,32 C10,38.8296183 13.1120457,44.9323794 17.9954317,48.9675777 C17.4554,49.7729657 16.9316467,50.6358067 16.4241717,51.5561006 C10.6806079,46.9754872 7,39.9175696 7,32 C7,18.1928813 18.1928813,7 32,7 C45.8071187,7 57,18.1928813 57,32 C57,40.077327 53.1693621,47.2599605 47.2256483,51.8303386 C46.7261928,50.9075792 46.2107678,50.041183 45.6793732,49.2311499 Z" id="Oval-3" fill="url(#linearGradient-1)" fill-rule="nonzero" opacity="0.229999989"></path>
            </g>
        </g>
    </g>
</svg>