<?xml version="1.0" encoding="UTF-8"?>
<svg width="64px" height="64px" viewBox="0 0 64 64" version="1.1" xmlns="http://www.w3.org/2000/svg" xmlns:xlink="http://www.w3.org/1999/xlink">
    <!-- Generator: Sketch 49.2 (51160) - http://www.bohemiancoding.com/sketch -->
    <title>ic_write</title>
    <desc>Created with Sketch.</desc>
    <defs>
        <linearGradient x1="0%" y1="0%" x2="100%" y2="100%" id="linearGradient-1">
            <stop stop-color="#FCE38A" offset="0%"></stop>
            <stop stop-color="#F38181" offset="100%"></stop>
        </linearGradient>
    </defs>
    <g id="Page-1" stroke="none" stroke-width="1" fill="none" fill-rule="evenodd">
        <g id="ic_write">
            <rect id="Rectangle-11" x="0" y="0" width="64" height="64"></rect>
            <path d="M27.7875638,0.437019373 L31.5,3.42688758 L35.2124362,0.437019373 C35.8069624,-0.04172954 36.6207729,-0.135104328 37.3066883,0.196644919 C37.9931004,0.528519165 38.4289372,1.22664258 38.4289372,1.99301584 L38.4289372,11.5426191 C38.4289372,11.5623691 38.4231013,11.5809941 38.4221079,11.600744 C49.6829657,14.675987 58,25.0270885 58,37.3229356 C58,52.0327772 46.1123317,64 31.5,64 C16.8876683,64 5,52.0327772 5,37.3229356 C5,25.0273385 13.3179034,14.677737 24.5777679,11.602369 C24.5772713,11.5818691 24.5709386,11.5628691 24.5709386,11.5424941 L24.5709386,1.99301584 C24.5709386,1.22664258 25.0068996,0.528519165 25.6931875,0.196644919 C26.3791029,-0.135229328 27.1930376,-0.04172954 27.7875638,0.437019373 Z M43.873049,37.3229356 C43.873049,44.19117 38.3226477,49.7786573 31.5,49.7786573 C24.6773523,49.7786573 19.126951,44.19117 19.126951,37.3229356 C19.126951,31.1344496 23.6378006,26.0007113 29.5202327,25.0419635 L29.5202327,21.5170965 C26.0412362,21.9518455 22.8200167,23.513717 20.3013513,26.0495862 C17.3105915,29.0608294 15.6638482,33.0641953 15.6638482,37.3224356 L15.6638482,37.3234356 C15.6643449,46.1149156 22.7687344,53.2667744 31.500745,53.2661494 C35.7308462,53.2661494 39.7075163,51.6080281 42.6984003,48.59666 C45.6892844,45.5854168 47.3359034,41.5820509 47.3359034,37.3238106 L47.3359034,37.3228106 C47.3354067,29.208454 41.2785158,22.5042193 33.4796431,21.5179715 L33.4796431,25.0418385 L33.4797673,25.0418385 C39.3621994,26.0007113 43.873049,31.1345746 43.873049,37.3229356 Z M26.5509542,37.3229356 C26.5509542,35.2849402 27.7756435,33.5339442 29.520481,32.7629459 L29.520481,29.0997043 C25.8352381,29.9993272 23.0864856,33.3399446 23.0864856,37.3228106 C23.0864856,41.993175 26.8607585,45.7926664 31.5001242,45.7926664 C36.1394898,45.7926664 39.9137627,41.993175 39.9137627,37.3228106 C39.9137627,33.3399446 37.1651345,29.9992022 33.4797673,29.0997043 L33.4797673,32.7629459 C35.2246049,33.5338192 36.4492941,35.2849402 36.4492941,37.3229356 C36.4492941,40.0700544 34.2288852,42.3051743 31.5001242,42.3051743 C28.7713631,42.3051743 26.5509542,40.0699294 26.5509542,37.3229356 Z M51.295438,37.3229356 L51.295438,37.3239356 C51.295438,42.6462985 49.2364502,47.6509121 45.498435,51.4149036 C41.7594264,55.178895 36.7885267,57.2520153 31.5009934,57.2520153 C20.5857008,57.2525153 11.7051828,48.3126606 11.7046861,37.3234356 L11.7046861,37.3224356 C11.7046861,32.0000727 13.7636739,26.995459 17.5016892,23.2314676 C20.769845,19.9408501 24.9800789,17.9431046 29.5203569,17.4921056 L29.5203569,16.4858579 L27.6914562,15.0129863 C17.0777726,16.8456071 8.95928628,26.123211 8.95928628,37.3228106 C8.95928628,49.8349072 19.0708261,60.0140091 31.4998758,60.0140091 C43.9289255,60.0140091 54.0407137,49.8350322 54.0407137,37.3229356 C54.0407137,26.132836 45.9470614,16.8277321 35.3469124,14.9824863 L33.4798915,16.4858579 L33.4798915,17.4947306 C43.4680063,18.4986033 51.2949414,27.006584 51.295438,37.3229356 Z M30.2632663,7.53487825 L28.5305974,6.13950642 L28.5305974,10.5846213 L31.5001242,12.9764909 L34.469651,10.5846213 L34.469651,6.13950642 L32.7369821,7.53487825 C32.0138157,8.11725193 30.9863085,8.11725193 30.2632663,7.53487825 Z" id="Shape" fill="url(#linearGradient-1)" fill-rule="nonzero"></path>
        </g>
    </g>
</svg>