<?xml version="1.0" encoding="UTF-8"?>
<svg width="64px" height="64px" viewBox="0 0 64 64" version="1.1" xmlns="http://www.w3.org/2000/svg" xmlns:xlink="http://www.w3.org/1999/xlink">
    <!-- Generator: Sketch 49.2 (51160) - http://www.bohemiancoding.com/sketch -->
    <title>ic_write</title>
    <desc>Created with Sketch.</desc>
    <defs>
        <linearGradient x1="14.5070348%" y1="0%" x2="100%" y2="79.1056384%" id="linearGradient-1">
            <stop stop-color="#F4D03F" offset="0%"></stop>
            <stop stop-color="#16A085" offset="100%"></stop>
        </linearGradient>
        <linearGradient x1="14.5070348%" y1="0%" x2="100%" y2="79.1056384%" id="linearGradient-2">
            <stop stop-color="#9EBD5A" offset="0%"></stop>
            <stop stop-color="#16A085" offset="100%"></stop>
        </linearGradient>
    </defs>
    <g id="Page-1" stroke="none" stroke-width="1" fill="none" fill-rule="evenodd">
        <g id="ic_write">
            <rect id="Rectangle-11" x="0" y="0" width="64" height="64"></rect>
            <path d="M63.6220917,30.829375 L59.205068,24.707875 L59.9745721,17.201125 C60.0624476,16.34225 59.5898201,15.524375 58.8016908,15.171375 L51.9120288,12.088375 L48.8295123,5.19875 C48.4770104,4.410625 47.653256,3.9385 46.8002514,4.025875 L39.290086,4.794375 L33.1699282,0.378 C32.4706744,-0.126 31.5284193,-0.126 30.8290406,0.378 L24.7088827,4.7945 L17.2000924,4.026 C16.3460878,3.9385 15.5228334,4.41075 15.1708315,5.198875 L12.0888149,12.088375 L5.19827792,15.170375 C4.41077369,15.522875 3.93752115,16.34075 4.02539662,17.199625 L4.79440075,24.709375 L0.37800203,30.829375 C-0.126000677,31.528125 -0.126000677,32.4715 0.37800203,33.17025 L4.79502575,39.29125 L4.02652163,46.801 C3.93864615,47.659875 4.4117737,48.47775 5.19990293,48.83025 L12.0880649,51.91125 L15.1710815,58.80175 C15.5235834,59.589875 16.3463378,60.062 17.2003424,59.974625 L24.7091327,59.206125 L30.8292906,63.622125 C31.1789175,63.874 31.5890447,64 31.9996719,64 C32.4097991,64 32.8204263,63.874 33.1695532,63.622125 L39.291086,59.206125 L46.8012514,59.973625 C47.659631,60.0605 48.4770104,59.588375 48.8300123,58.80075 L51.9120288,51.912125 L58.8016908,48.830125 C59.5891951,48.477625 60.0624476,47.65925 59.9745721,46.800875 L59.205568,39.291125 L63.6220917,33.169625 C64.1259694,32.470875 64.1259694,31.528125 63.6220917,30.829375 Z M55.5165482,37.567625 C55.2299216,37.965125 55.0990459,38.45425 55.1487962,38.941625 L55.84805,45.769125 L49.5813913,48.572875 C49.1326389,48.773625 48.773262,49.133 48.5726359,49.581625 L45.7693708,55.84725 L38.9408342,55.1495 C38.4490815,55.099125 37.9642039,55.2305 37.5678268,55.51725 L31.9995469,59.533875 L26.432642,55.51725 C26.0903901,55.270625 25.6806379,55.139375 25.2622607,55.139375 C25.1943853,55.139375 25.12651,55.142875 25.0586346,55.149625 L18.2314729,55.848375 L15.4273329,49.58075 C15.2262068,49.131625 14.8672049,48.772625 14.4180774,48.572 L8.15291879,45.76925 L8.85167254,38.94175 C8.90142281,38.453875 8.77067211,37.965125 8.48392057,37.56775 L4.46639899,31.999875 L8.48354557,26.433 C8.77017211,26.0355 8.90104781,25.546375 8.85129754,25.059 L8.15204379,18.230875 L14.4197024,15.427625 C14.8684549,15.226875 15.2278318,14.8675 15.4284579,14.418875 L18.2317229,8.15225 L25.0588846,8.851 C25.5467622,8.90075 26.0355148,8.77 26.432892,8.482875 L31.9997969,4.46625 L37.5667018,8.482875 C37.9642039,8.77 38.4533315,8.900875 38.9407092,8.851 L45.7692458,8.15225 L48.5730109,14.418875 C48.773762,14.867625 49.1331389,15.2265 49.5817663,15.427625 L55.8478,18.23175 L55.1485462,25.057 C55.0987959,25.544875 55.2295466,26.033625 55.5162982,26.431 L59.5338198,31.999875 L55.5165482,37.567625 Z" id="Shape" fill="url(#linearGradient-1)" fill-rule="nonzero"></path>
            <path d="M55.7165688,31.1220312 L52.403801,26.5309062 L52.9809291,20.9008437 C53.0468357,20.2566875 52.692365,19.6432812 52.1012681,19.3785312 L46.9340216,17.0662812 L44.6221342,11.8990625 C44.3577578,11.3079687 43.739942,10.953875 43.1001885,11.0194062 L37.4675645,11.5957812 L32.8774461,8.2835 C32.3530058,7.9055 31.6463145,7.9055 31.1217804,8.2835 L26.531662,11.595875 L20.9000693,11.0195 C20.2595658,10.953875 19.642125,11.3080625 19.3781236,11.8991562 L17.0666112,17.0662812 L11.8987084,19.3777812 C11.3080803,19.6421562 10.9531409,20.2555625 11.0190475,20.8997188 L11.5958006,26.5320313 L8.28350152,31.1220313 C7.90549949,31.6460938 7.90549949,32.353625 8.28350152,32.8776875 L11.5962693,37.4684375 L11.0198912,43.10075 C10.9539846,43.7449062 11.3088303,44.3583125 11.8999272,44.6226875 L17.0660487,46.9334375 L19.3783111,52.1013125 C19.6426875,52.6924063 20.2597533,53.0465 20.9002568,52.9809688 L26.5318495,52.4045938 L31.1219679,55.7165938 C31.3841881,55.9055 31.6917835,56 31.9997539,56 C32.3073493,56 32.6153197,55.9055 32.8771649,55.7165938 L37.4683145,52.4045938 L43.1009385,52.9802187 C43.7447232,53.045375 44.3577578,52.6912813 44.6225092,52.1005625 L46.9340216,46.9340938 L52.1012681,44.6225938 C52.6918963,44.3582188 53.0468357,43.7444375 52.9809291,43.1006563 L52.404176,37.4683438 L55.7165688,32.8772188 C56.0944771,32.3531562 56.0944771,31.6460937 55.7165688,31.1220312 Z M49.9360213,36.2463721 C49.7174108,36.5495448 49.6175917,36.9225997 49.6555363,37.2943199 L50.1888581,42.5016446 L45.4092687,44.6400607 C45.0670046,44.7931725 44.7929073,45.0672673 44.6398895,45.4094329 L42.5018353,50.1882163 L37.2937006,49.6560434 C36.9186402,49.6176224 36.5488234,49.717822 36.246506,49.9365258 L31.999571,53 L27.7536847,49.9365258 C27.4926487,49.7484252 27.1801302,49.648321 26.8610332,49.648321 C26.8092646,49.648321 26.757496,49.6509905 26.7057273,49.6561387 L21.4986414,50.1890743 L19.3599198,45.4087656 C19.2065207,45.0662186 18.9327094,44.7924098 18.5901593,44.6393934 L13.8117139,42.5017399 L14.3446544,37.2944153 C14.382599,36.9223137 14.2828752,36.5495448 14.0641694,36.2464674 L11,31.999857 L14.0638834,27.7540093 C14.2824939,27.4508366 14.3823129,27.0777816 14.3443684,26.7060614 L13.8110465,21.4982601 L18.5913987,19.3602253 C18.9336628,19.2071135 19.2077601,18.9330187 19.3607779,18.5908531 L21.4988321,13.811307 L26.705918,14.3442426 C27.078023,14.3821869 27.4507953,14.2824641 27.7538754,14.0634742 L31.9997617,11 L36.2456479,14.0634742 C36.5488234,14.2824641 36.9218817,14.3822822 37.2936053,14.3442426 L42.5017399,13.811307 L44.6401755,18.5908531 C44.7932886,18.9331141 45.0673859,19.2068275 45.4095547,19.3602253 L50.1886675,21.4989275 L49.6553456,26.704536 C49.617401,27.0766376 49.7171248,27.4494065 49.9358306,27.7524839 L53,31.999857 L49.9360213,36.2463721 Z" id="Shape" fill="url(#linearGradient-1)" fill-rule="nonzero" opacity="0.300000012"></path>
            <path d="M24.28,24.352 L24.28,20 L38.904,20 L38.904,24.384 L33.944,29.024 C37.016,29.504 39.896,31.36 39.896,35.584 C39.896,39.808 36.056,42.848 31.32,42.848 C26.744,42.848 23.064,40.416 23,35.584 L28.088,35.584 C28.184,37.344 29.4,38.496 31.352,38.496 C33.336,38.496 34.52,37.28 34.52,35.744 C34.52,34.08 33.496,33.056 31.32,33.056 L27.928,33.056 L27.928,28.8 L32.28,24.352 L24.28,24.352 Z" id="Path" fill="url(#linearGradient-2)"></path>
        </g>
    </g>
</svg>