<?xml version="1.0" encoding="UTF-8"?>
<svg width="64px" height="64px" viewBox="0 0 64 64" version="1.1" xmlns="http://www.w3.org/2000/svg" xmlns:xlink="http://www.w3.org/1999/xlink">
    <!-- Generator: Sketch 49.2 (51160) - http://www.bohemiancoding.com/sketch -->
    <title>ic_write</title>
    <desc>Created with Sketch.</desc>
    <defs>
        <linearGradient x1="100%" y1="0%" x2="0%" y2="100%" id="linearGradient-1">
            <stop stop-color="#A445B2" offset="0%"></stop>
            <stop stop-color="#D41872" offset="51.7099809%"></stop>
            <stop stop-color="#FF0066" offset="100%"></stop>
        </linearGradient>
    </defs>
    <g id="Page-1" stroke="none" stroke-width="1" fill="none" fill-rule="evenodd">
        <g id="ic_write">
            <rect id="Rectangle-11" x="0" y="0" width="64" height="64"></rect>
            <path d="M31.3631516,31.6464126 C28.6219171,31.6464126 26.3917772,33.8849008 26.3917772,36.6362709 L26.3917772,36.8394835 C26.3917772,39.5909795 28.6219171,41.8294677 31.3631516,41.8294677 L31.5654809,41.8294677 C34.3531558,41.8294677 36.5368553,39.6375937 36.5368553,36.8394835 L36.5368553,36.6362709 C36.5368553,33.8849008 34.3067154,31.6464126 31.5654809,31.6464126 L31.3631516,31.6464126 Z M31.3631516,45.3866331 C26.6677833,45.3866331 22.847878,41.5524283 22.847878,36.8396094 L22.847878,36.6363969 C22.847878,31.923578 26.6677833,28.0893732 31.3631516,28.0893732 L31.5654809,28.0893732 C36.2608492,28.0893732 40.0807545,31.923578 40.0807545,36.6363969 L40.0807545,36.8396094 C40.0807545,41.5524283 36.2608492,45.3866331 31.5654809,45.3866331 L31.3631516,45.3866331 Z M17.1350397,64.0000126 C16.1579101,64.0000126 15.3631529,63.2021543 15.3631529,62.2213669 L15.3631529,56.8065638 C15.3631529,51.5539024 19.4576837,47.1181228 24.6847311,46.7080441 C24.7296652,46.7046425 24.7751014,46.7028787 24.8202866,46.7028787 C25.2824307,46.7028787 25.7194718,46.8792567 26.0509553,47.1995087 C27.5495973,48.6458079 29.433192,49.4101543 31.4982805,49.4101543 C33.5629924,49.4101543 35.4467126,48.6458079 36.9459821,47.1996346 C37.2777167,46.8786268 37.7103648,46.7021228 38.1643504,46.7021228 C38.2038874,46.7021228 38.2436755,46.7035087 38.2834636,46.7061543 C43.5272043,47.0358551 47.6337846,51.4722646 47.6339101,56.8065638 L47.6339101,62.2213669 C47.6332825,63.2020283 46.8380233,64.0000126 45.8612702,64.0000126 L17.1350397,64.0000126 Z M24.1273216,50.3719181 C21.0535994,51.0027213 18.9069265,53.6486425 18.9069265,56.8065638 L18.9069265,60.4428472 L44.0893833,60.4428472 L44.0893833,56.8065638 C44.0893833,53.6627528 41.8980274,50.9520756 38.8787784,50.3613354 L38.7630541,50.3386583 L38.6718051,50.4136189 C36.6367146,52.0842961 34.1560479,52.9674457 31.4981549,52.9674457 C28.8460356,52.9674457 26.3693854,52.0876976 24.3363031,50.4235717 L24.2439245,50.3481071 L24.1273216,50.3719181 Z M49.2328883,46.8080882 C45.2813183,46.8080882 42.0662669,43.5811276 42.0662669,39.6146394 L42.0662669,39.4115528 C42.0662669,35.4450646 45.2813183,32.2181039 49.2328883,32.2181039 L49.3670632,32.2181039 C53.3187586,32.2181039 56.5336846,35.4450646 56.5336846,39.4115528 L56.5336846,39.5469858 C56.5336846,43.5507654 53.3187586,46.8080882 49.3670632,46.8080882 L49.2328883,46.8080882 Z M48.9818595,35.7837102 C47.1009006,35.913474 45.610166,37.4910488 45.610166,39.4114268 L45.610166,39.6145134 C45.610166,41.6195528 47.2353265,43.2509228 49.2328883,43.2509228 L49.3670632,43.2509228 C51.3646249,43.2509228 52.9897854,41.5889386 52.9897854,39.5462299 L52.9897854,39.4107969 C52.9897854,37.4057575 51.3646249,35.7745134 49.3670632,35.7745134 L48.9818595,35.7745134 L48.9818595,35.7837102 Z M49.5514564,61.2249071 L49.5514564,57.6677417 L58.4525613,57.6677417 L58.4525613,55.3173795 C58.4525613,53.3012535 56.8826272,51.6750488 54.8784132,51.6150803 L54.7830222,51.6121827 L54.7097218,51.673789 C53.2203679,52.9273323 51.4862609,53.5882457 49.5514564,53.6406551 L49.5514564,50.0816 C50.8225407,50.0262929 51.8713391,49.5444031 52.8346621,48.577474 C53.1641374,48.2462614 53.6206333,48.0565291 54.0874214,48.0565291 L54.7616848,48.0565291 C58.7509091,48.0565291 61.996335,51.313726 61.9964605,55.3175055 L61.9964605,59.4463874 C61.9964605,60.4270488 61.2015778,61.2249071 60.2245737,61.2249071 L49.5514564,61.2249071 Z M13.6283556,46.8079118 C9.67666008,46.8079118 6.46173416,43.550337 6.46173416,39.5463055 L6.46173416,39.4108724 C6.46173416,35.4443843 9.67666008,32.2174236 13.6283556,32.2174236 L13.7632835,32.2174236 C17.714979,32.2174236 20.9299049,35.4443843 20.9299049,39.4107465 L20.9299049,39.614589 C20.9299049,43.5809512 17.714979,46.8079118 13.7632835,46.8079118 L13.6283556,46.8079118 Z M13.6284811,35.7752189 C11.6309193,35.7752189 10.0057588,37.406463 10.0057588,39.4115024 L10.0057588,39.5469354 C10.0057588,41.5896441 11.6309193,43.2516283 13.6284811,43.2516283 L13.7634091,43.2516283 C15.7609708,43.2516283 17.3860058,41.6203843 17.3860058,39.6152189 L17.3860058,39.4115024 C17.3860058,37.406463 15.7609708,35.7752189 13.7634091,35.7752189 L13.6284811,35.7752189 Z M2.77184918,61.2250205 C1.79484506,61.2250205 0.999962346,60.4271622 0.999962346,59.4465008 L0.999962346,55.3176189 C0.999962346,51.3138394 4.24513724,48.0566425 8.23398498,48.0566425 L8.90824835,48.0566425 C9.38168868,48.0566425 9.82676276,48.2415874 10.1616352,48.5775874 C11.1240796,49.5445165 12.1730035,50.0264063 13.4448409,50.0817134 L13.4448409,53.6407685 C11.5092833,53.5883591 9.77505082,52.9274457 8.28670103,51.6739024 L8.21340062,51.6122961 L8.11788416,51.6151937 C6.11367016,51.6751622 4.54373601,53.3014929 4.54373601,55.3174929 L4.54373601,57.6678551 L13.5123677,57.6678551 L13.5123677,61.2250205 L2.77184918,61.2250205 Z M10.2087031,19.8316976 L14.6398636,19.8316976 C15.1850981,19.8316976 15.7094973,20.0903433 16.0427381,20.5236031 L19.3066146,24.7680126 L21.989987,20.6386268 C22.3184582,20.1334299 22.8733574,19.8316976 23.4743204,19.8316976 L38.7627278,19.8316976 L38.7627278,3.55717795 L10.2087031,3.55717795 L10.2087031,19.8316976 Z M19.4276105,29.6158866 C18.8823759,29.6158866 18.3579767,29.3572409 18.024736,28.9239811 L13.7692957,23.388863 L8.43606317,23.388863 C7.45893354,23.388863 6.66405082,22.5910047 6.66405082,21.6102173 L6.66405082,1.77853228 C6.66405082,0.797870866 7.45893354,1.25984261e-05 8.43606317,1.25984261e-05 L40.5341126,1.25984261e-05 C41.5112422,1.25984261e-05 42.3061249,0.797870866 42.3061249,1.77853228 L42.3061249,21.6102173 C42.3061249,22.5910047 41.5112422,23.388863 40.533987,23.388863 L24.4333759,23.388863 L20.9119438,28.8090835 C20.5990364,29.2904693 20.0703698,29.5915717 19.497773,29.6147528 C19.4763101,29.6152567 19.4523368,29.6158866 19.4276105,29.6158866 Z" id="Combined-Shape" fill="url(#linearGradient-1)"></path>
            <path d="M15.9885535,10.8361701 C15.0115494,10.8361701 14.2166667,10.1632818 14.2166667,9.33611695 C14.2166667,8.50905834 15.0115494,7.83617008 15.9885535,7.83617008 L29.6774053,7.83617008 C30.654535,7.83617008 31.4494177,8.50905834 31.4494177,9.33611695 C31.4494177,10.1632818 30.654535,10.8361701 29.6774053,10.8361701 L15.9885535,10.8361701 Z" id="Fill-17" fill="url(#linearGradient-1)" opacity="0.300000012"></path>
            <path d="M15.9885535,15.9955528 C15.0114239,15.9955528 14.2165412,15.3226645 14.2165412,14.4954996 C14.2165412,13.668441 15.0114239,12.9955528 15.9885535,12.9955528 L23.5410062,12.9955528 C24.5181358,12.9955528 25.3130185,13.668441 25.3130185,14.4954996 C25.3130185,15.3226645 24.5181358,15.9955528 23.5410062,15.9955528 L15.9885535,15.9955528 Z" id="Fill-19" fill="url(#linearGradient-1)" opacity="0.300000012"></path>
        </g>
    </g>
</svg>