<?xml version="1.0" encoding="UTF-8"?>
<svg width="161px" height="32px" viewBox="0 0 161 32" version="1.1" xmlns="http://www.w3.org/2000/svg" xmlns:xlink="http://www.w3.org/1999/xlink">
    <!-- Generator: Sketch 49 (51002) - http://www.bohemiancoding.com/sketch -->
    <title>Entrepreneur</title>
    <desc>Created with Sketch.</desc>
    <defs></defs>
    <g id="Website" stroke="none" stroke-width="1" fill="none" fill-rule="evenodd">
        <g id="Artboard" transform="translate(-268.000000, -284.000000)" fill="#1B1B1F" fill-rule="nonzero">
            <g id="Entrepreneur" transform="translate(268.000000, 284.000000)">
                <polygon id="Shape" points="0.235897436 21.5407407 2.27051282 21.2148148 2.27051282 2.34074074 0 2.04444444 0.117948718 0 14.3307692 0 13.9769231 5.71851852 11.1461538 5.62962963 10.9692308 2.04444444 6.57564103 2.04444444 6.57564103 10.5481481 8.49230769 10.5481481 8.93461538 8.59259259 10.9102564 8.65185185 10.9102564 14.5185185 8.93461538 14.5185185 8.46282051 12.5037037 6.54615385 12.5037037 6.54615385 21.5111111 10.9692308 21.5111111 11.3820513 17.6 14.3602564 17.6888889 14.5961538 23.6444444 0.147435897 23.6444444"></polygon>
                <path d="M15.9230769,23.6740741 L16.0115385,21.9259259 L17.6038462,21.6 L17.6038462,9.68888889 L15.7461538,9.51111111 L15.7461538,7.73333333 L20.4051282,7.05185185 L20.7589744,8.05925926 L20.7589744,8.74074074 C21.8794872,7.55555556 23.2358974,6.84444444 24.975641,6.84444444 C27.5115385,6.84444444 29.3987179,8.38518519 29.3987179,11.437037 L29.3987179,21.5703704 L31.0794872,21.8962963 L30.9910256,23.6444444 L25.4474359,23.6444444 L25.4474359,12.3259259 C25.4474359,10.6962963 24.8576923,9.77777778 23.3833333,9.77777778 C22.8820513,9.77777778 22.5282051,9.86666667 22.1448718,10.0148148 C21.9089744,10.2222222 21.6730769,10.5185185 21.4666667,10.7851852 L21.4666667,21.6296296 L23.1474359,21.9555556 L23.0294872,23.7037037 L15.9230769,23.7037037 L15.9230769,23.6740741 Z" id="Shape"></path>
                <path d="M105.003846,23.6740741 L105.062821,21.9259259 L106.655128,21.6 L106.655128,9.68888889 L104.797436,9.51111111 L104.797436,7.73333333 L109.45641,7.05185185 L109.810256,8.05925926 L109.810256,8.74074074 C110.930769,7.55555556 112.287179,6.84444444 114.026923,6.84444444 C116.562821,6.84444444 118.45,8.38518519 118.45,11.437037 L118.45,21.5703704 L120.130769,21.8962963 L120.042308,23.6444444 L114.528205,23.6444444 L114.528205,12.3259259 C114.528205,10.6962963 113.938462,9.77777778 112.464103,9.77777778 C111.962821,9.77777778 111.608974,9.86666667 111.225641,10.0148148 C110.989744,10.2222222 110.753846,10.5185185 110.547436,10.7851852 L110.547436,21.6296296 L112.228205,21.9555556 L112.110256,23.7037037 L105.003846,23.7037037 L105.003846,23.6740741 Z" id="Shape"></path>
                <path d="M39.8666667,23.3481481 C39.2179487,23.6148148 38.0679487,23.9111111 36.5641026,23.9111111 C34.5884615,23.9111111 32.7602564,23.0222222 32.7602564,20.1185185 L32.7602564,9.68888889 L30.8730769,9.39259259 L30.9615385,7.31851852 L33.0846154,7.22962963 L33.9987179,4.05925926 L36.7115385,3.94074074 L36.7115385,7.34814815 L39.6307692,7.34814815 L39.424359,9.42222222 L36.7410256,9.71851852 L36.7410256,20.1481481 C36.7410256,21.0074074 37.2128205,21.5703704 38.0974359,21.5703704 L39.6897436,21.5703704 L39.8666667,23.3481481 Z" id="Shape"></path>
                <path d="M150.237179,23.6740741 L150.296154,21.9555556 L151.8,21.6 L151.8,9.68888889 L150.030769,9.51111111 L150.030769,7.73333333 L154.866667,7.05185185 L155.191026,8.20740741 L155.191026,8.59259259 C156.458974,7.64444444 158.169231,7.02222222 160.233333,7.02222222 L160.941026,7.64444444 L160.439744,12.1481481 L157.785897,12.0592593 L157.520513,9.65925926 C156.901282,9.74814815 156.311538,9.92592593 155.810256,10.2814815 L155.810256,21.6296296 L157.491026,21.9851852 L157.373077,23.7037037 L150.237179,23.7037037 L150.237179,23.6740741 Z" id="Shape"></path>
                <path d="M80.7948718,23.6740741 L80.8833333,21.9555556 L82.3871795,21.6 L82.3871795,9.68888889 L80.6179487,9.51111111 L80.6179487,7.73333333 L85.4538462,7.05185185 L85.7782051,8.20740741 L85.7782051,8.59259259 C87.0461538,7.64444444 88.7564103,7.02222222 90.8205128,7.02222222 L91.5282051,7.64444444 L90.9679487,12.1481481 L88.3141026,12.0592593 L88.0487179,9.65925926 C87.4294872,9.74814815 86.8397436,9.92592593 86.3384615,10.2814815 L86.3384615,21.6296296 L88.0192308,21.9851852 L87.9012821,23.7037037 L80.7948718,23.7037037 L80.7948718,23.6740741 Z" id="Shape"></path>
                <path d="M41.0461538,23.6740741 L41.1346154,21.9555556 L42.6384615,21.6 L42.6384615,9.68888889 L40.8692308,9.51111111 L40.8692308,7.73333333 L45.7051282,7.05185185 L46.0294872,8.20740741 L46.0294872,8.59259259 C47.2974359,7.64444444 49.0076923,7.02222222 51.0423077,7.02222222 L51.75,7.64444444 L51.2487179,12.1481481 L48.5948718,12.0592593 L48.3294872,9.65925926 C47.7102564,9.74814815 47.1205128,9.92592593 46.6192308,10.2814815 L46.6192308,21.6296296 L48.3,21.9851852 L48.1820513,23.7037037 L41.0461538,23.7037037 L41.0461538,23.6740741 Z" id="Shape"></path>
                <path d="M56.3205128,16.4148148 C56.3205128,19.2592593 57.5589744,21.4518519 60.0064103,21.4518519 C61.274359,21.4518519 62.2769231,21.1851852 63.4564103,20.6222222 L64.1346154,22.1925926 C62.925641,23.1703704 61.1564103,23.9111111 58.9448718,23.9111111 C54.6397436,23.9111111 52.1628205,20.1777778 52.1628205,15.3777778 C52.1628205,11.2888889 53.9615385,6.81481481 58.8858974,6.81481481 C63.1910256,6.81481481 64.8128205,10.8148148 64.8128205,15.2592593 L64.4,16.3259259 L56.3205128,16.4148148 Z M56.2615385,14.5185185 L61.2153846,14.2814815 C61.1269231,12.2962963 60.7141026,9.15555556 58.7679487,9.15555556 C58.2961538,9.15555556 57.9717949,9.24444444 57.3820513,9.54074074 C56.5858974,10.9037037 56.2615385,13.362963 56.2615385,14.5185185 Z" id="Shape"></path>
                <path d="M124.848718,16.4148148 C124.848718,19.2592593 126.087179,21.4518519 128.534615,21.4518519 C129.802564,21.4518519 130.805128,21.1851852 131.984615,20.6222222 L132.662821,22.1925926 C131.453846,23.1703704 129.684615,23.9111111 127.473077,23.9111111 C123.167949,23.9111111 120.691026,20.1777778 120.691026,15.3777778 C120.691026,11.2888889 122.489744,6.81481481 127.414103,6.81481481 C131.719231,6.81481481 133.341026,10.8148148 133.341026,15.2592593 L132.928205,16.3259259 L124.848718,16.4148148 Z M124.789744,14.5185185 L129.74359,14.2814815 C129.655128,12.2962963 129.242308,9.15555556 127.296154,9.15555556 C126.824359,9.15555556 126.5,9.24444444 125.910256,9.54074074 C125.114103,10.9037037 124.789744,13.362963 124.789744,14.5185185 Z" id="Shape"></path>
                <path d="M96.0692308,16.4148148 C96.0692308,19.2592593 97.3076923,21.4518519 99.7551282,21.4518519 C101.023077,21.4518519 102.025641,21.1851852 103.205128,20.6222222 L103.883333,22.1925926 C102.674359,23.1703704 100.905128,23.9111111 98.6935897,23.9111111 C94.3884615,23.9111111 91.9115385,20.1777778 91.9115385,15.3777778 C91.9115385,11.2888889 93.7102564,6.81481481 98.6346154,6.81481481 C102.939744,6.81481481 104.561538,10.8148148 104.561538,15.2592593 L104.148718,16.3259259 L96.0692308,16.4148148 Z M96.0102564,14.5185185 L100.964103,14.2814815 C100.875641,12.2962963 100.462821,9.15555556 98.5166667,9.15555556 C98.0448718,9.15555556 97.7205128,9.24444444 97.1307692,9.54074074 C96.3346154,10.9037037 95.9807692,13.362963 96.0102564,14.5185185 Z" id="Shape"></path>
                <path d="M144.487179,23.6740741 L144.074359,22.2518519 C142.983333,23.2888889 141.921795,23.9111111 140.270513,23.9111111 C137.734615,23.9111111 135.464103,22.637037 135.464103,19.1111111 L135.464103,9.27407407 L133.60641,9.0962963 L133.60641,7.52592593 L138.973077,6.9037037 L139.385897,8.32592593 L139.385897,18.637037 C139.385897,20.4444444 140.123077,21.3925926 141.567949,21.3925926 C141.980769,21.3925926 142.511538,21.3333333 142.983333,21.1555556 C143.248718,20.8888889 143.514103,20.562963 143.720513,20.237037 L143.720513,9.27407407 L141.803846,9.0962963 L141.803846,7.52592593 L147.229487,6.9037037 L147.642308,8.32592593 L147.642308,21.6 L149.323077,21.9259259 L149.116667,23.6740741 L144.487179,23.6740741 Z" id="Shape"></path>
                <path d="M72.8628205,21.5407407 C72.0076923,21.5407407 71.3294872,21.3925926 70.7987179,21.0962963 L70.7987179,10.637037 C71.0346154,10.2814815 71.3,9.95555556 71.5653846,9.65925926 C72.0666667,9.48148148 72.5089744,9.42222222 73.0397436,9.42222222 C75.2512821,9.42222222 75.6346154,11.6740741 75.6346154,15.7037037 C75.6346154,19.5851852 75.0448718,20.6518519 74.8974359,21.0962963 C74.2782051,21.3925926 73.6294872,21.5407407 72.8628205,21.5407407 Z M79.4679487,14.9925926 C79.4679487,9.98518519 77.9935897,6.84444444 74.3076923,6.84444444 C71.8602564,6.84444444 70.7102564,8.26666667 70.2384615,8.85925926 L70.2384615,8.2962963 L69.825641,6.87407407 L65.0192308,7.55555556 L65.0192308,9.27407407 L66.8769231,9.51111111 L66.8769231,29.7185185 L65.2846154,30.0444444 L65.1961538,31.7333333 L72.3025641,31.7333333 L72.4205128,30.0444444 L70.7397436,29.7185185 L70.7397436,23.3185185 C71.4179487,23.7037037 72.3615385,23.9407407 73.3935897,23.9407407 C79.4089744,23.9407407 79.4679487,17.8074074 79.4679487,14.9925926 Z" id="Shape"></path>
            </g>
        </g>
    </g>
</svg>