<?xml version="1.0" encoding="UTF-8"?>
<svg width="92px" height="24px" viewBox="0 0 92 24" version="1.1" xmlns="http://www.w3.org/2000/svg" xmlns:xlink="http://www.w3.org/1999/xlink">
    <!-- Generator: Sketch 49 (51002) - http://www.bohemiancoding.com/sketch -->
    <title>Forbes</title>
    <desc>Created with Sketch.</desc>
    <defs>
        <path d="M22.858308,23.9341873 C21.2545179,23.701444 19.8517968,23.0245163 18.7806412,21.9664542 C17.8871407,21.0839553 17.3078106,20.1134769 16.8808035,18.78376 C16.2140347,16.7076024 16.2138363,14.0383417 16.880142,12.004525 C17.525944,10.0335603 18.9799906,8.31789436 20.7595177,7.42715152 C23.2239361,6.19359206 26.6925092,6.27108523 28.9750396,7.61069493 C31.0291846,8.81629089 32.2734315,10.958532 32.6196803,13.8853339 C32.7253738,14.7789126 32.6567855,16.6664486 32.4903083,17.4455353 C31.8089224,20.6345608 29.8245562,22.8622093 26.9172568,23.7017737 C26.6039462,23.7921934 26.1181396,23.8981117 25.8377013,23.9369573 C25.2442169,24.0193309 23.4327437,24.0176161 22.858308,23.9341873 Z M25.2577097,22.6536703 C25.7262535,22.514908 26.3040624,21.9745662 26.6122139,21.387069 C27.2482931,20.1742843 27.5323693,18.3807955 27.5394464,15.5329377 C27.5482431,11.9638988 26.9871018,9.69278818 25.8027787,8.50368012 C25.3054636,8.00429431 24.9527991,7.84924201 24.3169183,7.85023128 C22.905665,7.85247364 22.0099819,9.3215464 21.6561268,12.2141853 C21.4934858,13.5439022 21.4926259,16.7116254 21.6546056,17.874155 C22.155823,21.4720807 23.4501388,23.1888678 25.2577097,22.6536703 Z M51.2646661,23.9333959 C50.60848,23.8670485 48.6033455,23.5343225 47.902911,23.375511 L47.418361,23.2656355 L47.4561276,20.6854095 C47.5471378,14.4730949 47.5585802,11.0817297 47.4996485,7.78362013 C47.4419734,4.55278122 47.4251736,4.21121768 47.3001669,3.73326616 C47.141825,3.1276982 46.9133074,2.70534391 46.638491,2.51019301 C46.5317392,2.43441457 46.2416442,2.32697935 45.9938796,2.27144807 C45.1703564,2.08698134 45.2150678,2.11652767 45.1931089,1.74192236 C45.180476,1.5261286 45.2038899,1.38354115 45.25925,1.33981522 C45.3334604,1.28111826 52.0883216,-0.00361967366 52.3034787,7.66650072e-06 C52.3653206,0.00106289273 52.3740513,0.862259398 52.3423697,3.82658773 C52.3198817,5.93044502 52.3169715,7.6517828 52.335954,7.6517828 C52.3548703,7.6517828 52.601709,7.54520495 52.8844624,7.41495046 C53.7366908,7.02234035 54.5221828,6.85198727 55.6630512,6.81228438 C56.4225498,6.78590373 56.7744867,6.80245759 57.1641241,6.88278669 C59.7120788,7.4084872 61.5976301,9.48800834 62.256528,12.4991623 C62.4284288,13.2846464 62.4923211,15.2369468 62.3782938,16.2147458 C62.2810002,17.0481766 62.0034721,18.1711352 61.7146999,18.8998349 C60.6248925,21.6496885 58.2868698,23.443639 55.1851154,23.9098511 C54.4706589,24.0171545 52.2270857,24.0306745 51.2646661,23.9333959 Z M52.6421213,22.7727789 C53.2390449,22.8356968 53.9095176,22.8138008 54.2222328,22.7211388 C54.7071134,22.5774961 55.3271865,22.1381263 55.7006193,21.6737608 C56.4707666,20.7155494 57.0240372,19.2325609 57.3281541,17.310928 C57.4737307,16.3905728 57.4934408,13.8044112 57.360431,13.0597513 C56.9522741,10.7738015 56.1661867,9.37714363 54.9696937,8.81174023 C54.3738944,8.53012673 53.5334391,8.49530426 52.7527754,8.71967174 L52.2236463,8.87182217 L52.1637225,10.9492988 C52.0881893,13.5685682 52.2109472,22.5212394 52.3243131,22.6574955 C52.3653868,22.7068273 52.50845,22.7587312 52.6421213,22.7727789 Z M70.2802406,23.9006839 C66.9989131,23.3106145 64.6522259,20.990304 63.8854517,17.5779662 C63.7868353,17.139124 63.7432483,16.6479161 63.7185115,15.6978168 C63.679356,14.194713 63.8019816,13.2616952 64.1910238,12.1023973 C64.9380217,9.87652944 66.2767181,8.29923004 68.2213996,7.35387924 C70.2739572,6.3560969 73.080193,6.29073882 74.896693,7.19843123 C76.941909,8.22041783 78.1452807,10.2610275 78.4505881,13.2246304 C78.4917279,13.6237037 78.5154726,14.0984896 78.5035672,14.2798566 L78.4818068,14.6096148 L73.5873632,14.6264984 L68.6929197,14.643448 L68.7115053,15.2200632 C68.7547616,16.5558477 69.0427401,17.7374372 69.5755069,18.7645681 C69.8176496,19.2315057 70.0103848,19.486013 70.478664,19.9573694 C71.536393,21.0223565 72.5886983,21.4345542 74.2487084,21.4345542 C75.4522785,21.4345542 76.3178013,21.1950838 77.2230749,20.6115437 C77.4765939,20.4480496 77.7335522,20.3143656 77.793939,20.3143656 C77.9321078,20.3143656 78.2502467,20.7226722 78.2502467,20.9000821 C78.2502467,21.190797 77.3012537,22.1279038 76.3756748,22.7513446 C75.6176313,23.2619422 74.415384,23.7243951 73.3729337,23.9061578 C72.6428679,24.0336424 71.0027663,24.0306745 70.2802406,23.9006839 Z M68.5702279,13.3391224 C68.6062748,13.3973577 71.5715139,13.3585122 72.9522761,13.2818104 L73.6401438,13.2435585 L73.6001285,12.211877 C73.5190394,10.1218036 73.109692,8.70984495 72.3943095,8.0523071 C72.1277608,7.80736272 71.7696727,7.65290398 71.4662172,7.65211256 C71.3908825,7.6519147 71.1691113,7.69920203 70.9732674,7.75717352 C70.6887283,7.84145971 70.5295266,7.95074158 70.1806321,8.30127454 C69.5318538,8.95294269 69.0604659,10.0112686 68.7660718,11.4769119 C68.643843,12.084986 68.5204236,13.2588593 68.5702279,13.3391224 Z M83.5084664,23.9647229 C82.3300961,23.8387553 80.4547305,23.4293934 79.8302921,23.1616957 L79.5253153,23.0311115 L79.4837126,21.5243803 C79.4608277,20.695764 79.4345036,19.5877105 79.4251115,19.0622078 L79.4080471,18.1067664 L79.5908612,18.0193805 C79.6913957,17.9713677 79.8942506,17.9264546 80.0417453,17.9195957 L80.3098153,17.9071967 L80.5382006,18.4677857 C81.42932,20.654742 82.474416,21.8338914 83.8394366,22.1925364 C84.3601657,22.329452 85.3365411,22.3306391 85.7220116,22.1948447 C86.8018316,21.8148314 87.3939932,20.9994713 87.3991522,19.8857459 C87.4052371,18.5667131 86.6781477,17.9329838 83.9312405,16.8630504 C82.2294293,16.2001705 81.6357465,15.8590686 80.9288962,15.1376236 C80.1663552,14.3593283 79.8003963,13.4735318 79.7316757,12.2396426 C79.6486685,10.7487399 80.1165509,9.49183353 81.1535777,8.42084486 C82.1970862,7.34299722 83.5517888,6.7587976 85.3972586,6.59088473 C87.0223462,6.44302116 89.5168588,6.78669515 90.8238737,7.33851251 L91.0623124,7.43915471 L91.1048412,8.78206199 C91.1282551,9.5206544 91.1524628,10.5107204 91.1586139,10.9822746 L91.1698579,11.83958 L90.8496026,11.958161 C90.3433584,12.1455956 90.3100232,12.1221168 90.0283943,11.3780504 C89.2389338,9.29239578 88.3217548,8.3055614 86.8926434,8.00409646 C86.021697,7.82035519 85.2941446,8.01788035 84.7652801,8.58163496 C84.3527579,9.02140049 84.1917704,9.4119661 84.1528133,10.0677892 C84.110483,10.7783522 84.2378708,11.1624545 84.6732778,11.6375042 C85.2098808,12.2230228 86.0890948,12.7284102 87.8405781,13.4582311 C89.9857994,14.3520736 91.0092673,15.1109132 91.5657126,16.219956 C91.9271077,16.9402798 92.029428,17.5155759 91.9931165,18.6229699 C91.9658003,19.4539605 91.9391454,19.6247093 91.7495188,20.1825942 C91.1313638,22.0015405 89.7360505,23.1990903 87.5803789,23.7606026 C86.8502469,23.9507412 86.7460085,23.960502 85.2941446,23.9764623 C84.4575255,23.9854317 83.6539107,23.9802875 83.5084664,23.9647229 Z M0.0879015602,23.5683536 C0.0329382821,23.5461938 0.00522514918,23.3818423 0.00522514918,23.0776074 C0.00522514918,22.5310662 -0.0296312257,22.5555342 1.03041265,22.35946 C1.84355168,22.2090243 2.13437423,22.0552251 2.49345441,21.5858473 C3.1895898,20.6756487 3.34006086,18.9233136 3.34164825,11.7078086 C3.34310336,4.93154149 3.21214392,3.50606276 2.49219773,2.45875073 C2.17273608,1.99412143 1.63441343,1.74179046 0.732711425,1.63415738 L0.0382295724,1.55125617 L0.0191809274,1.01058463 L0,0.469979048 L0.217604314,0.431331387 C0.337319757,0.410094959 4.54171289,0.401125536 9.56083245,0.41134804 L18.6865224,0.430078306 L18.7292496,0.693884863 C18.7527958,0.838978469 18.7914222,2.32724316 18.8151008,4.00109576 L18.8580925,7.04450011 L18.3876307,7.1870216 C17.6793914,7.40149633 17.6836245,7.40413439 17.3650227,6.5635148 C16.5824408,4.49870088 15.685038,3.30893331 14.4570618,2.70811388 C13.6101246,2.29373973 13.2185692,2.24368243 10.8268398,2.24368243 L8.74537847,2.24368243 L8.70946384,2.58992854 C8.64213217,3.23922243 8.53597566,7.41600569 8.53670321,9.38294738 L8.53743076,11.3450086 L9.14923621,11.3415132 C9.48576227,11.3396006 10.1492901,11.3149347 10.6237865,11.2866414 C11.3369863,11.2441026 11.5489686,11.2063783 11.8473974,11.0686053 C12.5805718,10.7301415 13.0793421,9.9852837 13.3849802,8.77243305 L13.5427268,8.14628819 L14.0825707,8.12709626 L14.6224146,8.10790434 L14.6224146,16.0328512 L14.0823723,16.0136592 L13.54233,15.9944673 L13.3890148,15.3679267 C13.1010364,14.19069 12.5467076,13.3479599 11.86175,13.0458355 C11.545397,12.9063477 10.7626829,12.8270079 9.2484479,12.7811056 L8.53743076,12.7594734 L8.53743076,14.2481338 C8.53743076,15.8702804 8.62691971,18.0648212 8.74154229,19.2558418 C8.90133926,20.9162403 9.32689128,21.8336276 10.0910197,22.1656941 C10.2369271,22.2290736 10.6986583,22.3319582 11.1169348,22.3944803 C11.5352774,22.4569365 11.929677,22.5348914 11.9933047,22.5677353 C12.1547552,22.6508343 12.1642796,23.5107778 12.0044826,23.571849 C11.8793436,23.6198618 0.207087874,23.6162344 0.0879015602,23.5683536 Z M42.467896,22.7000343 L41.9553022,22.65677 C40.7730296,22.5573149 40.4491364,22.4389317 40.1386038,21.9931646 C39.6886457,21.3470364 39.5907569,20.1547627 39.5907569,15.3240029 L39.5907569,11.5536137 L39.7547207,11.3795673 C39.9616102,11.1599483 40.6083381,10.853537 41.0656379,10.7585007 C41.9942594,10.5653943 43.1813603,10.732252 44.1097834,11.186263 C44.376266,11.3165835 44.605445,11.4120815 44.6190701,11.3984295 C44.6464525,11.3711255 46.1714023,7.35295592 46.2186933,7.18339426 C46.2401891,7.10649465 46.1523537,7.03948778 45.8958584,6.93713084 C45.3468209,6.71803949 44.870737,6.64298653 44.2566167,6.67846851 C42.6139356,6.77350482 41.156119,7.86170687 40.1060624,9.77661271 C39.9317805,10.0944996 39.7512153,10.3548767 39.7049165,10.3552064 C39.6375187,10.3556681 39.629714,9.99049388 39.6658932,8.53823878 L39.7111999,6.72067756 L39.5517998,6.75813809 C39.4640966,6.778715 38.1422662,7.04575319 36.6144722,7.35150499 C33.3375761,8.00726213 32.8821283,8.10282606 32.8040157,8.15097076 C32.7716726,8.17088815 32.7452162,8.28874373 32.7452162,8.41293067 C32.7452162,8.66196406 32.716048,8.64752065 33.4605986,8.76695907 C34.4841326,8.9311127 34.8455939,9.42871781 34.9982476,10.8834791 C35.1972663,12.7803142 35.1177646,20.1746141 34.8874612,21.1841358 C34.76973,21.7002734 34.4654808,22.1973509 34.1592474,22.3739694 C34.0457492,22.4395253 33.6885871,22.5445203 33.3655538,22.6073722 L32.7782206,22.7217324 L32.7581798,23.0679785 L32.7382052,23.4142246 L42.467896,23.4142246 L42.467896,23.0570964 L42.467896,22.7000343 Z" id="path-1"></path>
    </defs>
    <g id="Website" stroke="none" stroke-width="1" fill="none" fill-rule="evenodd">
        <g id="Artboard" transform="translate(-567.000000, -288.000000)">
            <g id="Forbes" transform="translate(567.000000, 288.000000)">
                <mask id="mask-2" fill="white">
                    <use xlink:href="#path-1"></use>
                </mask>
                <use id="Shape" fill="#231F20" fill-rule="nonzero" xlink:href="#path-1"></use>
            </g>
        </g>
    </g>
</svg>