<?xml version="1.0" encoding="UTF-8"?>
<svg width="192px" height="24px" viewBox="0 0 192 24" version="1.1" xmlns="http://www.w3.org/2000/svg" xmlns:xlink="http://www.w3.org/1999/xlink">
    <!-- Generator: Sketch 49 (51002) - http://www.bohemiancoding.com/sketch -->
    <title>HuffPost</title>
    <desc>Created with Sketch.</desc>
    <defs></defs>
    <g id="Website" stroke="none" stroke-width="1" fill="none" fill-rule="evenodd">
        <g id="Artboard" transform="translate(-958.000000, -288.000000)" fill-rule="nonzero">
            <g id="HuffPost" transform="translate(958.000000, 288.000000)">
                <g id="Layer_1" transform="translate(0.000000, 0.533333)">
                    <g id="Group">
                        <polygon id="Shape" fill="#000000" points="24.792233 22.24 31.7958391 22.24 35.5506241 0.72 28.547018 0.72 27.1622746 8.42666667 21.0907074 8.42666667 22.4754508 0.72 15.4718447 0.72 11.7170596 22.24 18.7206657 22.24 20.1320388 14.1866667 26.2036061 14.1866667"></polygon>
                        <path d="M39.5184466,0.693333333 L37.3880721,12.6666667 C37.2016644,13.6 37.1217753,14.5066667 37.1217753,15.36 C37.1217753,21.7066667 42.660749,22.6666667 45.9894591,22.6666667 C52.9664355,22.6666667 55.9755895,20.3466667 57.0674064,14.08 L59.4108183,0.666666667 L52.4072122,0.666666667 L50.4099861,11.92 C49.7708738,15.44 49.3181692,17.28 46.7084605,17.28 C45.0041609,17.28 44.1786408,16.3733333 44.1786408,14.5066667 C44.1786408,13.7866667 44.2851595,12.9066667 44.4981969,11.8133333 L46.5220527,0.666666667 L39.5184466,0.666666667 L39.5184466,0.693333333 Z" id="Shape" fill="#000000"></path>
                        <path d="M96.4260749,22.24 L103.429681,22.24 L104.414979,16.6933333 L107.71706,16.6933333 C113.815257,16.6933333 117.197226,13.3866667 117.197226,7.36 C117.197226,3.12 114.267961,0.693333333 109.128433,0.693333333 L100.18086,0.693333333 L96.4260749,22.24 Z M107.344244,11.3866667 L105.320388,11.3866667 L106.252427,6.32 L108.143135,6.32 C109.687656,6.32 110.513176,7.09333333 110.513176,8.50666667 C110.513176,10.2933333 109.31484,11.3866667 107.344244,11.3866667 Z" id="Shape" fill="#000000"></path>
                        <path d="M130.804993,0.24 C123.188904,0.24 118.635229,5.17333333 118.635229,13.4666667 C118.635229,19.2266667 122.256865,22.6933333 128.328433,22.6933333 C135.944521,22.6933333 140.498197,17.76 140.498197,9.46666667 C140.524827,3.68 136.90319,0.24 130.804993,0.24 Z M128.754508,17.12 C126.943689,17.12 125.878502,15.8133333 125.878502,13.6266667 C125.878502,12.8 125.958391,12.08 126.118169,11.2533333 C126.650763,8.42666667 127.556172,5.84 130.405548,5.84 C132.216366,5.84 133.281553,7.14666667 133.281553,9.33333333 C133.281553,10.16 133.201664,10.88 133.041886,11.7066667 C132.509293,14.5066667 131.603883,17.12 128.754508,17.12 Z" id="Shape" fill="#000000"></path>
                        <polygon id="Shape" fill="#000000" points="164.864355 22.24 171.867961 22.24 174.637448 6.48 179.910125 6.48 180.922053 0.72 163.000277 0.72 161.98835 6.48 167.580583 6.48"></polygon>
                        <path d="M153.253814,8.66666667 C151.043551,7.97333333 150.138141,7.68 150.138141,6.64 C150.138141,5.94666667 150.590846,5.12 151.92233,5.12 C152.907628,5.12 153.733148,5.68 154.052705,6.50666667 L160.230791,4.82666667 C159.511789,1.78666667 156.90208,0.24 152.401664,0.24 C143.933426,0.24 143.267684,5.92 143.267684,7.65333333 C143.267684,11.1733333 145.131761,13.3333333 149.179473,14.4533333 C150.24466,14.7466667 151.469626,15.0666667 151.469626,16.24 C151.469626,17.1733333 150.777254,17.76 149.578918,17.76 C148.487101,17.76 147.315395,17.12 146.91595,16 L140.817753,17.6533333 C141.483495,20.8533333 144.492649,22.6666667 149.206103,22.6666667 C152.80111,22.6666667 158.819417,21.7066667 158.819417,15.2 C158.846047,11.9466667 157.008599,9.81333333 153.253814,8.66666667 Z" id="Shape" fill="#000000"></path>
                        <polygon id="Shape" fill="#0DBE98" points="7.80249653 22.24 11.5839112 0.72 0 0.72 0 22.24"></polygon>
                        <polygon id="Shape" fill="#0DBE98" points="183.931207 0.72 180.176422 22.24 191.760333 22.24 191.760333 0.72"></polygon>
                        <polygon id="Shape" fill="#000000" points="63.4052705 0.693333333 59.6504854 22.24 66.6540915 22.24 67.7725381 15.8933333 73.6576976 15.8933333 74.6163662 10.48 68.7312067 10.48 69.3969487 6.48 77.6255201 6.48 78.637448 0.693333333"></polygon>
                        <polygon id="Shape" fill="#000000" points="81.7797503 0.693333333 78.0249653 22.24 85.0285714 22.24 86.1203883 15.8933333 92.0321775 15.8933333 92.990846 10.48 87.1056865 10.48 87.7714286 6.48 96 6.48 97.0119279 0.693333333"></polygon>
                    </g>
                </g>
            </g>
        </g>
    </g>
</svg>