<?xml version="1.0" encoding="UTF-8"?>
<svg width="224px" height="30px" viewBox="0 0 224 30" version="1.1" xmlns="http://www.w3.org/2000/svg" xmlns:xlink="http://www.w3.org/1999/xlink">
    <!-- Generator: Sketch 49 (51002) - http://www.bohemiancoding.com/sketch -->
    <title>NewYorkTimes</title>
    <desc>Created with Sketch.</desc>
    <defs></defs>
    <g id="Website" stroke="none" stroke-width="1" fill="none" fill-rule="evenodd">
        <g id="Artboard" transform="translate(-694.000000, -284.000000)" fill="#000000" fill-rule="nonzero">
            <g id="NewYorkTimes" transform="translate(694.000000, 284.000000)">
                <path d="M16.794252,3.02605714 C16.794252,0.616685714 14.535684,-0.08 12.653544,0.00708571429 L12.653544,0.384228571 C13.782828,0.411657143 14.651508,0.790628571 14.651508,1.54413714 C14.651508,2.06788571 14.275308,2.73430857 13.145796,2.73430857 C12.24816,2.73430857 10.5108,2.21179429 9.120912,1.74733714 C7.586244,1.22482286 6.138444,0.731337143 4.922292,0.731337143 C2.5479,0.731337143 0.752628,2.50331429 0.752628,4.67922286 C0.752628,6.4512 2.084604,7.08859429 2.634768,7.32205714 L2.808504,7.03177143 C2.461032,6.79817143 2.11356,6.53828571 2.11356,5.8416 C2.11356,5.31785143 2.576856,4.47602286 3.793008,4.47602286 C4.893336,4.47602286 6.341136,4.96950857 8.252232,5.52105143 C9.902724,5.98550857 11.726952,6.42093714 12.711456,6.53828571 L12.711456,10.3107657 L10.858272,11.8505143 L10.858272,11.9958857 L12.711456,13.6214857 L12.711456,18.8176 C11.755908,19.3691429 10.65558,19.5142857 9.700032,19.5142857 C7.933716,19.5142857 6.254268,19.0498286 4.922292,17.5693714 L9.902724,15.16 L9.902724,6.8288 L3.793008,9.55748571 C4.43004,7.93188571 5.704104,6.85782857 7.007124,6.07405714 L6.920484,5.78377143 C3.300984,6.77074286 1.42108547e-14,10.1077943 1.42108547e-14,14.2310857 C1.42108547e-14,19.1659429 3.995928,22.8223086 8.54202,22.8223086 C13.46454,22.8223086 16.591788,18.9627429 16.533876,14.8697143 L16.244316,14.8422857 C15.520416,16.4098286 14.478,17.8902857 13.117068,18.6740571 L13.117068,13.6230857 L15.086076,12.0555429 L15.058716,11.8813714 L13.118664,10.3125943 L13.118664,6.54011429 C14.913936,6.54011429 16.796076,5.32091429 16.796076,3.02765714 L16.794252,3.02605714 Z M6.225312,16.5243429 L4.748556,17.2500571 C3.908832,16.1469714 3.358668,14.6665143 3.358668,12.6054857 C3.358668,11.7636571 3.445308,10.7173943 3.70614,9.99291429 L6.254268,8.8608 L6.225312,16.5243429 Z M19.110732,19.224 L17.489196,20.4443886 L17.692116,20.6752457 L18.473928,20.1237029 L21.195792,22.6189714 L24.844248,20.1805714 L24.670512,19.9195429 L23.714964,20.5291429 L22.527768,19.34016 L22.527768,10.9799314 L23.512272,10.2530286 L25.597104,11.9366857 L25.597104,19.34016 C25.597104,23.9545143 24.583644,24.7092571 22.498812,25.4651886 L22.498812,25.7856457 C25.944576,25.9296457 29.042868,24.7684571 29.042868,18.8478171 L29.042868,10.8928 L30.143196,10.0207086 L29.940276,9.76059429 L28.984728,10.5141486 L26.00226,7.93060571 L22.52754,10.5431771 L22.52754,0.50048 L22.266708,0.50048 L17.952264,3.40333714 L17.952264,3.66482286 C18.386376,3.92722286 19.110504,4.10002286 19.110504,5.55286857 L19.110732,19.224 Z M41.34894,17.9177143 L38.366472,20.24 L35.26818,17.8003657 L35.26818,16.3489371 L41.030424,12.4893714 L41.030424,12.3138286 L38.16378,7.90148571 L31.880328,11.2699886 L31.880328,19.2806857 L30.63522,20.2398171 L30.83814,20.4999314 L31.967424,19.6000457 L36.079176,22.5911771 L41.580816,18.2368914 L41.34894,17.9177143 Z M35.26818,15.9147429 L35.26818,9.93485714 L35.4711,9.78948571 L38.135052,13.9986286 L35.26818,15.9147429 Z M64.6283784,1.92297143 C64.6283784,1.54537143 64.5412824,1.22628571 64.3967304,0.792045714 L64.1071704,0.792045714 C63.7309704,1.80804571 63.2674464,2.3584 62.0802504,2.3584 C61.0378344,2.3584 60.2270664,1.72096 59.7927264,1.25531429 C59.7927264,1.28274286 56.3180064,5.29028571 56.3180064,5.29028571 L56.6075664,5.55268571 L57.5920704,4.42057143 C58.3449264,5.00114286 58.8938592,5.55268571 60.5745384,5.58048 L60.5745384,15.74048 L53.4513624,3.37312 C52.9011984,2.44420571 51.9746064,1.05083429 50.2662024,1.05083429 C48.3551064,1.05083429 46.5887904,2.70665143 46.8204384,5.49339429 L47.1679104,5.49339429 C47.2550064,4.73865143 47.6312064,3.92585143 48.4709304,3.92585143 C49.1369184,3.92585143 49.7449944,4.56329143 50.0635104,5.14505143 L50.0635104,9.12196571 C47.8628544,9.12196571 46.4150544,10.1379657 46.4150544,11.9365486 C46.4150544,12.8666514 46.8783504,14.4330057 48.4130184,14.72448 L48.4403784,14.46208 C48.2374584,14.2591086 48.0336264,14.0277943 48.0336264,13.6214857 C48.0336264,12.9538286 48.5258784,12.5184 49.4235144,12.5184 C49.5685224,12.5184 49.9736784,12.5458286 50.0605464,12.5764571 L50.0605464,17.7435429 C47.4834624,17.7709714 45.4854984,19.1937371 45.4854984,21.6333714 C45.4854984,23.9556571 47.4834624,25.0587429 49.5682944,24.9413943 L49.5956544,24.65248 C48.2926344,24.5071086 47.5976904,23.8977371 47.5976904,23.0559086 C47.5976904,22.01088 48.3505464,21.4605714 49.3060944,21.4605714 C50.2905984,21.4605714 51.1592784,22.0701714 51.7673544,22.7668571 L55.2710304,18.848 L54.9814704,18.5856 L54.0838344,19.6016 C52.7518584,18.4126171 51.9990024,17.976 50.4643344,17.74496 L50.4643344,5.52150857 L60.2804184,22.6786286 L60.9753624,22.6786286 L60.9753624,5.57956571 C62.858688,5.46482286 64.625004,4.04228571 64.625004,1.9232 L64.6283784,1.92297143 Z M73.4020464,17.9177143 L70.4195784,20.2411886 L67.3212864,17.8016 L67.3212864,16.3501714 L73.0835304,12.49056 L73.0835304,12.3150171 L70.2168864,7.90267429 L63.9334344,11.2711771 L63.9334344,19.2818743 L62.6883264,20.2410057 L62.8912464,20.50112 L64.0205304,19.6012343 L68.1322824,22.5924114 L73.6339224,18.2381257 L73.4022744,17.9176686 L73.4020464,17.9177143 Z M67.3212864,15.9147429 L67.3212864,9.93485714 L67.5242064,9.78948571 L70.1881584,13.9986286 L67.3212864,15.9147429 Z M93.3225295,9.23817143 L92.4248935,9.90582857 L90.1084272,7.93188571 L87.4155192,10.3714743 L88.5158472,11.4153143 L88.5158472,20.6173714 L85.5623352,18.7305143 L85.5623352,11.2411429 L86.5178832,10.5734857 L83.6801952,7.93065143 L81.0451992,10.3702857 L82.1455272,11.41408 L82.1455272,20.1529143 L81.7693272,20.3837714 L79.1922432,18.5549714 L79.1922432,11.2119314 C79.1922432,9.52827429 78.3814752,9.03478857 77.3101032,8.36713143 C76.4124672,7.81558857 76.0070832,7.35113143 76.0070832,6.50930286 C76.0070832,5.81261714 76.7020272,5.40621714 77.0494992,5.20301714 C77.0221392,5.17558857 77.0221392,4.91273143 77.0221392,4.91273143 C76.0955472,4.88530286 73.5184632,5.89970286 73.4605512,8.25220571 C73.4331912,9.47140571 74.0107152,9.99273143 74.6187912,10.5744914 C75.2268672,11.1538743 75.7770312,11.7066057 75.7770312,12.7214171 L75.7770312,19.77536 L74.4740112,20.79136 L74.6769312,21.05376 L75.8641272,20.1248457 L79.0782432,22.6503314 L82.1186232,20.5893029 L85.4775192,22.6503314 L91.9347072,18.8766171 L91.9347072,10.6893714 L93.5272735,9.52822857 L93.3243535,9.23794286 L93.3225295,9.23817143 Z M115.879254,2.53257143 L114.663102,3.63565714 L111.941238,1.25408 L107.974266,4.21622857 L107.974266,1.42948571 L107.568882,1.42948571 L107.655522,21.1979429 C107.250138,21.1398857 106.236678,20.9076571 105.310086,20.7636571 L105.223446,4.24516571 C105.223446,3.02596571 104.354766,1.34230857 102.183066,1.34230857 C99.9534535,1.34230857 98.5056535,3.05499429 98.5056535,4.76768 L98.8531255,4.76768 C98.9689495,4.04196571 99.3453775,3.40333714 100.069278,3.40333714 C100.822134,3.40333714 101.459166,3.86779429 101.459166,5.49339429 L101.459166,10.25408 C99.2295535,10.3409371 97.9554895,11.5893943 97.9554895,13.1279086 C97.9554895,14.0858514 98.3900575,15.5663086 99.9534535,15.6243657 L100.011366,15.33408 C99.4901575,15.1032229 99.3743335,14.7825371 99.3743335,14.4922514 C99.3743335,13.7968 100.040322,13.5065143 100.966914,13.5065143 L101.401026,13.5065143 L101.401026,21.0539429 C99.6347095,21.6635429 98.8239415,22.9698286 98.8239415,24.4502857 C98.8239415,26.4822857 100.445478,28.0208 102.81987,28.0208 C104.499318,28.0208 105.947118,27.7305143 107.481786,27.3821714 C108.726894,27.1206857 110.232606,26.8306286 110.956506,26.8306286 C111.883098,26.8306286 112.288482,27.2658286 112.288482,27.9337143 C112.288482,28.7743086 111.911826,29.0948571 111.419802,29.24 L111.477714,29.5302857 C113.475678,29.1531429 114.633918,27.9615086 114.633918,26.1629714 C114.633918,24.3051429 112.867602,23.2020571 110.898594,23.2020571 C109.885134,23.2020571 107.88717,23.5216 106.381458,23.8709029 C104.70201,24.2471314 102.993606,24.4212571 102.472398,24.4212571 C101.632674,24.4212571 100.590258,24.0148571 100.590258,22.8827429 C100.590258,21.8667429 101.429982,21.0539429 103.514814,21.0539429 C104.644098,21.0539429 105.918162,21.2281143 107.30805,21.5461943 C108.784806,21.8666514 110.087826,22.2731429 111.36189,22.2731429 C113.128206,22.2731429 114.720786,21.6345143 114.720786,19.0509714 L114.720786,4.01293714 L116.13963,2.79254857 L115.879254,2.53257143 Z M110.898822,10.0509714 C110.580078,10.3993143 110.059098,10.7476571 109.451022,10.7476571 C108.785034,10.7476571 108.292782,10.3412571 107.974266,10.0509714 L107.974266,4.62262857 L109.219374,3.7808 L110.898822,5.31931429 L110.898822,10.0509714 Z M110.898822,13.6795429 C110.609262,13.3906286 110.088054,13.0699429 109.451022,13.0699429 C108.81399,13.0699429 108.23487,13.4461714 107.974266,13.6795429 L107.974266,10.4864 C108.235098,10.7172571 108.81399,11.1237943 109.451022,11.1237943 C110.088054,11.1237943 110.609262,10.7768229 110.898822,10.4864 L110.898822,13.6795429 Z M110.898822,19.3691429 C110.898822,20.3561143 110.232834,21.3128229 108.95877,21.3128229 C108.75585,21.3128229 108.176958,21.2853943 107.974266,21.2561371 L107.974266,14.1151086 C108.263826,13.8527086 108.785034,13.4462629 109.451022,13.4462629 C110.059098,13.4462629 110.55135,13.7959771 110.898822,14.1151086 L110.898822,19.3691429 Z M127.519566,10.7173943 L123.58155,7.90162286 L117.674526,11.2992 L117.674526,19.2530286 L116.458374,20.24 L116.63211,20.5001143 L117.587658,19.7175314 L121.496718,22.59136 L127.519566,18.9047314 L127.519566,10.7173943 Z M121.062378,18.4112 L121.062378,9.70262857 L124.131714,11.9088 L124.131714,20.6173714 L121.062378,18.4112 Z M139.130922,8.22217143 C139.130922,8.2496 138.899274,8.22217143 138.899274,8.22217143 C138.58053,8.51108571 138.175374,8.71442286 137.827902,8.71442286 C137.364606,8.71442286 136.75653,8.42550857 136.46697,8.048 L136.235322,8.048 L134.179446,10.3109943 L132.065658,8.048 L128.475114,10.5432229 L128.64885,10.8321371 L129.604398,10.1947429 L130.849506,11.5300571 L130.849506,19.2226286 L129.22797,20.4430171 L129.43089,20.6738743 L130.212702,20.1223314 L133.137258,22.6176 L136.930494,20.0921143 L136.756758,19.8306286 L135.685386,20.4692571 L134.266542,19.1907657 L134.266542,10.6273371 C134.874618,11.2962286 135.598518,11.8768 136.438242,11.8768 C138.059778,11.8791771 138.957414,10.0794057 139.13115,8.22162286 L139.130922,8.22217143 Z M153.753702,19.9206857 L149.612994,22.6493714 L143.99553,14.144 L147.962502,7.96210286 L148.223334,7.93467429 C148.68663,8.39913143 149.497398,8.89261714 150.250254,8.89261714 C151.089978,8.89261714 151.669098,8.42816 152.01657,7.93467429 C152.01657,7.93467429 152.248218,7.96210286 152.248218,7.93467429 C152.103666,10.4021029 150.452946,11.7954743 149.207838,11.7954743 C147.933774,11.7954743 147.325698,11.2149029 146.65971,10.8085029 L146.28351,11.3600457 L152.36427,20.3879314 L153.580422,19.6331886 L153.753702,19.9206857 Z M140.37603,19.224 L138.754494,20.4443886 L138.956958,20.6752457 L139.73877,20.1237029 L142.460634,22.6189714 L146.10909,20.1805714 L145.90617,19.9195429 L144.979578,20.5291429 L143.792382,19.34016 L143.792382,0.500617143 L143.53155,0.500617143 L139.130238,3.43250286 L139.130238,3.69398857 C139.56435,3.95501714 140.375346,4.07113143 140.375346,5.55181714 L140.37603,19.224 Z M173.934848,3.02605714 C173.934848,0.616685714 171.67628,-0.08 169.79414,0.00708571429 L169.79414,0.384228571 C170.923424,0.411657143 171.792104,0.790628571 171.792104,1.54413714 C171.792104,2.06788571 171.415904,2.73430857 170.286392,2.73430857 C169.388756,2.73430857 167.651396,2.21179429 166.261508,1.74733714 C164.72684,1.22482286 163.27904,0.731337143 162.062888,0.731337143 C159.688496,0.731337143 157.893224,2.50331429 157.893224,4.67922286 C157.893224,6.4512 159.2252,7.08859429 159.775364,7.32205714 L159.9491,7.03177143 C159.601628,6.79954286 159.254156,6.53947429 159.254156,5.84278857 C159.254156,5.31908571 159.717452,4.47725714 160.933604,4.47725714 C162.033932,4.47725714 163.481732,4.97074286 165.392828,5.52228571 C167.04332,5.98674286 168.867548,6.42217143 169.852052,6.53947429 L169.852052,10.312 L167.998868,11.8517029 L167.998868,11.9970743 L169.852052,13.6226743 L169.852052,18.8187886 C168.896504,19.3703314 167.796176,19.5154743 166.840628,19.5154743 C165.074312,19.5154743 163.394864,19.0510171 162.062888,17.57056 L167.04332,15.1611886 L167.04332,6.8288 L160.933604,9.55867429 C161.570636,7.93188571 162.8447,6.85901714 164.14772,6.07405714 L164.06108,5.78377143 C160.44158,6.77074286 157.140596,10.1090286 157.140596,14.2310857 C157.140596,19.1659429 161.136524,22.8223086 165.682616,22.8223086 C170.605136,22.8223086 173.732384,18.9627429 173.674472,14.8697143 L173.384912,14.8422857 C172.661012,16.4098286 171.618596,17.8902857 170.257664,18.6740571 L170.257664,13.6230857 L172.226672,12.0555429 L172.199312,11.8813714 L170.25926,10.3125943 L170.25926,6.54011429 C172.054532,6.54011429 173.936672,5.32091429 173.936672,3.02765714 L173.934848,3.02605714 Z M163.365908,16.5243429 L161.889152,17.2500571 C161.049428,16.1469714 160.499264,14.6665143 160.499264,12.6054857 C160.499264,11.7636571 160.585904,10.7173943 160.846736,9.99291429 L163.394864,8.8608 L163.367504,16.5243429 L163.365908,16.5243429 Z M178.104512,1.89270857 L177.930776,1.86528 L175.498472,3.92630857 L175.498472,4.10048 L177.554348,6.42276571 L177.757268,6.42276571 L180.189572,4.39076571 L180.162212,4.24539429 L178.106336,1.89289143 L178.104512,1.89270857 Z M181.81088,19.9206857 L180.884288,20.5302857 L179.697092,19.3413029 L179.697092,10.9205943 L180.855332,10.0497371 L180.623684,9.76082286 L179.726048,10.45632 L177.61226,7.93083429 L174.13754,10.3704229 L174.34046,10.6899657 L175.20914,10.1082057 L176.280512,11.44352 L176.280512,19.3392914 L174.716888,20.5282286 L174.890624,20.7604571 L175.701392,20.1798857 L178.365344,22.6182857 L182.0138,20.1798857 L181.81088,19.9206857 Z M202.08008,19.7753143 L201.2114,20.3558857 L199.90838,19.1657143 L199.90838,10.8925714 L201.153488,9.96365714 L200.950568,9.70125714 L199.879196,10.5140571 L197.09942,7.93051429 L193.508876,10.4850286 L190.758056,7.93051429 L187.225424,10.456 L185.053724,7.93051429 L181.579004,10.3701029 L181.75274,10.6896457 L182.62142,10.1078857 L183.808616,11.4141714 L183.808616,19.3099429 L182.853068,20.2678857 L185.632844,22.6179657 L188.325752,20.1795657 L187.225424,19.1357714 L187.225424,10.8928457 L188.26784,10.19616 L190.14998,11.9366857 L190.14998,19.3111314 L189.223388,20.2690743 L192.03212,22.6192 L194.667116,20.1808 L193.566788,19.13696 L193.566788,10.8336 L194.49338,10.224 L196.491344,11.9366857 L196.491344,19.1938286 L195.680576,20.0356571 L198.518264,22.6192 L202.253588,20.0658743 L202.08008,19.7753143 Z M212.64902,17.9174857 L209.666552,20.24096 L206.56826,17.8013714 L206.56826,16.3499429 L212.330504,12.4903314 L212.330504,12.3147886 L209.46386,7.90244571 L203.180408,11.2709486 L203.180408,19.5440914 L207.379028,22.5909029 L212.880668,18.2366171 L212.64902,17.9174857 Z M206.56826,15.9145143 L206.56826,9.93462857 L206.77118,9.78925714 L209.435132,13.9984 L206.56826,15.9145143 Z M223.768124,14.7775543 L221.422688,13.0068114 C222.986312,11.6424686 223.594388,9.81243429 223.594388,8.56544 C223.594388,8.39126857 223.567028,8.07195429 223.536476,7.78166857 L223.246916,7.78166857 C223.015268,8.42029714 222.551972,8.97184 221.596424,8.97184 C220.669832,8.97184 220.003844,8.44932571 219.424724,7.80946286 L213.95204,10.80064 L213.95204,15.2420114 L215.97896,16.8385829 C213.923084,18.6673829 213.546656,19.94464 213.546656,20.8735543 C213.546656,22.0927543 214.09682,22.9648 215.139236,23.3700114 L215.283788,23.1076114 C215.023412,22.8767543 214.791536,22.7300114 214.791536,22.1786971 C214.791536,21.7722971 215.283788,21.1917257 216.21038,21.1917257 C217.397576,21.1917257 218.121476,22.0045257 218.497904,22.4399543 C218.497904,22.4125257 223.767896,19.27584 223.767896,19.27584 L223.768124,14.7775543 Z M222.465104,11.11872 C221.654336,12.5701486 219.772196,13.9937829 218.72978,14.8065829 L217.397804,13.7615543 L217.397804,9.43629714 C217.919012,10.59744 219.193076,11.5844114 220.582964,11.5844114 C221.393732,11.5844114 221.828072,11.4381257 222.465104,11.11872 Z M220.32236,20.8154971 C219.714284,19.4511543 218.29544,18.4641829 216.84764,18.4641829 C216.500168,18.4641829 215.486708,18.4641829 214.560116,19.0459429 C215.11028,18.11584 216.731816,16.3741257 218.816648,15.1270857 L220.32236,16.2882286 L220.32236,20.8154971 Z" id="path3698"></path>
            </g>
        </g>
    </g>
</svg>