<?xml version="1.0" encoding="UTF-8"?>
<svg width="64px" height="64px" viewBox="0 0 64 64" version="1.1" xmlns="http://www.w3.org/2000/svg" xmlns:xlink="http://www.w3.org/1999/xlink">
    <!-- Generator: Sketch 49 (51002) - http://www.bohemiancoding.com/sketch -->
    <title>ic_discount</title>
    <desc>Created with Sketch.</desc>
    <defs>
        <linearGradient x1="1.44424438%" y1="0%" x2="99.3596704%" y2="99.350287%" id="linearGradient-1">
            <stop stop-color="#FF9100" offset="0%"></stop>
            <stop stop-color="#FF6600" offset="100%"></stop>
        </linearGradient>
    </defs>
    <g id="Page-1" stroke="none" stroke-width="1" fill="none" fill-rule="evenodd">
        <g id="ic_discount">
            <rect id="Rectangle-11" x="0" y="0" width="64" height="64"></rect>
            <path d="M57.149,38.6435 C57.9,40.1675 58.927,42.2525 58.609,43.0185 C58.251,43.8795 55.976,44.6435 54.315,45.2005 C52.126,45.9355 49.864,46.6955 48.283,48.2775 C46.699,49.8595 45.939,52.1235 45.205,54.3115 C44.646,55.9735 43.882,58.2495 43.021,58.6045 C42.247,58.9265 40.168,57.8945 38.649,57.1465 C36.526,56.1015 34.333,55.0205 32.001,55.0205 C29.669,55.0205 27.475,56.1015 25.355,57.1455 C23.833,57.8955 21.755,58.9265 20.98,58.6045 C20.12,58.2495 19.356,55.9735 18.799,54.3125 C18.065,52.1235 17.305,49.8595 15.721,48.2765 C14.139,46.6955 11.878,45.9365 9.69,45.2005 C8.029,44.6435 5.752,43.8785 5.395,43.0155 C5.076,42.2495 6.104,40.1645 6.855,38.6425 C7.9,36.5215 8.981,34.3275 8.981,31.9955 C8.981,29.6635 7.899,27.4695 6.853,25.3485 C6.103,23.8265 5.075,21.7405 5.391,20.9765 C5.75,20.1155 8.025,19.3495 9.688,18.7925 C11.876,18.0565 14.14,17.2965 15.721,15.7145 C17.303,14.1335 18.062,11.8715 18.798,9.6825 C19.355,8.0205 20.12,5.7435 20.98,5.3875 C21.079,5.3455 21.199,5.3285 21.336,5.3285 C22.273,5.3285 24.029,6.1925 25.357,6.8475 C27.479,7.8925 29.672,8.9715 32.002,8.9715 C34.333,8.9715 36.529,7.8905 38.65,6.8475 C40.174,6.0975 42.253,5.0685 43.024,5.3885 C43.885,5.7455 44.649,8.0215 45.206,9.6835 C45.941,11.8725 46.699,14.1345 48.281,15.7175 C49.865,17.2995 52.127,18.0595 54.316,18.7945 C55.977,19.3515 58.253,20.1165 58.61,20.9775 C58.929,21.7445 57.902,23.8305 57.15,25.3525 C56.107,27.4735 55.025,29.6675 55.025,31.9985 C55.024,34.3285 56.105,36.5225 57.149,38.6435 M61.936,36.2875 C61.159,34.7135 60.356,33.0855 60.356,31.9965 C60.356,30.9075 61.159,29.2795 61.933,27.7065 C63.266,24.9995 64.778,21.9305 63.534,18.9325 C62.248,15.8315 58.935,14.7185 56.012,13.7375 C54.482,13.2245 52.747,12.6415 52.049,11.9445 C51.354,11.2505 50.772,9.5155 50.258,7.9865 C49.279,5.0635 48.167,1.7495 45.065,0.4625 C42.065,-0.7805 38.998,0.7305 36.292,2.0625 C34.717,2.8385 33.09,3.6395 31.998,3.6395 C30.909,3.6395 29.281,2.8385 27.708,2.0635 C25.002,0.7305 21.931,-0.7795 18.934,0.4625 C15.833,1.7495 14.721,5.0635 13.74,7.9865 C13.226,9.5155 12.644,11.2505 11.947,11.9465 C11.253,12.6435 9.517,13.2245 7.987,13.7395 C5.064,14.7205 1.75,15.8335 0.463,18.9325 C-0.781,21.9325 0.732,24.9995 2.066,27.7085 C2.842,29.2825 3.645,30.9095 3.645,31.9985 C3.645,33.0875 2.842,34.7145 2.068,36.2895 C0.737,38.9955 -0.774,42.0625 0.469,45.0605 C1.756,48.1625 5.068,49.2765 7.993,50.2575 C9.522,50.7705 11.257,51.3535 11.952,52.0475 C12.648,52.7445 13.231,54.4795 13.745,56.0095 C14.725,58.9325 15.838,62.2455 18.939,63.5325 C19.726,63.8575 20.516,63.9945 21.303,63.9945 C23.52,63.9945 25.715,62.9135 27.712,61.9305 C29.285,61.1555 30.911,60.3535 32.002,60.3535 C33.092,60.3535 34.72,61.1565 36.294,61.9305 C39.002,63.2645 42.071,64.7745 45.065,63.5325 C48.165,62.2465 49.279,58.9325 50.26,56.0095 C50.774,54.4795 51.357,52.7445 52.054,52.0475 C52.75,51.3515 54.484,50.7705 56.013,50.2555 C58.937,49.2745 62.251,48.1625 63.537,45.0625 C64.781,42.0645 63.269,38.9955 61.936,36.2875" id="Fill-1" fill="url(#linearGradient-1)"></path>
            <path d="M24.0679327,28.3333333 C22.7816242,28.3333333 21.7333333,27.294208 21.7333333,26.017891 C21.7333333,24.741574 22.7803581,23.7037037 24.0679327,23.7037037 C25.3542413,23.7037037 26.4,24.742829 26.4,26.017891 C26.4,27.294208 25.3542413,28.3333333 24.0679327,28.3333333 M24.0805646,20 C20.7276111,20 18,22.673295 18,25.9594795 C18,29.2464946 20.7276111,31.9197895 24.0805646,31.9197895 C27.433518,31.9197895 30.1602818,29.2464946 30.1602818,25.9594795 C30.1602818,22.673295 27.433518,20 24.0805646,20 M39.9320673,41.2962963 C38.6457587,41.2962963 37.6,40.258426 37.6,38.9846189 C37.6,37.705792 38.6457587,36.6666667 39.9320673,36.6666667 C41.2196419,36.6666667 42.2666667,37.705792 42.2666667,38.9846189 C42.2666667,40.258426 41.2183758,41.2962963 39.9320673,41.2962963 M39.9194354,33.0802105 C43.2723889,33.0802105 46,35.7535054 46,39.0421814 C46,42.326705 43.2723889,45 39.9194354,45 C36.566482,45 33.8397182,42.3275355 33.8397182,39.0421814 C33.8397182,35.7551664 36.566482,33.0802105 39.9194354,33.0802105 Z M42.4180933,22.2828893 C43.3001819,23.1465819 43.3001819,24.5475911 42.4189406,25.4137752 L24.7788635,42.717526 C24.3365482,43.1502028 23.7586573,43.366126 23.1799191,43.366126 C22.6020282,43.366126 22.0249846,43.1510333 21.5826693,42.7183565 C20.7005807,41.8546638 20.7005807,40.4519936 21.581822,39.5874705 L39.2227464,22.2837197 C40.104835,21.4183661 41.5360047,21.4183661 42.4180933,22.2828893 Z" id="Fill-6" fill="url(#linearGradient-1)" opacity="0.699999988"></path>
        </g>
    </g>
</svg>