<?xml version="1.0" encoding="UTF-8"?>
<svg width="64px" height="64px" viewBox="0 0 64 64" version="1.1" xmlns="http://www.w3.org/2000/svg" xmlns:xlink="http://www.w3.org/1999/xlink">
    <!-- Generator: Sketch 49 (51002) - http://www.bohemiancoding.com/sketch -->
    <title>Rectangle 11</title>
    <desc>Created with Sketch.</desc>
    <defs>
        <linearGradient x1="0%" y1="0%" x2="100%" y2="100%" id="linearGradient-1">
            <stop stop-color="#43E695" offset="0%"></stop>
            <stop stop-color="#3BB2B8" offset="100%"></stop>
        </linearGradient>
    </defs>
    <g id="Page-1" stroke="none" stroke-width="1" fill="none" fill-rule="evenodd">
        <g id="ic_knowledge">
            <rect id="Rectangle-11" x="0" y="0" width="64" height="64"></rect>
            <path d="M49.9291896,4.66924308 C48.7816063,5.52290462 48.0961896,6.88265846 48.0961896,8.30542769 C48.0961896,9.72918154 48.7816063,11.0889354 49.9291896,11.9425969 L50.7095854,12.5245046 L50.7095854,4.08733538 L49.9291896,4.66924308 Z M16.2605438,3.78604308 C13.7812938,3.78604308 11.7642104,5.81336615 11.7642104,8.30542769 C11.7642104,10.7994585 13.7812938,12.8267815 16.2605438,12.8267815 L45.6208563,12.8267815 L45.2526896,12.1089969 C44.6505021,10.93632 44.3322729,9.62087385 44.3322729,8.30542769 C44.3322729,6.99096615 44.6505021,5.67552 45.2526896,4.50382769 L45.6208563,3.78604308 L16.2605438,3.78604308 Z M37.6288979,23.3690585 L38.5258146,22.6985354 C38.8538354,22.4523815 39.2435438,22.3224123 39.6518563,22.3224123 C40.0591896,22.3224123 40.4479188,22.4523815 40.7759396,22.6965662 L41.6571896,23.3572431 L41.6571896,16.6126277 L37.6288979,16.6126277 L37.6288979,23.3690585 Z M11.7642104,55.6929969 C11.7642104,57.1167508 12.4496271,58.47552 13.5972104,59.3301662 L14.3776063,59.9110892 L14.3776063,16.40192 L14.0211896,16.3005046 C13.4924396,16.1498585 12.9734813,15.9440738 12.4780229,15.6870892 L11.7642104,15.3168738 L11.7642104,55.6929969 Z M18.1425021,60.2133662 L50.7095854,60.2133662 L50.7095854,16.6126277 L45.4220854,16.6126277 L45.4220854,27.1263508 C45.4220854,27.84512 45.0245438,28.4929969 44.3841688,28.81792 C44.1237104,28.9498585 43.8319188,29.0187815 43.5411063,29.0187815 C43.1386688,29.0187815 42.7391688,28.8858585 42.4160438,28.6436431 L39.6528354,26.5749662 L36.8720021,28.6613662 C36.5439813,28.9065354 36.1552521,29.0365046 35.7469396,29.0365046 C35.4541688,29.0365046 35.1623771,28.9675815 34.9028979,28.8356431 C34.2625229,28.5126892 33.8640021,27.8638277 33.8640021,27.1430892 L33.8640021,16.6126277 L18.1425021,16.6126277 L18.1425021,60.2133662 Z M16.2605438,64.0001969 C11.7054604,64.0001969 8.00029375,60.2744123 8.00029375,55.6929969 L8.00029375,8.30542769 C8.00029375,3.72598154 11.7054604,0.000196923077 16.2605438,0.000196923077 L52.5925229,0.000196923077 C53.6304396,0.000196923077 54.4744813,0.848935385 54.4744813,1.89262769 L54.4744813,62.1067815 C54.4744813,63.1514585 53.6304396,64.0001969 52.5925229,64.0001969 L16.2605438,64.0001969 Z" id="Fill-1" fill="url(#linearGradient-1)"></path>
            <path d="M27.5943,37.3183015 C26.5563833,37.3183015 25.7123417,36.4695631 25.7123417,35.4248862 C25.7123417,34.3821785 26.5563833,33.5324554 27.5943,33.5324554 L41.2585708,33.5324554 C42.2964875,33.5324554 43.1405292,34.3821785 43.1405292,35.4248862 C43.1405292,36.4695631 42.2964875,37.3183015 41.2585708,37.3183015 L27.5943,37.3183015 Z" id="Fill-4" fill="url(#linearGradient-1)" opacity="0.300000012"></path>
            <path d="M23.7020146,46.0951631 C22.6640979,46.0951631 21.8200563,45.2464246 21.8200563,44.2017477 C21.8200563,43.1580554 22.6640979,42.3083323 23.7020146,42.3083323 L45.1506604,42.3083323 C46.1885771,42.3083323 47.0326188,43.1580554 47.0326188,44.2017477 C47.0326188,45.2464246 46.1885771,46.0951631 45.1506604,46.0951631 L23.7020146,46.0951631 Z" id="Fill-6" fill="url(#linearGradient-1)" opacity="0.300000012"></path>
        </g>
    </g>
</svg>