<?xml version="1.0" encoding="UTF-8"?>
<svg width="64px" height="64px" viewBox="0 0 64 64" version="1.1" xmlns="http://www.w3.org/2000/svg" xmlns:xlink="http://www.w3.org/1999/xlink">
    <!-- Generator: Sketch 49 (51002) - http://www.bohemiancoding.com/sketch -->
    <title>Rectangle 11</title>
    <desc>Created with Sketch.</desc>
    <defs>
        <linearGradient x1="100%" y1="0%" x2="0%" y2="100%" id="linearGradient-1">
            <stop stop-color="#AC32E4" offset="0%"></stop>
            <stop stop-color="#7918F2" offset="47.8728925%"></stop>
            <stop stop-color="#4801FF" offset="100%"></stop>
        </linearGradient>
    </defs>
    <g id="Page-1" stroke="none" stroke-width="1" fill="none" fill-rule="evenodd">
        <g id="ic_stars">
            <rect id="Rectangle-11" x="0" y="0" width="64" height="64"></rect>
            <path d="M32,30.2779077 C29.4212923,30.2779077 27.3230769,32.3761231 27.3230769,34.9548308 C27.3230769,37.5335385 29.4212923,39.6317538 32,39.6317538 C34.5787077,39.6317538 36.6769231,37.5335385 36.6769231,34.9548308 C36.6769231,32.3761231 34.5787077,30.2779077 32,30.2779077 Z M12.5538462,33.2307692 C9.97513846,33.2307692 7.87692308,35.3289846 7.87692308,37.9076923 C7.87692308,40.4864 9.97513846,42.5846154 12.5538462,42.5846154 C15.1325538,42.5846154 17.2307692,40.4864 17.2307692,37.9076923 C17.2307692,35.3289846 15.1325538,33.2307692 12.5538462,33.2307692 Z M51.4461538,33.2307692 C48.8674462,33.2307692 46.7692308,35.3289846 46.7692308,37.9076923 C46.7692308,40.4864 48.8674462,42.5846154 51.4461538,42.5846154 C54.0248615,42.5846154 56.1230769,40.4864 56.1230769,37.9076923 C56.1230769,35.3289846 54.0248615,33.2307692 51.4461538,33.2307692 Z M19.4461538,60.5538462 L19.4461538,52.1856 C19.4461538,51.2925538 19.5416615,50.4004923 19.7287385,49.5320615 C18.0105846,47.3353846 15.3452308,46.0307692 12.5538462,46.0307692 C7.53132308,46.0307692 3.44615385,50.1159385 3.44615385,55.1384615 L3.44615385,60.5538462 L19.4461538,60.5538462 Z M41.1076923,60.5538462 L41.1076923,52.1856 C41.1076923,47.1630769 37.0225231,43.0779077 32,43.0779077 C26.9774769,43.0779077 22.8923077,47.1630769 22.8923077,52.1856 L22.8923077,60.5538462 L36.2052923,60.5538462 L36.2052923,57.1657846 C36.2052923,56.2156308 36.9782154,55.4427077 37.9283692,55.4427077 C38.8785231,55.4427077 39.6514462,56.2156308 39.6514462,57.1657846 L39.6514462,60.5538462 L41.1076923,60.5538462 Z M60.5538462,60.5538462 L60.5538462,55.1384615 C60.5538462,50.1159385 56.4686769,46.0307692 51.4461538,46.0307692 C48.6547692,46.0307692 45.9894154,47.3353846 44.2712615,49.5320615 C44.4583385,50.4004923 44.5538462,51.2925538 44.5538462,52.1856 L44.5538462,60.5538462 L60.5538462,60.5538462 Z M1.72307692,64 C0.772923077,64 0,63.2270769 0,62.2769231 L0,55.1384615 C0,50.3108923 2.73624615,45.9687385 7.03606154,43.8636308 C5.37107692,42.3276308 4.43076923,40.1979077 4.43076923,37.9076923 C4.43076923,33.4286769 8.07483077,29.7846154 12.5538462,29.7846154 C17.0328615,29.7846154 20.6769231,33.4286769 20.6769231,37.9076923 C20.6769231,40.1959385 19.7376,42.3246769 18.0745846,43.8616615 C19.1862154,44.4051692 20.2023385,45.1052308 21.1072,45.9500308 C22.3586462,43.7710769 24.2323692,42.0155077 26.4822154,40.9107692 C24.8172308,39.3747692 23.8769231,37.2450462 23.8769231,34.9548308 C23.8769231,30.4758154 27.5209846,26.8317538 32,26.8317538 C36.4790154,26.8317538 40.1230769,30.4758154 40.1230769,34.9548308 C40.1230769,37.2450462 39.1827692,39.3747692 37.5177846,40.9107692 C39.7686154,42.0155077 41.6423385,43.7720615 42.8928,45.9500308 C43.7976615,45.1052308 44.8137846,44.4051692 45.9264,43.8616615 C44.2624,42.3246769 43.3230769,40.1959385 43.3230769,37.9076923 C43.3230769,33.4286769 46.9671385,29.7846154 51.4461538,29.7846154 C55.9251692,29.7846154 59.5692308,33.4286769 59.5692308,37.9076923 C59.5692308,40.1979077 58.6289231,42.3276308 56.9649231,43.8636308 C61.2637538,45.9687385 64,50.3108923 64,55.1384615 L64,62.2769231 C64,63.2270769 63.2270769,64 62.2769231,64 L1.72307692,64 Z M37.9288615,54.0971323 C37.4759385,54.0971323 37.0308923,53.9130092 36.7108923,53.5920246 C36.3908923,53.2739938 36.2057846,52.8299323 36.2057846,52.3740554 C36.2057846,51.9191631 36.3899077,51.4751015 36.7108923,51.1551015 C37.0308923,50.8351015 37.4749538,50.6509785 37.9288615,50.6509785 C38.3808,50.6509785 38.8248615,50.8351015 39.1458462,51.1541169 C39.4678154,51.4770708 39.6519385,51.9211323 39.6519385,52.3740554 C39.6519385,52.8259938 39.4678154,53.2700554 39.1478154,53.59104 C38.8238769,53.9130092 38.3798154,54.0971323 37.9288615,54.0971323" id="Fill-1" fill="url(#linearGradient-1)"></path>
            <path d="M39.0999631,11.0999631 C38.6401477,11.0999631 38.2069169,10.9207631 37.8819938,10.5948554 C37.5560862,10.2689477 37.3768862,9.83670154 37.3768862,9.37590154 C37.3768862,8.91510154 37.5570708,8.48285538 37.8819938,8.15891692 L42.1050092,3.93491692 C42.4309169,3.60999385 42.8631631,3.42980923 43.3239631,3.42980923 C43.7837785,3.42980923 44.2170092,3.60999385 44.5419323,3.93491692 C45.21344,4.60642462 45.21344,5.70033231 44.5419323,6.37184 L40.3179323,10.5948554 C39.9939938,10.9197785 39.5607631,11.0999631 39.0999631,11.0999631 Z M24.9000369,11.0999631 C24.4402215,11.0999631 24.0069908,10.9207631 23.6820677,10.5948554 L19.4590523,6.37184 C19.1331446,6.04691692 18.9539446,5.61368615 18.9539446,5.15387077 C18.9539446,4.69307077 19.1331446,4.25984 19.4590523,3.93491692 C19.7839754,3.60999385 20.2172062,3.43079385 20.6770215,3.43079385 C21.1368369,3.43079385 21.5690831,3.60999385 21.8949908,3.93491692 L26.1189908,8.15891692 C26.7895138,8.83042462 26.7895138,9.92334769 26.1189908,10.5948554 C25.7930831,10.9207631 25.3608369,11.0999631 24.9000369,11.0999631 Z M32,6.09033846 C31.0498462,6.09033846 30.2769231,5.31741538 30.2769231,4.36726154 L30.2769231,1.72258462 C30.2769231,0.773415385 31.0498462,-0.000492307692 32,-0.000492307692 C32.9501538,-0.000492307692 33.7230769,0.773415385 33.7230769,1.72258462 L33.7230769,4.36726154 C33.7230769,5.31741538 32.9501538,6.09033846 32,6.09033846 Z" id="Combined-Shape" fill="url(#linearGradient-1)" opacity="0.300000012"></path>
            <path d="M32.0001905,20.9137166 C32.331198,20.9137166 32.6613322,20.9934443 32.9539115,21.1451841 L34.9574242,22.1782148 L34.5748878,19.9895613 C34.4604762,19.3363086 34.6805656,18.671054 35.1635397,18.2089763 L36.784516,16.6572869 L34.2735748,16.2997983 C33.7757534,16.2277862 33.346055,15.9217347 33.1233454,15.4793747 L32.0001905,13.2461422 L30.9984341,15.2384771 C30.6997413,15.8317196 30.1224431,16.2440746 29.4551878,16.3383762 L27.2158649,16.6572869 L28.8368412,18.208119 C29.3198153,18.671054 29.5399048,19.3363086 29.4263666,19.9878467 L29.0438301,22.1782148 L31.0464695,21.1451841 C31.3390488,20.9934443 31.6691829,20.9137166 32.0001905,20.9137166 M27.7040792,26 C27.2717607,26 26.8560361,25.8662632 26.5014476,25.6142209 C25.8656336,25.1598588 25.5529668,24.4054463 25.6857192,23.6467474 L26.3232799,19.994705 L23.6201971,17.407413 C23.0577463,16.8690368 22.8586177,16.0786183 23.1022882,15.3456379 C23.3442119,14.6118003 23.9782792,14.087998 24.7564526,13.9756934 L28.4918598,13.4433182 L30.1626182,10.120474 C30.5102198,9.42950076 31.2150301,9 32.0001905,9 C32.7853509,9 33.4901612,9.42950076 33.8377628,10.120474 L35.5085212,13.4433182 L39.2439284,13.9756934 C40.0221018,14.087998 40.656169,14.6118003 40.8980928,15.3456379 C41.1408899,16.0786183 40.9426347,16.8690368 40.3801839,17.407413 L37.6771011,19.994705 L38.3146618,23.6458901 C38.4474141,24.4054463 38.1356208,25.1598588 37.5006801,25.6133636 C37.1460916,25.8662632 36.730367,26 36.2971751,26 C35.9670409,26 35.6369067,25.9185577 35.3417074,25.7659607 L32.0001905,24.0419566 L28.6586736,25.766818 C28.3617275,25.919415 28.0324667,26 27.7040792,26" id="Fill-10" fill="url(#linearGradient-1)" opacity="0.699999988"></path>
        </g>
    </g>
</svg>