<?xml version="1.0" encoding="UTF-8"?>
<svg width="64px" height="64px" viewBox="0 0 64 64" version="1.1" xmlns="http://www.w3.org/2000/svg" xmlns:xlink="http://www.w3.org/1999/xlink">
    <!-- Generator: Sketch 49 (51002) - http://www.bohemiancoding.com/sketch -->
    <title>Rectangle 11</title>
    <desc>Created with Sketch.</desc>
    <defs>
        <linearGradient x1="100%" y1="100%" x2="0%" y2="0%" id="linearGradient-1">
            <stop stop-color="#FF7676" offset="0%"></stop>
            <stop stop-color="#F54EA2" offset="100%"></stop>
        </linearGradient>
    </defs>
    <g id="Page-1" stroke="none" stroke-width="1" fill="none" fill-rule="evenodd">
        <g id="ic_write">
            <rect id="Rectangle-11" x="0" y="0" width="64" height="64"></rect>
            <path d="M38.7466831,16.2893785 C38.5861908,16.2893785 38.4286523,16.2450708 38.2917908,16.1603938 C37.9235446,15.9359015 37.5444677,15.7232246 37.1584985,15.5272862 C36.7380677,15.3155938 36.5628062,14.7947323 36.7685908,14.3683938 L37.3829908,13.0874092 C37.5267446,12.7841477 37.8378831,12.5891938 38.1746215,12.5891938 C38.3114831,12.5891938 38.44736,12.6216862 38.5704369,12.6837169 C39.0548677,12.9298708 39.5274831,13.1937477 39.9754831,13.4704246 C40.1792985,13.5954708 40.3200985,13.7923938 40.3722831,14.0247631 C40.4254523,14.2561477 40.3831138,14.49344 40.2541292,14.6933169 L39.48416,15.8876554 C39.3216985,16.1387323 39.0460062,16.2893785 38.7466831,16.2893785 Z M21.2187569,16.1769354 C20.9145108,16.1769354 20.6368492,16.0233354 20.4753723,15.7653662 L19.7211569,14.5582277 C19.5970954,14.3613046 19.5567262,14.1161354 19.6118646,13.8886892 C19.6670031,13.6573046 19.8087877,13.46432 20.0116185,13.3432123 C20.4753723,13.06752 20.9558646,12.8065969 21.4402954,12.5712738 C21.5594338,12.5121969 21.6884185,12.4826585 21.8213415,12.4826585 C22.1620185,12.4826585 22.4741415,12.6825354 22.6169108,12.9936738 L23.2126031,14.2845046 C23.4105108,14.7128123 23.2283569,15.23072 22.8049723,15.4374892 C22.4160492,15.6265354 22.0350031,15.8333046 21.6628185,16.0548431 C21.5279262,16.1345969 21.3743262,16.1769354 21.2187569,16.1769354 Z M34.8731077,14.5413908 C34.7874462,14.5413908 34.7017846,14.5285908 34.6190769,14.5039754 C34.2055385,14.3759754 33.7860923,14.2666831 33.3627077,14.1731446 C32.9038769,14.0727138 32.6025846,13.6138831 32.6941538,13.1491446 L32.9678769,11.7539446 C33.0496,11.34336 33.4109538,11.0450215 33.8274462,11.0450215 L33.8796308,11.0450215 L34.0105846,11.0656985 C34.5304615,11.1789292 35.0582154,11.31776 35.5820308,11.4792369 C35.8065231,11.5471754 35.9896615,11.7007754 36.0989538,11.9104985 C36.2062769,12.1202215 36.2259692,12.36736 36.1521231,12.5908677 L35.7051077,13.9397908 C35.5859692,14.30016 35.2512,14.5413908 34.8731077,14.5413908 Z M25.1163569,14.4817231 C24.7343262,14.4817231 24.3995569,14.2365538 24.2833723,13.8712615 L23.8530954,12.5144615 C23.7812185,12.2870154 23.8038646,12.0457846 23.9151262,11.8360615 C24.0263877,11.6283077 24.2114954,11.4756923 24.4379569,11.4097231 C24.9568492,11.2580923 25.4865723,11.1261538 26.0123569,11.0168615 L26.0615877,11.008 L26.1876185,11.0001231 C26.6090338,11.0001231 26.9703877,11.3024 27.0471877,11.7188923 L27.3031877,13.1170462 C27.3888492,13.5817846 27.0836185,14.0366769 26.6228185,14.1331692 C26.1984492,14.2208 25.7750646,14.3261538 25.3595569,14.4472615 C25.2817723,14.4699077 25.1990646,14.4817231 25.1163569,14.4817231 Z M30.6451692,13.8134646 C30.3980308,13.8026338 30.1489231,13.7967262 29.8998154,13.7967262 C29.7147077,13.7967262 29.5305846,13.79968 29.3454769,13.8065723 L29.3444923,13.8065723 C28.8521846,13.8065723 28.4701538,13.4432492 28.4445538,12.98048 L28.3638154,11.5616492 C28.3500308,11.3263262 28.4327385,11.0919877 28.5922462,10.9186954 C28.7507692,10.7444185 28.9673846,10.6430031 29.2027077,10.6341415 C29.4350769,10.6272492 29.6654769,10.6233108 29.8968615,10.6233108 C30.2070154,10.6233108 30.5171692,10.6302031 30.8253538,10.6449723 C31.0606769,10.6567877 31.2772923,10.7591877 31.4338462,10.9364185 C31.5913846,11.1146338 31.6701538,11.3430646 31.6544,11.5803569 L31.5569231,12.9991877 C31.5254154,13.4570338 31.1433846,13.8144492 30.6855385,13.8144492 L30.6451692,13.8134646 Z M14.7475692,23.1047877 C14.6176,23.1047877 14.4866462,23.0752492 14.3684923,23.0191262 L13.0865231,22.4047262 C12.8748308,22.3033108 12.7094154,22.1172185 12.6345846,21.8946954 C12.5577846,21.6711877 12.5745231,21.4319262 12.6818462,21.2212185 C12.9240615,20.7417108 13.1899077,20.2651569 13.4734769,19.8053415 C13.6329846,19.5473723 13.9106462,19.3918031 14.2168615,19.3918031 C14.3862154,19.3918031 14.5506462,19.4400492 14.6934154,19.5326031 L15.8877538,20.3025723 C16.2845538,20.5585723 16.4076308,21.0932185 16.1614769,21.4949415 C15.9350154,21.8631877 15.7233231,22.2422646 15.5273846,22.6282338 C15.3777231,22.9216492 15.0784,23.1047877 14.7475692,23.1047877 Z M14.0956554,40.1989908 C13.7884554,40.1989908 13.4989785,40.03456 13.3404554,39.7696985 C13.0618092,39.3029908 12.80384,38.8254523 12.57344,38.3518523 C12.4690708,38.1381908 12.4543015,37.8959754 12.53504,37.6724677 C12.6147938,37.4469908 12.77824,37.2687754 12.9938708,37.1703138 L14.2837169,36.5736369 C14.4008862,36.5204677 14.5239631,36.4928985 14.6509785,36.4928985 C14.9887015,36.4928985 15.2899938,36.68096 15.4367015,36.9822523 C15.6267323,37.3692062 15.8335015,37.7522215 16.0540554,38.1234215 C16.2952862,38.5290831 16.1653169,39.0627446 15.7635938,39.3128369 L14.5594092,40.0650831 C14.4195938,40.1527138 14.2591015,40.1989908 14.0956554,40.1989908 Z M13.2701538,27.1086277 L13.1480615,27.0909046 L11.7538462,26.8171815 C11.5234462,26.7718892 11.3166769,26.6340431 11.1876923,26.43712 C11.0587077,26.2392123 11.0144,26.0048738 11.0656,25.7754585 C11.1808,25.2447508 11.3196308,24.7160123 11.4781538,24.2049969 C11.5913846,23.8377354 11.9271385,23.5896123 12.3140923,23.5896123 C12.4086154,23.5896123 12.5011692,23.6043815 12.5907692,23.6349046 L13.9396923,24.08192 C14.3876923,24.2305969 14.6407385,24.7169969 14.5028923,25.1669662 C14.3758769,25.5805046 14.2656,26.0009354 14.1730462,26.4233354 C14.0854154,26.8201354 13.7260308,27.1086277 13.3184,27.1086277 L13.2701538,27.1086277 Z M12.2490092,35.9749908 C11.86304,35.9749908 11.51744,35.7170215 11.4091323,35.3487754 C11.2575015,34.8298831 11.1255631,34.30016 11.01824,33.7743754 C10.9709785,33.5420062 11.0172554,33.3076677 11.1491938,33.1117292 C11.2831015,32.9148062 11.4859323,32.7828677 11.7192862,32.7395446 L13.1607631,32.4746831 L13.2749785,32.4677908 C13.6885169,32.4677908 14.0488862,32.7602215 14.1325785,33.1639138 C14.2202092,33.5882831 14.3255631,34.0116677 14.4466708,34.4261908 C14.5805785,34.8850215 14.3275323,35.3576369 13.8706708,35.5043446 L12.5138708,35.9336369 C12.4282092,35.9602215 12.3386092,35.9749908 12.2490092,35.9749908 Z M11.5105477,31.4249846 C11.0369477,31.4249846 10.6519631,31.0557538 10.6352246,30.5841231 C10.6165169,30.0465231 10.6194708,29.5000615 10.6450708,28.9614769 C10.6677169,28.4947692 11.0517169,28.1294769 11.5203938,28.1294769 L12.9983015,28.2289231 C13.4699323,28.2614154 13.8362092,28.6710154 13.8145477,29.1416615 C13.7938708,29.5729231 13.7909169,30.0081231 13.8066708,30.4403692 C13.8224246,30.912 13.4512246,31.3166769 12.9795938,31.3422769 L11.5105477,31.4249846 Z M21.6028554,47.1903508 C21.46304,47.1903508 21.3232246,47.1578585 21.1981785,47.0948431 C20.7304862,46.8565662 20.27264,46.6005662 19.8285785,46.3278277 C19.6208246,46.1998277 19.4760862,45.9989662 19.4229169,45.7616738 C19.3677785,45.5253662 19.4111015,45.2821662 19.54304,45.0773662 L20.2923323,43.91552 C20.4577477,43.6585354 20.7393477,43.5049354 21.0455631,43.5049354 C21.2099938,43.5049354 21.3714708,43.5502277 21.5112862,43.6368738 C21.8687015,43.8534892 22.2369477,44.0602585 22.6101169,44.2512738 C23.0394092,44.4678892 23.2186092,44.9995815 23.0108554,45.4357662 L22.4131938,46.6813046 C22.2645169,46.9914585 21.9464862,47.1903508 21.6028554,47.1903508 Z M37.9764185,47.2952123 C37.6278646,47.2952123 37.3078646,47.0913969 37.1611569,46.77632 L36.5822031,45.5199508 C36.3774031,45.07392 36.5605415,44.5569969 36.9977108,44.3413662 C37.3758031,44.1562585 37.7470031,43.9544123 38.1093415,43.7417354 C38.2452185,43.6609969 38.4027569,43.6176738 38.5622646,43.6176738 C38.8734031,43.6176738 39.1569723,43.7752123 39.3223877,44.0390892 L40.0549415,45.2097969 C40.1839262,45.4155815 40.2233108,45.6597662 40.1662031,45.8950892 C40.1090954,46.1333662 39.9604185,46.3322585 39.7497108,46.4573046 C39.3026954,46.72512 38.8418954,46.9742277 38.3732185,47.2036431 C38.2491569,47.2637046 38.1122954,47.2952123 37.9764185,47.2952123 Z M25.8870154,48.7364923 L25.7481846,48.7158154 C25.2361846,48.6025846 24.7291077,48.4696615 24.2318769,48.3170462 C23.9975385,48.2451692 23.8075077,48.0866462 23.6952615,47.8690462 C23.584,47.6534154 23.5643077,47.4082462 23.6401231,47.1778462 L24.0763077,45.8653538 C24.1974154,45.4980923 24.5380923,45.2509538 24.9240615,45.2509538 C25.0136615,45.2509538 25.1012923,45.2637538 25.1869538,45.2903385 C25.5867077,45.4114462 25.9943385,45.5187692 26.4039385,45.6093538 C26.8745846,45.7137231 27.1808,46.1824 27.0882462,46.656 L26.8224,48.0137846 C26.7387077,48.4322462 26.3675077,48.7364923 25.9392,48.7364923 L25.8870154,48.7364923 Z M33.6192,48.7816862 C33.1849846,48.7816862 32.8137846,48.4735015 32.736,48.0471631 L32.4868923,46.6883938 C32.3982769,46.2079015 32.7035077,45.75104 33.1810462,45.6496246 C33.5945846,45.5629785 34.0041846,45.4625477 34.4068923,45.3443938 C34.4886154,45.3207631 34.5723077,45.3099323 34.656,45.3099323 C35.0478769,45.3099323 35.3905231,45.5610092 35.5096615,45.9361477 L35.9271385,47.2525785 C36,47.4859323 35.9773538,47.7311015 35.8631385,47.9447631 C35.7479385,48.1603938 35.5539692,48.3169477 35.3196308,48.3858708 C34.8204308,48.5306092 34.3123692,48.6576246 33.8033231,48.7619938 L33.7531077,48.7728246 L33.6192,48.7816862 Z M29.9014892,49.1634215 C29.5972431,49.1634215 29.2939815,49.1565292 28.99072,49.1427446 C28.7455508,49.1319138 28.5210585,49.0236062 28.3585969,48.8414523 C28.19712,48.6602831 28.1173662,48.4269292 28.1341046,48.1847138 L28.2286277,46.8072369 C28.26112,46.3395446 28.6520123,45.9732677 29.1206892,45.9732677 C29.3963815,45.9840985 29.6346585,45.9890215 29.8719508,45.9890215 C30.0550892,45.9890215 30.2392123,45.9860677 30.4223508,45.98016 L30.4233354,45.98016 C30.9254892,45.98016 31.3163815,46.35136 31.3439508,46.82496 L31.4217354,48.2044062 C31.4365046,48.4466215 31.3537969,48.6789908 31.1913354,48.8572062 C31.0269046,49.0383754 30.8014277,49.1427446 30.5562585,49.1525908 C30.3366892,49.1594831 30.1190892,49.1634215 29.9014892,49.1634215 Z M45.5701662,40.3952246 C45.4008123,40.39424 45.2353969,40.3459938 45.0936123,40.25344 L43.8992738,39.4834708 C43.5024738,39.2284554 43.3793969,38.6938092 43.6245662,38.2930708 C43.8510277,37.92384 44.0637046,37.5437785 44.2586585,37.1587938 C44.4073354,36.8643938 44.7066585,36.68224 45.0384738,36.68224 C45.1694277,36.68224 45.3003815,36.7117785 45.4175508,36.7669169 L46.7005046,37.3813169 C46.9161354,37.4866708 47.0766277,37.6668554 47.1524431,37.8933169 C47.2282585,38.1168246 47.21152,38.3551015 47.1051815,38.5658092 C46.8600123,39.05024 46.5931815,39.5267938 46.3135508,39.9816862 C46.1540431,40.24064 45.8763815,40.3952246 45.5701662,40.3952246 Z M45.1345723,23.2932431 C44.7978338,23.2932431 44.4975262,23.1071508 44.3498338,22.8048738 C44.1598031,22.4159508 43.9520492,22.0349046 43.7314954,21.66272 C43.4882954,21.2521354 43.6153108,20.7302892 44.0209723,20.4752738 L45.2271262,19.7210585 C45.3669415,19.6334277 45.5274338,19.5871508 45.69088,19.5871508 C45.9990646,19.5871508 46.2885415,19.7525662 46.4470646,20.0174277 C46.7188185,20.4733046 46.9767877,20.9488738 47.2130954,21.4333046 C47.3184492,21.6479508 47.3312492,21.8891815 47.2514954,22.1146585 C47.1727262,22.3381662 47.0102646,22.5163815 46.7946338,22.6168123 L45.5028185,23.2125046 C45.3876185,23.2666585 45.2625723,23.2932431 45.1345723,23.2932431 Z M47.47264,36.19712 C47.3791015,36.19712 47.2855631,36.1813662 47.1959631,36.1518277 L45.84704,35.7048123 C45.4000246,35.5590892 45.1459938,35.0717046 45.2828554,34.6197662 C45.4108554,34.2072123 45.5211323,33.7857969 45.6136862,33.3633969 C45.7013169,32.9665969 46.0607015,32.6781046 46.4683323,32.6781046 L46.5165785,32.6781046 L46.6386708,32.6948431 L48.0328862,32.9695508 C48.2672246,33.0148431 48.4671015,33.1497354 48.5980554,33.3486277 C48.7280246,33.5465354 48.7713477,33.7818585 48.7221169,34.0122585 C48.6059323,34.5409969 48.4671015,35.0697354 48.3085785,35.58272 C48.1943631,35.9499815 47.8595938,36.19712 47.47264,36.19712 Z M46.5110646,27.3182523 C46.0975262,27.3182523 45.7371569,27.0248369 45.6534646,26.6211446 C45.5668185,26.19776 45.4614646,25.7763446 45.3403569,25.3618215 C45.2074338,24.9088985 45.4663877,24.4254523 45.9173415,24.2826831 L47.2721723,23.8524062 C47.3588185,23.8258215 47.4484185,23.8110523 47.5370338,23.8110523 C47.9239877,23.8110523 48.2695877,24.0690215 48.3778954,24.4382523 C48.5295262,24.9571446 48.6614646,25.4868677 48.7687877,26.0136369 C48.8160492,26.2420677 48.7697723,26.4773908 48.6378338,26.6733292 C48.5058954,26.8682831 48.2981415,27.0051446 48.0677415,27.0474831 L46.62528,27.31136 L46.5110646,27.3182523 Z M46.7879385,31.5577108 C46.3163077,31.5252185 45.9500308,31.1156185 45.9716923,30.6449723 C45.9923692,30.2137108 45.9943385,29.7775262 45.9805538,29.34528 C45.9638154,28.8746338 46.3350154,28.4699569 46.8066462,28.4443569 C46.8066462,28.4443569 48.2274462,28.3636185 48.2284308,28.3636185 C48.7512615,28.3636185 49.1342769,28.7318646 49.1510154,29.2025108 C49.1707077,29.7381415 49.1677538,30.2846031 49.1421538,30.8251569 C49.1195077,31.29088 48.7355077,31.6571569 48.2658462,31.6571569 L46.7879385,31.5577108 Z M18.4273723,20.3105477 C18.1930338,20.3105477 17.9734646,20.2189785 17.8080492,20.0535631 L14.7242338,16.9707323 C14.5588185,16.8053169 14.4682338,16.5857477 14.4682338,16.3514092 C14.4682338,16.1170708 14.5588185,15.8975015 14.7242338,15.7320862 L15.7295262,14.7267938 C15.8949415,14.5613785 16.1145108,14.4698092 16.3488492,14.4698092 C16.5831877,14.4698092 16.8037415,14.5613785 16.9691569,14.7267938 L20.0519877,17.8096246 C20.3936492,18.1512862 20.3936492,18.7075938 20.0519877,19.0492554 L19.0466954,20.0535631 C18.88128,20.2189785 18.6617108,20.3105477 18.4273723,20.3105477 Z M13.6702031,47.99232 C13.4358646,47.99232 13.2162954,47.9007508 13.05088,47.7353354 L12.0465723,46.7310277 C11.8811569,46.5656123 11.7886031,46.3450585 11.7886031,46.1117046 C11.7886031,45.8773662 11.8811569,45.6568123 12.0465723,45.4904123 L17.8055877,39.7313969 C17.9710031,39.5659815 18.1905723,39.4753969 18.4249108,39.4753969 C18.6592492,39.4753969 18.8798031,39.5659815 19.0442338,39.7313969 L20.0495262,40.7366892 C20.2139569,40.9021046 20.3065108,41.1216738 20.3065108,41.3560123 C20.3065108,41.5903508 20.2139569,41.8109046 20.0485415,41.9773046 L14.2895262,47.7353354 C14.1241108,47.9007508 13.9045415,47.99232 13.6702031,47.99232 Z M48.0225477,49.8961723 C47.7882092,49.8961723 47.56864,49.8046031 47.4032246,49.6391877 L39.7389785,41.9759262 C39.5735631,41.8105108 39.4819938,41.5899569 39.4819938,41.3556185 C39.4819938,41.1222646 39.5725785,40.9017108 39.7379938,40.7362954 L40.7432862,39.7319877 C40.9087015,39.5665723 41.1292554,39.4750031 41.3626092,39.4750031 C41.5969477,39.4750031 41.8175015,39.5665723 41.9829169,39.7319877 L49.6461785,47.3952492 C49.8125785,47.5616492 49.9041477,47.7822031 49.9041477,48.0155569 C49.9041477,48.2498954 49.8115938,48.4704492 49.6461785,48.6368492 L48.6418708,49.6391877 C48.4764554,49.8046031 48.2568862,49.8961723 48.0225477,49.8961723 Z M41.3605415,20.3105477 C41.1262031,20.3105477 40.9066338,20.2189785 40.7412185,20.0535631 L39.7359262,19.0492554 C39.5705108,18.88384 39.4789415,18.6632862 39.4789415,18.4289477 C39.4789415,18.1946092 39.5714954,17.9740554 39.7369108,17.80864 L45.4919877,12.0555323 C45.6574031,11.8901169 45.8769723,11.7985477 46.1113108,11.7985477 C46.3456492,11.7985477 46.5662031,11.8901169 46.7316185,12.0555323 L47.7359262,13.0608246 C47.9013415,13.22624 47.9929108,13.4458092 47.9929108,13.6811323 C47.9929108,13.9144862 47.9013415,14.13504 47.7359262,14.3004554 L41.9798646,20.0535631 C41.8144492,20.2189785 41.59488,20.3105477 41.3605415,20.3105477 Z" id="Combined-Shape" fill="url(#linearGradient-1)" opacity="0.5"></path>
            <path d="M10.61248,8.15094154 C9.95574154,8.15094154 9.33740308,8.40694154 8.87168,8.87168 C8.40694154,9.33740308 8.15094154,9.95574154 8.15094154,10.6134646 C8.15094154,11.2711877 8.40595692,11.8895262 8.87069538,12.3542646 C9.33641846,12.8190031 9.95574154,13.0759877 10.61248,13.0759877 C11.2702031,13.0759877 11.8885415,12.8199877 12.3522954,12.3552492 C12.8190031,11.8895262 13.0750031,11.2711877 13.0750031,10.6134646 C13.0750031,9.95574154 12.8190031,9.33740308 12.35328,8.87168 C11.8885415,8.40694154 11.2702031,8.15094154 10.61248,8.15094154 M10.6134646,16.2503877 C9.10700308,16.2503877 7.69112615,15.6635569 6.62675692,14.5991877 C5.56238769,13.5358031 4.97654154,12.1199262 4.97654154,10.6134646 C4.97654154,9.10798769 5.56337231,7.69211077 6.62774154,6.62774154 C7.69211077,5.56337231 9.10798769,4.97654154 10.61248,4.97654154 C12.1199262,4.97654154 13.5348185,5.56337231 14.5982031,6.62774154 C15.6625723,7.69211077 16.2494031,9.10798769 16.2494031,10.6134646 C16.2494031,12.1189415 15.6625723,13.5348185 14.5972185,14.6001723 C13.5328492,15.6645415 12.1179569,16.2503877 10.6134646,16.2503877 M6.98604308,48.9884554 C5.96795077,48.9884554 5.01090462,49.3842708 4.29016615,50.1050092 C3.57041231,50.8247631 3.17361231,51.7827938 3.17361231,52.8008862 C3.17361231,53.8189785 3.57041231,54.7760246 4.29016615,55.4957785 C5.00992,56.2155323 5.96696615,56.6113477 6.98604308,56.6113477 C8.00512,56.6113477 8.96216615,56.2155323 9.68093538,55.4957785 C11.1677046,54.0099938 11.1677046,51.5917785 9.68093538,50.1050092 C8.96118154,49.3842708 8.00413538,48.9884554 6.98604308,48.9884554 M6.98604308,59.7867323 C5.11921231,59.7867323 3.36364308,59.0600862 2.04524308,57.7407015 C0.726843077,56.4223015 0.000196923077,54.6677169 0.000196923077,52.8008862 C0.000196923077,50.93504 0.726843077,49.1794708 2.04524308,47.8600862 C3.36561231,46.5416862 5.12019692,45.81504 6.98604308,45.81504 C8.85287385,45.81504 10.6064738,46.5416862 11.9258585,47.8600862 C13.2432738,49.1775015 13.9689354,50.9330708 13.9689354,52.7999015 C13.9689354,54.6687015 13.2432738,56.4232862 11.9258585,57.7407015 C10.6074585,59.0600862 8.85287385,59.7867323 6.98604308,59.7867323 M52.7995077,3.17499077 C51.7814154,3.17499077 50.8233846,3.57080615 50.1036308,4.29154462 C49.3838769,5.01031385 48.9870769,5.96736 48.9870769,6.98643692 C48.9870769,8.00452923 49.3838769,8.96256 50.1046154,9.68231385 C50.8243692,10.4020677 51.7814154,10.7978831 52.7995077,10.7978831 C53.8185846,10.7978831 54.7756308,10.4020677 55.4953846,9.68231385 C56.2151385,8.96256 56.6119385,8.00452923 56.6119385,6.98643692 C56.6119385,5.96834462 56.2151385,5.01031385 55.4953846,4.29154462 C54.7756308,3.57080615 53.8185846,3.17499077 52.7995077,3.17499077 M52.7995077,13.9732677 C50.9336615,13.9732677 49.1790769,13.2466215 47.8596923,11.9272369 C46.5412923,10.6088369 45.8136615,8.85425231 45.8126769,6.98643692 C45.8126769,5.12157538 46.5393231,3.36600615 47.8596923,2.04662154 C49.1790769,0.727236923 50.9326769,-0.000393846154 52.7995077,-0.000393846154 C54.6663385,-0.000393846154 56.4209231,0.727236923 57.7403077,2.04662154 C59.0596923,3.36600615 59.7863385,5.12059077 59.7863385,6.98643692 C59.7863385,8.85326769 59.0596923,10.6078523 57.7403077,11.9282215 C56.4209231,13.2466215 54.6663385,13.9732677 52.7995077,13.9732677 M55.6634585,50.5028923 C54.2849969,50.5028923 52.9882585,51.0404923 52.0134892,52.0152615 C51.03872,52.9880615 50.5021046,54.2848 50.5021046,55.6652308 C50.5021046,57.0446769 51.03872,58.3404308 52.0125046,59.3142154 C52.9872738,60.2889846 54.2840123,60.8256 55.6634585,60.8256 C57.0429046,60.8256 58.3386585,60.2889846 59.3134277,59.3142154 C61.3259815,57.3016615 61.3259815,54.0268308 59.3134277,52.0142769 C58.3386585,51.0395077 57.04192,50.5028923 55.6634585,50.5028923 M55.6634585,64 C53.4352738,64 51.3419815,63.1325538 49.7685662,61.5591385 C48.1951508,59.9867077 47.3277046,57.8934154 47.3277046,55.6652308 C47.3277046,53.4380308 48.1951508,51.3437538 49.7685662,49.7703385 C51.3439508,48.1959385 53.4372431,47.3284923 55.6634585,47.3284923 C57.8896738,47.3284923 59.9829662,48.1959385 61.5583508,49.7703385 C64.8085662,53.0225231 64.8075815,58.3099077 61.5583508,61.5591385 C59.9849354,63.1325538 57.8916431,64 55.6634585,64 M29.8923323,17.98272 C26.71104,17.98272 23.7197785,19.2223508 21.4709169,21.4721969 C19.2220554,23.7200738 17.9824246,26.7103508 17.9824246,29.8936123 C17.9824246,33.0758892 19.2220554,36.0661662 21.4709169,38.3150277 C23.7197785,40.5658585 26.71104,41.80352 29.8933169,41.80352 C33.0746092,41.80352 36.0658708,40.5658585 38.3157169,38.3150277 C40.5645785,36.0661662 41.8042092,33.0749046 41.8032246,29.8936123 C41.8032246,26.71232 40.5645785,23.7210585 38.3147323,21.4721969 C36.0658708,19.2223508 33.0746092,17.98272 29.8923323,17.98272 M29.8933169,44.9789046 C25.8632862,44.9789046 22.0754708,43.4094277 19.2259938,40.5599508 C16.3775015,37.7124431 14.8080246,33.9236431 14.8080246,29.8936123 C14.8080246,25.8635815 16.3775015,22.0747815 19.2259938,19.2282585 C22.0744862,16.3777969 25.8623015,14.80832 29.8923323,14.80832 C33.9213785,14.80832 37.7101785,16.3777969 40.5586708,19.2282585 C43.4081477,22.0767508 44.9776246,25.8645662 44.9776246,29.8936123 C44.9776246,33.9236431 43.4091323,37.7124431 40.5596554,40.5609354 C37.7111631,43.4094277 33.9233477,44.9789046 29.8933169,44.9789046" id="Fill-51" fill="url(#linearGradient-1)"></path>
            <path d="M31.1682954,28.5384862 C32.0406646,28.5384862 32.7495877,27.8561477 32.7495877,27.0172554 C32.7495877,26.1793477 32.0406646,25.4960246 31.1682954,25.4960246 L27.0969108,25.4960246 L27.0969108,28.5384862 L31.1682954,28.5384862 Z M31.9983262,34.1763938 C32.8706954,34.1763938 33.5796185,33.4930708 33.5796185,32.6551631 C33.5796185,31.8162708 32.8706954,31.1339323 31.9983262,31.1339323 L27.0969108,31.1339323 L27.0969108,34.1763938 L31.9983262,34.1763938 Z M30.7537723,38.3826708 C30.0241723,38.3826708 29.4314338,37.7997785 29.4314338,37.0849477 L29.4314338,36.77184 L28.7569723,36.77184 L28.7569723,37.0849477 C28.7569723,37.7997785 28.1632492,38.3826708 27.4346338,38.3826708 C26.7060185,38.3826708 26.1122954,37.7997785 26.1122954,37.0849477 L26.1122954,36.77184 L25.7755569,36.77184 C25.0469415,36.77184 24.4532185,36.1899323 24.4532185,35.4741169 L24.4532185,24.1983015 C24.4532185,23.4824862 25.0469415,22.9005785 25.7755569,22.9005785 L26.1122954,22.9005785 L26.1122954,22.5874708 C26.1122954,21.8716554 26.7060185,21.2907323 27.4346338,21.2907323 C28.1632492,21.2907323 28.7569723,21.8716554 28.7569723,22.5874708 L28.7569723,22.9005785 L29.4314338,22.9005785 L29.4314338,22.5874708 C29.4314338,21.8716554 30.0241723,21.2907323 30.7537723,21.2907323 C31.4823877,21.2907323 32.0751262,21.8716554 32.0751262,22.5874708 L32.0751262,23.0147938 C33.9961108,23.4234092 35.3942646,25.0736246 35.3942646,27.0172554 C35.3942646,27.8896246 35.11168,28.7245785 34.5898338,29.4236554 C35.6098954,30.2005169 36.2242954,31.3928862 36.2242954,32.6551631 C36.2242954,34.9000862 34.3702646,36.7304862 32.0751262,36.7708554 L32.0751262,37.0849477 C32.0751262,37.7997785 31.4823877,38.3826708 30.7537723,38.3826708 Z" id="Fill-61" fill="url(#linearGradient-1)"></path>
        </g>
    </g>
</svg>