<?xml version="1.0" encoding="UTF-8"?>
<svg width="92px" height="24px" viewBox="0 0 92 24" version="1.1" xmlns="http://www.w3.org/2000/svg" xmlns:xlink="http://www.w3.org/1999/xlink">
    <!-- Generator: Sketch 49 (51002) - http://www.bohemiancoding.com/sketch -->
    <title>Shape</title>
    <desc>Created with Sketch.</desc>
    <defs>
        <path d="M534.858308,273.934187 C533.254518,273.701444 531.851797,273.024516 530.780641,271.966454 C529.887141,271.083955 529.307811,270.113477 528.880803,268.78376 C528.214035,266.707602 528.213836,264.038342 528.880142,262.004525 C529.525944,260.03356 530.979991,258.317894 532.759518,257.427152 C535.223936,256.193592 538.692509,256.271085 540.97504,257.610695 C543.029185,258.816291 544.273432,260.958532 544.61968,263.885334 C544.725374,264.778913 544.656785,266.666449 544.490308,267.445535 C543.808922,270.634561 541.824556,272.862209 538.917257,273.701774 C538.603946,273.792193 538.11814,273.898112 537.837701,273.936957 C537.244217,274.019331 535.432744,274.017616 534.858308,273.934187 Z M537.25771,272.65367 C537.726253,272.514908 538.304062,271.974566 538.612214,271.387069 C539.248293,270.174284 539.532369,268.380795 539.539446,265.532938 C539.548243,261.963899 538.987102,259.692788 537.802779,258.50368 C537.305464,258.004294 536.952799,257.849242 536.316918,257.850231 C534.905665,257.852474 534.009982,259.321546 533.656127,262.214185 C533.493486,263.543902 533.492626,266.711625 533.654606,267.874155 C534.155823,271.472081 535.450139,273.188868 537.25771,272.65367 Z M563.264666,273.933396 C562.60848,273.867049 560.603346,273.534323 559.902911,273.375511 L559.418361,273.265636 L559.456128,270.68541 C559.547138,264.473095 559.55858,261.08173 559.499648,257.78362 C559.441973,254.552781 559.425174,254.211218 559.300167,253.733266 C559.141825,253.127698 558.913307,252.705344 558.638491,252.510193 C558.531739,252.434415 558.241644,252.326979 557.99388,252.271448 C557.170356,252.086981 557.215068,252.116528 557.193109,251.741922 C557.180476,251.526129 557.20389,251.383541 557.25925,251.339815 C557.33346,251.281118 564.088322,249.99638 564.303479,250.000008 C564.365321,250.001063 564.374051,250.862259 564.34237,253.826588 C564.319882,255.930445 564.316971,257.651783 564.335954,257.651783 C564.35487,257.651783 564.601709,257.545205 564.884462,257.41495 C565.736691,257.02234 566.522183,256.851987 567.663051,256.812284 C568.42255,256.785904 568.774487,256.802458 569.164124,256.882787 C571.712079,257.408487 573.59763,259.488008 574.256528,262.499162 C574.428429,263.284646 574.492321,265.236947 574.378294,266.214746 C574.281,267.048177 574.003472,268.171135 573.7147,268.899835 C572.624893,271.649688 570.28687,273.443639 567.185115,273.909851 C566.470659,274.017154 564.227086,274.030675 563.264666,273.933396 Z M564.642121,272.772779 C565.239045,272.835697 565.909518,272.813801 566.222233,272.721139 C566.707113,272.577496 567.327187,272.138126 567.700619,271.673761 C568.470767,270.715549 569.024037,269.232561 569.328154,267.310928 C569.473731,266.390573 569.493441,263.804411 569.360431,263.059751 C568.952274,260.773801 568.166187,259.377144 566.969694,258.81174 C566.373894,258.530127 565.533439,258.495304 564.752775,258.719672 L564.223646,258.871822 L564.163722,260.949299 C564.088189,263.568568 564.210947,272.521239 564.324313,272.657495 C564.365387,272.706827 564.50845,272.758731 564.642121,272.772779 Z M582.280241,273.900684 C578.998913,273.310615 576.652226,270.990304 575.885452,267.577966 C575.786835,267.139124 575.743248,266.647916 575.718512,265.697817 C575.679356,264.194713 575.801982,263.261695 576.191024,262.102397 C576.938022,259.876529 578.276718,258.29923 580.2214,257.353879 C582.273957,256.356097 585.080193,256.290739 586.896693,257.198431 C588.941909,258.220418 590.145281,260.261028 590.450588,263.22463 C590.491728,263.623704 590.515473,264.09849 590.503567,264.279857 L590.481807,264.609615 L585.587363,264.626498 L580.69292,264.643448 L580.711505,265.220063 C580.754762,266.555848 581.04274,267.737437 581.575507,268.764568 C581.81765,269.231506 582.010385,269.486013 582.478664,269.957369 C583.536393,271.022356 584.588698,271.434554 586.248708,271.434554 C587.452278,271.434554 588.317801,271.195084 589.223075,270.611544 C589.476594,270.44805 589.733552,270.314366 589.793939,270.314366 C589.932108,270.314366 590.250247,270.722672 590.250247,270.900082 C590.250247,271.190797 589.301254,272.127904 588.375675,272.751345 C587.617631,273.261942 586.415384,273.724395 585.372934,273.906158 C584.642868,274.033642 583.002766,274.030675 582.280241,273.900684 Z M580.570228,263.339122 C580.606275,263.397358 583.571514,263.358512 584.952276,263.28181 L585.640144,263.243558 L585.600128,262.211877 C585.519039,260.121804 585.109692,258.709845 584.39431,258.052307 C584.127761,257.807363 583.769673,257.652904 583.466217,257.652113 C583.390882,257.651915 583.169111,257.699202 582.973267,257.757174 C582.688728,257.84146 582.529527,257.950742 582.180632,258.301275 C581.531854,258.952943 581.060466,260.011269 580.766072,261.476912 C580.643843,262.084986 580.520424,263.258859 580.570228,263.339122 Z M595.508466,273.964723 C594.330096,273.838755 592.45473,273.429393 591.830292,273.161696 L591.525315,273.031111 L591.483713,271.52438 C591.460828,270.695764 591.434504,269.58771 591.425112,269.062208 L591.408047,268.106766 L591.590861,268.01938 C591.691396,267.971368 591.894251,267.926455 592.041745,267.919596 L592.309815,267.907197 L592.538201,268.467786 C593.42932,270.654742 594.474416,271.833891 595.839437,272.192536 C596.360166,272.329452 597.336541,272.330639 597.722012,272.194845 C598.801832,271.814831 599.393993,270.999471 599.399152,269.885746 C599.405237,268.566713 598.678148,267.932984 595.93124,266.86305 C594.229429,266.20017 593.635746,265.859069 592.928896,265.137624 C592.166355,264.359328 591.800396,263.473532 591.731676,262.239643 C591.648669,260.74874 592.116551,259.491834 593.153578,258.420845 C594.197086,257.342997 595.551789,256.758798 597.397259,256.590885 C599.022346,256.443021 601.516859,256.786695 602.823874,257.338513 L603.062312,257.439155 L603.104841,258.782062 C603.128255,259.520654 603.152463,260.51072 603.158614,260.982275 L603.169858,261.83958 L602.849603,261.958161 C602.343358,262.145596 602.310023,262.122117 602.028394,261.37805 C601.238934,259.292396 600.321755,258.305561 598.892643,258.004096 C598.021697,257.820355 597.294145,258.01788 596.76528,258.581635 C596.352758,259.0214 596.19177,259.411966 596.152813,260.067789 C596.110483,260.778352 596.237871,261.162455 596.673278,261.637504 C597.209881,262.223023 598.089095,262.72841 599.840578,263.458231 C601.985799,264.352074 603.009267,265.110913 603.565713,266.219956 C603.927108,266.94028 604.029428,267.515576 603.993117,268.62297 C603.9658,269.453961 603.939145,269.624709 603.749519,270.182594 C603.131364,272.00154 601.736051,273.19909 599.580379,273.760603 C598.850247,273.950741 598.746009,273.960502 597.294145,273.976462 C596.457525,273.985432 595.653911,273.980287 595.508466,273.964723 Z M512.087902,273.568354 C512.032938,273.546194 512.005225,273.381842 512.005225,273.077607 C512.005225,272.531066 511.970369,272.555534 513.030413,272.35946 C513.843552,272.209024 514.134374,272.055225 514.493454,271.585847 C515.18959,270.675649 515.340061,268.923314 515.341648,261.707809 C515.343103,254.931541 515.212144,253.506063 514.492198,252.458751 C514.172736,251.994121 513.634413,251.74179 512.732711,251.634157 L512.03823,251.551256 L512.019181,251.010585 L512,250.469979 L512.217604,250.431331 C512.33732,250.410095 516.541713,250.401126 521.560832,250.411348 L530.686522,250.430078 L530.72925,250.693885 C530.752796,250.838978 530.791422,252.327243 530.815101,254.001096 L530.858093,257.0445 L530.387631,257.187022 C529.679391,257.401496 529.683624,257.404134 529.365023,256.563515 C528.582441,254.498701 527.685038,253.308933 526.457062,252.708114 C525.610125,252.29374 525.218569,252.243682 522.82684,252.243682 L520.745378,252.243682 L520.709464,252.589929 C520.642132,253.239222 520.535976,257.416006 520.536703,259.382947 L520.537431,261.345009 L521.149236,261.341513 C521.485762,261.339601 522.14929,261.314935 522.623787,261.286641 C523.336986,261.244103 523.548969,261.206378 523.847397,261.068605 C524.580572,260.730142 525.079342,259.985284 525.38498,258.772433 L525.542727,258.146288 L526.082571,258.127096 L526.622415,258.107904 L526.622415,266.032851 L526.082372,266.013659 L525.54233,265.994467 L525.389015,265.367927 C525.101036,264.19069 524.546708,263.34796 523.86175,263.045835 C523.545397,262.906348 522.762683,262.827008 521.248448,262.781106 L520.537431,262.759473 L520.537431,264.248134 C520.537431,265.87028 520.62692,268.064821 520.741542,269.255842 C520.901339,270.91624 521.326891,271.833628 522.09102,272.165694 C522.236927,272.229074 522.698658,272.331958 523.116935,272.39448 C523.535277,272.456937 523.929677,272.534891 523.993305,272.567735 C524.154755,272.650834 524.16428,273.510778 524.004483,273.571849 C523.879344,273.619862 512.207088,273.616234 512.087902,273.568354 Z M554.467896,272.700034 L553.955302,272.65677 C552.77303,272.557315 552.449136,272.438932 552.138604,271.993165 C551.688646,271.347036 551.590757,270.154763 551.590757,265.324003 L551.590757,261.553614 L551.754721,261.379567 C551.96161,261.159948 552.608338,260.853537 553.065638,260.758501 C553.994259,260.565394 555.18136,260.732252 556.109783,261.186263 C556.376266,261.316583 556.605445,261.412081 556.61907,261.398429 C556.646452,261.371125 558.171402,257.352956 558.218693,257.183394 C558.240189,257.106495 558.152354,257.039488 557.895858,256.937131 C557.346821,256.718039 556.870737,256.642987 556.256617,256.678469 C554.613936,256.773505 553.156119,257.861707 552.106062,259.776613 C551.931781,260.0945 551.751215,260.354877 551.704916,260.355206 C551.637519,260.355668 551.629714,259.990494 551.665893,258.538239 L551.7112,256.720678 L551.5518,256.758138 C551.464097,256.778715 550.142266,257.045753 548.614472,257.351505 C545.337576,258.007262 544.882128,258.102826 544.804016,258.150971 C544.771673,258.170888 544.745216,258.288744 544.745216,258.412931 C544.745216,258.661964 544.716048,258.647521 545.460599,258.766959 C546.484133,258.931113 546.845594,259.428718 546.998248,260.883479 C547.197266,262.780314 547.117765,270.174614 546.887461,271.184136 C546.76973,271.700273 546.465481,272.197351 546.159247,272.373969 C546.045749,272.439525 545.688587,272.54452 545.365554,272.607372 L544.778221,272.721732 L544.75818,273.067978 L544.738205,273.414225 L554.467896,273.414225 L554.467896,273.057096 L554.467896,272.700034 Z" id="path-1"></path>
    </defs>
    <g id="Website" stroke="none" stroke-width="1" fill="none" fill-rule="evenodd">
        <g id="Mineunit" transform="translate(-674.000000, -3784.000000)">
            <g id="Quote" transform="translate(162.000000, 3534.000000)">
                <mask id="mask-2" fill="white">
                    <use xlink:href="#path-1"></use>
                </mask>
                <use id="Shape" fill="#231F20" fill-rule="nonzero" xlink:href="#path-1"></use>
            </g>
        </g>
    </g>
</svg>