<?xml version="1.0" encoding="UTF-8"?>
<svg width="24px" height="24px" viewBox="0 0 24 24" version="1.1" xmlns="http://www.w3.org/2000/svg" xmlns:xlink="http://www.w3.org/1999/xlink">
    <!-- Generator: Sketch 47.1 (45422) - http://www.bohemiancoding.com/sketch -->
    <title>price-tag</title>
    <desc>Created with Sketch.</desc>
    <defs></defs>
    <g id="Page-1" stroke="none" stroke-width="1" fill="none" fill-rule="evenodd">
        <g id="price-tag" transform="translate(0.000000, 3.000000)" fill-rule="nonzero" fill="#0066FF">
            <path d="M21.890625,0 L2.109375,0 C0.946265625,0 0,0.931707692 0,2.07692308 L0,15.9230769 C0,17.0682923 0.946265625,18 2.109375,18 L21.890625,18 C23.0537344,18 24,17.0682923 24,15.9230769 L24,2.07692308 C24,0.931707692 23.0537344,0 21.890625,0 Z M22.59375,15.9230769 C22.59375,16.3048154 22.2783281,16.6153846 21.890625,16.6153846 L2.109375,16.6153846 C1.72167187,16.6153846 1.40625,16.3048154 1.40625,15.9230769 L1.40625,6.92307692 L22.59375,6.92307692 L22.59375,15.9230769 Z M22.59375,5.53846154 L1.40625,5.53846154 L1.40625,4.15384615 L22.59375,4.15384615 L22.59375,5.53846154 Z M22.59375,2.76923077 L1.40625,2.76923077 L1.40625,2.07692308 C1.40625,1.69518462 1.72167187,1.38461538 2.109375,1.38461538 L21.890625,1.38461538 C22.2783281,1.38461538 22.59375,1.69518462 22.59375,2.07692308 L22.59375,2.76923077 Z M14.765625,12.4615385 C15.1539375,12.4615385 15.46875,12.7715077 15.46875,13.1538462 C15.46875,13.5361846 15.1539375,13.8461538 14.765625,13.8461538 L13.359375,13.8461538 C12.9710625,13.8461538 12.65625,13.5361846 12.65625,13.1538462 C12.65625,12.7715077 12.9710625,12.4615385 13.359375,12.4615385 L14.765625,12.4615385 Z M19.078125,12.4615385 C19.4664375,12.4615385 19.78125,12.7715077 19.78125,13.1538462 C19.78125,13.5361846 19.4664375,13.8461538 19.078125,13.8461538 L17.671875,13.8461538 C17.2835625,13.8461538 16.96875,13.5361846 16.96875,13.1538462 C16.96875,12.7715077 17.2835625,12.4615385 17.671875,12.4615385 L19.078125,12.4615385 Z M8.4375,9.69230769 C7.92576562,9.69230769 7.446,9.82823077 7.03214063,10.0643538 C6.60745313,9.82246154 6.12342188,9.69230769 5.625,9.69230769 C4.0741875,9.69230769 2.8125,10.9345846 2.8125,12.4615385 C2.8125,13.9884923 4.0741875,15.2307692 5.625,15.2307692 C6.12342188,15.2307692 6.60745313,15.1006154 7.03214063,14.8587231 C7.44595312,15.0948462 7.92576562,15.2307692 8.4375,15.2307692 C9.9883125,15.2307692 11.25,13.9884923 11.25,12.4615385 C11.25,10.9345846 9.9883125,9.69230769 8.4375,9.69230769 Z M5.97740625,13.8017538 C5.86326563,13.8307846 5.745,13.8461538 5.625,13.8461538 C4.84959375,13.8461538 4.21875,13.2250154 4.21875,12.4615385 C4.21875,11.6980615 4.84959375,11.0769231 5.625,11.0769231 C5.745,11.0769231 5.86326563,11.0922923 5.97740625,11.1213231 C5.75320312,11.5187538 5.625,11.9755846 5.625,12.4615385 C5.625,12.9474923 5.75320312,13.4043231 5.97740625,13.8017538 Z M8.4375,13.8461538 C7.66209375,13.8461538 7.03125,13.2250154 7.03125,12.4615385 C7.03125,11.6980615 7.66209375,11.0769231 8.4375,11.0769231 C9.21290625,11.0769231 9.84375,11.6980615 9.84375,12.4615385 C9.84375,13.2250154 9.21290625,13.8461538 8.4375,13.8461538 Z" id="Shape"></path>
        </g>
    </g>
</svg>