<?xml version="1.0" encoding="UTF-8"?>
<svg width="24px" height="24px" viewBox="0 0 24 24" version="1.1" xmlns="http://www.w3.org/2000/svg" xmlns:xlink="http://www.w3.org/1999/xlink">
    <!-- Generator: Sketch 47.1 (45422) - http://www.bohemiancoding.com/sketch -->
    <title>price-tag</title>
    <desc>Created with Sketch.</desc>
    <defs></defs>
    <g id="Page-1" stroke="none" stroke-width="1" fill="none" fill-rule="evenodd">
        <g id="price-tag" transform="translate(0.000000, 2.000000)" fill-rule="nonzero" fill="#0066FF">
            <path d="M21.8437927,8.41726528 C21.7556206,8.41726528 21.6689017,8.42328157 21.5835422,8.43369437 L19.1144905,3.55837244 C19.2440063,3.4304569 19.3577253,3.28537181 19.4518036,3.12455181 C20.0347423,2.1276992 19.6895072,0.855300619 18.679724,0.279726995 C17.6723783,-0.294458254 16.3798445,0.0475445665 15.7982652,1.04199066 C15.7171713,1.18064295 15.6537962,1.326052 15.607343,1.47539477 L8.39270389,1.47539477 C8.3462038,1.32600572 8.28287555,1.18064295 8.20178164,1.04199066 C7.61884301,0.0451380514 6.33010611,-0.295800349 5.32032289,0.279726995 C4.31302405,0.853865966 3.966664,2.13005944 4.54824326,3.12455181 C4.64316532,3.28689902 4.75730617,3.43147504 4.88579079,3.55786337 L2.41650472,8.43369437 C2.33114518,8.42328157 2.24442626,8.41726528 2.15625421,8.41726528 C0.990564435,8.41726528 0,9.34729081 0,10.4998264 C0,11.6509737 0.988970682,12.5823876 2.15625421,12.5823876 C2.24442626,12.5823876 2.33114518,12.5763713 2.41650472,12.5659585 L4.88579079,17.4417895 C4.75730617,17.5681778 4.64316532,17.7128001 4.54824326,17.8751011 C3.966664,18.8695934 4.31302405,20.1457869 5.32032289,20.7199259 C6.33844988,21.3002662 7.62362426,20.9462771 8.20178164,19.9576622 C8.28287555,19.8190099 8.34625068,19.6736009 8.39270389,19.5242581 L15.6072961,19.5242581 C15.6537962,19.6736471 15.7171244,19.8190099 15.7982184,19.9576622 C16.1884535,20.6250536 16.8989393,20.9985263 17.6285501,20.9985263 C17.9861133,20.9985263 18.348364,20.908791 18.6796771,20.7199259 C19.6893197,20.1443985 20.0347423,18.8719999 19.4517567,17.8751011 C19.3577253,17.7142811 19.2440063,17.5691497 19.1144436,17.4412804 L21.5834953,12.5659585 C21.6688548,12.5763713 21.7555737,12.5823876 21.8437458,12.5823876 C23.0093418,12.5823876 24,11.6523621 24,10.4998264 C24.0000469,9.34877175 23.0111699,8.41726528 21.8437927,8.41726528 Z M17.0160801,1.73617771 C17.2099555,1.40463397 17.6409251,1.29074102 17.9765976,1.48210525 C18.3131608,1.67393227 18.428286,2.09808056 18.2339419,2.43036476 C18.0401134,2.76186221 17.6092844,2.87589401 17.2734712,2.68443722 C16.9369081,2.49265648 16.8217829,2.06850819 17.0160801,1.73617771 Z M8.33026627,2.86376887 L15.6697337,2.86376887 C15.7498901,3.06064032 15.8589216,3.24228593 15.9933594,3.40403152 L14.4495282,5.66689619 C13.9663398,4.82322752 13.0497442,4.25214298 12.0000234,4.25214298 C10.9503026,4.25214298 10.0337071,4.82322752 9.55051865,5.66689619 L8.00664064,3.40398524 C8.1410784,3.24223965 8.25010986,3.06059404 8.33026627,2.86376887 Z M12.0000234,9.80563938 C13.550839,9.80563938 14.8125289,11.0512886 14.8125289,12.5823876 L14.8125289,13.9707617 L9.18751794,13.9707617 L9.18751794,12.5823876 C9.18751794,11.0512886 10.4492079,9.80563938 12.0000234,9.80563938 Z M10.5937707,7.02889118 C10.5937707,6.2633417 11.2246157,5.64051708 12.0000234,5.64051708 C12.7754312,5.64051708 13.4062762,6.2633417 13.4062762,7.02889118 C13.4062762,7.79444066 12.7754312,8.41726528 12.0000234,8.41726528 C11.2246157,8.41726528 10.5937707,7.79444066 10.5937707,7.02889118 Z M6.02344926,1.48205897 C6.35982492,1.2903245 6.78957576,1.40384723 6.98391989,1.73617771 C7.17821714,2.06841563 7.0631388,2.4926102 6.72657564,2.68443722 C6.39085623,2.87580145 5.95998039,2.76186221 5.76605814,2.43036476 C5.57222963,2.0988673 5.68768298,1.67346948 6.02344926,1.48205897 Z M6.15676202,4.15282795 C6.36502806,4.17453286 6.57001283,4.1693496 6.80134141,4.12237628 L9.29022127,7.77042179 C9.41486214,8.21377592 9.64820634,8.6126558 9.96025383,8.93753534 C9.54526864,9.16481218 9.17298667,9.45910121 8.85850168,9.8055931 L4.1446956,9.8055931 L4.1446956,9.80563938 C4.04297665,9.5225499 3.88088258,9.26759814 3.6738353,9.05554713 L6.15676202,4.15282795 Z M2.15625421,11.1940135 C1.75673781,11.1940135 1.40625275,10.869643 1.40625275,10.4998264 C1.40625275,10.1300099 1.75673781,9.80563938 2.15625421,9.80563938 C2.54395809,9.80563938 2.85938058,10.1170517 2.85938058,10.4998264 C2.85938058,10.8826012 2.54395809,11.1940135 2.15625421,11.1940135 Z M6.98391989,19.2634752 C6.78962264,19.5957131 6.36001242,19.7094672 6.02344926,19.5175476 C5.68768298,19.3261834 5.57222963,18.9007393 5.76605814,18.5692881 C5.95993352,18.2377444 6.39085623,18.1238514 6.72657564,18.3152156 C7.0631388,18.5070427 7.17826402,18.931191 6.98391989,19.2634752 Z M6.80124766,16.8772766 C6.58707537,16.8338205 6.36966869,16.8241019 6.1564339,16.8463158 L3.67378843,11.9441057 C3.88088258,11.732101 4.04297665,11.4771492 4.14464872,11.1940135 L8.02253129,11.1940135 C7.86648411,11.628482 7.78121832,12.0957625 7.78121832,12.5823876 L7.78121832,14.6649487 C7.78121832,14.853166 7.85739035,15.023612 7.98057809,15.1486583 L6.80124766,16.8772766 Z M15.6697806,18.135884 L8.33031315,18.135884 C8.25015674,17.9390588 8.14112528,17.7574132 8.00668751,17.5956676 L9.53251862,15.3591358 L14.4675283,15.3591358 L15.9934062,17.5956214 C15.8589685,17.7573669 15.749937,17.9390125 15.6697806,18.135884 Z M17.9765976,19.5175939 C17.6407845,19.7090044 17.2099555,19.5949726 17.0160801,19.2635214 C16.8217829,18.9312372 16.9368612,18.5070889 17.2734712,18.3152619 C17.6092375,18.1238977 18.0401134,18.2378369 18.2339419,18.5693344 C18.428286,18.9015723 18.3131608,19.3257669 17.9765976,19.5175939 Z M17.8441755,16.8450663 C17.6272376,16.8222044 17.4098309,16.8331263 17.1982367,16.8764898 L16.0194219,15.1486583 C16.1426097,15.023612 16.2187817,14.853166 16.2187817,14.6649487 L16.2187817,12.5823876 C16.2187817,12.0957625 16.1335159,11.628482 15.9774687,11.1940135 L19.8553513,11.1940135 C19.9570702,11.477103 20.1191643,11.7320547 20.3262116,11.9441057 L17.8441755,16.8450663 Z M19.8553513,9.80563938 L15.1415921,9.80563938 C14.8270602,9.45914749 14.4548251,9.16485846 14.0398399,8.93758162 C14.3518874,8.61270208 14.5852316,8.2138222 14.7098725,7.77046807 L17.198143,4.12330186 C17.337362,4.15185609 17.4790654,4.16671169 17.6216125,4.16671169 C17.6955814,4.16671169 17.7697378,4.16175982 17.8438942,4.15398493 L20.3262584,9.05559341 C20.1191643,9.26759814 19.9570702,9.5225499 19.8553513,9.80563938 Z M21.8437927,11.1940135 C21.4560888,11.1940135 21.1406663,10.8826012 21.1406663,10.4998264 C21.1406663,10.1170517 21.4560888,9.80563938 21.8437927,9.80563938 C22.2433091,9.80563938 22.5937941,10.1300099 22.5937941,10.4998264 C22.5937941,10.869643 22.2433091,11.1940135 21.8437927,11.1940135 Z" id="Shape"></path>
        </g>
    </g>
</svg>