<?xml version="1.0" encoding="UTF-8"?>
<svg width="40px" height="40px" viewBox="0 0 40 40" version="1.1" xmlns="http://www.w3.org/2000/svg" xmlns:xlink="http://www.w3.org/1999/xlink">
    <!-- Generator: Sketch 46.1 (44463) - http://www.bohemiancoding.com/sketch -->
    <title>Fill 1</title>
    <desc>Created with Sketch.</desc>
    <defs></defs>
    <g id="Page-1" stroke="none" stroke-width="1" fill="none" fill-rule="evenodd">
        <path d="M30.13875,8.67203846 L30.13875,7.70869231 C30.13875,7.13880769 29.67375,6.69330769 29.08125,6.69330769 L3.64625,6.69330769 C3.0575,6.69330769 2.57625,7.14896154 2.57625,7.70869231 L2.57625,8.67203846 L30.13875,8.67203846 Z M2.57625,13.0331154 L30.13875,13.0331154 L30.13875,11.2879231 L2.57625,11.2879231 L2.57625,13.0331154 Z M2.57625,22.6424615 C2.57625,23.2148846 3.06625,23.701 3.64625,23.701 L7.28625,23.701 L7.28625,16.7633846 C7.28625,16.3978462 7.3325,16.045 7.42,15.7264231 L2.57625,15.7264231 L2.57625,22.6424615 Z M10.825,15.7264231 C10.275,15.7949615 9.8625,16.2379231 9.8625,16.7633846 L9.8625,31.6984231 C9.8625,32.2683077 10.33625,32.7328462 10.92,32.7328462 L36.35375,32.7328462 C36.92625,32.7328462 37.39125,32.2721154 37.39125,31.7047692 L37.39125,31.3316154 L37.42375,31.3316154 L37.42375,16.7633846 C37.42375,16.1909615 36.94375,15.7264231 36.35375,15.7264231 L10.825,15.7264231 Z M10.92,35.4274231 C8.915,35.4274231 7.28625,33.7545769 7.28625,31.6984231 L7.28625,26.3168846 L3.64625,26.3168846 C1.63625,26.3168846 0,24.6681538 0,22.6424615 L0,7.70869231 C0,5.66269231 1.63625,4 3.64625,4 L29.08125,4 C31.085,4 32.715,5.66269231 32.715,7.70869231 L32.715,13.0331154 L36.35375,13.0331154 C38.365,13.0331154 40,14.7059615 40,16.7633846 L40,31.6984231 C40,33.7545769 38.365,35.4274231 36.35375,35.4274231 L10.92,35.4274231 Z M20.816375,21.9205231 C19.562625,21.9205231 18.542625,22.9574846 18.542625,24.2292538 C18.542625,25.5022923 19.562625,26.5392538 20.816375,26.5392538 C21.236375,26.5392538 21.633875,26.4275615 21.985125,26.2117923 C21.716375,25.5898692 21.576375,24.9108308 21.576375,24.2292538 C21.576375,23.5489462 21.716375,22.8711769 21.983875,22.2479846 C21.632625,22.0334846 21.235125,21.9205231 20.816375,21.9205231 M26.458875,21.9217923 C25.205125,21.9217923 24.185125,22.9574846 24.185125,24.2292538 C24.185125,25.5022923 25.205125,26.5392538 26.458875,26.5392538 C27.712625,26.5392538 28.732625,25.5022923 28.732625,24.2292538 C28.732625,22.9574846 27.712625,21.9217923 26.458875,21.9217923 M26.458875,29.1881385 C25.435125,29.1881385 24.467625,28.8733692 23.640125,28.2768308 C22.822625,28.8670231 21.830125,29.1881385 20.816375,29.1881385 C18.123875,29.1881385 15.933875,26.9631769 15.933875,24.2292538 C15.933875,21.4953308 18.123875,19.2716385 20.816375,19.2716385 C21.830125,19.2716385 22.822625,19.5940231 23.640125,20.1842154 C24.467625,19.5864077 25.435125,19.2729077 26.458875,19.2729077 C29.151375,19.2729077 31.340125,21.4953308 31.340125,24.2292538 C31.340125,26.9631769 29.151375,29.1881385 26.458875,29.1881385" id="Fill-1" fill="#FFFFFF"></path>
    </g>
</svg>