<?xml version="1.0" encoding="UTF-8"?>
<svg width="36px" height="34px" viewBox="0 0 36 34" version="1.1" xmlns="http://www.w3.org/2000/svg" xmlns:xlink="http://www.w3.org/1999/xlink">
    <!-- Generator: Sketch 47.1 (45422) - http://www.bohemiancoding.com/sketch -->
    <title>Shape</title>
    <desc>Created with Sketch.</desc>
    <defs></defs>
    <g id="Page-1" stroke="none" stroke-width="1" fill="none" fill-rule="evenodd">
        <g id="ic_unique_design" transform="translate(-16.000000, -18.000000)" fill-rule="nonzero" fill="#FFFFFF">
            <path d="M18.3631931,37.5467524 C18.6016419,38.686023 19.2852511,39.6843163 20.2635524,40.321899 C21.2418537,40.9594818 22.4346611,41.1840948 23.5794271,40.9462988 L24.387576,40.7781492 L24.9936877,43.6769022 C25.1399295,44.3727106 25.6944102,44.9114779 26.3969281,45.0403762 C26.5059757,45.06034 26.616658,45.0701303 26.7275345,45.0696196 C27.3203275,45.0683934 27.872655,44.7702222 28.1968961,44.2763921 L31.4735727,39.301357 L40.0877055,37.5138536 C41.2325792,37.2765718 42.2357822,36.5963082 42.8765007,35.6227948 C43.5172192,34.6492814 43.7429369,33.4623117 43.5039714,32.3231483 L41.2338076,21.4921204 C40.9953589,20.3528498 40.3117496,19.3545566 39.3334483,18.7169738 C38.355147,18.0793911 37.1623396,17.8547781 36.0175737,18.092574 L19.5092952,21.5213638 C18.3644215,21.7586456 17.3612185,22.4389092 16.7205,23.4124226 C16.0797816,24.385936 15.8540638,25.5729057 16.0930293,26.7120691 L18.3631931,37.5467524 Z M19.8839825,23.3161781 L36.3959343,19.8837329 C37.7855434,19.5955391 39.1469773,20.4823577 39.437513,21.8649739 L41.7150236,32.6960018 C41.8527383,33.3610973 41.7191297,34.0533901 41.3436248,34.6204042 C40.96812,35.1874184 40.3815185,35.5826461 39.7130183,35.7190393 L30.7241982,37.5833067 C30.4857686,37.6330854 30.2769858,37.7750992 30.1438004,37.9780927 L26.7605951,43.1322437 L26.0002004,39.5060609 C25.9509455,39.2652883 25.8063314,39.0543968 25.5989883,38.9209711 C25.3916452,38.7875454 25.1390435,38.7428278 24.8981792,38.7969082 L23.1900462,39.1624508 C21.80547,39.4415698 20.4539024,38.5569042 20.1631612,37.1812098 L17.8929974,26.3392156 C17.7528284,25.6746045 17.8838993,24.9818053 18.2573402,24.4134154 C18.630781,23.8450255 19.2159593,23.4476686 19.8839825,23.3088673 L19.8839825,23.3161781 Z M22.8227058,27.3992892 C22.7683595,27.1596038 22.813297,26.9082383 22.9473789,26.7019099 C23.0814608,26.4955816 23.2933895,26.3516752 23.5353462,26.3026613 L34.239646,24.0801622 C34.7207687,24.0115274 35.1723168,24.3278213 35.2696964,24.8016771 C35.367076,25.275533 35.0765607,25.7428354 34.6069865,25.8676656 L23.9173803,28.1011311 C23.676516,28.1552114 23.4239143,28.1104938 23.2165711,27.9770681 C23.009228,27.8436425 22.8646139,27.632751 22.815359,27.3919784 L22.8227058,27.3992892 Z M36.0469609,28.2254155 C36.1013072,28.465101 36.0563697,28.7164665 35.9222878,28.9227948 C35.7882059,29.1291232 35.5762772,29.2730295 35.3343205,29.3220434 L24.6336941,31.52261 C24.1525714,31.5912448 23.7010234,31.274951 23.6036437,30.8010951 C23.5062641,30.3272392 23.7967794,29.8599368 24.2663537,29.7351066 L34.9706535,27.5126074 C35.4652862,27.4136467 35.9475175,27.7302964 36.0506343,28.2217601 L36.0469609,28.2254155 Z M33.3910897,32.3414255 C33.445436,32.5811109 33.4004985,32.8324764 33.2664166,33.0388048 C33.1323347,33.2451331 32.920406,33.3890395 32.6784493,33.4380533 L25.3316409,34.9587107 C24.8505182,35.0273455 24.3989701,34.7110516 24.3015905,34.2371957 C24.2042109,33.7633398 24.4947262,33.2960375 24.9643005,33.1712072 L32.3111088,31.6505499 C32.7999455,31.5505809 33.2795369,31.8573807 33.3910897,32.3414255 L33.3910897,32.3414255 Z M51.9270872,38.1901074 L50.2446681,46.2320451 C50.0548139,47.1376067 49.5111681,47.931 48.7333687,48.4376259 C47.9555694,48.9442517 47.0073547,49.1225939 46.0973948,48.9334051 L45.7300543,48.8566412 L45.3296533,50.7757399 C45.2018224,51.3845677 44.718275,51.8569698 44.1042031,51.9729444 C43.4901313,52.0889191 42.8662762,51.825663 42.5231725,51.3057767 L40.1501534,47.6722831 L33.857612,46.3672959 C31.9638094,45.972071 30.749212,44.1255632 31.1429663,42.2403197 C31.1913717,41.9043167 31.4229388,41.6226944 31.7443305,41.5089657 C32.0657222,41.3952371 32.4239805,41.468142 32.6747029,41.6982948 C32.9254253,41.9284476 33.0272986,42.2779244 32.939261,42.6058623 C32.7537005,43.5028372 33.3317175,44.380326 34.2322992,44.5688262 L40.8958544,45.9542327 C41.1342841,46.0040115 41.3430668,46.1460253 41.4762523,46.3490188 L43.6802948,49.6864229 L44.1247767,47.5589649 C44.1740316,47.3181922 44.3186457,47.1073007 44.5259889,46.9738751 C44.733332,46.8404494 44.9859337,46.7957318 45.226798,46.8498122 L46.4941224,47.1130029 C46.9271775,47.2027025 47.378304,47.1175282 47.7482473,46.8762196 C48.1181905,46.6349109 48.3766427,46.2572374 48.4667405,45.8262928 L50.1491596,37.7843551 C50.2393004,37.3534195 50.1537072,36.9045008 49.9112117,36.5363681 C49.6687163,36.1682353 49.2891853,35.911048 48.8561213,35.8213912 L46.1598426,35.2840436 C45.6902683,35.1592134 45.3997531,34.691911 45.4971327,34.2180551 C45.5945123,33.7441992 46.0460603,33.4279053 46.527183,33.4965402 L49.2014213,34.0521649 C51.097961,34.4423217 52.3180169,36.2879924 51.9270872,38.1754857 L51.9270872,38.1901074 Z" id="Shape"></path>
        </g>
    </g>
</svg>