<?xml version="1.0" encoding="UTF-8"?>
<svg width="36px" height="36px" viewBox="0 0 36 36" version="1.1" xmlns="http://www.w3.org/2000/svg" xmlns:xlink="http://www.w3.org/1999/xlink">
    <!-- Generator: Sketch 47.1 (45422) - http://www.bohemiancoding.com/sketch -->
    <title>Shape</title>
    <desc>Created with Sketch.</desc>
    <defs></defs>
    <g id="Page-1" stroke="none" stroke-width="1" fill="none" fill-rule="evenodd">
        <path d="M33.9886298,20.3285681 C34.0667197,21.2357989 33.7397348,22.1311654 33.0952089,22.7749786 L24.6389613,31.2235433 C23.4192167,32.4320619 21.7683367,33.1060874 20.0505278,33.0969207 L9.6089004,33.0969207 L6.96540388,35.7306689 C6.73290851,35.9629531 6.39403912,36.0536704 6.07644454,35.9686485 C5.75884996,35.8836266 5.51078035,35.6357823 5.42568114,35.3184763 C5.34058193,35.0011703 5.43138171,34.6626088 5.66387708,34.4303246 L8.56841429,31.5284263 C8.7411253,31.3563071 8.97523542,31.2598409 9.21917769,31.2602762 L20.0505278,31.2602762 C21.2920811,31.2654442 22.4839171,30.7732663 23.3594943,29.8938127 L31.8157418,21.445248 C32.2787586,20.9520603 32.2664068,20.1807403 31.7878354,19.7026037 C31.309264,19.2244671 30.5372426,19.2121266 30.0436065,19.6747227 L23.3705242,26.4115347 L23.3484644,26.4299012 C22.7739953,26.9985781 21.9989764,27.3191207 21.1902829,27.3225104 L14.7377984,27.3225104 C14.2301618,27.3225104 13.818641,26.9113635 13.818641,26.4041881 C13.818641,25.8970128 14.2301618,25.4858659 14.7377984,25.4858659 L21.1939596,25.4858659 C21.7758665,25.4830861 22.2788906,25.0795094 22.4072473,24.5124443 C22.4886074,24.1449609 22.3987311,23.7604423 22.1628806,23.4669682 C21.9270302,23.173494 21.570668,23.0027478 21.1939596,23.0027225 L10.0574492,23.0027225 C9.02703766,22.9997084 8.03818187,23.4083816 7.31100704,24.1377688 L5.68593685,25.7576893 C5.46093072,26.0194329 5.10806445,26.1330816 4.77241378,26.0519104 C4.43676311,25.9707392 4.17497675,25.7084477 4.09468429,25.372873 C4.01439183,25.0372984 4.12914445,24.6850765 4.39176331,24.4610183 L6.0168335,22.8410978 C7.08700277,21.765649 8.54325094,21.1625164 10.0611258,21.166078 L21.1939596,21.166078 C22.4409339,21.1622958 23.5653847,21.9151242 24.0359941,23.0688417 L28.7200199,18.3890715 C29.5728581,17.5370864 30.8436903,17.2582705 31.9753562,17.6748627 C33.107022,18.091455 33.8929725,19.1274199 33.9886298,20.3285681 Z M26.635371,8.2067144 C26.4090871,7.62996254 25.9539109,7.17254043 25.3779638,6.94310298 L23.0138911,6.01008757 L22.5579891,3.51225105 C22.4469193,2.90181665 22.0866919,2.36505433 21.5636389,2.03060453 C21.0405858,1.69615473 20.4018523,1.59416288 19.800517,1.74907232 L17.3334987,2.36985817 L15.495184,0.61769931 C15.0465659,0.189946153 14.4402541,-0.0323953926 13.8211825,0.00382361361 C13.2021108,0.0400426198 12.6259176,0.331567043 12.2303371,0.808710338 L10.6126202,2.76657338 L8.0941291,2.42863079 C7.47885686,2.34583245 6.85683243,2.52240437 6.37705313,2.91605121 C5.89727382,3.30969804 5.60295915,3.88495928 5.56460809,4.50403908 L5.40651302,7.03860849 L3.1637691,8.24344729 C2.62339386,8.53836114 2.2287061,9.04290955 2.0728262,9.63805224 C1.91694631,10.2331949 2.01367987,10.8662227 2.34020412,11.3877827 L3.70423362,13.5329835 L2.60124481,15.8214425 C2.33224944,16.3806338 2.30819703,17.026419 2.53485166,17.6040374 C2.76150628,18.1816558 3.21843981,18.6390472 3.79614935,18.8665991 L6.63450723,19.9869522 C6.9399037,20.1076875 7.28657174,20.0564725 7.54392487,19.8525993 C7.80127799,19.6487261 7.93021813,19.323168 7.88217478,18.9985596 C7.83413143,18.6739511 7.61640351,18.3996081 7.31100704,18.2788729 L4.47264916,17.1585197 C4.37010232,17.1182735 4.28890215,17.0372688 4.2484654,16.9348756 C4.20802865,16.8324825 4.21199089,16.7179068 4.25940466,16.6185462 L5.5793146,13.870926 C5.71670676,13.5855658 5.69725406,13.2496174 5.52784179,12.9819901 L3.89174172,10.4106878 C3.83262567,10.3176735 3.81489061,10.2042859 3.84278497,10.0976869 C3.87067932,9.99108796 3.94169016,9.90088084 4.03880689,9.84867459 L6.72642297,8.40139872 C7.00136297,8.25405294 7.18271922,7.97742472 7.20806142,7.66674092 L7.39924614,4.62525762 C7.4051726,4.51504398 7.45720902,4.41239875 7.54263469,4.34241436 C7.62697994,4.27063969 7.73812555,4.2385304 7.84779493,4.25425543 L10.8736609,4.66199051 C11.1880738,4.7061261 11.5028279,4.58367835 11.7045791,4.33874107 L13.6495161,1.98783611 C13.7199242,1.90289339 13.8225468,1.8510675 13.9327569,1.84479541 C14.0429671,1.83852332 14.1508164,1.8783712 14.2304235,1.95477651 L16.4364012,4.05957111 C16.6659778,4.27898593 16.9930013,4.36379574 17.3004091,4.28364174 L20.2417126,3.52327091 C20.3482727,3.49600185 20.4613805,3.51411843 20.5540684,3.57330123 C20.6467563,3.63248404 20.7107183,3.72742952 20.7307043,3.83550048 L21.3042584,6.82923102 C21.3607757,7.14175325 21.574903,7.40291785 21.8704594,7.51980935 L24.7088173,8.6401625 C24.8090748,8.68391435 24.886822,8.76705572 24.9237068,8.86996113 C24.9605916,8.97286654 24.9533454,9.08641711 24.9036786,9.18380928 L23.5837687,11.9314295 C23.4463765,12.2167897 23.4658292,12.5527381 23.6352415,12.8203654 L25.2713415,15.3916677 C25.3304576,15.484682 25.3481927,15.5980696 25.3202983,15.7046686 C25.2924039,15.8112675 25.2213931,15.9014747 25.1242764,15.9536809 L22.4366603,17.4009568 C22.1369883,17.5506669 21.9425908,17.8514301 21.9293076,18.1859106 C21.9160245,18.5203911 22.0859601,18.8355968 22.372818,19.0085573 C22.6596759,19.1815178 23.0180089,19.1848309 23.3080215,19.0172039 L25.9956375,17.5699281 C26.5402245,17.275192 26.9380081,16.7679274 27.0941203,16.1691128 C27.2502324,15.5702981 27.1506789,14.9336123 26.8192025,14.4108995 L25.455173,12.2656988 L26.5581618,9.9772397 C26.8271001,9.41861094 26.8523904,8.77363132 26.6280178,8.19569453 L26.635371,8.2067144 Z M14.5760267,17.3899369 C13.9023198,17.391051 13.2942932,16.9865515 13.035519,16.3650893 C12.9081063,16.062595 12.6288465,15.8509908 12.3029342,15.809986 C11.9770218,15.7689813 11.6539707,15.9048055 11.4554711,16.1662951 C11.2569714,16.4277846 11.2131801,16.775213 11.3405928,17.0777074 C11.8856582,18.381144 13.1621211,19.2289307 14.5760267,19.2265814 C16.5761131,19.2265814 18.0835311,17.8123652 18.0835311,15.9206213 C18.0835311,14.9876059 17.6570421,13.323606 14.8150076,12.662414 L14.7855946,12.662414 C12.9105136,12.2363124 12.9105136,11.4465553 12.9105136,11.1930984 C12.9105136,10.197637 13.7745215,9.72378276 14.5797033,9.72378276 C15.2525182,9.72205125 15.860295,10.1249354 16.120211,10.7449571 C16.2401603,11.0574982 16.5208191,11.2800776 16.8527032,11.3258673 C17.1845872,11.371657 17.5151204,11.2334033 17.7153625,10.9650387 C17.9156046,10.696674 17.9538339,10.3407119 17.8151372,10.0360123 C17.3972179,9.04100072 16.5420715,8.29512262 15.4988607,8.01570337 L15.4988607,7.36920451 C15.4988607,6.86202913 15.0873399,6.45088225 14.5797033,6.45088225 C14.0720667,6.45088225 13.660546,6.86202913 13.660546,7.36920451 L13.660546,8.02672324 C12.1578089,8.34334024 11.083455,9.66972861 11.0869054,11.2041182 C11.0869054,12.1371336 11.5133944,13.8011336 14.3554289,14.4623256 L14.384842,14.4623256 C16.2599229,14.8921004 16.2599229,15.6781842 16.2599229,15.9316412 C16.2378632,16.9417957 15.3738553,17.3936102 14.5686734,17.3936102 L14.5760267,17.3899369 Z" id="Shape" fill="#FFFFFF" fill-rule="nonzero"></path>
    </g>
</svg>