<?xml version="1.0" encoding="UTF-8"?>
<svg width="40px" height="34px" viewBox="0 0 40 34" version="1.1" xmlns="http://www.w3.org/2000/svg" xmlns:xlink="http://www.w3.org/1999/xlink">
    <!-- Generator: Sketch 47.1 (45422) - http://www.bohemiancoding.com/sketch -->
    <title>Combined Shape</title>
    <desc>Created with Sketch.</desc>
    <defs></defs>
    <g id="Page-1" stroke="none" stroke-width="1" fill="none" fill-rule="evenodd">
        <path d="M19.9999226,5 C16.8112614,5 14.2173038,7.51196715 14.2173038,10.6000075 C14.2173038,13.6880478 16.8111839,16.200015 19.9999226,16.200015 C23.1886612,16.200015 25.7825414,13.6879729 25.7825414,10.6000075 C25.7825414,7.51204215 23.1886612,5 19.9999226,5 Z M11.6261803,21.6955262 C13.5961405,19.3218548 16.6180274,17.799985 19.9999226,17.799985 C23.3819991,17.799985 26.4040287,19.322018 28.3739817,21.695908 C29.3671571,21.2391857 30.4568452,21 31.5651601,21 C35.6641925,21 38.9999226,24.2303899 39,28.1999775 C39,28.6415761 38.6298882,29 38.1738895,29 C37.7178907,29 37.3477789,28.6415761 37.3477789,28.1999775 C37.3477789,25.1119372 34.7538213,22.59997 31.5651601,22.59997 C30.7892228,22.59997 30.0265885,22.7494127 29.3201731,23.0376205 C30.2226449,24.559693 30.7390496,26.3225526 30.7390496,28.1999775 C30.7390496,28.6415761 30.3689379,29 29.9129391,29 C29.4569403,29 29.0868286,28.6415761 29.0868286,28.1999775 C29.0868286,23.3471927 25.0109524,19.40003 19.9999226,19.40003 C14.9888927,19.40003 10.9130165,23.3471927 10.9130165,28.1999775 C10.9130165,28.6415761 10.5429048,29 10.086906,29 C9.63090725,29 9.26079549,28.6415761 9.26079549,28.1999775 C9.26079549,26.322418 9.77727424,24.5594404 10.679866,23.0372933 C9.97386125,22.7495242 9.21098914,22.59997 8.43476241,22.59997 C5.24610123,22.59997 2.65214361,25.1119372 2.65222105,28.1999775 C2.65222105,28.6415761 2.28210929,29 1.82611053,29 C1.37011177,29 1,28.6415761 1,28.1999775 C1,24.2303899 4.33573007,21 8.43476241,21 C9.54355517,21 10.6336042,21.2393647 11.6261803,21.6955262 Z M19.9999226,14.59997 C17.7232589,14.59997 15.8695248,12.8047756 15.8695248,10.6000075 C15.8695248,8.39523939 17.7232589,6.600045 19.9999226,6.600045 C22.2765862,6.600045 24.1303203,8.39523939 24.1303203,10.6000075 C24.1303203,12.8047756 22.2766637,14.59997 19.9999226,14.59997 Z M31.5651601,11.40003 C33.8418238,11.40003 35.6955579,13.1952244 35.6955579,15.3999925 C35.6955579,17.6047606 33.8418238,19.399955 31.5651601,19.399955 C29.2884965,19.399955 27.4347624,17.6047606 27.4347624,15.3999925 C27.4347624,13.1952244 29.2884965,11.40003 31.5651601,11.40003 Z M31.5651601,17.799985 C32.9314526,17.799985 34.0434143,16.7232134 34.0434143,15.3999925 C34.0434143,14.0767716 32.9315301,13 31.5651601,13 C30.1987902,13 29.086906,14.0767716 29.086906,15.3999925 C29.086906,16.7232134 30.1987902,17.799985 31.5651601,17.799985 Z M8.55209225,11.40003 C10.8303823,11.40003 12.68249,13.1952244 12.68249,15.3999925 C12.68249,17.6047606 10.8287559,19.399955 8.55209225,19.399955 C6.2754286,19.399955 4.42169451,17.6047606 4.42169451,15.3999925 C4.42169451,13.1952244 6.2737248,11.40003 8.55209225,11.40003 Z M8.55209225,17.799985 C9.91838473,17.799985 11.0303464,16.7232134 11.0303464,15.3999925 C11.0303464,14.0767716 9.91846218,13 8.55209225,13 C7.18572232,13 6.07383811,14.0767716 6.07383811,15.3999925 C6.07383811,16.7232134 7.18572232,17.799985 8.55209225,17.799985 Z" id="Combined-Shape" stroke="#FFFFFF" stroke-width="0.527777778" fill="#FFFFFF" fill-rule="nonzero"></path>
    </g>
</svg>