<?xml version="1.0" encoding="UTF-8"?>
<svg width="40px" height="40px" viewBox="0 0 40 40" version="1.1" xmlns="http://www.w3.org/2000/svg" xmlns:xlink="http://www.w3.org/1999/xlink">
    <!-- Generator: Sketch 46.1 (44463) - http://www.bohemiancoding.com/sketch -->
    <title>Fill 1</title>
    <desc>Created with Sketch.</desc>
    <defs></defs>
    <g id="Page-1" stroke="none" stroke-width="1" fill="none" fill-rule="evenodd">
        <path d="M37.4469697,29.8493 C39.2360606,28.0781 39.2360606,25.2029 37.4469697,23.4401 C35.6578788,21.6689 32.7536364,21.6689 30.9730303,23.4401 L28.5439394,25.8461 C27.8712121,26.5121 26.7706061,26.5121 26.0978788,25.8461 L21.7609091,21.5441 C21.4918182,21.2777 21.1281818,21.1289 20.7560606,21.1289 C20.3754545,21.1289 20.0118182,21.2777 19.7512121,21.5441 C18.5633333,22.7189 16.9887879,23.3693 15.3027273,23.3693 C13.6166667,23.3693 12.0421212,22.7189 10.8554545,21.5441 L6.92939394,17.6573 L15.8166667,8.8589 L19.7427273,12.7457 C20.8348485,13.8269 21.4833333,15.4037 21.5706061,16.9241 C21.6178788,17.6765 22.2433333,18.4001 22.9960606,18.4001 L23.0821212,18.4001 C23.8663636,18.4001 24.4675758,17.5433 24.420303,16.7669 C24.2930303,14.5505 23.3439394,12.3941 21.7609091,10.8269 L17.8348485,6.9053 L18.2712121,6.4553 C18.8251515,5.9069 18.8251515,5.0057 18.2712121,4.4489 C17.7172727,3.9005 16.8142424,3.8957 16.2530303,4.4441 L13.4590909,7.2077 L8.61545455,2.4113 C8.06151515,1.8629 7.15848485,1.8629 6.59727273,2.4113 C6.04333333,2.9597 6.04333333,3.8525 6.59727273,4.4093 L11.4409091,9.2033 L7.27727273,13.3253 L2.43363636,8.5301 C1.87969697,7.9817 0.977878788,7.9817 0.415454545,8.5301 C-0.138484848,9.0785 -0.138484848,9.9713 0.415454545,10.5281 L5.26757576,15.3233 L2.47363636,18.0893 C1.91969697,18.6377 1.91969697,19.5305 2.47363636,20.0873 C2.75121212,20.3609 3.11484848,20.5025 3.47848485,20.5025 C3.84333333,20.5025 4.2069697,20.3609 4.48454545,20.0873 L4.91969697,19.6553 L8.84454545,23.5421 C10.5706061,25.2497 12.8651515,26.1905 15.3027273,26.1905 C17.2578788,26.1905 19.1257576,25.5869 20.6760606,24.4589 L24.0881818,27.8357 C24.9815152,28.7213 26.1536364,29.1593 27.3245455,29.1593 C28.4954545,29.1593 29.6675758,28.7213 30.5621212,27.8357 L32.9912121,25.4297 C33.6639394,24.7637 34.7645455,24.7637 35.4372727,25.4297 C36.11,26.0957 36.11,27.1853 35.4372727,27.8513 L33.0069697,30.2573 C32.1439394,31.1105 31.67,32.2469 31.67,33.4613 C31.67,34.6757 32.1439394,35.8121 33.0069697,36.6653 C33.2845455,36.9401 33.6481818,37.0817 34.0118182,37.0817 C34.3766667,37.0817 34.740303,36.9401 35.0166667,36.6653 C35.5718182,36.1169 35.5718182,35.2241 35.0166667,34.6685 C34.6930303,34.3469 34.5112121,33.9161 34.5112121,33.4613 C34.5112121,33.0065 34.6930303,32.5757 35.0166667,32.2541 L37.4469697,29.8493 Z" id="Fill-1" fill="#FFFFFF"></path>
    </g>
</svg>