<?xml version="1.0" encoding="UTF-8"?>
<svg width="40px" height="40px" viewBox="0 0 40 40" version="1.1" xmlns="http://www.w3.org/2000/svg" xmlns:xlink="http://www.w3.org/1999/xlink">
    <!-- Generator: Sketch 46.1 (44463) - http://www.bohemiancoding.com/sketch -->
    <title>Combined Shape</title>
    <desc>Created with Sketch.</desc>
    <defs></defs>
    <g id="Page-1" stroke="none" stroke-width="1" fill="none" fill-rule="evenodd">
        <path d="M1.34705112,30.6396138 C0.875801116,30.6396138 0.444551116,30.3987862 0.194551116,29.9965793 C-0.191698884,29.3560276 0.0158011165,28.5305103 0.652051116,28.153131 L7.78955112,23.8678897 C8.32455112,23.5947862 10.6858011,22.4874759 13.3658011,22.4874759 C14.2070511,22.4874759 15.0020511,22.5979586 15.7333011,22.8164414 L22.9058011,24.9727172 C23.4270511,25.1266483 23.8020511,25.5797517 23.8583011,26.1284414 C23.9958011,27.5374069 23.2670511,29.7768552 20.7020511,30.1803034 C19.7845511,30.3280276 18.5783011,30.4025103 17.1158011,30.4025103 C15.8245511,30.4025103 14.7670511,30.3416828 14.5833011,30.3329931 C14.2020511,30.3094069 13.8745511,30.1505103 13.6370511,29.8836138 C13.3983011,29.6167172 13.2795511,29.2716138 13.3008011,28.9140966 C13.3445511,28.2114759 13.9333011,27.6615448 14.6445511,27.6615448 C14.9758011,27.6764414 15.9745511,27.7285793 17.1583011,27.7285793 C18.4583011,27.7285793 19.5083011,27.6665103 20.2770511,27.5473379 C20.6058011,27.4952 20.8220511,27.3872 20.9633011,27.197269 L14.9570511,25.3898207 C14.4695511,25.2433379 13.9270511,25.1676138 13.3470511,25.1676138 C11.1808011,25.1676138 9.14955112,26.1954759 9.13080112,26.2054069 L2.04330112,30.4496828 C1.80830112,30.5775448 1.57830112,30.6396138 1.34705112,30.6396138 Z M5.54942612,37.1060828 C5.15692612,37.1060828 4.78067612,36.9322897 4.51942612,36.6306345 C4.28317612,36.3513241 4.17317612,36.0024966 4.20567612,35.6449793 C4.23817612,35.2874621 4.40942612,34.9659448 4.68817612,34.7400138 L7.68817612,32.253531 C7.93442612,32.0549103 8.24192612,31.9469103 8.55817612,31.9469103 C8.62567612,31.9469103 8.69317612,31.9518759 8.76067612,31.9618069 L20.6369261,33.8437379 C20.8431761,33.873531 21.0506761,33.8909103 21.2581761,33.8909103 C22.1206761,33.8909103 22.9719261,33.6140828 23.6581761,33.1150483 L36.4131761,23.8344966 C36.3781761,23.8320138 36.3431761,23.8307724 36.3069261,23.8307724 C36.0606761,23.8307724 35.7819261,23.8990483 35.4756761,24.0356 C33.4031761,24.9467724 29.3969261,26.8510483 28.0819261,27.4779448 C27.8106761,27.6058069 27.6506761,27.681531 27.6406761,27.6864966 C27.4769261,27.7659448 27.2794261,27.8118759 27.0744261,27.8118759 C26.5619261,27.8118759 26.0869261,27.5151862 25.8606761,27.0546345 C25.5394261,26.3904966 25.8219261,25.5898069 26.4906761,25.269531 L26.8844261,25.0820828 C28.2156761,24.4502207 32.2656761,22.5298069 34.3831761,21.5938069 C35.0431761,21.3045655 35.6956761,21.1580828 36.3231761,21.1580828 C38.0681761,21.1580828 39.3044261,22.2765655 39.8331761,23.2349103 C40.1556761,23.8208414 40.0006761,24.5408414 39.4644261,24.9480138 L25.2594261,35.277531 C24.1131761,36.1104966 22.6956761,36.5698069 21.2706761,36.5698069 C20.9169261,36.5698069 20.5631761,36.5412552 20.2181761,36.4853931 L8.94567612,34.6965655 L6.41317612,36.7944966 C6.16442612,36.9993241 5.86567612,37.1060828 5.54942612,37.1060828 Z M21.3711761,22.6568 C19.7561761,22.6568 18.2299261,22.0299034 17.0724261,20.8903172 C14.7024261,18.5379034 14.7024261,14.7094897 17.0724261,12.3583172 C18.2299261,11.2162483 19.7561761,10.5893517 21.3711761,10.5893517 C22.9961761,10.5893517 24.5224261,11.2174897 25.6699261,12.3583172 C28.0399261,14.7094897 28.0399261,18.5379034 25.6699261,20.8890759 C24.5124261,22.0299034 22.9861761,22.6568 21.3711761,22.6568 Z M21.3711761,13.2657655 C20.4686761,13.2657655 19.6199261,13.6170759 18.9799261,14.2526621 C17.6611761,15.5623172 17.6611761,17.6925241 18.9799261,19.0021793 C19.6199261,19.6377655 20.4686761,19.9890759 21.3711761,19.9890759 C22.2736761,19.9890759 23.1224261,19.6377655 23.7624261,19.0021793 C25.0811761,17.6925241 25.0811761,15.5623172 23.7624261,14.2526621 C23.1224261,13.6170759 22.2736761,13.2657655 21.3711761,13.2657655 Z M28.0703011,11.5797241 C26.7740511,11.5797241 25.5628011,11.0806897 24.6590511,10.1757241 C22.7803011,8.30993103 22.7803011,5.2697931 24.6603011,3.40275862 C25.5728011,2.4977931 26.7840511,2 28.0703011,2 C29.3578011,2 30.5690511,2.49903448 31.4803011,3.40275862 C33.3615511,5.2697931 33.3615511,8.30993103 31.4803011,10.1769655 C30.5690511,11.0806897 29.3578011,11.5797241 28.0703011,11.5797241 Z M28.0790511,4.67517241 C27.5090511,4.67517241 26.9715511,4.89613793 26.5678011,5.29710345 C25.7415511,6.12013793 25.7415511,7.46206897 26.5690511,8.29131034 C26.9715511,8.69103448 27.5090511,8.91324138 28.0790511,8.91324138 C28.6478011,8.91324138 29.1853011,8.69103448 29.5890511,8.29006897 C29.9890511,7.89282759 30.2090511,7.36151724 30.2090511,6.7942069 C30.2090511,6.22689655 29.9890511,5.69558621 29.5890511,5.29710345 C29.1853011,4.89613793 28.6478011,4.67517241 28.0790511,4.67517241 Z" id="Combined-Shape" fill="#FFFFFF"></path>
    </g>
</svg>