<?xml version="1.0" encoding="UTF-8"?>
<svg width="34px" height="34px" viewBox="0 0 34 34" version="1.1" xmlns="http://www.w3.org/2000/svg" xmlns:xlink="http://www.w3.org/1999/xlink">
    <!-- Generator: Sketch 46.1 (44463) - http://www.bohemiancoding.com/sketch -->
    <title>Page 1</title>
    <desc>Created with Sketch.</desc>
    <defs></defs>
    <g id="Page-1" stroke="none" stroke-width="1" fill="none" fill-rule="evenodd">
        <g transform="translate(1.000000, 2.000000)" fill="#FFFFFF">
            <path d="M24.4448865,2.72753788 C21.1082378,2.72753788 19.3080216,3.97673485 19.3080216,4.48731061 C19.3080216,4.99788636 21.1082378,6.24708333 24.4448865,6.24708333 C27.7815351,6.24708333 29.5817514,4.99788636 29.5817514,4.48731061 C29.5817514,3.97673485 27.7815351,2.72753788 24.4448865,2.72753788 M24.4448865,8.52226515 C20.1672649,8.52226515 17.0628324,6.82225 17.0628324,4.4807197 C17.0628324,2.13875 20.1672649,0.439174242 24.4448865,0.439174242 C28.7225081,0.439174242 31.8269405,2.13875 31.8269405,4.4807197 C31.8269405,6.82225 28.7225081,8.52226515 24.4448865,8.52226515" id="Fill-1"></path>
            <path d="M24.4514162,12.5405227 C20.9366054,12.5405227 18.1331459,11.3844773 17.3089297,9.59570455 C17.1817946,9.31888636 17.1688216,9.00867424 17.2713081,8.72175 C17.3737946,8.43394697 17.5800649,8.20414394 17.8516324,8.07540152 C18.0012541,8.00465909 18.1608216,7.96862879 18.3260108,7.96862879 C18.7623351,7.96862879 19.1632,8.22699242 19.3469838,8.62684091 C19.6613622,9.31097727 21.6103351,10.2591894 24.4514162,10.2591894 C27.3590919,10.2591894 29.3240649,9.27143182 29.5701189,8.58861364 C29.7335784,8.14175 30.1569297,7.84252273 30.6239568,7.84252273 C30.7567135,7.84252273 30.8873081,7.86625 31.0122811,7.91326515 C31.5900108,8.13120455 31.8909838,8.78370455 31.6834162,9.36853788 C31.3253622,10.3659621 30.3718486,11.1950985 28.9270919,11.7671894 C27.6726054,12.2659015 26.0829838,12.5405227 24.4514162,12.5405227" id="Fill-4"></path>
            <path d="M24.4514162,16.5658985 C20.9366054,16.5658985 18.1331459,15.409853 17.3089297,13.6206409 C17.0464432,13.0489894 17.2899027,12.36705 17.8516324,12.1007773 C18.0012541,12.0295955 18.1608216,11.9935652 18.3260108,11.9935652 C18.7623351,11.9935652 19.1632,12.2523682 19.3469838,12.6522167 C19.6613622,13.336353 21.6103351,14.2845652 24.4514162,14.2845652 C27.3590919,14.2845652 29.3240649,13.2968076 29.5701189,12.6139894 C29.7335784,12.1671258 30.1569297,11.8674591 30.6239568,11.8674591 C30.7567135,11.8674591 30.8873081,11.8911864 31.0122811,11.9386409 C31.5900108,12.1561409 31.8909838,12.8090803 31.6834162,13.3939136 C31.3253622,14.3913379 30.3718486,15.2200348 28.9270919,15.7921258 C27.6730378,16.2912773 26.0834162,16.5658985 24.4514162,16.5658985" id="Fill-6"></path>
            <path d="M24.4514162,20.5845955 C20.9366054,20.5845955 18.1331459,19.42855 17.3089297,17.6393379 C17.0464432,17.0676864 17.2899027,16.385747 17.8516324,16.1194742 C18.0012541,16.0482924 18.1608216,16.0122621 18.3260108,16.0122621 C18.7623351,16.0122621 19.1632,16.2710652 19.3469838,16.6709136 C19.6613622,17.35505 21.6103351,18.3032621 24.4514162,18.3032621 C27.3590919,18.3032621 29.3240649,17.3155045 29.5701189,16.6326864 C29.7335784,16.1858227 30.1569297,15.8861561 30.6239568,15.8861561 C30.7567135,15.8861561 30.8873081,15.9098833 31.0122811,15.9573379 C31.5900108,16.1748379 31.8909838,16.8277773 31.6834162,17.4126106 C31.3253622,18.4100348 30.3718486,19.2387318 28.9270919,19.8108227 C27.6730378,20.3099742 26.0834162,20.5845955 24.4514162,20.5845955" id="Fill-8"></path>
            <path d="M24.4514162,24.6097076 C20.9366054,24.6097076 18.1331459,23.4536621 17.3089297,21.6648894 C17.1817946,21.3885106 17.1688216,21.0782985 17.2713081,20.7909348 C17.3737946,20.5031318 17.5800649,20.2733288 17.8516324,20.1445864 C18.0012541,20.0738439 18.1608216,20.0378136 18.3260108,20.0378136 C18.7623351,20.0378136 19.1632,20.2961773 19.3469838,20.6960258 C19.6613622,21.3801621 21.6103351,22.3283742 24.4514162,22.3283742 C27.3590919,22.3283742 29.3240649,21.3406167 29.5701189,20.6577985 C29.7335784,20.2109348 30.1569297,19.9117076 30.6239568,19.9117076 C30.7567135,19.9117076 30.8873081,19.9354348 31.0122811,19.98245 C31.2894703,20.0821924 31.5143351,20.2904652 31.6419027,20.5672833 C31.7686054,20.8423439 31.7837405,21.1503591 31.6842811,21.4359652 C31.3253622,22.435147 30.3718486,23.2642833 28.9270919,23.8363742 C27.6726054,24.3350864 26.0829838,24.6097076 24.4514162,24.6097076" id="Fill-10"></path>
            <path d="M24.4514162,28.6284045 C20.9366054,28.6284045 18.1331459,27.4723591 17.3089297,25.6835864 C17.1817946,25.4067682 17.1688216,25.0965561 17.2713081,24.8096318 C17.3737946,24.5218288 17.5800649,24.2920258 17.8516324,24.1632833 C18.0012541,24.0925409 18.1612541,24.0565106 18.3260108,24.0565106 C18.7627676,24.0565106 19.1632,24.3148742 19.3469838,24.7151621 C19.6613622,25.3988591 21.6103351,26.3470712 24.4514162,26.3470712 C27.3590919,26.3470712 29.3240649,25.3593136 29.5701189,24.6764955 C29.7335784,24.2296318 30.1569297,23.9304045 30.6239568,23.9304045 C30.7567135,23.9304045 30.8873081,23.9541318 31.0122811,24.001147 C31.5900108,24.2190864 31.8909838,24.8715864 31.6834162,25.4564197 C31.3253622,26.4538439 30.3718486,27.2825409 28.9270919,27.8550712 C27.6726054,28.3537833 26.0829838,28.6284045 24.4514162,28.6284045" id="Fill-12"></path>
            <path d="M7.38196757,20.5845955 C3.86758919,20.5845955 1.0636973,19.42855 0.239481081,17.6393379 C-0.0230054054,17.0676864 0.220454054,16.3861864 0.782183784,16.1194742 C0.931805405,16.0482924 1.09180541,16.0122621 1.25656216,16.0122621 C1.69331892,16.0122621 2.09375135,16.2710652 2.27753514,16.6709136 C2.59191351,17.35505 4.54088649,18.3032621 7.38196757,18.3032621 C10.2900757,18.3032621 12.2546162,17.3155045 12.5011027,16.6326864 C12.6641297,16.1858227 13.0874811,15.8861561 13.5549405,15.8861561 C13.6876973,15.8861561 13.8178595,15.9098833 13.9428324,15.9573379 C14.5205622,16.1748379 14.8219676,16.8277773 14.6144,17.4126106 C14.2559135,18.4100348 13.3028324,19.2387318 11.8572108,19.8108227 C10.6035892,20.3099742 9.01396757,20.5845955 7.38196757,20.5845955" id="Fill-14"></path>
            <path d="M7.38196757,24.6097076 C3.86715676,24.6097076 1.0636973,23.4536621 0.239481081,21.6648894 C0.112778378,21.3885106 0.099372973,21.0782985 0.201859459,20.7909348 C0.304345946,20.5031318 0.510616216,20.2733288 0.782183784,20.1445864 C0.931805405,20.0738439 1.09180541,20.0378136 1.25656216,20.0378136 C1.69331892,20.0378136 2.09375135,20.2961773 2.27753514,20.6960258 C2.59191351,21.3801621 4.54088649,22.3283742 7.38196757,22.3283742 C10.2900757,22.3283742 12.2546162,21.3406167 12.5011027,20.6577985 C12.6641297,20.2109348 13.0874811,19.9117076 13.5545081,19.9117076 C13.6872649,19.9117076 13.8178595,19.9354348 13.9428324,19.98245 C14.2200216,20.0821924 14.4453189,20.2904652 14.5728865,20.5672833 C14.6995892,20.8423439 14.7147243,21.1503591 14.6148324,21.4359652 C14.2559135,22.4355864 13.3024,23.2642833 11.8572108,23.8363742 C10.6031568,24.3350864 9.01353514,24.6097076 7.38196757,24.6097076" id="Fill-16"></path>
            <path d="M7.38196757,28.6284045 C3.86715676,28.6284045 1.0636973,27.4723591 0.239481081,25.6835864 C-0.0230054054,25.1114955 0.220454054,24.4295561 0.782183784,24.1632833 C0.931805405,24.0925409 1.09180541,24.0565106 1.25656216,24.0565106 C1.69331892,24.0565106 2.09375135,24.3148742 2.27753514,24.7151621 C2.59191351,25.3988591 4.54088649,26.3470712 7.38196757,26.3470712 C10.2896432,26.3470712 12.2546162,25.3593136 12.5011027,24.6764955 C12.6641297,24.2296318 13.0874811,23.9304045 13.5545081,23.9304045 C13.6872649,23.9304045 13.8178595,23.9541318 13.9428324,24.001147 C14.5205622,24.218647 14.8215351,24.8715864 14.6144,25.4564197 C14.2559135,26.4538439 13.3028324,27.2825409 11.8576432,27.8550712 C10.6031568,28.3537833 9.01353514,28.6284045 7.38196757,28.6284045" id="Fill-18"></path>
            <path d="M7.38196757,10.7647121 C4.04531892,10.7647121 2.24553514,12.0139091 2.24553514,12.5244848 C2.24553514,13.0355 4.04531892,14.284697 7.38196757,14.284697 C10.7186162,14.284697 12.5188324,13.0355 12.5188324,12.5244848 C12.5188324,12.0139091 10.7186162,10.7647121 7.38196757,10.7647121 M7.38196757,16.5660303 C3.10434595,16.5660303 -8.64864865e-05,14.8664545 -8.64864865e-05,12.5244848 C-8.64864865e-05,10.1829545 3.10434595,8.48337879 7.38196757,8.48337879 C11.6595892,8.48337879 14.7640216,10.1829545 14.7640216,12.5244848 C14.7640216,14.8664545 11.6595892,16.5660303 7.38196757,16.5660303" id="Fill-20"></path>
        </g>
    </g>
</svg>