<?xml version="1.0" encoding="UTF-8"?>
<svg width="20px" height="16px" viewBox="0 0 20 16" version="1.1" xmlns="http://www.w3.org/2000/svg" xmlns:xlink="http://www.w3.org/1999/xlink">
    <!-- Generator: Sketch 49.2 (51160) - http://www.bohemiancoding.com/sketch -->
    <title>Combined Shape</title>
    <desc>Created with Sketch.</desc>
    <defs></defs>
    <g id="Page-1" stroke="none" stroke-width="1" fill="none" fill-rule="evenodd">
        <path d="M6.35238828,7.06969439 C8.37529118,7.06347574 10.3981538,7.06038701 12.4241155,7.07591304 C12.5454205,8.81379953 12.3210023,10.6633746 11.2777153,12.1002125 C9.69761172,14.3749621 6.52529009,15.0390811 4.05053229,14.0646473 C1.56663838,13.096391 -0.192404122,10.4119929 0.0168811251,7.67488034 C0.0714562781,4.32636322 3.0800122,1.39371324 6.35238828,1.50544304 C7.9203775,1.43094278 9.3943091,2.12920258 10.5952844,3.10985503 C10.0827368,3.70569241 9.55203773,4.27982629 8.98487471,4.81668944 C7.54128947,3.79567753 5.48808046,3.50397749 4.04445497,4.68325614 C1.97909131,6.14492743 1.88507393,9.59582579 3.8715934,11.1692269 C5.80349747,12.9629165 9.45500182,12.0722904 9.9887597,9.32582926 C8.77864825,9.30717331 7.56555851,9.32582926 6.35544706,9.2854698 C6.35238828,8.54689173 6.34936974,7.80831365 6.35238828,7.06969439 Z M18.1863823,7.06038701 C18.7899288,7.06660566 19.3964938,7.06660566 20,7.07282431 C20,7.68727646 20,8.30481735 20,8.91931068 C19.3964938,8.92552933 18.7929473,8.92861807 18.1863823,8.93483672 C18.180305,9.55550752 18.1772865,10.1730484 18.1742679,10.7906305 C17.5707617,10.7906305 16.9702741,10.7906305 16.3667276,10.7906305 C16.3606503,10.1730484 16.3606503,9.55550752 16.354573,8.93792545 C15.7510265,8.93174798 15.1444615,8.92552933 14.5409553,8.91931068 C14.5409553,8.30481735 14.5409553,7.6903652 14.5409553,7.07282431 C15.1444615,7.06660566 15.748008,7.06347574 16.354573,7.06038701 C16.3576318,6.43971621 16.3636688,5.82217532 16.3697461,5.20459325 C16.9702338,5.20459325 17.5707215,5.20459325 18.1742679,5.20459325 C18.1772865,5.82213414 18.180305,6.44280494 18.1863823,7.06038701 Z" id="Combined-Shape" fill="#FFFFFF" fill-rule="nonzero"></path>
    </g>
</svg>