<?xml version="1.0" encoding="UTF-8"?>
<svg width="16px" height="16px" viewBox="0 0 16 16" version="1.1" xmlns="http://www.w3.org/2000/svg" xmlns:xlink="http://www.w3.org/1999/xlink">
    <!-- Generator: Sketch 49.2 (51160) - http://www.bohemiancoding.com/sketch -->
    <title>Shape</title>
    <desc>Created with Sketch.</desc>
    <defs></defs>
    <g id="Page-1" stroke="none" stroke-width="1" fill="none" fill-rule="evenodd">
        <path d="M3,16 L3,5 L0,5 L0,16 L3,16 Z M3,1.49987157 C2.98266582,0.648343181 2.42108596,0 1.50878581,0 C0.596248221,0 0,0.648343181 0,1.49987157 C0,2.33290522 0.578914042,3 1.47388001,3 L1.49121418,3 C2.42108596,3 3,2.33290522 3,1.49987157 Z M8.39457272,16 L8.39457272,9.99797615 C8.39457272,9.67675715 8.41865512,9.35553821 8.51663433,9.12655044 C8.78451004,8.48443056 9.39415826,7.81972997 10.4178262,7.81972997 C11.7588543,7.81972997 12.5998761,8.55344488 12.5998761,9.99797604 L12.5998761,15.9999999 L16,16 L16,9.83736668 C16,6.5361263 14.1720451,5 11.7337822,5 C9.73461112,5 8.85708719,6.07751468 8.36983051,6.81091164 L8.39424279,5.40197214 L5,5.40197214 C5.04882464,6.41047242 5,16 5,16 L8.39457272,16 Z" id="Shape" fill="#FFFFFF" fill-rule="nonzero"></path>
    </g>
</svg>