<?xml version="1.0" encoding="UTF-8"?>
<svg width="16px" height="16px" viewBox="0 0 16 16" version="1.1" xmlns="http://www.w3.org/2000/svg" xmlns:xlink="http://www.w3.org/1999/xlink">
    <!-- Generator: Sketch 49.2 (51160) - http://www.bohemiancoding.com/sketch -->
    <title>ic_linkedin</title>
    <desc>Created with Sketch.</desc>
    <defs></defs>
    <g id="Visual-Design_1440" stroke="none" stroke-width="1" fill="none" fill-rule="evenodd">
        <g id="Personal_Settings_1440" transform="translate(-1004.000000, -1222.000000)" fill-rule="nonzero">
            <g id="Content" transform="translate(544.000000, 128.000000)">
                <g id="Fileds" transform="translate(0.000000, 184.000000)">
                    <g id="Social-Links" transform="translate(0.000000, 742.000000)">
                        <g id="Twitter-Copy" transform="translate(384.000000, 152.000000)">
                            <g id="Group-3" transform="translate(76.000000, 11.000000)">
                                <g id="ic_linkedin" transform="translate(0.000000, 5.000000)">
                                    <path d="M16,15 C16,15.552 15.552,16 15,16 L1,16 C0.448,16 0,15.552 0,15 L0,1 C0,0.448 0.448,0 1,0 L15,0 C15.552,0 16,0.448 16,1 L16,15 Z" id="Shape" fill="#007BB5"></path>
                                    <rect id="Rectangle-path" fill="#FFFFFF" x="4" y="6" width="2" height="7"></rect>
                                    <path d="M10.7495,6 C9.354,6 9.114,6.509 9,7 L9,6 L7,6 L7,13 L9,13 L9,9 C9,8.3515 9.3515,8 10,8 C10.633,8 11,8.344 11,9 L11,13 L13,13 L13,9.5 C13,7.5 12.7395,6 10.7495,6 Z" id="Shape" fill="#FFFFFF"></path>
                                    <circle id="Oval" fill="#FFFFFF" cx="5" cy="4" r="1"></circle>
                                </g>
                            </g>
                        </g>
                    </g>
                </g>
            </g>
        </g>
    </g>
</svg>