<?xml version="1.0" encoding="UTF-8"?>
<svg width="16px" height="16px" viewBox="0 0 16 16" version="1.1" xmlns="http://www.w3.org/2000/svg" xmlns:xlink="http://www.w3.org/1999/xlink">
    <!-- Generator: Sketch 49.2 (51160) - http://www.bohemiancoding.com/sketch -->
    <title>Shape</title>
    <desc>Created with Sketch.</desc>
    <defs></defs>
    <g id="Page-1" stroke="none" stroke-width="1" fill="none" fill-rule="evenodd">
        <path d="M16,7.81770833 C16,6.8078125 15.2089087,5.9875 14.2360802,5.9875 C13.7728285,5.9875 13.355902,6.16979167 13.0387528,6.47239583 C11.8841871,5.64114583 10.3269488,5.09427083 8.58797327,4.9921875 L9.36837416,2.3234375 L11.7594655,2.815625 C11.8414254,3.64322917 12.514922,4.28854167 13.3380846,4.28854167 C13.3416481,4.28854167 13.3416481,4.28854167 13.3452116,4.28854167 C13.3487751,4.28854167 13.3487751,4.28854167 13.3523385,4.28854167 C14.2289532,4.28854167 14.9380846,3.55208333 14.9380846,2.64427083 C14.9380846,1.73645833 14.2253898,1 13.3487751,1 C13.3452116,1 13.3452116,1 13.3416481,1 C13.3416481,1 13.3380846,1 13.3380846,1 C12.725167,1 12.1977728,1.35729167 11.9305122,1.8859375 L8.73407572,1.2296875 L7.63652561,4.98489583 L7.54743875,4.98854167 C5.75501114,5.06875 4.14432071,5.62291667 2.96124722,6.47239583 C2.64766147,6.16979167 2.22717149,5.9875 1.76391982,5.9875 C0.791091314,5.9875 0,6.8078125 0,7.81770833 C0,8.53229167 0.391982183,9.1484375 0.965701559,9.45104167 C0.937193764,9.6296875 0.922939866,9.80833333 0.922939866,9.990625 C0.926503341,12.7541667 4.09443207,15 8,15 C11.9055679,15 15.0734967,12.7541667 15.0734967,9.98697917 C15.0734967,9.8046875 15.0592428,9.62604167 15.0342984,9.44739583 C15.6080178,9.14479167 16,8.52864583 16,7.81770833 Z M1.22227171,8.55052083 C0.987082405,8.38645833 0.833853007,8.109375 0.833853007,7.7921875 C0.833853007,7.2890625 1.22939866,6.87708333 1.71403118,6.87708333 C1.91358575,6.87708333 2.09888641,6.94635417 2.24855234,7.06302083 C1.7674833,7.496875 1.41113586,8 1.22227171,8.55052083 Z M12.7501114,2.64427083 C12.7501114,2.30885417 13.0138085,2.03177083 13.3380846,2.03177083 C13.6623608,2.03177083 13.9260579,2.30520833 13.9260579,2.64427083 C13.9260579,2.9796875 13.6623608,3.25677083 13.3380846,3.25677083 C13.0138085,3.25677083 12.7501114,2.98333333 12.7501114,2.64427083 Z M4.52561247,9.18125 C4.52561247,8.53958333 5.03162584,8.021875 5.65879733,8.021875 C6.28596882,8.021875 6.79198218,8.53958333 6.79198218,9.18125 C6.79198218,9.82291667 6.28596882,10.340625 5.65879733,10.340625 C5.03162584,10.340625 4.52561247,9.82291667 4.52561247,9.18125 Z M8,13.25 C6.30378619,13.2427083 5.29175947,12.2109375 5.24899777,12.1671875 L5.69799555,11.7151042 C5.70512249,11.7223958 6.54253898,12.5973958 8,12.6046875 C9.43608018,12.5973958 10.2877506,11.7223958 10.298441,11.7151042 L10.7474388,12.1671875 C10.7046771,12.2109375 9.69621381,13.2427083 8,13.25 Z M10.3625835,10.340625 C9.73541203,10.340625 9.22939866,9.82291667 9.22939866,9.18125 C9.22939866,8.53958333 9.73541203,8.021875 10.3625835,8.021875 C10.989755,8.021875 11.4957684,8.53958333 11.4957684,9.18125 C11.4957684,9.82291667 10.9861915,10.340625 10.3625835,10.340625 Z M14.7848552,8.56510417 C14.5924276,8.00729167 14.2289532,7.49322917 13.7407572,7.05572917 C13.8904232,6.93541667 14.0792873,6.86614583 14.2824053,6.86614583 C14.7777283,6.86614583 15.1768374,7.28177083 15.1768374,7.79583333 C15.1804009,8.11666667 15.023608,8.39739583 14.7848552,8.56510417 Z" id="Shape" fill="#FFFFFF" fill-rule="nonzero"></path>
    </g>
</svg>