<?xml version="1.0" encoding="UTF-8"?>
<svg width="16px" height="16px" viewBox="0 0 16 16" version="1.1" xmlns="http://www.w3.org/2000/svg" xmlns:xlink="http://www.w3.org/1999/xlink">
    <!-- Generator: Sketch 49.2 (51160) - http://www.bohemiancoding.com/sketch -->
    <title>telegram</title>
    <desc>Created with Sketch.</desc>
    <defs>
        <linearGradient x1="64.6541667%" y1="15.8041667%" x2="39.6541667%" y2="74.1366667%" id="linearGradient-1">
            <stop stop-color="#37AEE2" offset="0%"></stop>
            <stop stop-color="#1E96C8" offset="100%"></stop>
        </linearGradient>
        <linearGradient x1="61.3438559%" y1="47.150188%" x2="80.4983437%" y2="83.7095963%" id="linearGradient-2">
            <stop stop-color="#EFF7FC" offset="0%"></stop>
            <stop stop-color="#FFFFFF" offset="100%"></stop>
        </linearGradient>
    </defs>
    <g id="Visual-Design_1440" stroke="none" stroke-width="1" fill="none" fill-rule="evenodd">
        <g id="My_Mineunit_1440" transform="translate(-246.000000, -1012.000000)" fill-rule="nonzero">
            <g id="Sidebar" transform="translate(160.000000, 128.000000)">
                <g id="Earn_More" transform="translate(0.000000, 620.000000)">
                    <g id="Copy-Affiliate-Link-Copy" transform="translate(24.000000, 248.000000)">
                        <g id="Group-3" transform="translate(62.000000, 11.000000)">
                            <g id="telegram" transform="translate(0.000000, 5.000000)">
                                <path d="M16,8 C16,12.42 12.42,16 8,16 C3.58,16 0,12.42 0,8 C0,3.58 3.58,0 8,0 C12.42,0 16,3.58 16,8 Z" id="path2995-1-0" fill="url(#linearGradient-1)"></path>
                                <g id="Group-4" transform="translate(2.800003, 3.500000)">
                                    <path d="M3.53333333,7.66666667 C3.27333333,7.66666667 3.32,7.56666667 3.22666667,7.32 L2.46666667,4.81333333 L7.18666667,1.86666667 L7.74,2.01333333 L7.28,3.26666667 L3.53333333,7.66666667 Z" id="path2993" fill="#C8DAEA"></path>
                                    <path d="M3.53333333,7.66666667 C3.73333333,7.66666667 3.82,7.57333333 3.93333333,7.46666667 C4.10666667,7.3 6.33333333,5.13333333 6.33333333,5.13333333 L4.96666667,4.8 L3.7,5.6 L3.53333333,7.6 L3.53333333,7.66666667 Z" id="path2989" fill="#A9C9DD"></path>
                                    <path d="M3.66666667,5.62666667 L6.89333333,8.00666667 C7.26,8.20666667 7.52666667,8.10666667 7.62,7.66666667 L8.93333333,1.48 C9.06666667,0.94 8.72666667,0.7 8.37333333,0.86 L0.666666667,3.83333333 C0.14,4.04666667 0.146666667,4.34 0.573333333,4.46666667 L2.55333333,5.08666667 L7.13333333,2.2 C7.34666667,2.06666667 7.54666667,2.14 7.38666667,2.28666667 L3.66666667,5.62666667 Z" id="path2991" fill="url(#linearGradient-2)"></path>
                                </g>
                            </g>
                        </g>
                    </g>
                </g>
            </g>
        </g>
    </g>
</svg>