<?xml version="1.0" encoding="UTF-8"?>
<svg width="16px" height="16px" viewBox="0 0 16 16" version="1.1" xmlns="http://www.w3.org/2000/svg" xmlns:xlink="http://www.w3.org/1999/xlink">
    <!-- Generator: Sketch 49.2 (51160) - http://www.bohemiancoding.com/sketch -->
    <title>if_twitter_294655</title>
    <desc>Created with Sketch.</desc>
    <defs></defs>
    <g id="Page-1" stroke="none" stroke-width="1" fill="none" fill-rule="evenodd">
        <g id="if_twitter_294655" transform="translate(0.000000, 1.000000)" fill="#2CA7E0">
            <path d="M15.9993043,1.564888 C15.4106783,1.825096 14.7781217,2.00092533 14.1141913,2.07996533 C14.7917565,1.67509333 15.3122783,1.03403733 15.5573217,0.270088 C14.9230957,0.644973333 14.2206261,0.917245333 13.4729739,1.06392 C12.8742609,0.428098667 12.0212174,0.030888 11.0771478,0.030888 C9.26448696,0.030888 7.79478261,1.49555467 7.79478261,3.30217333 C7.79478261,3.558568 7.8237913,3.80823733 7.8797913,4.04768 C5.15189565,3.911232 2.73328696,2.60887467 1.11443478,0.629650667 C0.831895652,1.1128 0.670017391,1.674712 0.670017391,2.274272 C0.670017391,3.409224 1.24946087,4.410536 2.1301913,4.9972 C1.59213913,4.98017867 1.08601739,4.83305333 0.643513043,4.58799467 C0.6432,4.601688 0.6432,4.615312 0.6432,4.62917867 C0.6432,6.21417333 1.77464348,7.53629067 3.27617391,7.83692 C3.00076522,7.91166133 2.71078261,7.95170133 2.41144348,7.95170133 C2.19993043,7.95170133 1.99433043,7.931144 1.79387826,7.89301067 C2.21158261,9.19259467 3.42372174,10.1384747 4.86006957,10.1648213 C3.73673043,11.042304 2.32146087,11.565216 0.783617391,11.565216 C0.518678261,11.565216 0.257426087,11.5497547 0.000626086957,11.519456 C1.45321739,12.447656 3.17853913,12.9893227 5.03210435,12.9893227 C11.0694609,12.9893227 14.3709913,8.004464 14.3709913,3.68146133 C14.3709913,3.53964 14.3677913,3.39858133 14.3614957,3.25825067 C15.0028522,2.79704533 15.5593043,2.22088533 15.9993043,1.564888 Z" id="Shape"></path>
        </g>
    </g>
</svg>