<?xml version="1.0" encoding="UTF-8"?>
<svg width="8px" height="7px" viewBox="0 0 8 7" version="1.1" xmlns="http://www.w3.org/2000/svg" xmlns:xlink="http://www.w3.org/1999/xlink">
    <!-- Generator: Sketch 49.1 (51147) - http://www.bohemiancoding.com/sketch -->
    <title>Shape</title>
    <desc>Created with Sketch.</desc>
    <defs></defs>
    <g id="Website" stroke="none" stroke-width="1" fill="none" fill-rule="evenodd">
        <g id="About_Us_1440" transform="translate(-1040.000000, -2241.000000)" fill="#687683">
            <g id="Group-3" transform="translate(0.000000, 676.000000)">
                <g id="Title-Copy-4" transform="translate(160.000000, 1332.000000)">
                    <g id="Title-&amp;-Subtitle">
                        <g id="Jobs#1-Copy" transform="translate(576.000000, 220.000000)">
                            <path d="M304.11278,16.7533845 L307.312733,19.8850116 C307.462133,20.0272771 307.704174,20.0437639 307.878355,19.89938 C308.034076,19.770304 308.037956,19.5185624 307.893955,19.378397 L305.325245,16.8684974 L311.599998,16.8684974 C311.820919,16.8684974 312,16.7035557 312,16.5000772 C312,16.2965987 311.820919,16.1316386 311.599998,16.1316386 L305.325245,16.1316386 L307.893955,13.6217409 C308.037936,13.4815938 308.027715,13.2360418 307.878355,13.1007763 C307.720654,12.9579766 307.459853,12.9706871 307.312733,13.1151447 L304.11278,16.2467515 C304.01876,16.3316908 304.00158,16.4134985 304,16.5000035 C304,16.585256 304.05598,16.6984531 304.11278,16.7533845 Z" id="Shape" transform="translate(308.000000, 16.500000) scale(-1, 1) translate(-308.000000, -16.500000) "></path>
                        </g>
                    </g>
                </g>
            </g>
        </g>
    </g>
</svg>