<?xml version="1.0" encoding="UTF-8"?>
<svg width="8px" height="7px" viewBox="0 0 8 7" version="1.1" xmlns="http://www.w3.org/2000/svg" xmlns:xlink="http://www.w3.org/1999/xlink">
    <!-- Generator: Sketch 49.1 (51147) - http://www.bohemiancoding.com/sketch -->
    <title>Shape</title>
    <desc>Created with Sketch.</desc>
    <defs></defs>
    <g id="Website" stroke="none" stroke-width="1" fill="none" fill-rule="evenodd">
        <g id="About_Us_1440" transform="translate(-862.000000, -2321.000000)" fill="#0066FF">
            <g id="Group-3" transform="translate(0.000000, 676.000000)">
                <g id="Title-Copy-4" transform="translate(160.000000, 1332.000000)">
                    <g id="Title-&amp;-Subtitle">
                        <g id="Jobs#1-Copy" transform="translate(576.000000, 220.000000)">
                            <path d="M126.11278,96.7533845 L129.312733,99.8850116 C129.462133,100.027277 129.704174,100.043764 129.878355,99.89938 C130.034076,99.770304 130.037956,99.5185624 129.893955,99.378397 L127.325245,96.8684974 L133.599998,96.8684974 C133.820919,96.8684974 134,96.7035557 134,96.5000772 C134,96.2965987 133.820919,96.1316386 133.599998,96.1316386 L127.325245,96.1316386 L129.893955,93.6217409 C130.037936,93.4815938 130.027715,93.2360418 129.878355,93.1007763 C129.720654,92.9579766 129.459853,92.9706871 129.312733,93.1151447 L126.11278,96.2467515 C126.01876,96.3316908 126.00158,96.4134985 126,96.5000035 C126,96.585256 126.05598,96.6984531 126.11278,96.7533845 Z" id="Shape" transform="translate(130.000000, 96.500000) scale(-1, 1) translate(-130.000000, -96.500000) "></path>
                        </g>
                    </g>
                </g>
            </g>
        </g>
    </g>
</svg>