<?xml version="1.0" encoding="UTF-8"?>
<svg width="13px" height="14px" viewBox="0 0 13 14" version="1.1" xmlns="http://www.w3.org/2000/svg" xmlns:xlink="http://www.w3.org/1999/xlink">
    <!-- Generator: Sketch 49.2 (51160) - http://www.bohemiancoding.com/sketch -->
    <title>ic_copy</title>
    <desc>Created with Sketch.</desc>
    <defs></defs>
    <g id="Visual-Design_1440" stroke="none" stroke-width="1" fill="none" fill-rule="evenodd">
        <g id="My_Mineunit_1440" transform="translate(-429.000000, -894.000000)">
            <g id="Sidebar" transform="translate(160.000000, 128.000000)">
                <g id="Earn_More" transform="translate(0.000000, 620.000000)">
                    <g id="Input" transform="translate(24.000000, 128.000000)">
                        <g id="ic_copy" transform="translate(245.000000, 18.000000)">
                            <rect id="Rectangle-5" stroke="#939DA6" stroke-width="1.5" x="3.25" y="3.25" width="8.5" height="9.5" rx="1"></rect>
                            <path d="M0.19560029,10 C0.0689267117,9.68722107 0,9.35063542 0,9 L0,3 C0,1.34314575 1.53902117,0 3.4375,0 L7.5625,0 C7.71071119,0 7.8567316,0.00818603531 8,0.0240682983 L8,1.50247034 C7.96692845,1.50083152 7.93358507,1.5 7.9,1.5 L3.1,1.5 C2.2163444,1.5 1.5,2.07563389 1.5,2.78571429 L1.5,9.21428571 C1.5,9.51017643 1.62438542,9.78272196 1.83343071,10 L0.19560029,10 Z" id="Combined-Shape" fill="#939DA6" fill-rule="nonzero"></path>
                        </g>
                    </g>
                </g>
            </g>
        </g>
    </g>
</svg>