<?xml version="1.0" encoding="UTF-8"?>
<svg width="16px" height="16px" viewBox="0 0 16 16" version="1.1" xmlns="http://www.w3.org/2000/svg" xmlns:xlink="http://www.w3.org/1999/xlink">
    <!-- Generator: Sketch 49.1 (51147) - http://www.bohemiancoding.com/sketch -->
    <title>Combined Shape</title>
    <desc>Created with Sketch.</desc>
    <defs></defs>
    <g id="Website" stroke="none" stroke-width="1" fill="none" fill-rule="evenodd">
        <g id="About_Us_1440" transform="translate(-1020.000000, -1324.000000)" fill="#939DA6" fill-rule="nonzero">
            <g id="Vacancy-Description" transform="translate(380.000000, 1300.000000)">
                <g id="ic_close" transform="translate(640.000000, 24.000000)">
                    <path d="M1.26589289,14.9876615 L1.41504255,14.8385119 L1.16148813,14.5849574 L1.01233847,14.7341071 L0.989966024,15.010034 L1.26589289,14.9876615 Z M14.8385119,1.41504255 L14.9876615,1.26589289 L15.010034,0.989966024 L14.7341071,1.01233847 L14.5849574,1.16148813 L14.8385119,1.41504255 Z M6.7322279,8 L0.206930314,1.47470242 C-0.0401889325,1.22758317 -0.0702383921,0.856973168 0.139812967,0.646921808 L0.646921808,0.139812967 C0.856973168,-0.0702383921 1.22758317,-0.0401889325 1.47470242,0.206930314 L8,6.7322279 L14.5252976,0.206930314 C14.7724168,-0.0401889325 15.1430268,-0.0702383921 15.3530782,0.139812967 L15.860187,0.646921808 C16.0702384,0.856973168 16.0401889,1.22758317 15.7930697,1.47470242 L9.2677721,8 L15.7930697,14.5252976 C16.0401889,14.7724168 16.0702384,15.1430268 15.860187,15.3530782 L15.3530782,15.860187 C15.1430268,16.0702384 14.7724168,16.0401889 14.5252976,15.7930697 L8,9.2677721 L1.47470242,15.7930697 C1.22758317,16.0401889 0.856973168,16.0702384 0.646921808,15.860187 L0.139812967,15.3530782 C-0.0702383921,15.1430268 -0.0401889325,14.7724168 0.206930314,14.5252976 L6.7322279,8 Z" id="Combined-Shape"></path>
                </g>
            </g>
        </g>
    </g>
</svg>