<?xml version="1.0" encoding="UTF-8"?>
<svg width="16px" height="16px" viewBox="0 0 16 16" version="1.1" xmlns="http://www.w3.org/2000/svg" xmlns:xlink="http://www.w3.org/1999/xlink">
    <!-- Generator: Sketch 49.2 (51160) - http://www.bohemiancoding.com/sketch -->
    <title>cross-grey</title>
    <desc>Created with Sketch.</desc>
    <defs></defs>
    <g id="Page-1" stroke="none" stroke-width="1" fill="none" fill-rule="evenodd">
        <g id="cross-grey" fill="#FFFFFF" fill-rule="nonzero">
            <path d="M1.26589289,14.9876615 L1.41504255,14.8385119 L1.16148813,14.5849574 L1.01233847,14.7341071 L0.989966024,15.010034 L1.26589289,14.9876615 Z M14.8385119,1.41504255 L14.9876615,1.26589289 L15.010034,0.989966024 L14.7341071,1.01233847 L14.5849574,1.16148813 L14.8385119,1.41504255 Z M6.7322279,8.00000001 L0.206930314,1.47470242 C-0.0401889325,1.22758317 -0.0702383922,0.856973169 0.139812967,0.646921808 L0.646921808,0.139812967 C0.856973169,-0.0702383922 1.22758317,-0.0401889325 1.47470242,0.206930314 L8.00000001,6.7322279 L14.5252976,0.206930314 C14.7724168,-0.0401889325 15.1430268,-0.0702383922 15.3530782,0.139812967 L15.860187,0.646921808 C16.0702384,0.856973169 16.0401889,1.22758317 15.7930697,1.47470242 L9.26777211,8.00000001 L15.7930697,14.5252976 C16.0401889,14.7724168 16.0702384,15.1430268 15.860187,15.3530782 L15.3530782,15.860187 C15.1430268,16.0702384 14.7724168,16.0401889 14.5252976,15.7930697 L8.00000001,9.26777211 L1.47470242,15.7930697 C1.22758317,16.0401889 0.856973169,16.0702384 0.646921808,15.860187 L0.139812967,15.3530782 C-0.0702383922,15.1430268 -0.0401889325,14.7724168 0.206930314,14.5252976 L6.7322279,8.00000001 Z" id="Combined-Shape"></path>
        </g>
    </g>
</svg>