<?xml version="1.0" encoding="UTF-8"?>
<svg width="16px" height="10px" viewBox="0 0 16 10" version="1.1" xmlns="http://www.w3.org/2000/svg" xmlns:xlink="http://www.w3.org/1999/xlink">
    <!-- Generator: Sketch 48.2 (47327) - http://www.bohemiancoding.com/sketch -->
    <title>ic_pass_hide</title>
    <desc>Created with Sketch.</desc>
    <defs></defs>
    <g id="Register_1440" stroke="none" stroke-width="1" fill="none" fill-rule="evenodd" transform="translate(-980.000000, -909.000000)">
        <g id="Content_Area" transform="translate(380.000000, 262.000000)" fill="#939DA6" fill-rule="nonzero">
            <g id="Hover" transform="translate(48.000000, 600.000000)">
                <g id="Input" transform="translate(0.000000, 28.000000)">
                    <g id="ic_pass_hide" transform="translate(552.000000, 19.000000)">
                        <path d="M15.8683102,4.61802013 C13.4519837,1.56432886 10.8430041,0.0139932886 8.10667755,0.0139932886 C7.02259592,0.0139932886 5.92545306,0.262315436 4.84137143,0.748892617 C3.98912653,1.13479866 3.14341224,1.6683557 2.33035102,2.33614094 C0.955657143,3.46701342 0.145861224,4.5945302 0.113208163,4.64151007 C-0.0435265306,4.86298658 -0.0369959184,5.165 0.129534694,5.3797651 C2.54259592,8.43681208 5.15484082,9.98379195 7.89116735,9.98379195 C8.97524898,9.98379195 10.0723918,9.7354698 11.1564735,9.24889262 C12.0087184,8.86298658 12.8544327,8.32942953 13.6674939,7.6616443 C15.0421878,6.53077181 15.8519837,5.40325503 15.8846367,5.35627517 C16.0413714,5.13479866 16.0348408,4.83278523 15.8683102,4.61802013 Z M12.9066776,6.7388255 C11.770351,7.6683557 9.98096327,8.77573826 7.89116735,8.77573826 C5.63484082,8.77573826 3.43402449,7.50392617 1.34422857,4.99385906 C1.67402449,4.5945302 2.27810612,3.92674497 3.08790204,3.26231544 C4.22422857,2.33278523 6.01361633,1.22540268 8.10341224,1.22540268 C10.3597388,1.22540268 12.5605551,2.49721477 14.650351,5.00728188 C14.3205551,5.40661074 13.7164735,6.07775168 12.9066776,6.7388255 Z" id="Shape"></path>
                        <path d="M10.1638204,4.39654362 C9.8405551,4.39654362 9.57606531,4.6683557 9.57606531,5.00057047 C9.57606531,5.89654362 8.86749388,6.62473154 7.99565714,6.62473154 C7.12382041,6.62473154 6.41524898,5.89654362 6.41524898,5.00057047 C6.41524898,4.10459732 7.12382041,3.3764094 7.99565714,3.3764094 C8.31892245,3.3764094 8.58341224,3.10459732 8.58341224,2.77238255 C8.58341224,2.44016779 8.31892245,2.1683557 7.99565714,2.1683557 C6.47402449,2.1683557 5.23973878,3.44016779 5.23973878,5.00057047 C5.23973878,6.56097315 6.47402449,7.83278523 7.99565714,7.83278523 C9.5172898,7.83278523 10.7515755,6.56097315 10.7515755,5.00057047 C10.7515755,4.6683557 10.4870857,4.39654362 10.1638204,4.39654362 Z" id="Shape"></path>
                    </g>
                </g>
            </g>
        </g>
    </g>
</svg>