<?xml version="1.0" encoding="UTF-8"?>
<svg width="16px" height="13px" viewBox="0 0 16 13" version="1.1" xmlns="http://www.w3.org/2000/svg" xmlns:xlink="http://www.w3.org/1999/xlink">
    <!-- Generator: Sketch 48.2 (47327) - http://www.bohemiancoding.com/sketch -->
    <title>ic_pass_show</title>
    <desc>Created with Sketch.</desc>
    <defs></defs>
    <g id="Register_1440" stroke="none" stroke-width="1" fill="none" fill-rule="evenodd" transform="translate(-980.000000, -780.000000)">
        <g id="Content_Area" transform="translate(380.000000, 262.000000)" fill="#939DA6" fill-rule="nonzero">
            <g id="Password" transform="translate(48.000000, 440.000000)">
                <g id="Input" transform="translate(0.000000, 60.000000)">
                    <g id="ic_pass_show" transform="translate(552.000000, 18.000000)">
                        <path d="M14.196888,0.175681934 C13.9687821,-0.059178117 13.5972953,-0.055870229 13.3659308,0.175681934 L11.280391,2.29273028 C8.69627699,1.10189059 5.93945418,1.39298473 3.30971894,3.13624173 C1.3512668,4.43293384 0.161857434,6.06372265 0.112977597,6.1331883 C-0.0434378819,6.35150891 -0.0369205703,6.64921883 0.129270876,6.86092366 C1.24373116,8.25023664 2.41032994,9.33191603 3.60299796,10.0861145 L1.76837475,11.9484555 C1.54026884,12.1800076 1.54026884,12.5571069 1.76837475,12.7919669 C1.8824277,12.907743 2.03232587,12.967285 2.18222403,12.967285 C2.3321222,12.967285 2.48202037,12.907743 2.59607332,12.7919669 L14.196888,1.01919338 C14.4249939,0.787641221 14.4249939,0.410541985 14.196888,0.175681934 Z M6.53252953,7.11232316 C6.44780448,6.91715776 6.40544196,6.70545293 6.40544196,6.48382443 C6.40544196,6.05710687 6.56837475,5.65354453 6.86817108,5.34921883 C7.33741752,4.87288295 8.0315112,4.76041476 8.60503462,5.00850636 L6.53252953,7.11232316 Z M9.47183707,4.13191603 C8.40625662,3.43725954 6.96918941,3.56295929 6.04047251,4.50570738 C5.51908758,5.03496947 5.23558452,5.73624173 5.23558452,6.48051654 C5.23558452,7.02301018 5.38874134,7.5423486 5.6722444,7.98891349 L4.4632831,9.21613995 C3.40421996,8.594257 2.3614501,7.67466412 1.34800815,6.47390076 C1.78140937,5.95787023 2.69709165,4.96219593 3.95167413,4.13191603 C6.1219389,2.69629262 8.2824277,2.38535115 10.3875193,3.20239949 L9.47183707,4.13191603 Z" id="Shape"></path>
                        <path d="M15.8392505,6.10672519 C15.0343625,5.10112723 14.2001466,4.25430789 13.3528961,3.58280662 C13.0954623,3.38102545 12.7272342,3.42733588 12.5251976,3.68535115 C12.3264196,3.94336641 12.3720407,4.31715776 12.6262159,4.52224682 C13.297499,5.05481679 13.9687821,5.7163944 14.6205132,6.4904402 C14.2359919,6.94692875 13.486501,7.76728499 12.4698004,8.51817557 C10.5113483,9.96372265 8.5333442,10.486369 6.59444399,10.0695751 C6.27835438,10.0001094 5.96552342,10.2085064 5.90035031,10.5293715 C5.83191853,10.8502366 6.03721385,11.1677939 6.35330346,11.2339517 C6.85839511,11.343112 7.36674542,11.3960382 7.87835438,11.3960382 C8.64739715,11.3960382 9.42295723,11.2736463 10.1952587,11.0288626 C11.2087006,10.7079975 12.2156253,10.1787354 13.1899633,9.45761578 C14.8323259,8.23700509 15.8131813,6.89069466 15.8555438,6.83446056 C16.0119593,6.61613995 16.005442,6.31843003 15.8392505,6.10672519 Z" id="Shape"></path>
                    </g>
                </g>
            </g>
        </g>
    </g>
</svg>