<?xml version="1.0" encoding="UTF-8"?>
<svg width="23px" height="16px" viewBox="0 0 23 16" version="1.1" xmlns="http://www.w3.org/2000/svg" xmlns:xlink="http://www.w3.org/1999/xlink">
    <!-- Generator: Sketch 46.1 (44463) - http://www.bohemiancoding.com/sketch -->
    <title>Combined Shape</title>
    <desc>Created with Sketch.</desc>
    <defs></defs>
    <g id="Page-1" stroke="none" stroke-width="1" fill="none" fill-rule="evenodd">
        <path d="M7.14103612,6.99813242 C9.41508205,6.99143541 11.6890827,6.98810909 13.9665672,7.00482943 C14.1029321,8.87639949 13.8506525,10.8682496 12.6778416,12.4156135 C10.9015684,14.8653438 7.33540366,15.5805489 4.55340513,14.5311587 C1.76113625,13.4884211 -0.216291059,10.5975308 0.0189769137,7.64987114 C0.0803275619,4.04377577 3.46239515,0.885537333 7.14103612,1.00586174 C8.90369092,0.925630684 10.5606109,1.67760278 11.9106871,2.73369004 C11.3345068,3.37536106 10.7379215,3.99365908 10.1003453,4.5718194 C8.47753918,3.47226811 6.16942464,3.15812961 4.54657331,4.42812199 C2.22479513,6.00222954 2.11910552,9.71858162 4.35225102,11.4130136 C6.52400062,13.3446793 10.6288386,12.3855435 11.2288624,9.42781613 C9.86851582,9.4077251 8.50482122,9.42781613 7.14447465,9.38435209 C7.14103612,8.58896032 7.13764283,7.79356855 7.14103612,6.99813242 Z M21.0066648,6.99332051 C21.6700187,7 22.3366903,7 23,7.00667949 C23,7.66666667 23,8.32997147 23,8.99000288 C22.3366903,8.99668237 21.6733364,9 21.0066648,9.00667949 C20.9999853,9.67334616 20.9966676,10.336651 20.9933499,11 C20.3300403,11 19.6700482,11 19.0066943,11 C19.0000147,10.336651 19.0000147,9.67334616 18.9933352,9.00999712 C18.3299813,9.00336186 17.6633097,8.99668237 17,8.99000288 C17,8.32997147 17,7.6699843 17,7.00667949 C17.6633097,7 18.3266636,6.99663814 18.9933352,6.99332051 C18.9966971,6.32665384 19.0033324,5.66334904 19.0100119,5 C19.670004,5 20.329996,5 20.9933499,5 C20.9966676,5.6633048 20.9999853,6.32997147 21.0066648,6.99332051 Z" id="Combined-Shape" fill="#F7FBFB" fill-rule="nonzero"></path>
    </g>
</svg>