<?xml version="1.0" encoding="UTF-8"?>
<svg width="294px" height="174px" viewBox="0 0 294 174" version="1.1" xmlns="http://www.w3.org/2000/svg" xmlns:xlink="http://www.w3.org/1999/xlink">
    <!-- Generator: Sketch 47.1 (45422) - http://www.bohemiancoding.com/sketch -->
    <title>Pink_320</title>
    <desc>Created with Sketch.</desc>
    <defs>
        <linearGradient x1="0%" y1="0%" x2="100%" y2="100%" id="linearGradient-1">
            <stop stop-color="#7117EA" offset="0%"></stop>
            <stop stop-color="#EA6060" offset="100%"></stop>
        </linearGradient>
        <path d="M6.37039375,189.838813 C17.0271411,176.101317 25.5820991,169.014715 31.4894138,168.451233 C34.8165338,168.133869 37.962116,169.547079 44.2478679,173.677107 C48.5570819,176.508459 49.8486331,177.304191 52.0100769,178.300071 C55.2043693,179.771834 58.1087834,180.304053 60.9762757,179.659323 C64.8193722,178.795237 67.3252986,175.514157 70.4771527,168.993762 C71.2006759,167.496974 73.6708864,162.077122 73.9303231,161.522438 C78.6622274,151.405477 82.4232029,146.927368 87.5110102,146.677129 C92.5305235,146.430249 96.4314632,142.684588 99.8262591,136.146312 C102.262838,131.453534 104.273566,125.852131 107.054234,116.718549 C107.147916,116.410834 109.245124,109.443837 109.843703,107.515848 C113.096488,97.0388136 115.58869,91.7876617 117.558554,91.04342 C119.31688,90.3790999 121.098738,91.7621487 124.149393,96.5797426 C124.578423,97.2572655 125.020603,97.9804508 125.61923,98.9778114 C125.730974,99.1639852 125.807487,99.2917396 125.997318,99.609008 C126.187968,99.9278026 126.187968,99.9278026 126.380326,100.249365 C126.697037,100.778608 126.930181,101.166603 127.162837,101.550784 C129.674749,105.698663 131.511392,108.289171 133.725732,110.474585 C136.769443,113.478536 140.137011,115.131455 144,115.131455 C148.62079,115.131455 152.055371,111.866846 154.930999,106.05801 C156.928328,102.023358 158.448626,97.5059457 160.999304,88.7334379 C161.151246,88.2108673 161.764988,86.0937158 161.920342,85.5594362 C166.551814,69.6312565 169.637941,62.7497449 173.901323,60.7672198 C178.058021,58.8343043 180.523459,60.562095 185.46539,67.948551 C185.729513,68.3433215 186.691637,69.791733 186.64715,69.724897 C189.286814,73.6905901 190.88216,75.8034169 192.943627,77.7536408 C195.836853,80.4907411 199.001269,82.0125408 202.649652,82.0793099 C207.18238,82.1622635 210.712815,79.2847526 213.67519,74.1567998 C215.728137,70.6030929 217.298315,66.6010449 219.770235,59.2539919 C219.900868,58.865725 220.701859,56.4751488 220.932676,55.7910697 C224.579192,44.9837496 227.023104,40.5626289 229.181072,40.514109 C232.370552,40.4423963 234.918768,42.5885423 239.912788,48.966146 C240.0381,49.1261756 240.171055,49.2961698 240.431023,49.6286113 C243.454529,53.4940193 244.995732,55.2825174 247.062308,57.0640912 C250.002494,59.5987955 253.069651,60.9966795 256.513305,61.0466328 C265.823588,61.1816866 275.556974,50.5248117 286.655893,29.3950739 C287.426371,27.9282645 286.861883,26.1145848 285.395074,25.3441068 C283.928265,24.5736287 282.114585,25.1381168 281.344107,26.6049261 C271.281586,45.7616041 262.719518,55.1360281 256.600331,55.0472639 C253.101903,54.9965162 250.477662,52.7341849 245.157,45.9319722 C244.897615,45.6002765 244.763369,45.4286303 244.636792,45.2669864 C241.795201,41.6381381 240.202454,39.8102593 238.188067,38.1137112 C235.340154,35.7151553 232.365779,34.4409872 229.046201,34.515625 C225.407994,34.5974268 222.654082,37.0724161 220.27961,41.3679173 C218.648138,44.3193066 217.30777,47.7669528 215.24757,53.8728484 C215.014274,54.5642774 214.212146,56.9582429 214.083476,57.3406782 C209.547451,70.8226722 206.470916,76.1482383 202.759439,76.0803145 C199.029592,76.0120545 196.356268,73.4829908 191.641851,66.4002986 C191.691397,66.4747338 190.722846,65.0166469 190.452193,64.6121151 C187.518574,60.227383 185.627168,57.90823 183.138524,56.1641761 C179.62626,53.7027641 175.668627,53.3284155 171.371404,55.3266769 C167.544592,57.1061916 164.592924,60.9771101 161.958346,66.8517475 C160.047996,71.1114862 158.56003,75.6266167 156.158959,83.884186 C156.0027,84.4215766 155.388944,86.5387778 155.237899,87.0582621 C150.602355,103.001216 147.567618,109.131455 144,109.131455 C140.021048,109.131455 136.906673,106.057765 132.295095,98.4427423 C131.941118,97.8582248 130.629746,95.666846 130.763708,95.8900376 C130.142555,94.8551478 129.678139,94.0955945 129.21854,93.3697959 C127.27514,90.3007796 125.673012,88.2771778 123.84457,86.8579716 C121.29903,84.8821658 118.43008,84.3001945 115.437973,85.4306545 C110.814598,87.1774297 108.099463,92.8983088 104.113518,105.736808 C103.505804,107.694221 101.401364,114.685242 101.314345,114.971072 C95.9479536,132.597905 91.8681017,140.455577 87.2162625,140.684373 C82.6521139,140.908856 78.8094264,143.187123 75.4849149,147.145545 C73.016257,150.08492 70.9865657,153.654277 68.4954199,158.980426 C68.2103699,159.589872 65.7632933,164.958966 65.075166,166.382529 C62.7385377,171.216426 60.9894368,173.506573 59.6600879,173.805466 C57.0189406,174.399304 54.5240537,173.249791 47.5425962,168.662652 C40.1001006,163.772589 36.1160414,161.982678 30.9196771,162.478344 C22.8269918,163.250282 13.2455862,171.187155 1.62960625,186.161187 C0.614057839,187.470319 0.85205462,189.354845 2.16118694,190.370394 C3.47031926,191.385942 5.35484534,191.147945 6.37039375,189.838813 Z" id="path-2"></path>
        <filter x="-2.4%" y="-3.0%" width="104.9%" height="108.4%" filterUnits="objectBoundingBox" id="filter-3">
            <feOffset dx="0" dy="2" in="SourceAlpha" result="shadowOffsetOuter1"></feOffset>
            <feGaussianBlur stdDeviation="2" in="shadowOffsetOuter1" result="shadowBlurOuter1"></feGaussianBlur>
            <feColorMatrix values="0 0 0 0 0.694117647   0 0 0 0 0.239215686   0 0 0 0 0.635294118  0 0 0 0.2 0" type="matrix" in="shadowBlurOuter1"></feColorMatrix>
        </filter>
    </defs>
    <g id="Website" stroke="none" stroke-width="1" fill="none" fill-rule="evenodd">
        <g id="Mineunit_320" transform="translate(-13.000000, -2891.000000)" fill-rule="nonzero">
            <g id="Cryptocurrencies-capitalization-Copy" transform="translate(16.000000, 2812.000000)">
                <g id="Chart" transform="translate(0.000000, 56.000000)">
                    <g id="Pink_320">
                        <use fill="black" fill-opacity="1" filter="url(#filter-3)" xlink:href="#path-2"></use>
                        <use fill="url(#linearGradient-1)" fill-rule="evenodd" xlink:href="#path-2"></use>
                    </g>
                </g>
            </g>
        </g>
    </g>
</svg>