<?xml version="1.0" encoding="UTF-8"?>
<svg width="914px" height="353px" viewBox="0 0 914 353" version="1.1" xmlns="http://www.w3.org/2000/svg" xmlns:xlink="http://www.w3.org/1999/xlink">
    <!-- Generator: Sketch 47.1 (45422) - http://www.bohemiancoding.com/sketch -->
    <title>Pink</title>
    <desc>Created with Sketch.</desc>
    <defs>
        <linearGradient x1="0%" y1="0%" x2="100%" y2="100%" id="linearGradient-1">
            <stop stop-color="#7117EA" offset="0%"></stop>
            <stop stop-color="#EA6060" offset="100%"></stop>
        </linearGradient>
        <path d="M48.1681946,328.368145 C82.4265781,300.308897 110.096565,285.745746 130.802475,284.490842 C143.184012,283.740446 153.860645,286.788105 174.744507,295.506426 C188.021623,301.049183 191.994105,302.604229 198.429581,304.488182 C207.382037,307.108967 215.21154,308.020543 222.707107,306.949747 C232.510984,305.549194 240.058462,299.270395 249.41865,286.967179 C251.68796,283.984353 259.4486,273.1656 260.267085,272.053738 C267.511749,262.212298 273.272776,255.775258 279.903496,250.758986 C287.995531,244.637201 296.798161,241.321248 307.156174,240.99756 C320.330812,240.585853 331.555117,233.738148 341.672045,221.358039 C349.305724,212.016689 355.634499,200.814844 364.373999,182.575687 C364.66947,181.959046 371.259571,168.049196 373.139421,164.202104 C383.819713,142.345017 391.444483,132.137401 399.73307,130.147714 C409.007657,127.921336 416.340702,131.537724 427.036695,142.269815 C428.39562,143.633326 429.792596,145.084989 431.68138,147.08441 C432.033138,147.456773 432.395679,147.841385 432.871094,148.346355 C432.917788,148.395952 433.812011,149.34602 434.074663,149.624887 C435.068487,150.68007 435.799704,151.453238 436.528844,152.218234 C444.309431,160.381429 449.985826,165.468399 456.676179,169.663715 C465.373611,175.117608 474.616153,178 485,178 C496.720931,178 506.365551,172.175363 514.848862,161.287366 C521.110738,153.250494 525.901172,144.206456 533.919299,126.685121 C534.396993,125.641256 536.325895,121.413575 536.813984,120.347045 C544.114856,104.393836 548.594642,95.7568773 554.128492,87.9167408 C560.970253,78.2236079 568.15667,72.2355611 576.416731,69.7950885 C585.718167,67.0469368 593.357709,67.5060653 600.561848,70.7138517 C606.448399,73.3349562 611.520006,77.2860424 619.713113,85.0666628 C620.545795,85.8574231 623.572152,88.752146 623.430337,88.6167777 C631.595429,96.4107293 636.520713,100.555175 642.726578,104.285416 C650.965737,109.237834 659.631099,111.885583 669.441864,111.999662 C681.068173,112.134852 690.844279,107.072166 699.514452,97.5363483 C705.916917,90.4946502 710.858447,82.4922352 718.617402,67.8398566 C719.028162,67.0641565 721.545449,62.2906947 722.270619,60.9251492 C734.555672,37.7915539 742.074439,29.1494468 752.571421,28.9994899 C759.556434,28.899704 765.969154,30.6451224 772.586831,34.1863588 C777.893255,37.0259207 782.416696,40.3242638 790.713243,47.056058 C791.10773,47.3761434 791.52625,47.7161389 792.342994,48.37974 C801.691642,55.9735474 806.446663,59.4795101 812.664484,62.8852925 C821.04435,67.4753244 829.468209,69.9146659 838.703919,69.9997876 C864.862154,70.2408774 894.726748,49.4655081 928.853604,8.18586532 C930.613109,6.05757871 930.314152,2.90590104 928.185865,1.14639621 C926.057579,-0.613108621 922.905901,-0.314151923 921.146396,1.81413468 C888.765869,40.9814285 861.130462,60.2060592 838.796081,60.0002124 C831.308836,59.9312055 824.473884,57.9519724 817.468482,54.1147964 C811.950391,51.0922879 807.535964,47.8374514 798.647936,40.6178001 C797.832427,39.9552023 797.411172,39.6129845 797.014009,39.2907283 C788.242738,32.1737441 783.339994,28.5988257 777.304958,25.3693707 C769.26612,21.0676455 761.210474,18.8750545 752.428579,19.0005101 C743.601768,19.1266074 736.077591,23.4230455 729.215486,31.3103819 C724.125083,37.161316 719.906829,44.0551018 713.438723,56.2349872 C712.705254,57.6161595 710.184167,62.3968294 709.779975,63.1601253 C702.402332,77.0924174 697.777772,84.5815241 692.115533,90.8090903 C685.232244,98.3796189 678.049921,102.09908 669.558136,102.000338 C661.597201,101.907769 654.650374,99.7851274 647.87836,95.7145843 C642.483371,92.4717479 637.994985,88.6949352 630.335095,81.3832223 C630.488814,81.5299547 627.447332,78.6207637 626.59929,77.8154173 C617.628786,69.2965383 611.847241,64.7923678 604.629529,61.5785372 C595.233285,57.3946724 585.146599,56.7884731 573.583269,60.2049115 C562.874902,63.3687473 553.989309,70.772624 545.958634,82.150162 C539.957473,90.6523658 535.271783,99.686306 527.720959,116.185688 C527.229697,117.259149 525.300746,121.486941 524.826198,122.523929 C517.131233,139.339087 512.584308,147.923394 506.960563,155.14125 C500.215391,163.798413 493.25827,168 485,168 C476.578116,168 469.153962,165.684693 461.98877,161.191621 C456.169348,157.542439 451.018858,152.926766 443.767515,145.318839 C442.651962,144.148429 438.527228,139.769038 438.95071,140.217326 C437.0059,138.158597 435.553572,136.649416 434.119665,135.210669 C428.19876,129.269782 423.343968,125.37373 418.084689,122.780047 C411.525801,119.545445 404.715206,118.667657 397.398869,120.423954 C390.455703,122.09067 384.375378,126.974328 378.529428,134.800559 C373.950888,140.930053 369.634985,148.596461 364.154703,159.811793 C362.243346,163.723362 355.628268,177.685931 355.35582,178.254524 C346.942008,195.813978 340.916053,206.479835 333.928718,215.030252 C325.486041,225.361576 316.74719,230.69296 306.843826,231.00244 C294.338506,231.393231 283.560115,235.453453 273.87027,242.784014 C266.306895,248.505858 259.981528,255.573459 252.213822,266.125419 C251.321063,267.338179 243.627372,278.063602 241.460066,280.912352 C233.570738,291.282239 227.745273,296.128484 221.292893,297.050253 C215.386431,297.894033 208.92936,297.142247 201.239117,294.890968 C195.302999,293.1532 191.485478,291.658813 178.596952,286.278281 C168.058939,281.879009 162.151396,279.63549 155.397262,277.707514 C146.439,275.150367 138.240973,274.021676 130.197525,274.509158 C106.903435,275.920921 77.5734219,291.357769 41.8318054,320.631855 C39.6954881,322.381601 39.3821098,325.531877 41.1318554,327.668195 C42.881601,329.804512 46.0318774,330.11789 48.1681946,328.368145 Z" id="path-2"></path>
        <filter x="-2.5%" y="-4.2%" width="104.9%" height="113.4%" filterUnits="objectBoundingBox" id="filter-3">
            <feOffset dx="0" dy="8" in="SourceAlpha" result="shadowOffsetOuter1"></feOffset>
            <feGaussianBlur stdDeviation="6" in="shadowOffsetOuter1" result="shadowBlurOuter1"></feGaussianBlur>
            <feColorMatrix values="0 0 0 0 0.694117647   0 0 0 0 0.239215686   0 0 0 0 0.635294118  0 0 0 0.2 0" type="matrix" in="shadowBlurOuter1"></feColorMatrix>
        </filter>
    </defs>
    <g id="Website" stroke="none" stroke-width="1" fill="none" fill-rule="evenodd">
        <g id="Mineunit" transform="translate(-284.000000, -2998.000000)" fill-rule="nonzero">
            <g id="Trending-Perspectives" transform="translate(256.000000, 2924.000000)">
                <g id="Chart" transform="translate(0.000000, 78.000000)">
                    <g id="Pink">
                        <use fill="black" fill-opacity="1" filter="url(#filter-3)" xlink:href="#path-2"></use>
                        <use fill="url(#linearGradient-1)" fill-rule="evenodd" xlink:href="#path-2"></use>
                    </g>
                </g>
            </g>
        </g>
    </g>
</svg>