<?xml version="1.0" encoding="UTF-8"?>
<svg width="720px" height="368px" viewBox="0 0 720 368" version="1.1" xmlns="http://www.w3.org/2000/svg" xmlns:xlink="http://www.w3.org/1999/xlink">
    <!-- Generator: Sketch 47.1 (45422) - http://www.bohemiancoding.com/sketch -->
    <title>Blue_768</title>
    <desc>Created with Sketch.</desc>
    <defs>
        <linearGradient x1="0%" y1="50%" x2="100%" y2="50%" id="linearGradient-1">
            <stop stop-color="#88DFDF" offset="0%"></stop>
            <stop stop-color="#24B9F0" offset="49.8880119%"></stop>
            <stop stop-color="#0066FF" offset="100%"></stop>
        </linearGradient>
        <path d="M38.3716287,344.401747 C49.6708936,338.313787 59.6393842,334.318587 68.2371661,332.396634 C72.7794013,331.38126 75.3263842,331.309522 79.4150215,331.78034 C86.9951971,332.678638 91.3494324,332.601114 99.2961247,330.97333 C103.848126,330.040908 107.383345,329.127218 110.384409,328.127964 C112.85329,327.305909 114.845368,326.479151 117.352739,325.291463 C117.94735,325.009809 119.996285,324.020653 120.060752,323.989737 C121.147532,323.468558 122.031789,323.056547 122.966059,322.640786 C125.375758,321.568442 127.928344,320.563417 131.064239,319.485686 C134.640195,318.256716 137.641313,316.989395 140.697951,315.486638 C141.869864,314.910482 145.993014,312.763089 146.945437,312.3077 C150.924751,310.405037 154.269841,309.666511 160.585537,309.666511 C165.894346,309.666511 168.281387,310.600287 173.329291,313.898104 C179.929766,318.210221 184.054015,319.807788 191.76483,319.757037 C199.408344,319.706729 203.53883,318.030548 210.008148,313.645853 C215.118436,310.182254 217.509374,309.225979 222.849793,309.256433 C228.263118,309.287303 230.716123,310.293527 235.904616,313.822063 C242.450544,318.273749 246.475758,319.962605 253.924848,320.111381 C261.623891,320.26515 265.975467,318.787912 272.896617,314.813736 C278.280813,311.721738 280.79721,310.763995 285.461927,310.492185 C292.200495,310.099534 296.401399,308.421597 302.028917,304.779011 C302.24348,304.640129 303.143816,304.05379 303.375851,303.903778 C307.233821,301.409577 309.350336,300.601208 313.128409,300.601208 C316.020441,300.601208 318.481189,301.721571 322.746141,304.75034 C323.829046,305.526486 324.507631,306.016128 324.705156,306.158333 C328.755691,309.074456 331.205707,310.585196 334.401938,311.837964 C338.737661,313.537358 343.281684,314.047431 348.298931,313.197525 C352.972449,312.405845 356.90087,310.207486 360.331912,306.789786 C362.833111,304.298313 364.765145,301.593748 367.480991,297.166099 C367.766953,296.699895 368.855772,294.90978 369.11645,294.484756 C373.239469,287.762347 375.498363,285.613118 378.653296,285.585941 C385.42688,285.527594 389.360921,283.177171 394.280515,277.857476 C394.42657,277.699542 395.495329,276.534019 395.802943,276.203917 C399.981426,271.719975 403.090527,270.066893 409.802792,270.004895 C416.652814,269.941625 422.002468,265.51767 426.530052,257.802757 C429.671941,252.449042 432.170289,246.246823 435.809116,235.651355 C435.992382,235.117723 437.945037,229.388078 438.510686,227.757074 C442.984536,214.857105 446.224002,208.758337 448.592431,208.077058 C454.693527,206.322077 459.130148,210.943151 463.851727,222.969831 C464.66637,225.044868 464.887329,225.657405 466.662875,230.671904 C469.361339,238.292908 475.843937,244.76249 483.649569,247.421386 C492.578607,250.462959 502.089346,248.283112 509.938485,240.663018 C514.79981,235.943551 516.96302,230.165285 520.190618,216.97609 C520.272223,216.642622 520.687153,214.942116 520.804616,214.46267 C521.04118,213.497099 521.235053,212.714356 521.424153,211.964136 C523.945558,201.960929 526.202772,196.188163 529.70923,192.005854 C533.858221,187.057166 539.680389,184.949426 548.73446,186.036832 C560.9967,187.509544 569.603935,184.638782 575.003571,177.614479 C578.932129,172.503879 580.473802,167.096238 582.230026,156.096892 C582.279363,155.787892 582.322229,155.518222 582.413475,154.943502 C584.283547,143.168118 585.774373,138.776059 589.391495,136.212055 C594.167473,132.826593 597.847839,133.256476 607.699214,137.267909 C614.287147,139.945234 617.538909,140.962483 621.559209,141.236448 C627.143682,141.617005 632.305502,139.973911 637.109557,135.976309 C641.512691,132.312327 644.66325,127.036068 647.081096,120.070508 C648.866233,114.927713 650.080814,109.653429 651.741482,100.767356 C651.828793,100.300168 651.919159,99.8141928 652.028767,99.2228704 C652.088224,98.9021134 652.171282,98.4534585 652.313099,97.6874924 C655.630362,79.7800963 658.028179,72.7836928 662.742848,69.7322994 C666.457728,67.3279817 669.25676,68.2544036 676.064671,73.4827407 C682.034718,78.0676154 683.827594,79.248174 687.333246,80.1391351 C692.722609,81.5088415 697.676473,79.4671511 701.790868,74.1413745 C710.400733,62.9965461 718.643885,40.7957591 726.857072,7.18695185 C727.512607,4.50446523 725.869438,1.79846372 723.186952,1.14292832 C720.504465,0.487392915 717.798464,2.13056153 717.142928,4.81304815 C709.245509,37.1297192 701.378055,58.3186604 693.877314,68.0278098 C692.072437,70.3640888 691.079471,70.7733306 689.796438,70.4472477 C688.206514,70.0431684 686.785957,69.1077716 682.155542,65.5517077 C677.735219,62.1569891 675.117054,60.4866508 671.752063,59.3729078 C666.874138,57.7584147 661.997634,58.3029183 657.309425,61.337187 C652.631554,64.3647644 649.440571,69.3632169 647.042883,76.3592402 C645.346046,81.3103066 644.312096,85.9780007 642.480385,95.8660274 C642.338258,96.6336679 642.255466,97.0808836 642.196259,97.4002942 C642.087472,97.9871842 641.997952,98.4686087 641.911666,98.9303167 C638.726568,115.97346 635.969835,123.91532 630.71317,128.289552 C625.688263,132.470931 621.805846,132.206362 612.087942,128.257547 C605.384561,125.528134 602.577598,124.591455 598.77752,124.14759 C593.368413,123.515783 588.344661,124.696573 583.608505,128.053806 C579.763249,130.779523 577.203897,134.708459 575.460051,139.845931 C574.245642,143.423651 573.626649,146.51533 572.537245,153.375038 C572.446077,153.949265 572.403804,154.215208 572.355107,154.520201 C570.864281,163.857338 569.625519,168.202472 567.075327,171.519977 C564.023986,175.48942 558.927674,177.189187 549.926904,176.108183 C537.622153,174.630366 528.440484,177.954312 522.046155,185.581114 C517.284371,191.260706 514.598399,198.130009 511.727445,209.519987 C511.532156,210.294763 511.333276,211.097723 511.091869,212.08306 C510.973008,212.568212 510.557649,214.270473 510.477235,214.599077 C507.736531,225.798637 505.934088,230.613241 502.972879,233.488039 C497.808656,238.501564 492.230398,239.780092 486.874011,237.955502 C481.981886,236.289057 477.772809,232.088431 476.089397,227.334138 C474.265629,222.183449 474.034591,221.542972 473.160081,219.315446 C470.433158,212.369499 467.680478,207.312168 464.102834,203.585785 C459.143532,198.4203 452.907771,196.430258 445.828024,198.466748 C441.596748,199.683875 438.413612,203.176906 435.494604,208.672367 C433.429902,212.559471 431.579392,217.22389 429.062746,224.480426 C428.486537,226.141877 426.526807,231.892285 426.351326,232.403245 C419.682606,251.821102 414.907777,259.957316 409.710431,260.005322 C399.949452,260.095479 394.391102,263.050807 388.487079,269.38643 C388.14625,269.752175 387.059421,270.937404 386.938748,271.067892 C383.709622,274.559636 382.041303,275.556386 378.567159,275.586312 C374.190705,275.624011 370.463306,277.322381 367.234044,280.39487 C364.950868,282.567202 363.190442,285.019937 360.592039,289.256523 C360.318414,289.702656 359.229743,291.492529 358.956804,291.937503 C354.295042,299.537579 351.268893,302.55196 346.628755,303.337986 C340.867297,304.313959 337.336296,302.929977 330.547856,298.04274 C329.156522,297.03968 328.842607,296.814703 328.53619,296.597099 C322.717709,292.465086 318.623913,290.601208 313.128409,290.601208 C307.096475,290.601208 303.276379,292.060232 297.946611,295.50596 C297.696612,295.667586 296.79321,296.25592 296.595089,296.384161 C292.294518,299.167839 289.629284,300.232394 284.880221,300.509119 C278.354084,300.889392 274.526102,302.346326 268.261642,305.943793 C262.42777,309.293702 259.686014,310.224451 254.124532,310.113375 C248.99248,310.010876 246.618277,309.014733 241.549484,305.567602 C234.847846,301.010022 230.68137,299.300931 222.906819,299.256596 C215.183294,299.212551 211.026872,300.874947 204.508608,305.292826 C199.416013,308.744426 197.006255,309.722322 191.699013,309.757253 C186.30742,309.79274 183.904179,308.861822 178.821478,305.541273 C172.272866,301.263038 168.191617,299.666511 160.585537,299.666511 C152.795968,299.666511 147.975969,300.730667 142.631782,303.285927 C141.487726,303.832944 137.298724,306.014634 136.285954,306.512549 C133.590958,307.837509 130.973919,308.942639 127.814067,310.028605 C124.401057,311.201574 121.576394,312.313723 118.900347,313.504595 C117.868259,313.963887 116.902264,314.413982 115.736646,314.972969 C115.642694,315.018025 113.62685,315.991206 113.071919,316.254064 C110.902451,317.281695 109.269278,317.959499 107.225263,318.640087 C104.633367,319.503102 101.475311,320.319313 97.2894125,321.176744 C90.4807219,322.571422 87.1780632,322.630223 81.6256099,321.971599 C75.4281184,321.255155 71.7797614,321.357914 66.0556025,322.637496 C56.4731942,324.779553 45.6774286,329.10631 33.6283713,335.598253 C31.1973535,336.908067 30.2884386,339.940611 31.5982529,342.371629 C32.9080673,344.802646 35.9406109,345.711561 38.3716287,344.401747 Z" id="path-2"></path>
        <filter x="-3.2%" y="-4.1%" width="106.3%" height="112.8%" filterUnits="objectBoundingBox" id="filter-3">
            <feOffset dx="0" dy="8" in="SourceAlpha" result="shadowOffsetOuter1"></feOffset>
            <feGaussianBlur stdDeviation="6" in="shadowOffsetOuter1" result="shadowBlurOuter1"></feGaussianBlur>
            <feColorMatrix values="0 0 0 0 0.1088   0 0 0 0 0.498346667   0 0 0 0 0.64  0 0 0 0.2 0" type="matrix" in="shadowBlurOuter1"></feColorMatrix>
        </filter>
    </defs>
    <g id="Website" stroke="none" stroke-width="1" fill="none" fill-rule="evenodd">
        <g id="Mineunit_768" transform="translate(-43.000000, -2164.000000)" fill-rule="nonzero">
            <g id="Cryptocurrency-market-perspectives" transform="translate(24.000000, 2040.000000)">
                <g id="Cryptocurrencies-capitalization" transform="translate(0.000000, 127.000000)">
                    <g id="Chart">
                        <g id="Blue_768">
                            <use fill="black" fill-opacity="1" filter="url(#filter-3)" xlink:href="#path-2"></use>
                            <use fill="url(#linearGradient-1)" fill-rule="evenodd" xlink:href="#path-2"></use>
                        </g>
                    </g>
                </g>
            </g>
        </g>
    </g>
</svg>