<?xml version="1.0" encoding="UTF-8"?>
<svg width="16px" height="12px" viewBox="0 0 16 12" version="1.1" xmlns="http://www.w3.org/2000/svg" xmlns:xlink="http://www.w3.org/1999/xlink">
    <!-- Generator: Sketch 49.2 (51160) - http://www.bohemiancoding.com/sketch -->
    <title>ic_read</title>
    <desc>Created with Sketch.</desc>
    <defs></defs>
    <g id="Website" stroke="none" stroke-width="1" fill="none" fill-rule="evenodd">
        <g id="Mineunit_Academy_Course_Locked_1440" transform="translate(-185.000000, -250.000000)">
            <g id="Sidebar" transform="translate(114.000000, 128.000000)">
                <g id="Perosnal-Profile">
                    <g id="Section#1" transform="translate(0.000000, 24.000000)">
                        <g id="data" transform="translate(0.000000, 48.000000)">
                            <g id="Latest_Bonus" transform="translate(46.000000, 0.000000)">
                                <g id="Bonus#1" transform="translate(25.000000, 16.000000)">
                                    <g id="Time-for-Read" transform="translate(0.000000, 32.000000)">
                                        <g id="ic_read">
                                            <rect id="Rectangle" x="0" y="0" width="16" height="16"></rect>
                                            <path d="M11.648671,10.9402 C13.0597677,10.9402 14.104929,11.5802 14.7330581,12.1172 L14.9900903,12.3377 L14.9895742,4.7247 L14.9617032,4.6862 C14.9276387,4.6382 14.8853161,4.5802 14.8337032,4.5167 C14.6386065,4.2647 14.4177032,4.0322 14.1808,3.8282 C13.4143484,3.1747 12.5627355,2.8432 11.648671,2.8432 C10.7598968,2.8432 9.93770323,3.1572 9.20325161,3.7767 C8.81821935,4.1077 8.5488,4.4522 8.39086452,4.6832 L8.36505806,4.7212 L8.36505806,12.3117 L8.62260645,12.0907 C9.2331871,11.5657 10.2530581,10.9402 11.6419613,10.9402 L11.648671,10.9402 Z M4.15292903,10.9402 C5.5691871,10.9402 6.61125161,11.5802 7.23576774,12.1172 L7.49331613,12.3387 L7.49331613,4.7277 L7.46854194,4.6907 C7.43809032,4.6447 7.39525161,4.5842 7.34209032,4.5177 C7.23938065,4.3847 7.01486452,4.1137 6.68609032,3.8287 C5.92273548,3.1747 5.07112258,2.8432 4.15396129,2.8432 C3.26260645,2.8432 2.4404129,3.1572 1.70957419,3.7767 C1.29667097,4.1307 1.02363871,4.4972 0.897187097,4.6842 L0.871896774,4.7212 L0.871896774,12.3127 L1.12944516,12.0902 C1.73796129,11.5657 2.7568,10.9402 4.15292903,10.9402 Z M7.47886452,13.6412 C7.44531613,13.5937 7.40092903,13.5307 7.34260645,13.4572 C7.24196129,13.3257 7.02105806,13.0602 6.68609032,12.7692 C5.9248,12.1147 5.0731871,11.7827 4.15396129,11.7827 C3.26105806,11.7837 2.43886452,12.0992 1.70957419,12.7192 C1.29150968,13.0752 1.00454194,13.4592 0.880670968,13.6472 L0.00015483871,13.4297 L0.00015483871,4.6052 L0.068283871,4.3687 C0.115251613,4.2982 0.444025806,3.7547 1.06905806,3.2022 C1.68789677,2.6537 2.7248,2.0002 4.15396129,2.0002 C5.58054194,2.0002 6.63344516,2.6512 7.26570323,3.1977 C7.4644129,3.3717 7.64609032,3.5517 7.80402581,3.7317 L7.92273548,3.8667 L8.0404129,3.7307 C8.20350968,3.5432 8.37950968,3.3652 8.56273548,3.2017 C9.18105806,2.6537 10.2184774,2.0002 11.648671,2.0002 C13.0778323,2.0002 14.1276387,2.6512 14.7568,3.1977 C15.3415742,3.7027 15.680671,4.1987 15.7988645,4.3882 L15.8669935,4.6442 L15.8618323,13.4297 L14.9844129,13.6562 L14.968929,13.6337 C14.9348645,13.5872 14.8915097,13.5262 14.8352516,13.4552 C14.704671,13.2867 14.4837677,13.0287 14.1808,12.7677 C13.4164129,12.1132 12.5642839,11.7817 11.648671,11.7817 C10.7583484,11.7832 9.93563871,12.0982 9.20325161,12.7182 C8.74854194,13.1067 8.46312258,13.5102 8.35783226,13.6717 L7.50570323,13.6797 L7.47886452,13.6412 Z" id="Fill-1" fill="#939DA6"></path>
                                        </g>
                                    </g>
                                </g>
                            </g>
                        </g>
                    </g>
                </g>
            </g>
        </g>
    </g>
</svg>