<?xml version="1.0" encoding="UTF-8"?>
<svg width="11px" height="14px" viewBox="0 0 11 14" version="1.1" xmlns="http://www.w3.org/2000/svg" xmlns:xlink="http://www.w3.org/1999/xlink">
    <!-- Generator: Sketch 49.2 (51160) - http://www.bohemiancoding.com/sketch -->
    <title>ic_lock</title>
    <desc>Created with Sketch.</desc>
    <defs></defs>
    <g id="Website" stroke="none" stroke-width="1" fill="none" fill-rule="evenodd">
        <g id="Mineunit_Academy_Course_Locked_1440" transform="translate(-187.000000, -353.000000)">
            <g id="Sidebar" transform="translate(114.000000, 128.000000)">
                <g id="Perosnal-Profile">
                    <g id="Section#1" transform="translate(0.000000, 24.000000)">
                        <g id="data" transform="translate(0.000000, 48.000000)">
                            <g id="Latest_Bonus" transform="translate(46.000000, 0.000000)">
                                <g id="Bonus#2" transform="translate(25.000000, 96.000000)">
                                    <g id="Time-for-Read" transform="translate(0.000000, 56.000000)">
                                        <g id="ic_lock">
                                            <rect id="Rectangle" x="0" y="0" width="16" height="16"></rect>
                                            <path d="M12.7324103,7.64205792 C12.5541176,7.45643511 12.3377651,7.36369335 12.0830183,7.36369335 L11.7776364,7.36369335 L11.7776364,5.4544948 C11.7776364,4.23481709 11.3576068,3.18756312 10.5172801,2.31255877 C9.67702017,1.43751959 8.67141063,1 7.49994976,1 C6.32852233,1 5.32271212,1.43751959 4.48251913,2.31252394 C3.64219236,3.18756312 3.22216275,4.23478226 3.22216275,5.4544948 L3.22216275,7.36369335 L2.91664714,7.36369335 C2.66210098,7.36369335 2.44561466,7.45643511 2.26735542,7.64205792 C2.08909618,7.82754143 2,8.05297041 2,8.31827522 L2,14.0454878 C2,14.3105488 2.08912962,14.5360474 2.26735542,14.7217051 C2.44561466,14.9071538 2.66210098,15 2.91664714,15 L12.0832524,15 C12.3379992,15 12.5543183,14.9072582 12.7326444,14.7217051 C12.9107365,14.5360474 12.9999999,14.3105488 12.9999999,14.0454878 L12.9999999,8.31817074 C13.0001336,8.05307489 12.9107365,7.82768073 12.7324103,7.64205792 Z M9.94437559,7.36369335 L5.05552393,7.36369335 L5.05552393,5.4544948 C5.05552393,4.75187936 5.29428429,4.1519311 5.77170468,3.65485898 C6.24919195,3.1577172 6.8252402,2.90919855 7.50005009,2.90919855 C8.17492687,2.90919855 8.75084134,3.15768238 9.22836206,3.65485898 C9.70564867,4.15189628 9.94437559,4.75187936 9.94437559,5.4544948 L9.94437559,7.36369335 Z" id="Shape" fill="#939DA6" fill-rule="nonzero"></path>
                                        </g>
                                    </g>
                                </g>
                            </g>
                        </g>
                    </g>
                </g>
            </g>
        </g>
    </g>
</svg>