<?xml version="1.0" encoding="UTF-8"?>
<svg width="14px" height="12px" viewBox="0 0 14 12" version="1.1" xmlns="http://www.w3.org/2000/svg" xmlns:xlink="http://www.w3.org/1999/xlink">
    <!-- Generator: Sketch 49.2 (51160) - http://www.bohemiancoding.com/sketch -->
    <title>ic_like_static</title>
    <desc>Created with Sketch.</desc>
    <defs>
        <linearGradient x1="0%" y1="1.72254642e-14%" x2="100%" y2="100%" id="linearGradient-1">
            <stop stop-color="#A445B2" offset="0%"></stop>
            <stop stop-color="#D41872" offset="51.7099809%"></stop>
            <stop stop-color="#FF0066" offset="100%"></stop>
        </linearGradient>
    </defs>
    <g id="Website" stroke="none" stroke-width="1" fill="none" fill-rule="evenodd">
        <g id="Mineunit_Academy_Course_Locked_1440" transform="translate(-1204.000000, -146.000000)">
            <g id="Course-Title" transform="translate(512.000000, 128.000000)">
                <g id="Likes" transform="translate(676.000000, 8.000000)">
                    <g id="ic_like_static" transform="translate(16.000000, 9.000000)">
                        <rect id="baseline" x="0" y="0" width="14" height="14"></rect>
                        <path d="M10.3504075,1 C9.33218394,1 8.30588347,1.43090909 7.54396576,2.236 L7.00012343,2.81090909 L6.4562811,2.236 C5.69436339,1.43090909 4.66806291,1 3.64983931,1 C2.83461428,1 2.02423536,1.276 1.35870159,1.85690909 C-0.35790172,3.35527273 -0.447824164,6.04709091 1.0883958,7.67090909 L5.51505695,12.3498182 C5.92536176,12.7834545 6.46274259,13 7.00012343,13 C7.53750426,13 8.0748851,12.7834545 8.4851899,12.3498182 L12.9118511,7.67090909 C14.448071,6.04709091 14.3576101,3.35527273 12.6410068,1.85690909 C11.9760115,1.276 11.1656326,1 10.3504075,1 M10.3504075,2.09090909 C10.9448649,2.09090909 11.4946303,2.29545455 11.9383195,2.68327273 C12.5327768,3.20254545 12.881159,3.93618182 12.9193895,4.74945455 C12.95762,5.55836364 12.6716989,6.34818182 12.1343181,6.916 L7.70765691,11.5949091 C7.51596595,11.7972727 7.26450618,11.9090909 7.00012343,11.9090909 C6.73574067,11.9090909 6.4842809,11.7972727 6.29258995,11.5949091 L1.86592879,6.916 C1.32854795,6.34818182 1.04208843,5.55836364 1.08031893,4.74945455 C1.11854943,3.93618182 1.46693159,3.20254545 2.06192741,2.68327273 C2.50615505,2.29545455 3.0548435,2.09090909 3.64983931,2.09090909 C4.39775712,2.09090909 5.13759807,2.41927273 5.67874811,2.99090909 L6.22259044,3.56581818 C6.42558901,3.78072727 6.7061255,3.90181818 7.00012343,3.90181818 C7.2935829,3.90181818 7.57465785,3.78072727 7.77765642,3.56581818 L8.32149875,2.99090909 C8.86264878,2.41927273 9.60195127,2.09090909 10.3504075,2.09090909" id="Fill-1" fill-opacity="0.5" fill="url(#linearGradient-1)" fill-rule="nonzero"></path>
                    </g>
                </g>
            </g>
        </g>
    </g>
</svg>