<?xml version="1.0" encoding="UTF-8"?>
<svg width="14px" height="12px" viewBox="0 0 14 12" version="1.1" xmlns="http://www.w3.org/2000/svg" xmlns:xlink="http://www.w3.org/1999/xlink">
    <!-- Generator: Sketch 49.2 (51160) - http://www.bohemiancoding.com/sketch -->
    <title>ic_like_active</title>
    <desc>Created with Sketch.</desc>
    <defs>
        <linearGradient x1="100%" y1="100%" x2="0%" y2="6.123234e-15%" id="linearGradient-1">
            <stop stop-color="#A445B2" offset="0%"></stop>
            <stop stop-color="#D41872" offset="51.7099809%"></stop>
            <stop stop-color="#FF0066" offset="100%"></stop>
        </linearGradient>
    </defs>
    <g id="Website" stroke="none" stroke-width="1" fill="none" fill-rule="evenodd">
        <g id="Mineunit_Academy_Course_Locked_1440" transform="translate(-1203.000000, -146.000000)">
            <g id="Course-Title" transform="translate(512.000000, 128.000000)">
                <g id="Likes" transform="translate(676.000000, 8.000000)">
                    <g id="ic_like_active" transform="translate(15.000000, 9.000000)">
                        <rect id="baseline" x="0" y="0" width="14" height="14"></rect>
                        <path d="M10.3504075,1 C9.33218394,1 8.30588347,1.43090909 7.54396576,2.236 L7.00012343,2.81090909 L6.4562811,2.236 C5.69436339,1.43090909 4.66806291,1 3.64983931,1 C2.83461428,1 2.02423536,1.276 1.35870159,1.85690909 C-0.35790172,3.35527273 -0.447824164,6.04709091 1.0883958,7.67090909 L5.51505695,12.3498182 C5.92536176,12.7834545 6.46274259,13 7.00012343,13 C7.53750426,13 8.0748851,12.7834545 8.4851899,12.3498182 L12.9118511,7.67090909 C14.448071,6.04709091 14.3576101,3.35527273 12.6410068,1.85690909 C11.9760115,1.276 11.1656326,1 10.3504075,1" id="Fill-1" fill="url(#linearGradient-1)" fill-rule="nonzero"></path>
                    </g>
                </g>
            </g>
        </g>
    </g>
</svg>