<?xml version="1.0" encoding="UTF-8"?>
<svg width="14px" height="14px" viewBox="0 0 14 14" version="1.1" xmlns="http://www.w3.org/2000/svg" xmlns:xlink="http://www.w3.org/1999/xlink">
    <!-- Generator: Sketch 49.2 (51160) - http://www.bohemiancoding.com/sketch -->
    <title>ic_time copy</title>
    <desc>Created with Sketch.</desc>
    <defs></defs>
    <g id="Website" stroke="none" stroke-width="1" fill="none" fill-rule="evenodd">
        <g id="Mineunit_Academy_Course_1440" transform="translate(-537.000000, -1093.000000)">
            <g id="Post#1-Copy-6" transform="translate(512.000000, 592.000000)">
                <g id="Content" transform="translate(24.000000, 252.000000)">
                    <g id="Publish-Date" transform="translate(0.000000, 248.000000)">
                        <g id="ic_time-copy">
                            <rect id="Rectangle" x="0" y="0" width="16" height="16"></rect>
                            <path d="M8,14.9162393 C11.8290598,14.9162393 14.9282051,11.8051282 14.9282051,7.98803419 C14.9282051,4.15897436 11.817094,1.05982906 8,1.05982906 C4.18290598,1.05982906 1.07179487,4.15897436 1.07179487,7.98803419 C1.07179487,11.8051282 4.17094017,14.9162393 8,14.9162393 Z M8,2.02905983 C11.2905983,2.02905983 13.9589744,4.6974359 13.9589744,7.98803419 C13.9589744,11.2786325 11.2905983,13.9470085 8,13.9470085 C4.70940171,13.9470085 2.04102564,11.2666667 2.04102564,7.98803419 C2.04102564,4.6974359 4.70940171,2.02905983 8,2.02905983 Z" id="Shape" fill="#939DA6" fill-rule="nonzero"></path>
                            <path d="M7.67692308,8.8017094 L9.98632479,8.8017094 C10.2615385,8.8017094 10.4769231,8.58632479 10.4769231,8.31111111 C10.4769231,8.03589744 10.2615385,7.82051282 9.98632479,7.82051282 L8.16752137,7.82051282 L8.16752137,4.97264957 C8.16752137,4.6974359 7.95213675,4.48205128 7.67692308,4.48205128 C7.4017094,4.48205128 7.18632479,4.6974359 7.18632479,4.97264957 L7.18632479,8.31111111 C7.18632479,8.58632479 7.4017094,8.8017094 7.67692308,8.8017094 Z" id="Shape" fill="#939DA6" fill-rule="nonzero"></path>
                        </g>
                    </g>
                </g>
            </g>
        </g>
    </g>
</svg>