<?xml version="1.0" encoding="UTF-8"?>
<svg width="37px" height="47px" viewBox="0 0 37 47" version="1.1" xmlns="http://www.w3.org/2000/svg" xmlns:xlink="http://www.w3.org/1999/xlink">
    <!-- Generator: Sketch 49.2 (51160) - http://www.bohemiancoding.com/sketch -->
    <title>ic_zip</title>
    <desc>Created with Sketch.</desc>
    <defs></defs>
    <g id="Website" stroke="none" stroke-width="1" fill="none" fill-rule="evenodd">
        <g id="Mineunit_Academy_Course_Locked_1440" transform="translate(-573.000000, -1736.000000)">
            <g id="Course-Details" transform="translate(512.000000, 224.000000)">
                <g id="Content" transform="translate(40.000000, 464.000000)">
                    <g id="Exercise-Files" transform="translate(0.000000, 904.000000)">
                        <g id="ic_zip" transform="translate(16.000000, 144.000000)">
                            <rect id="baseline" x="0" y="0" width="47" height="47"></rect>
                            <path d="M23.0978261,26.7413793 C24.4282174,26.7413793 25.5108696,25.6506552 25.5108696,24.3103448 L25.5108696,21.8793103 L20.6847826,21.8793103 L20.6847826,24.3103448 C20.6847826,25.6506552 21.7674348,26.7413793 23.0978261,26.7413793 Z M22.2934783,23.5 L23.9021739,23.5 C24.3461739,23.5 24.7065217,23.8622241 24.7065217,24.3103448 C24.7065217,24.7584655 24.3461739,25.1206897 23.9021739,25.1206897 L22.2934783,25.1206897 C21.8494783,25.1206897 21.4891304,24.7584655 21.4891304,24.3103448 C21.4891304,23.8622241 21.8494783,23.5 22.2934783,23.5 Z" id="Shape" fill="#C1CED9" fill-rule="nonzero"></path>
                            <path d="M41.5978261,31.6034483 L41.5978261,11.327 C41.5978261,10.7062759 41.5238261,10.2468103 41.1554348,9.87486207 L31.7952391,0.445689655 C31.5145217,0.16287931 31.1252174,0 30.7270652,0 L7.38328261,0 C6.42932609,0 5.40217391,0.742275862 5.40217391,2.37106897 L5.40217391,31.6034483 L41.5978261,31.6034483 Z M30.3369565,2.74787931 C30.3369565,2.37674138 30.7817609,2.19117241 31.0423696,2.45372414 L39.1622609,10.6341552 C39.4228696,10.8967069 39.2386739,11.3448276 38.8702826,11.3448276 L30.3369565,11.3448276 L30.3369565,2.74787931 Z M19.076087,20.2586207 L22.2934783,20.2586207 L22.2934783,18.637931 L20.6847826,18.637931 L20.6847826,17.0172414 L22.2934783,17.0172414 L22.2934783,15.3965517 L20.6847826,15.3965517 L20.6847826,13.7758621 L22.2934783,13.7758621 L22.2934783,12.1551724 L20.6847826,12.1551724 L20.6847826,10.5344828 L22.2934783,10.5344828 L22.2934783,8.9137931 L20.6847826,8.9137931 L20.6847826,7.29310345 L22.2934783,7.29310345 L22.2934783,5.67241379 L23.9021739,5.67241379 L23.9021739,7.29310345 L25.5108696,7.29310345 L25.5108696,8.9137931 L23.9021739,8.9137931 L23.9021739,10.5344828 L25.5108696,10.5344828 L25.5108696,12.1551724 L23.9021739,12.1551724 L23.9021739,13.7758621 L25.5108696,13.7758621 L25.5108696,15.3965517 L23.9021739,15.3965517 L23.9021739,17.0172414 L25.5108696,17.0172414 L25.5108696,18.637931 L23.9021739,18.637931 L23.9021739,20.2586207 L27.1195652,20.2586207 L27.1195652,24.3103448 C27.1195652,26.5444655 25.315413,28.362069 23.0978261,28.362069 C20.8802391,28.362069 19.076087,26.5444655 19.076087,24.3103448 L19.076087,20.2586207 Z" id="Shape" fill="#C1CED9" fill-rule="nonzero"></path>
                            <path d="M30.1366739,37.1607931 C30.0224565,37.0019655 29.8631957,36.869069 29.658087,36.7621034 C29.4529783,36.6551379 29.1811087,36.6016552 28.844087,36.6016552 L27.8547391,36.6016552 L27.8547391,39.8365517 L29.0644783,39.8365517 C29.2253478,39.8365517 29.3846087,39.809 29.5430652,39.7530862 C29.7007174,39.6979828 29.8455,39.6072241 29.977413,39.4816207 C30.1093261,39.3560172 30.2155,39.1809828 30.2959348,38.9557069 C30.3763696,38.730431 30.416587,38.4516724 30.416587,38.119431 C30.416587,37.9865345 30.398087,37.832569 30.3618913,37.6599655 C30.3248913,37.4865517 30.250087,37.320431 30.1366739,37.1607931 Z" id="Shape" fill="#C1CED9" fill-rule="nonzero"></path>
                            <path d="M5.40217391,33.2241379 L5.40217391,45.3793103 C5.40217391,46.1969483 6.38347826,47 7.38328261,47 L39.6167174,47 C40.6165217,47 41.5978261,46.1969483 41.5978261,45.3793103 L41.5978261,33.2241379 L5.40217391,33.2241379 Z M21.300913,36.6681034 L17.4408478,42.5066379 L17.2212609,42.6841034 L21.300913,42.6841034 L21.300913,43.7586207 L15.912587,43.7586207 L15.912587,42.6841034 L19.7726522,36.845569 L20.0035,36.6681034 L15.912587,36.6681034 L15.912587,35.5935862 L21.300913,35.5935862 L21.300913,36.6681034 Z M24.5223261,43.7586207 L23.1806739,43.7586207 L23.1806739,35.5935862 L24.5223261,35.5935862 L24.5223261,43.7586207 Z M31.4839565,39.2441897 C31.3448043,39.5804828 31.1501522,39.8632931 30.9008043,40.0918103 C30.6514565,40.3203276 30.3506304,40.4977931 29.9991304,40.6233966 C29.6476304,40.749 29.2583261,40.8113966 28.8336304,40.8113966 L27.8547391,40.8113966 L27.8547391,43.7586207 L26.5348043,43.7586207 L26.5348043,35.5935862 L28.8658043,35.5935862 C29.2100652,35.5935862 29.5511087,35.6486897 29.8881304,35.7597069 C30.2251522,35.8707241 30.527587,36.0368448 30.7954348,36.258069 C31.0632826,36.4792931 31.2796522,36.7475172 31.4445435,37.0611207 C31.6094348,37.3747241 31.6922826,37.7272241 31.6922826,38.119431 C31.693087,38.5335172 31.6231087,38.9078966 31.4839565,39.2441897 Z" id="Shape" fill="#C1CED9" fill-rule="nonzero"></path>
                        </g>
                    </g>
                </g>
            </g>
        </g>
    </g>
</svg>