<?xml version="1.0" encoding="UTF-8"?>
<svg width="24px" height="24px" viewBox="0 0 24 24" version="1.1" xmlns="http://www.w3.org/2000/svg" xmlns:xlink="http://www.w3.org/1999/xlink">
    <!-- Generator: Sketch 49.2 (51160) - http://www.bohemiancoding.com/sketch -->
    <title>ic_pdf</title>
    <desc>Created with Sketch.</desc>
    <defs>
        <linearGradient x1="0%" y1="9.24682617%" x2="100%" y2="100%" id="linearGradient-1">
            <stop stop-color="#0090FF" offset="0%"></stop>
            <stop stop-color="#0066FF" offset="100%"></stop>
        </linearGradient>
    </defs>
    <g id="Page-1" stroke="none" stroke-width="1" fill="none" fill-rule="evenodd">
        <g id="ic_pdf">
            <rect id="Rectangle-11" x="0" y="0" width="24" height="24"></rect>
            <path d="M20.7862304,5.11319834 C20.9231195,5.25101871 21,5.43767947 21,5.63263776 L21,21.7959031 C21,23.0116995 20.0183931,24 18.8108412,24 L5.18920439,24 C3.9816228,24 3,23.0117155 3,21.795949 L3,2.20409694 C3,0.988300506 3.98160692,0 5.18915878,0 L15.405375,0 C15.5990525,0 15.7844547,0.0773970371 15.9213503,0.21522385 L20.7862304,5.11319834 Z M16.1351199,2.50834312 L16.1351199,4.16329592 C16.1351199,4.56804251 16.4628226,4.89797449 16.8648345,4.89797449 L18.5086051,4.89797449 L16.1351199,2.50834312 Z M5.18920439,1.46941837 C4.78719257,1.46941837 4.45948986,1.79935035 4.45948986,2.20409694 L4.45948986,21.7959031 C4.45948986,22.2006497 4.78719257,22.5305816 5.18920439,22.5305816 L18.8108412,22.5305816 C19.212853,22.5305816 19.5405557,22.2006497 19.5405557,21.7959031 L19.5405557,6.36734694 L16.8648801,6.36734694 C15.6572985,6.36734694 14.6756757,5.37906242 14.6756757,4.16329592 L14.6756757,1.46941837 L5.18920439,1.46941837 Z" id="Shape" fill="url(#linearGradient-1)" fill-rule="nonzero"></path>
            <polygon id="Path" fill="url(#linearGradient-1)" points="14.1423302 11.4352114 14.8835565 11.4352114 14.0282877 14.9700711 12.9162973 10 11.1298764 10 9.8369805 14.9700711 8.86763552 10 7 10 8.89610424 18 10.7208858 18 12.0000335 13.2690787 13.1444159 18 14.8266526 18 17 10 14.1422967 10 14.1422967 11.4352114"></polygon>
        </g>
    </g>
</svg>