<?xml version="1.0" encoding="UTF-8"?>
<svg width="48px" height="44px" viewBox="0 0 48 44" version="1.1" xmlns="http://www.w3.org/2000/svg" xmlns:xlink="http://www.w3.org/1999/xlink">
    <!-- Generator: Sketch 49.2 (51160) - http://www.bohemiancoding.com/sketch -->
    <title>ic_error</title>
    <desc>Created with Sketch.</desc>
    <defs></defs>
    <g id="Modal-Windows" stroke="none" stroke-width="1" fill="none" fill-rule="evenodd">
        <g id="Modal_Error" transform="translate(-696.000000, -174.000000)">
            <g id="Popup_Error" transform="translate(400.000000, 124.000000)">
                <g id="ic_error" transform="translate(296.000000, 48.000000)">
                    <rect id="baseline" x="0" y="0" width="48" height="48"></rect>
                    <path d="M46.7900924,41.5376262 C45.1755528,44.3297993 42.2977959,46 39.097309,46 L8.86269768,46 C5.67699212,46 2.81657007,44.3536475 1.21891978,41.6065124 C-0.395667034,38.8347138 -0.406812881,35.5047042 1.18891556,32.7096935 L16.3438648,6.44537199 C17.931432,3.66720866 20.8024964,2 24.0090007,2 C27.224093,2 30.091515,3.66509355 31.6731351,6.45330218 L46.8097093,32.6902667 C48.4041829,35.4523995 48.395822,38.763475 46.7900924,41.5376262 Z M43.5041161,39.6407536 C44.4213839,38.0501132 44.4330472,36.1618878 43.5334499,34.5969044 L28.3867747,8.33983554 C27.4795887,6.74815682 25.8384047,5.79237938 24.0090007,5.79237938 C22.1700018,5.79237938 20.5384481,6.73842034 19.6299644,8.33236251 L4.47532531,34.5864668 C3.55892903,36.1862558 3.56474749,38.0935039 4.4848879,39.6891258 C5.39213186,41.2595271 7.03070794,42.1979462 8.85303188,42.1979462 L39.0876432,42.1979462 C40.9261884,42.1979462 42.5757226,41.2428652 43.5041161,39.6407536 Z M23.9993349,33.210394 C22.9555962,33.210394 22.0726832,34.0940963 22.0726832,35.1401144 C22.0726832,36.1861325 22.9555962,37.0698348 23.9993349,37.0698348 C25.0088463,37.0698348 25.912642,36.1776913 25.8684201,35.1777225 C25.9140038,34.0903395 25.0634348,33.210394 23.9993349,33.210394 Z M22.0229553,18.3470661 C22.0472303,18.6669727 22.0654049,18.9236655 22.1053519,19.5015976 C22.1451477,20.0773421 22.1632199,20.3325883 22.1878977,20.659013 C22.2563568,21.8722263 22.3111262,22.8355771 22.4343598,24.9977222 C22.557604,27.1600505 22.6123803,28.1235252 22.6807878,29.3358455 C22.7235149,30.0628562 23.2714439,30.5782875 23.9993349,30.5782875 C24.7168919,30.5782875 25.2815783,30.0257972 25.3170415,29.3064288 C25.3170415,28.8990725 25.3179493,28.7223011 25.3225929,28.4983705 C25.3300606,28.1382537 25.3467243,27.8200583 25.3758255,27.5179384 C25.4201589,26.7393938 25.4568248,26.1167258 25.5402172,24.7159321 C25.6235598,23.3159762 25.6601928,22.6938667 25.7042335,21.9208066 C25.728605,21.4126143 25.7541132,21.0073598 25.8159523,20.0971479 C25.8773521,19.1934028 25.9025893,18.7924542 25.9259867,18.3162681 C25.9259867,17.9143171 25.8707515,17.599767 25.7475019,17.3091052 C25.3553133,16.4470584 24.4481373,16.0036955 23.5238177,16.2160662 C22.6075125,16.4834867 22.0243486,17.3205145 22.0229553,18.3470661 Z" id="Shape" fill="#FFFFFF" fill-rule="nonzero"></path>
                </g>
            </g>
        </g>
    </g>
</svg>