<?xml version="1.0" encoding="UTF-8"?>
<svg width="48px" height="48px" viewBox="0 0 48 48" version="1.1" xmlns="http://www.w3.org/2000/svg" xmlns:xlink="http://www.w3.org/1999/xlink">
    <!-- Generator: Sketch 49.2 (51160) - http://www.bohemiancoding.com/sketch -->
    <title>ic_info</title>
    <desc>Created with Sketch.</desc>
    <defs></defs>
    <g id="Modal-Windows" stroke="none" stroke-width="1" fill="none" fill-rule="evenodd">
        <g id="Modal_Info" transform="translate(-696.000000, -172.000000)">
            <g id="Popup_Info" transform="translate(400.000000, 124.000000)">
                <g id="ic_info" transform="translate(296.000000, 48.000000)">
                    <rect id="baseline" x="0" y="0" width="48" height="48"></rect>
                    <path d="M24,0 C10.7664,0 0,10.7665455 0,24.0001455 C0,37.2337455 10.7664,48 24,48 C37.2336,48 48,37.2337455 48,24.0001455 C48,10.7665455 37.2336,0 24,0 Z M24,43.6363636 C13.1723636,43.6363636 4.36363636,34.8276364 4.36363636,24.0001455 C4.36363636,13.1726545 13.1723636,4.36363636 24,4.36363636 C34.8276364,4.36363636 43.6363636,13.1726545 43.6363636,24.0001455 C43.6363636,34.8276364 34.8274909,43.6363636 24,43.6363636 Z M23.9997091,10.1818182 C22.3959273,10.1818182 21.0912,11.4874182 21.0912,13.0922182 C21.0912,14.6955636 22.3959273,16 23.9997091,16 C25.6034909,16 26.9082182,14.6955636 26.9082182,13.0922182 C26.9082182,11.4874182 25.6034909,10.1818182 23.9997091,10.1818182 Z M24,20.3636364 C22.7950545,20.3636364 21.8181818,21.3405091 21.8181818,22.5454545 L21.8181818,35.6363636 C21.8181818,36.8413091 22.7950545,37.8181818 24,37.8181818 C25.2049455,37.8181818 26.1818182,36.8413091 26.1818182,35.6363636 L26.1818182,22.5454545 C26.1818182,21.3405091 25.2049455,20.3636364 24,20.3636364 Z" id="Shape" fill="#FFFFFF" fill-rule="nonzero"></path>
                </g>
            </g>
        </g>
    </g>
</svg>