<?xml version="1.0" encoding="UTF-8"?>
<svg width="24px" height="24px" viewBox="0 0 24 24" version="1.1" xmlns="http://www.w3.org/2000/svg" xmlns:xlink="http://www.w3.org/1999/xlink">
    <!-- Generator: Sketch 49.2 (51160) - http://www.bohemiancoding.com/sketch -->
    <title>ic_pdf</title>
    <desc>Created with Sketch.</desc>
    <defs>
        <linearGradient x1="100%" y1="100%" x2="0%" y2="0%" id="linearGradient-1">
            <stop stop-color="#FF7676" offset="0%"></stop>
            <stop stop-color="#F54EA2" offset="100%"></stop>
        </linearGradient>
    </defs>
    <g id="Page-1" stroke="none" stroke-width="1" fill="none" fill-rule="evenodd">
        <g id="ic_pdf">
            <rect id="Rectangle-11" x="0" y="0" width="24" height="24"></rect>
            <path d="M20.7862304,5.11319834 C20.9231195,5.25101871 21,5.43767947 21,5.63263776 L21,21.7959031 C21,23.0116995 20.0183931,24 18.8108412,24 L5.18920439,24 C3.9816228,24 3,23.0117155 3,21.795949 L3,2.20409694 C3,0.988300506 3.98160692,0 5.18915878,0 L15.405375,0 C15.5990525,0 15.7844547,0.0773970371 15.9213503,0.21522385 L20.7862304,5.11319834 Z M16.1351199,2.50834312 L16.1351199,4.16329592 C16.1351199,4.56804251 16.4628226,4.89797449 16.8648345,4.89797449 L18.5086051,4.89797449 L16.1351199,2.50834312 Z M5.18920439,1.46941837 C4.78719257,1.46941837 4.45948986,1.79935035 4.45948986,2.20409694 L4.45948986,21.7959031 C4.45948986,22.2006497 4.78719257,22.5305816 5.18920439,22.5305816 L18.8108412,22.5305816 C19.212853,22.5305816 19.5405557,22.2006497 19.5405557,21.7959031 L19.5405557,6.36734694 L16.8648801,6.36734694 C15.6572985,6.36734694 14.6756757,5.37906242 14.6756757,4.16329592 L14.6756757,1.46941837 L5.18920439,1.46941837 Z" id="Shape" fill="url(#linearGradient-1)" fill-rule="nonzero"></path>
            <path d="M14.480397,14.6235459 C15.1693074,14.5073265 15.6956706,14.4489643 15.8918767,14.4489184 C16.5237314,14.4489184 17.8378378,14.4489184 17.8378378,15.6069337 C17.8378378,16.1957449 17.5846216,16.8979286 16.3783784,16.8979286 C15.9427297,16.8979286 15.0433834,16.2947449 14.2290963,15.6643316 C13.212902,15.8551684 11.9253851,16.1598827 10.8897162,16.5712194 C9.89203885,18.6203265 8.52616723,19.8367041 7.62162162,19.8367041 C6.91994088,19.8367041 6.16216216,19.401949 6.16216216,18.6997653 C6.16216216,17.7326327 7.18834459,17.2428214 8.74189358,16.5023878 C9.08254054,16.3397449 9.44977703,16.1647041 9.83648818,15.9700102 C9.94384966,15.9159643 10.0550422,15.8638469 10.1695186,15.812648 C10.310174,15.4959949 10.4431672,15.1535357 10.5657618,14.783801 C10.8203919,14.0132449 11.0470186,13.3297041 11.2398953,12.7370816 C10.4517416,11.7058469 10.0540845,10.8185663 10.0540845,10.0876837 C10.0540845,8.42980102 10.8479392,8.08160204 11.5135439,8.08160204 C12.3895845,8.08160204 12.9730034,8.41501531 12.9730034,10.040801 C12.9730034,10.4234847 12.7767973,11.1414184 12.3292449,12.533801 C12.6161655,12.8781888 12.9463682,13.2397959 13.3169341,13.6128827 C13.6019848,13.8998724 14.0300169,14.2667143 14.480397,14.6235459 Z M7.62162162,18.8571276 C7.89764189,18.8571276 8.62025676,18.3625867 9.35094426,17.2959031 C9.28586149,17.3269898 9.22169088,17.3571582 9.15852365,17.3872806 C8.16367399,17.8617551 7.13511993,18.3524847 7.13511993,18.6997653 C7.15555236,18.7251122 7.34368581,18.8571276 7.62162162,18.8571276 Z M11.0270422,10.0876837 C11.0270422,10.4708265 11.2308193,10.9783163 11.6128328,11.5704796 C11.8632213,10.7640153 12.0000456,10.2474337 12.0000456,10.040801 C12.0000456,9.06122449 11.8575203,9.06122449 11.5135439,9.06122449 C11.3434713,9.06122449 11.0270422,9.06122449 11.0270422,10.0876837 Z M11.3999797,15.3520408 C12.0099882,15.1573469 12.648,14.9942449 13.2476554,14.8626888 C12.9464139,14.6039388 12.7202889,14.3973061 12.6290726,14.3054694 C12.3957872,14.0706429 12.1781909,13.8415102 11.9762838,13.6176582 C11.8313868,14.0586582 11.6688851,14.5484694 11.4883682,15.09375 C11.4598632,15.1808112 11.4304003,15.2669082 11.3999797,15.3520408 Z M16.8648801,15.6069796 C16.8145287,15.4993469 16.6107061,15.4285867 15.8918767,15.4285867 C15.8348666,15.4285867 15.7336622,15.4362551 15.5963818,15.4515459 C15.9745642,15.710801 16.2810051,15.8925459 16.4135422,15.9212449 C16.8648801,15.918352 16.8648801,15.8270204 16.8648801,15.6069796 Z" id="Combined-Shape" fill="url(#linearGradient-1)"></path>
        </g>
    </g>
</svg>