<?xml version="1.0" encoding="UTF-8"?>
<svg width="48px" height="48px" viewBox="0 0 48 48" version="1.1" xmlns="http://www.w3.org/2000/svg" xmlns:xlink="http://www.w3.org/1999/xlink">
    <!-- Generator: Sketch 49.2 (51160) - http://www.bohemiancoding.com/sketch -->
    <title>ic_thankyou</title>
    <desc>Created with Sketch.</desc>
    <defs></defs>
    <g id="Modal-Windows" stroke="none" stroke-width="1" fill="none" fill-rule="evenodd">
        <g id="Modal_Confirmed" transform="translate(-696.000000, -172.000000)">
            <g id="Popup_Thankyou" transform="translate(400.000000, 124.000000)">
                <g id="ic_thankyou" transform="translate(296.000000, 48.000000)">
                    <rect id="baseline" x="0" y="0" width="48" height="48"></rect>
                    <path d="M23.9815815,35.5856897 C23.3846903,35.5815517 22.8033161,35.3363793 22.3853887,34.9132759 L11.9113432,24.3387931 C11.0268682,23.4481034 11.0330751,22.005 11.9237569,21.1205172 C12.352029,20.6974138 12.9230584,20.4636207 13.5282255,20.4636207 C14.1395994,20.4636207 14.7126978,20.7025862 15.1409699,21.1360345 L23.7922729,29.8660345 L43.9283021,3.98224138 C44.362781,3.42465517 45.0186373,3.10396552 45.7282862,3.10396552 C46.2372473,3.10396552 46.719312,3.26948276 47.1217222,3.58189655 C47.601718,3.95431034 47.9079222,4.49327586 47.9824043,5.09741379 C48.0568864,5.70051724 47.8934396,6.29431034 47.5199946,6.7712069 L25.7950138,34.7043103 C25.3926036,35.2205172 24.788471,35.5401724 24.1367526,35.5784483 L23.9815815,35.5856897 Z M24,48 C10.7668966,48 0,37.2331034 0,24 C0,10.7658621 10.7668966,0 24,0 C26.8893103,0 29.7186207,0.51 32.4093103,1.51448276 C32.9782759,1.72758621 33.4293103,2.14862069 33.6806897,2.70206897 C33.9331034,3.25655172 33.9548276,3.87517241 33.7417241,4.44413793 C33.4117241,5.33068966 32.5593103,5.92655172 31.622069,5.92655172 C31.3489655,5.92655172 31.0768966,5.87689655 30.8162069,5.77758621 C28.6396552,4.96344828 26.3472414,4.55172414 24,4.55172414 C13.2765517,4.55172414 4.55275862,13.2765517 4.55275862,24 C4.55275862,34.7234483 13.2765517,43.4482759 24,43.4482759 C34.7234483,43.4482759 43.4482759,34.7234483 43.4482759,24 C43.4482759,22.7451724 44.4693103,21.7241379 45.7241379,21.7241379 C46.9789655,21.7241379 48,22.7451724 48,24 C48,37.2331034 37.2331034,48 24,48 Z" id="Combined-Shape" fill="#FFFFFF"></path>
                </g>
            </g>
        </g>
    </g>
</svg>