<?xml version="1.0" encoding="UTF-8"?>
<svg width="15px" height="20px" viewBox="0 0 15 20" version="1.1" xmlns="http://www.w3.org/2000/svg" xmlns:xlink="http://www.w3.org/1999/xlink">
    <!-- Generator: Sketch 48.2 (47327) - http://www.bohemiancoding.com/sketch -->
    <title>ic_id</title>
    <desc>Created with Sketch.</desc>
    <defs></defs>
    <g id="Thank_You_1440" stroke="none" stroke-width="1" fill="none" fill-rule="evenodd" transform="translate(-585.000000, -585.000000)">
        <g id="Group-3" transform="translate(160.000000, 578.000000)" fill="#372899" fill-rule="nonzero">
            <g id="ic_id" transform="translate(425.000000, 7.000000)">
                <path d="M7.5,6.25 C6.12125,6.25 5,7.37125 5,8.75 C5,10.12875 6.12125,11.25 7.5,11.25 C8.87875,11.25 10,10.12875 10,8.75 C10,7.37125 8.87875,6.25 7.5,6.25 Z M7.5,10 C6.81,10 6.25,9.43875 6.25,8.75 C6.25,8.06125 6.81,7.5 7.5,7.5 C8.19,7.5 8.75,8.06125 8.75,8.75 C8.75,9.43875 8.19,10 7.5,10 Z" id="Shape"></path>
                <path d="M8.125,11.25 L7.5,11.25 L6.875,11.25 C5.15125,11.25 3.75,12.6525 3.75,14.375 C3.75,14.72 4.03,15 4.375,15 L10.625,15 C10.97,15 11.25,14.72 11.25,14.375 C11.25,12.6525 9.84875,11.25 8.125,11.25 Z M5.1075,13.75 C5.365,13.0225 6.06,12.5 6.875,12.5 L8.125,12.5 C8.94,12.5 9.635,13.0225 9.8925,13.75 L5.1075,13.75 Z" id="Shape"></path>
                <path d="M13.75,2.5 L11.875,2.5 C11.53,2.5 11.25,2.78 11.25,3.125 C11.25,3.47 11.53,3.75 11.875,3.75 L13.75,3.75 L13.75,18.75 L1.25,18.75 L1.25,3.75 L3.125,3.75 C3.47,3.75 3.75,3.47 3.75,3.125 C3.75,2.78 3.47,2.5 3.125,2.5 L1.25,2.5 C0.56,2.5 0,3.06125 0,3.75 L0,18.75 C0,19.43875 0.56,20 1.25,20 L13.75,20 C14.44,20 15,19.43875 15,18.75 L15,3.75 C15,3.06125 14.44,2.5 13.75,2.5 Z" id="Shape"></path>
                <path d="M7.5,0 C6.12125,0 5,1.12125 5,2.5 L5,4.375 C5,4.72 5.28,5 5.625,5 L9.375,5 C9.72,5 10,4.72 10,4.375 L10,2.5 C10,1.12125 8.87875,0 7.5,0 Z M8.75,3.75 L6.25,3.75 L6.25,2.5 C6.25,1.81125 6.81,1.25 7.5,1.25 C8.19,1.25 8.75,1.81125 8.75,2.5 L8.75,3.75 Z" id="Shape"></path>
                <path d="M10.625,16.25 L4.375,16.25 C4.03,16.25 3.75,16.53 3.75,16.875 C3.75,17.22 4.03,17.5 4.375,17.5 L10.625,17.5 C10.97,17.5 11.25,17.22 11.25,16.875 C11.25,16.53 10.97,16.25 10.625,16.25 Z" id="Shape"></path>
            </g>
        </g>
    </g>
</svg>