<?xml version="1.0" encoding="UTF-8"?>
<svg width="16px" height="16px" viewBox="0 0 16 16" version="1.1" xmlns="http://www.w3.org/2000/svg" xmlns:xlink="http://www.w3.org/1999/xlink">
    <!-- Generator: Sketch 49.2 (51160) - http://www.bohemiancoding.com/sketch -->
    <title>Shape</title>
    <desc>Created with Sketch.</desc>
    <defs></defs>
    <g id="Visual-Design_1440" stroke="none" stroke-width="1" fill="none" fill-rule="evenodd">
        <g id="Personal_Settings_1440" transform="translate(-864.000000, -818.000000)" fill="#939DA6" fill-rule="nonzero">
            <g id="Content" transform="translate(544.000000, 128.000000)">
                <g id="Fileds" transform="translate(0.000000, 184.000000)">
                    <g id="Contact-Details" transform="translate(0.000000, 462.000000)">
                        <g id="Email">
                            <g id="Button_Buy" transform="translate(0.000000, 28.000000)">
                                <path d="M328,16 C323.578406,16 320,19.578 320,24 C320,28.4215313 323.578,32 328,32 C332.421594,32 336,28.422 336,24 C336,19.5784063 332.422,16 328,16 Z M328,30.8837187 C324.204313,30.8837187 321.116281,27.7957187 321.116281,24 C321.116281,20.2042813 324.204313,17.1162813 328,17.1162813 C331.795719,17.1162813 334.883719,20.2042813 334.883719,24 C334.883719,27.7957187 331.795719,30.8837187 328,30.8837187 Z M327.763281,26.122625 C327.321,26.122625 326.962969,26.4911875 326.962969,26.9334375 C326.962969,27.3652188 327.310469,27.7443125 327.763281,27.7443125 C328.216094,27.7443125 328.574094,27.3652188 328.574094,26.9334375 C328.574094,26.4911875 328.205531,26.122625 327.763281,26.122625 Z M327.900156,19.9834063 C326.478531,19.9834063 325.825656,20.825875 325.825656,21.3945 C325.825656,21.8051875 326.173156,21.99475 326.457469,21.99475 C327.026125,21.99475 326.794469,21.183875 327.868562,21.183875 C328.395062,21.183875 328.816312,21.4155625 328.816312,21.8999687 C328.816312,22.4685938 328.226594,22.7950313 327.879094,23.089875 C327.573688,23.3530937 327.173563,23.784875 327.173563,24.6905 C327.173563,25.2380625 327.321,25.3960313 327.752719,25.3960313 C328.268687,25.3960313 328.374,25.164375 328.374,24.96425 C328.374,24.4166875 328.384531,24.1007813 328.963719,23.6479688 C329.248031,23.4268437 330.143094,22.71075 330.143094,21.7209062 C330.143094,20.7310625 329.248031,19.9834063 327.900156,19.9834063 Z" id="Shape"></path>
                            </g>
                        </g>
                    </g>
                </g>
            </g>
        </g>
    </g>
</svg>