<?xml version="1.0" encoding="UTF-8"?>
<svg width="16px" height="16px" viewBox="0 0 16 16" version="1.1" xmlns="http://www.w3.org/2000/svg" xmlns:xlink="http://www.w3.org/1999/xlink">
    <!-- Generator: Sketch 46.1 (44463) - http://www.bohemiancoding.com/sketch -->
    <title>instagram</title>
    <desc>Created with Sketch.</desc>
    <defs></defs>
    <g id="Page-1" stroke="none" stroke-width="1" fill="none" fill-rule="evenodd">
        <g id="instagram" fill-rule="nonzero" fill="#F7FBFB">
            <path d="M8,4 C5.8125,4 4,5.78125 4,8 C4,10.21875 5.78125,12 8,12 C10.21875,12 12,10.1875 12,8 C12,5.8125 10.1875,4 8,4 Z M8,10.5625 C6.59375,10.5625 5.4375,9.40625 5.4375,8 C5.4375,6.59375 6.59375,5.4375 8,5.4375 C9.40625,5.4375 10.5625,6.59375 10.5625,8 C10.5625,9.40625 9.40625,10.5625 8,10.5625 Z" id="Shape"></path>
            <circle id="Oval" cx="12" cy="4" r="1"></circle>
            <path d="M14.7096774,1.32258065 C13.8709677,0.451612903 12.6774194,0 11.3225806,0 L4.67741935,0 C1.87096774,0 0,1.87096774 0,4.67741935 L0,11.2903226 C0,12.6774194 0.451612903,13.8709677 1.35483871,14.7419355 C2.22580645,15.5806452 3.38709677,16 4.70967742,16 L11.2903226,16 C12.6774194,16 13.8387097,15.5483871 14.6774194,14.7419355 C15.5483871,13.9032258 16,12.7096774 16,11.3225806 L16,4.67741935 C16,3.32258065 15.5483871,2.16129032 14.7096774,1.32258065 Z M14.5806452,11.3225806 C14.5806452,12.3225806 14.2258065,13.1290323 13.6451613,13.6774194 C13.0645161,14.2258065 12.2580645,14.516129 11.2903226,14.516129 L4.70967742,14.516129 C3.74193548,14.516129 2.93548387,14.2258065 2.35483871,13.6774194 C1.77419355,13.0967742 1.48387097,12.2903226 1.48387097,11.2903226 L1.48387097,4.67741935 C1.48387097,3.70967742 1.77419355,2.90322581 2.35483871,2.32258065 C2.90322581,1.77419355 3.74193548,1.48387097 4.70967742,1.48387097 L11.3548387,1.48387097 C12.3225806,1.48387097 13.1290323,1.77419355 13.7096774,2.35483871 C14.2580645,2.93548387 14.5806452,3.74193548 14.5806452,4.67741935 L14.5806452,11.3225806 L14.5806452,11.3225806 Z" id="Shape"></path>
        </g>
    </g>
</svg>