<?xml version="1.0" encoding="UTF-8"?>
<svg width="146px" height="32px" viewBox="0 0 146 32" version="1.1" xmlns="http://www.w3.org/2000/svg" xmlns:xlink="http://www.w3.org/1999/xlink">
    <!-- Generator: Sketch 48.1 (47250) - http://www.bohemiancoding.com/sketch -->
    <title>logtype</title>
    <desc>Created with Sketch.</desc>
    <defs></defs>
    <g id="Small_UI_Kit" stroke="none" stroke-width="1" fill="none" fill-rule="evenodd" transform="translate(-639.000000, -24.000000)">
        <g id="Header-Desktop">
            <g id="Top-Header" transform="translate(152.000000, 16.000000)">
                <g id="Logo" transform="translate(480.000000, 0.000000)">
                    <g id="logtype" transform="translate(7.000000, 8.000000)">
                        <path d="M16.0000989,0 C20.2579601,0 24.3032644,1.67612457 27.3136636,4.68650519 C30.3238651,7.69688581 32,11.7421651 32,15.9998023 C32,20.2578349 30.3238651,24.3033119 27.3136636,27.3136925 C24.3032644,30.3238754 20.2579601,32 16.0000989,32 C11.7420399,32 7.69673564,30.3238754 4.68653415,27.3136925 C1.67613492,24.3033119 0,20.2578349 0,15.9998023 C0,11.7421651 1.67613492,7.69688581 4.68653415,4.68650519 C7.69673564,1.67612457 11.7422377,0 16.0000989,0 Z M25.5360945,6.46386555 C22.9986592,3.92644587 19.5892461,2.51389026 16.0000989,2.51389026 C12.4109516,2.51389026 9.00134084,3.92644587 6.46390549,6.46386555 C3.92647013,9.00128522 2.51410352,12.4108749 2.51410352,15.9998023 C2.51410352,19.5889273 3.92647013,22.9987148 6.46390549,25.5361345 C9.00134084,28.0735541 12.4111494,29.4857143 16.0000989,29.4857143 C19.5890484,29.4857143 22.9986592,28.0733564 25.5360945,25.5361345 C28.0735299,22.9985171 29.4860942,19.5891251 29.4860942,15.9998023 C29.4860942,12.4108749 28.0735299,9.00128522 25.5360945,6.46386555 Z M20.4179215,16.3606525 C19.1746118,17.3931784 17.6210679,17.9594661 16.0000989,17.9594661 C14.3791299,17.9594661 12.8253882,17.3931784 11.5822762,16.3606525 L11.5822762,21.8550667 L9.06817269,21.8550667 L9.06817269,10.1447355 L11.5822762,10.1447355 L11.5822762,11.0277805 C11.5822762,12.2026693 12.0510878,13.3172516 12.8807519,14.1467128 C13.7104159,14.9763717 14.8254006,15.4455759 16.0000989,15.4455759 C17.1745994,15.4455759 18.2895841,14.9767672 19.1192481,14.1467128 C19.9489122,13.3172516 20.4179215,12.2026693 20.4179215,11.0277805 L20.4179215,10.1447355 L22.9318273,10.1447355 L22.9318273,21.8550667 L20.4179215,21.8550667 L20.4179215,16.3606525 Z" id="Fill-6" fill="#0066FF"></path>
                        <path d="M40,23.6737601 L43.3200273,23.6737601 L43.3200273,15.6031514 C43.3200273,13.3748026 44.5821944,12.016044 46.4204464,12.016044 C48.2588917,12.016044 49.3563527,13.2662474 49.3563527,15.4945962 L49.3563527,23.6737601 L52.6763799,23.6737601 L52.6763799,15.5759647 C52.6763799,13.2662474 53.9659981,12.016044 55.776799,12.016044 C57.6426954,12.016044 58.7127053,13.2390607 58.7127053,15.5217828 L58.7127053,23.6737601 L62.0327326,23.6737601 L62.0327326,14.5162593 C62.0327326,11.0107119 60.1121275,9.02704307 56.9566131,9.02704307 C54.7614978,9.02704307 53.2252071,10.0323751 52.045393,11.5540622 C51.277151,10.0323751 49.8228267,9.02704307 47.7375155,9.02704307 C45.5151426,9.02704307 44.2527821,10.2228732 43.3200273,11.4996889 L43.3200273,9.32590487 L40,9.32590487 L40,23.6737601 Z M64.5110574,7.12493419 L68.0779505,7.12493419 L68.0779505,4 L64.5110574,4 L64.5110574,7.12493419 Z M64.6481192,23.6737601 L67.9683398,23.6737601 L67.9683398,9.32590487 L64.6481192,9.32590487 L64.6481192,23.6737601 Z M70.6933371,23.6737601 L74.0133644,23.6737601 L74.0133644,15.5759647 C74.0133644,13.3478074 75.3578846,12.016044 77.2784896,12.016044 C79.2541901,12.016044 80.3791021,13.293434 80.3791021,15.5217828 L80.3791021,23.6737601 L83.6991293,23.6737601 L83.6991293,14.543446 C83.6991293,11.2010185 81.805782,9.02704307 78.5406568,9.02704307 C76.2908328,9.02704307 74.9463126,10.1954951 74.0133644,11.5540622 L74.0133644,9.32590487 L70.6933371,9.32590487 L70.6933371,23.6737601 Z M92.7349623,24 C95.3963583,24 97.2897057,22.9402946 98.6616769,21.3096695 L96.7134275,19.5976757 C95.5610645,20.7117544 94.4087015,21.3096695 92.7898643,21.3096695 C90.6496511,21.3096695 88.975912,20.0054756 88.619242,17.6683802 L99.2652128,17.6683802 C99.2926638,17.5054517 99.3201148,16.96191 99.3201148,16.7444167 C99.3201148,12.6141505 96.9879377,9.02704307 92.3782923,9.02704307 C88.235121,9.02704307 85.2992147,12.3966572 85.2992147,16.4999282 C85.2992147,20.983621 88.5368889,24 92.7349623,24 Z M88.591791,15.4945962 C88.8935589,13.2662474 90.3204322,11.7173736 92.3508413,11.7173736 C94.5459566,11.7173736 95.8081237,13.3748026 96.0275386,15.4945962 L88.591791,15.4945962 Z M106.051222,23.9726219 C108.301046,23.9726219 109.645566,22.8043614 110.578514,21.4456027 L110.578514,23.6737601 L113.898541,23.6737601 L113.898541,9.32590487 L110.578514,9.32590487 L110.578514,17.4238917 C110.578514,19.6520491 109.233994,20.983621 107.313389,20.983621 C105.337688,20.983621 104.212776,19.7064224 104.212776,17.4780736 L104.212776,9.32590487 L100.892749,9.32590487 L100.892749,18.4564104 C100.892749,21.7988379 102.786096,23.9726219 106.051222,23.9726219 Z M116.459026,23.6737601 L119.779053,23.6737601 L119.779053,15.5759647 C119.779053,13.3478074 121.12338,12.016044 123.044178,12.016044 C125.019686,12.016044 126.144598,13.293434 126.144598,15.5217828 L126.144598,23.6737601 L129.464625,23.6737601 L129.464625,14.543446 C129.464625,11.2010185 127.571471,9.02704307 124.306346,9.02704307 C122.056328,9.02704307 120.711808,10.1954951 119.779053,11.5540622 L119.779053,9.32590487 L116.459026,9.32590487 L116.459026,23.6737601 Z M131.915499,7.12493419 L135.482392,7.12493419 L135.482392,4 L131.915499,4 L131.915499,7.12493419 Z M132.052754,23.6737601 L135.372781,23.6737601 L135.372781,9.32590487 L132.052754,9.32590487 L132.052754,23.6737601 Z M142.954483,23.91844 C144.189006,23.91844 145.121954,23.6465734 145.945098,23.1845917 L145.945098,20.4944526 C145.28666,20.8206925 144.628029,20.983621 143.887238,20.983621 C142.762326,20.983621 142.103695,20.4672659 142.103695,19.1900673 L142.103695,12.1521687 L146,12.1521687 L146,9.32590487 L142.103695,9.32590487 L142.103695,5.38575381 L138.783667,5.38575381 L138.783667,9.32590487 L136.945415,9.32590487 L136.945415,12.1521687 L138.783667,12.1521687 L138.783667,19.7064224 C138.783667,22.8587347 140.512308,23.91844 142.954483,23.91844 Z" id="Fill-7" fill="#13293D"></path>
                    </g>
                </g>
            </g>
        </g>
    </g>
</svg>