<?xml version="1.0" encoding="UTF-8"?>
<svg width="32px" height="32px" viewBox="0 0 32 32" version="1.1" xmlns="http://www.w3.org/2000/svg" xmlns:xlink="http://www.w3.org/1999/xlink">
    <!-- Generator: Sketch 46.1 (44463) - http://www.bohemiancoding.com/sketch -->
    <title>logtype</title>
    <desc>Created with Sketch.</desc>
    <defs></defs>
    <g id="Personal-Dashboard" stroke="none" stroke-width="1" fill="none" fill-rule="evenodd">
        <g id="Support" transform="translate(-167.000000, -24.000000)" fill="#FFFFFF">
            <g id="Top-Header" transform="translate(159.000000, 16.000000)">
                <g id="Logo">
                    <g id="logtype" transform="translate(8.000000, 8.000000)">
                        <path d="M16.0000989,0 C20.2579601,0 24.3032644,1.67612457 27.3136636,4.68650519 C30.3238651,7.69688581 32,11.7421651 32,15.9998023 C32,20.2578349 30.3238651,24.3033119 27.3136636,27.3136925 C24.3032644,30.3238754 20.2579601,32 16.0000989,32 C11.7420399,32 7.69673564,30.3238754 4.68653415,27.3136925 C1.67613492,24.3033119 0,20.2578349 0,15.9998023 C0,11.7421651 1.67613492,7.69688581 4.68653415,4.68650519 C7.69673564,1.67612457 11.7422377,0 16.0000989,0 Z M25.5360945,6.46386555 C22.9986592,3.92644587 19.5892461,2.51389026 16.0000989,2.51389026 C12.4109516,2.51389026 9.00134084,3.92644587 6.46390549,6.46386555 C3.92647013,9.00128522 2.51410352,12.4108749 2.51410352,15.9998023 C2.51410352,19.5889273 3.92647013,22.9987148 6.46390549,25.5361345 C9.00134084,28.0735541 12.4111494,29.4857143 16.0000989,29.4857143 C19.5890484,29.4857143 22.9986592,28.0733564 25.5360945,25.5361345 C28.0735299,22.9985171 29.4860942,19.5891251 29.4860942,15.9998023 C29.4860942,12.4108749 28.0735299,9.00128522 25.5360945,6.46386555 Z M20.4179215,16.3606525 C19.1746118,17.3931784 17.6210679,17.9594661 16.0000989,17.9594661 C14.3791299,17.9594661 12.8253882,17.3931784 11.5822762,16.3606525 L11.5822762,21.8550667 L9.06817269,21.8550667 L9.06817269,10.1447355 L11.5822762,10.1447355 L11.5822762,11.0277805 C11.5822762,12.2026693 12.0510878,13.3172516 12.8807519,14.1467128 C13.7104159,14.9763717 14.8254006,15.4455759 16.0000989,15.4455759 C17.1745994,15.4455759 18.2895841,14.9767672 19.1192481,14.1467128 C19.9489122,13.3172516 20.4179215,12.2026693 20.4179215,11.0277805 L20.4179215,10.1447355 L22.9318273,10.1447355 L22.9318273,21.8550667 L20.4179215,21.8550667 L20.4179215,16.3606525 L20.4179215,16.3606525 Z" id="Fill-6"></path>
                    </g>
                </g>
            </g>
        </g>
    </g>
</svg>