<?xml version="1.0" encoding="UTF-8"?>
<svg width="16px" height="16px" viewBox="0 0 16 16" version="1.1" xmlns="http://www.w3.org/2000/svg" xmlns:xlink="http://www.w3.org/1999/xlink">
    <!-- Generator: Sketch 49.2 (51160) - http://www.bohemiancoding.com/sketch -->
    <title>ic_settings</title>
    <desc>Created with Sketch.</desc>
    <defs></defs>
    <g id="Visual-Design_1440" stroke="none" stroke-width="1" fill="none" fill-rule="evenodd">
        <g id="My_Mineunit_1440" transform="translate(-448.000000, -144.000000)">
            <g id="Sidebar" transform="translate(160.000000, 128.000000)">
                <g id="Perosnal-Profile">
                    <g id="ic_settings" transform="translate(288.000000, 16.000000)">
                        <rect id="bg" x="0" y="0" width="16" height="16"></rect>
                        <path d="M8,9.33333333 C7.26466667,9.33333333 6.66666667,8.73533333 6.66666667,8 C6.66666667,7.26466667 7.26466667,6.66666667 8,6.66666667 C8.73533333,6.66666667 9.33333333,7.26466667 9.33333333,8 C9.33333333,8.73533333 8.73533333,9.33333333 8,9.33333333 Z M8,5.33333333 C6.52933333,5.33333333 5.33333333,6.52933333 5.33333333,8 C5.33333333,9.47066667 6.52933333,10.6666667 8,10.6666667 C9.47066667,10.6666667 10.6666667,9.47066667 10.6666667,8 C10.6666667,6.52933333 9.47066667,5.33333333 8,5.33333333 Z M13.1586667,8.66666667 C12.8546667,8.66666667 12.59,8.87266667 12.514,9.16666667 C12.404,9.58933333 12.2366667,9.99266667 12.016,10.366 C11.862,10.6273333 11.904,10.9613333 12.1193333,11.1766667 L12.7133333,11.7713333 C12.9733333,12.0313333 12.9733333,12.4546667 12.714,12.7133333 C12.4553333,12.974 12.0306667,12.9733333 11.7713333,12.714 L11.1766667,12.1193333 C10.962,11.9046667 10.6286667,11.8633333 10.3666667,12.016 C9.992,12.2366667 9.58866667,12.404 9.16666667,12.514 C8.87266667,12.59 8.66666667,12.8546667 8.66666667,13.1586667 L8.66666667,14 C8.66666667,14.368 8.368,14.6666667 8,14.6666667 C7.632,14.6666667 7.33333333,14.368 7.33333333,14 L7.33333333,13.1586667 C7.33333333,12.8546667 7.12733333,12.59 6.83333333,12.514 C6.41066667,12.404 6.00733333,12.2366667 5.634,12.016 C5.52866667,11.9546667 5.41133333,11.924 5.29466667,11.924 C5.12266667,11.924 4.952,11.9906667 4.82333333,12.1193333 L4.22866667,12.7133333 C3.96933333,12.974 3.54533333,12.9733333 3.28666667,12.714 C3.02666667,12.4546667 3.02666667,12.0313333 3.286,11.7713333 L3.88066667,11.1766667 C4.096,10.9613333 4.138,10.628 3.984,10.3666667 C3.76333333,9.992 3.596,9.58866667 3.486,9.16666667 C3.41,8.87266667 3.14533333,8.66666667 2.84133333,8.66666667 L2,8.66666667 C1.632,8.66666667 1.33333333,8.368 1.33333333,8 C1.33333333,7.632 1.632,7.33333333 2,7.33333333 L2.84133333,7.33333333 C3.14533333,7.33333333 3.41,7.12733333 3.486,6.83333333 C3.596,6.41133333 3.76333333,6.008 3.984,5.63333333 C4.138,5.372 4.096,5.03866667 3.88066667,4.82333333 L3.28666667,4.22866667 C3.02666667,3.96866667 3.02666667,3.54533333 3.286,3.28666667 C3.54466667,3.026 3.96933333,3.02666667 4.22866667,3.286 L4.82333333,3.88066667 C5.03933333,4.096 5.37266667,4.13733333 5.63333333,3.984 C6.008,3.76333333 6.41133333,3.596 6.83333333,3.486 C7.12733333,3.41 7.33333333,3.14533333 7.33333333,2.84133333 L7.33333333,2 C7.33333333,1.632 7.632,1.33333333 8,1.33333333 C8.368,1.33333333 8.66666667,1.632 8.66666667,2 L8.66666667,2.84133333 C8.66666667,3.14533333 8.87266667,3.41 9.16666667,3.486 C9.58866667,3.596 9.992,3.76333333 10.3666667,3.984 C10.6286667,4.13733333 10.962,4.096 11.1766667,3.88066667 L11.7713333,3.28666667 C12.0306667,3.026 12.4546667,3.02666667 12.7133333,3.286 C12.9733333,3.54533333 12.9733333,3.96866667 12.714,4.22866667 L12.1193333,4.82333333 C11.904,5.03866667 11.862,5.372 12.016,5.63333333 C12.2366667,6.008 12.404,6.41133333 12.514,6.83333333 C12.59,7.12733333 12.8546667,7.33333333 13.1586667,7.33333333 L14,7.33333333 C14.368,7.33333333 14.6666667,7.632 14.6666667,8 C14.6666667,8.368 14.368,8.66666667 14,8.66666667 L13.1586667,8.66666667 Z M14,10 C15.1026667,10 16,9.10266667 16,8 C16,6.89733333 15.1026667,6 14,6 L13.652,6 C13.5813333,5.80133333 13.5006667,5.60733333 13.41,5.418 L13.6573333,5.17133333 C14.4353333,4.39133333 14.4353333,3.12333333 13.6566667,2.34266667 C12.8773333,1.56466667 11.6093333,1.564 10.8286667,2.34333333 L10.582,2.59 C10.3926667,2.49933333 10.1986667,2.41866667 10,2.348 L10,2 C10,0.897333333 9.10266667,0 8,0 C6.89733333,0 6,0.897333333 6,2 L6,2.348 C5.80133333,2.41866667 5.60733333,2.49933333 5.418,2.59 L5.17133333,2.34266667 C4.39133333,1.566 3.124,1.564 2.34266667,2.34333333 C1.56466667,3.12333333 1.56466667,4.39133333 2.34333333,5.17133333 L2.59,5.418 C2.49933333,5.60733333 2.41866667,5.80133333 2.348,6 L2,6 C0.897333333,6 0,6.89733333 0,8 C0,9.10266667 0.897333333,10 2,10 L2.348,10 C2.41866667,10.1986667 2.49933333,10.3926667 2.59,10.582 L2.34266667,10.8286667 C1.56466667,11.6086667 1.56466667,12.8766667 2.34333333,13.6573333 C3.12333333,14.436 4.39133333,14.4353333 5.17133333,13.6566667 L5.418,13.4106667 C5.60733333,13.5013333 5.80133333,13.5813333 6,13.652 L6,14 C6,15.1026667 6.89733333,16 8,16 C9.10266667,16 10,15.1026667 10,14 L10,13.652 C10.1986667,13.5813333 10.3926667,13.5006667 10.582,13.41 L10.8286667,13.6573333 C11.608,14.4346667 12.8753333,14.4353333 13.6573333,13.6566667 C14.4353333,12.8766667 14.4353333,11.6086667 13.6566667,10.8286667 L13.4106667,10.582 C13.5013333,10.3926667 13.5813333,10.1986667 13.652,10 L14,10 Z" id="Page-1" fill="#939DA6" fill-rule="nonzero"></path>
                    </g>
                </g>
            </g>
        </g>
    </g>
</svg>