<?xml version="1.0" encoding="UTF-8"?>
<svg width="22px" height="18px" viewBox="0 0 22 18" version="1.1" xmlns="http://www.w3.org/2000/svg" xmlns:xlink="http://www.w3.org/1999/xlink">
    <!-- Generator: Sketch 49.2 (51160) - http://www.bohemiancoding.com/sketch -->
    <title>Combined Shape</title>
    <desc>Created with Sketch.</desc>
    <defs></defs>
    <g id="Website" stroke="none" stroke-width="1" fill="none" fill-rule="evenodd">
        <g id="Mineunit_Academy_Course_Details_768" transform="translate(-709.000000, -2599.000000)" fill="#FFFFFF">
            <g id="FAB" transform="translate(688.000000, 2576.000000)">
                <path d="M28.285,23.9 L41.875,23.9 C42.4963203,23.9 43,24.4036797 43,25.025 C43,25.6463203 42.4963203,26.15 41.875,26.15 L28.285,26.15 C27.6636797,26.15 27.16,25.6463203 27.16,25.025 C27.16,24.4036797 27.6636797,23.9 28.285,23.9 Z M22.76,26.6 C21.7879788,26.6 21,25.7941125 21,24.8 C21,23.8058875 21.7879788,23 22.76,23 C23.7320212,23 24.52,23.8058875 24.52,24.8 C24.52,25.7941125 23.7320212,26.6 22.76,26.6 Z M28.285,31.1 L41.875,31.1 C42.4963203,31.1 43,31.6036797 43,32.225 C43,32.8463203 42.4963203,33.35 41.875,33.35 L28.285,33.35 C27.6636797,33.35 27.16,32.8463203 27.16,32.225 C27.16,31.6036797 27.6636797,31.1 28.285,31.1 Z M22.76,33.8 C21.7879788,33.8 21,32.9941125 21,32 C21,31.0058875 21.7879788,30.2 22.76,30.2 C23.7320212,30.2 24.52,31.0058875 24.52,32 C24.52,32.9941125 23.7320212,33.8 22.76,33.8 Z M28.285,38.3 L41.875,38.3 C42.4963203,38.3 43,38.8036797 43,39.425 C43,40.0463203 42.4963203,40.55 41.875,40.55 L28.285,40.55 C27.6636797,40.55 27.16,40.0463203 27.16,39.425 C27.16,38.8036797 27.6636797,38.3 28.285,38.3 Z M22.76,41 C21.7879788,41 21,40.1941125 21,39.2 C21,38.2058875 21.7879788,37.4 22.76,37.4 C23.7320212,37.4 24.52,38.2058875 24.52,39.2 C24.52,40.1941125 23.7320212,41 22.76,41 Z" id="Combined-Shape"></path>
            </g>
        </g>
    </g>
</svg>